<svg width="50" height="50" viewBox="0 0 50 50" fill="none" xmlns="http://www.w3.org/2000/svg">
<circle cx="25" cy="25" r="25" fill="white"/>
<path d="M20.252 15.1562L20.6328 14.843L20.677 14.9023L20.2942 15.212L20.252 15.1562Z" fill="#B52A4D"/>
<path d="M26.7836 15.2836L26.8498 15.1788L27.4446 15.1305C27.4228 15.0084 27.4122 14.9492 27.403 14.8967L27.5305 14.7932C27.482 14.7268 27.4257 14.6672 27.3626 14.6159C27.3375 14.6069 27.3105 14.6045 27.2842 14.6088C27.2579 14.6131 27.2332 14.6242 27.2119 14.6408C27.0949 14.7505 26.9905 14.8746 26.8814 14.9932L26.8108 14.9643L26.8404 14.5911L26.672 14.7112C26.6436 14.6422 26.6131 14.5774 26.5906 14.5098C26.5814 14.4829 26.5787 14.4345 26.5906 14.4207C26.7308 14.2938 26.6526 14.1744 26.5845 14.0544L27.1842 13.8758C26.816 13.7026 26.6878 13.7524 26.5894 14.058L26.3941 14.1422C26.2513 14.2042 26.243 14.316 26.3283 14.4594C26.4089 14.5919 26.3056 14.6663 26.2005 14.7208C26.1278 14.7601 26.059 14.807 25.9797 14.8587C25.8971 14.7042 25.7154 14.7208 25.5482 14.7208C25.4595 14.7341 25.3694 14.7118 25.2958 14.6585C25.2222 14.6051 25.1706 14.5245 25.1516 14.4331L24.8488 14.4891L24.9812 14.5276C24.9038 14.6049 24.8172 14.6897 24.7346 14.7711C24.7293 14.5897 24.6089 14.5683 24.4357 14.6063C24.3451 14.6116 24.2545 14.6031 24.1663 14.5808L24.1608 14.529L24.3889 14.4387C24.2413 14.3644 24.0895 14.2997 23.9342 14.2449C23.7938 14.2157 23.6515 14.1974 23.5085 14.1903L23.5318 14.091C23.521 14.0866 23.5094 14.0843 23.4979 14.0841L22.8672 14.2221C22.8415 14.2284 22.8086 14.222 22.7895 14.2344C22.6467 14.3379 22.5251 14.2442 22.3883 14.2146C22.1616 14.1326 21.9153 14.1308 21.6877 14.2097C21.6752 14.2145 21.6618 14.2165 21.6486 14.2156C21.6354 14.2146 21.6225 14.2107 21.6108 14.2041C23.4587 13.1161 25.6171 12.7494 27.7002 13.1695L27.6073 13.3143C27.6414 13.3425 27.6797 13.3644 27.7209 13.3791C27.809 13.3854 27.8963 13.4012 27.9813 13.4261L27.6218 13.5585C27.7308 13.5957 27.8141 13.6275 27.898 13.6516C28.0134 13.6921 28.1309 13.7251 28.2502 13.7503C28.287 13.7633 28.3268 13.7653 28.3647 13.7562C28.4027 13.7471 28.4374 13.7271 28.4651 13.6986C28.6023 13.6144 28.7631 13.582 28.9205 13.6068C29.1067 13.6305 29.2908 13.6696 29.4711 13.724L29.4591 13.7931L28.9963 13.7013C29.0465 13.9931 29.2397 14.0649 29.4717 14.1214C29.6394 14.1675 29.7859 14.2739 29.8855 14.422C29.985 14.5701 30.0311 14.7502 30.0155 14.9304L30.2905 15.0897L30.2695 15.1429H30.1094C30.2066 15.2188 30.333 15.2671 30.3521 15.3437C30.3753 15.4375 30.3079 15.5553 30.2814 15.6574C30.2723 15.6395 30.2582 15.625 30.2411 15.6155C30.2061 15.5968 30.142 15.5698 30.1275 15.585C30.0416 15.6781 30.1625 16.1307 30.2821 16.1825C30.2933 16.1873 30.307 16.1866 30.2905 16.1825C30.2568 16.4811 30.4471 16.6735 30.58 16.8976L30.7255 16.8645L30.8724 17.077L30.9382 17.0915L31.0705 16.7466C31.0979 16.6884 31.12 16.6277 31.1367 16.5652C31.1797 16.3211 31.3351 16.2804 31.5333 16.3142C31.5497 16.3163 31.5662 16.3144 31.5817 16.3088C31.5973 16.3031 31.6115 16.2939 31.6231 16.2816C31.7407 16.0747 31.9173 16.1561 32.0859 16.1658C32.117 16.1695 32.1485 16.1666 32.1785 16.1572C32.2085 16.1478 32.2361 16.1323 32.2601 16.1114C32.2853 16.0762 32.2509 15.9899 32.233 15.9292C32.1887 15.7837 32.1393 15.6403 32.0884 15.4858C33.1831 16.4892 34.004 17.7767 34.468 19.218C34.421 19.287 34.3627 19.3387 34.3521 19.398C34.3118 19.6291 34.2617 19.7133 34.0971 19.7547C34.1671 19.8535 34.2275 19.9594 34.2776 20.0706C34.3102 20.1977 34.3308 20.3277 34.3395 20.4589C34.2562 20.441 34.1994 20.4341 34.1465 20.4161C33.9383 20.3472 33.9331 20.3513 33.9516 20.5685C33.9622 20.6913 33.9516 20.8162 33.9516 20.9397C33.9494 21.035 33.9719 21.1291 34.0165 21.2123C34.061 21.2955 34.1261 21.3647 34.2049 21.4127C34.4138 21.3838 34.4819 21.2631 34.4509 21.021C34.4616 20.8665 34.4992 20.7153 34.5619 20.5748L34.7133 20.5285C34.9455 21.0088 35.0396 21.549 34.9847 22.084C34.9483 21.9384 34.9133 21.7928 34.8743 21.648C34.8551 21.579 34.8347 21.459 34.8043 21.4548C34.7049 21.4313 34.6009 21.4465 34.5115 21.4976C34.4745 21.5434 34.4216 21.5721 34.3644 21.5774C34.3072 21.5827 34.2504 21.5642 34.2062 21.5259C34.1136 21.68 34.042 21.847 33.9939 22.0218C33.9629 22.2342 33.8755 22.4333 33.7415 22.5964C33.5975 22.8197 33.4888 23.0657 33.4191 23.3249C33.3874 23.4173 33.4408 23.5373 33.4362 23.6435C33.4385 23.7876 33.42 23.9313 33.3813 24.0697C33.3392 24.1797 33.3248 24.2992 33.3397 24.4166C33.3546 24.534 33.3983 24.6456 33.4665 24.7403C33.569 24.9017 33.6418 25.0851 33.7376 25.25C33.7918 25.3445 33.8584 25.374 33.9668 25.2906C34.1316 25.1751 34.3024 25.0688 34.478 24.972C34.663 25.0872 34.5619 25.2665 34.5215 25.4403C34.186 26.698 33.5549 27.8486 32.6858 28.7877C31.655 29.988 30.3413 30.8858 28.875 31.3921C28.5445 31.5108 28.1946 31.5922 27.8509 31.6764C27.7371 31.6909 27.622 31.6924 27.5079 31.6806L27.5027 31.6205L27.7267 31.4736L27.5734 31.399C27.7095 31.3142 27.9039 31.2763 27.7903 31.0439C27.9324 31.0377 28.0791 31.0693 28.1207 30.881C28.1254 30.8597 28.1866 30.8515 28.2256 30.8411C28.3107 30.8259 28.3946 30.8027 28.4757 30.7721C28.5418 30.739 28.6296 30.6845 28.6474 30.621C28.6613 30.5714 28.5813 30.4935 28.5522 30.4397C28.6744 30.4697 28.803 30.4557 28.9166 30.3999C29.0302 30.3442 29.1225 30.25 29.1783 30.1327C29.2444 30.0072 29.4004 29.9348 29.4956 29.821C29.542 29.7393 29.5806 29.6531 29.6111 29.5637C29.6407 29.4944 29.6862 29.4337 29.7434 29.387C29.9305 29.2718 30.1399 29.1905 30.3144 29.0622C30.4545 28.9639 30.5719 28.8343 30.6581 28.6828C30.748 28.5131 30.7591 28.2993 30.8417 28.1227C30.93 27.9508 31.0353 27.789 31.1557 27.6399C31.2912 27.4592 31.4683 27.2998 31.3639 27.0667C31.2647 27.0008 31.162 26.9413 31.056 26.8882C30.9582 26.8377 30.8511 26.8096 30.742 26.806C30.5429 26.7929 30.3475 26.7432 30.1649 26.6592C30.0813 26.6468 29.9965 26.6455 29.9126 26.6556C29.8967 26.5356 29.8465 26.5308 29.5663 26.677C29.5663 26.6439 29.5595 26.6122 29.5714 26.5963C29.6309 26.517 29.7559 26.4335 29.7467 26.368C29.7118 26.237 29.6543 26.1139 29.5769 26.0046C29.5266 25.9188 29.4517 25.8514 29.3629 25.8121C29.2742 25.7728 29.176 25.7633 29.0818 25.7852C29.0036 25.7907 28.9252 25.7762 28.8537 25.7427C28.7821 25.7093 28.7194 25.658 28.6713 25.5934C28.5396 25.4741 28.3986 25.3661 28.2502 25.2705C28.1986 25.2319 28.1505 25.1885 28.1182 25.1616L27.4875 25.1975C27.4743 25.1975 27.4524 25.2044 27.4491 25.1975C27.4288 25.1484 27.3933 25.1082 27.3481 25.0831C27.3029 25.058 27.2509 25.0497 27.2006 25.0595C27.1054 25.0782 27.0123 25.1065 26.8663 25.1444L27.0025 24.896C26.6568 25.0712 26.295 25.1319 26.1708 25.5506C26.1176 25.4559 26.0305 25.3873 25.9287 25.3596C25.827 25.3319 25.719 25.3476 25.6283 25.4031C25.4452 25.4983 25.1654 25.1961 25.209 24.9753C25.2203 24.9209 25.2449 24.8698 25.2561 24.816C25.3222 24.476 25.1966 24.3429 24.8595 24.3905C24.7494 24.3979 24.6391 24.3979 24.529 24.3905L24.8669 23.4773C24.7484 23.5006 24.6282 23.5149 24.5077 23.5201C24.3359 23.5145 24.3558 23.658 24.3096 23.756C24.2693 23.8328 24.2222 23.9056 24.1688 23.9732C24.1099 23.9694 24.0506 23.9694 23.9917 23.9732C23.9257 23.9932 23.8563 23.998 23.7883 23.9874C23.7204 23.9767 23.6554 23.9509 23.5979 23.9116C23.5405 23.8723 23.4917 23.8203 23.4553 23.7595C23.4188 23.6987 23.3956 23.6304 23.3869 23.5593C23.3787 23.3156 23.3969 23.0718 23.4411 22.8323C23.445 22.7854 23.453 22.7378 23.4543 22.6909C23.4474 22.5972 23.4694 22.5037 23.5169 22.424C23.5645 22.3442 23.6351 22.2824 23.7186 22.2475C23.8734 22.1526 24.0528 22.111 24.2315 22.1288C24.337 22.1522 24.44 22.1875 24.5384 22.2337C24.5656 22.1771 24.6039 22.1269 24.6507 22.0867C24.6975 22.0464 24.7517 22.0168 24.8101 21.9998C24.8685 21.9827 24.9298 21.9784 24.9899 21.9875C25.0499 21.9965 25.1076 22.0185 25.159 22.0521C25.1887 22.0714 25.2249 22.1039 25.2513 22.1018C25.4377 22.0894 25.512 22.1708 25.5159 22.3729C25.5169 22.4746 25.538 22.5749 25.5779 22.6676C25.6178 22.7603 25.6758 22.8434 25.748 22.9116C25.9542 22.7185 25.814 22.5171 25.8067 22.3288C25.7991 22.2457 25.7843 22.1636 25.7625 22.0833C25.7409 21.9955 25.7498 21.9025 25.788 21.8211C25.8262 21.7397 25.891 21.6751 25.9707 21.6391C26.167 21.5184 26.3527 21.3798 26.5258 21.2251C26.5866 21.1348 26.6196 21.0272 26.6203 20.9168C26.6185 20.823 26.6267 20.7295 26.6449 20.6376L26.7365 20.7755C26.7689 20.6727 26.7961 20.5844 26.8298 20.4774C26.8549 20.4588 26.9428 20.4286 26.9534 20.3796C27.0023 20.1527 27.1641 20.1132 27.3446 20.076C27.4259 20.0594 27.5192 20.047 27.5027 19.8884C27.4941 19.807 27.5991 19.6719 27.685 19.6277C27.9005 19.516 28.1345 19.4429 28.3863 19.3443C28.3275 19.4988 28.0287 19.4774 28.1966 19.7037L28.822 19.4042C28.7321 19.387 28.6846 19.3829 28.6397 19.3684C28.4784 19.3146 28.3434 19.2386 28.3876 19.0186C28.3916 18.9959 28.3545 18.9642 28.3347 18.9346L28.489 18.8442C28.333 18.6283 28.0975 18.68 27.6718 18.9731C27.8648 18.8207 28.0545 18.6648 28.2521 18.52C28.3042 18.4928 28.3634 18.4833 28.4209 18.493C28.6046 18.5075 28.7877 18.5399 28.9708 18.5441C29.0509 18.534 29.1283 18.5083 29.1993 18.4683C29.2462 18.4483 29.2892 18.4171 29.3355 18.3937C29.4161 18.353 29.5424 18.3331 29.5682 18.2689C29.5828 18.2412 29.5918 18.2106 29.5943 18.1792C29.5969 18.1477 29.593 18.116 29.583 18.0862C29.5731 18.0564 29.5576 18.0289 29.5369 18.0059C29.5162 17.9828 29.4909 17.9646 29.463 17.9523C29.3896 17.9247 29.2911 17.9715 29.2032 17.9847C29.1886 17.9886 29.1736 17.9888 29.159 17.9852C29.1444 17.9816 29.1306 17.9742 29.1193 17.9639L29.3991 17.8454L28.9853 17.4742C29.1037 17.1356 28.8199 16.9114 28.8304 16.639L28.4009 17.0287C28.2601 16.8438 28.177 16.6928 28.2689 16.5017C28.2689 16.4962 28.2728 16.4845 28.2689 16.4817C28.1307 16.352 27.9944 16.2197 27.8503 16.0969C27.8199 16.0714 27.7606 16.0866 27.7183 16.0755C27.4261 16.0017 27.3825 16.0009 27.3878 16.2948C27.3892 16.3768 27.3705 16.4578 27.3336 16.5302C27.2967 16.6026 27.2427 16.6641 27.1767 16.7087C27.4087 17.1529 27.3314 17.319 26.8185 17.4825V17.9655C26.8185 18.1069 26.7055 18.113 26.6249 18.1488C26.342 17.9302 26.4332 17.6578 26.5145 17.4129C26.3512 17.3364 26.1981 17.2749 26.052 17.1928C25.9859 17.1563 25.9461 17.068 25.8806 17.0335C25.7392 16.9597 25.5885 16.9053 25.4259 16.8364C25.4259 16.8095 25.4403 16.7258 25.4436 16.6417C25.4436 16.61 25.4271 16.5501 25.4165 16.5494C25.1462 16.5363 25.3428 16.3425 25.3626 16.3121C25.5015 16.0461 25.7287 15.8422 26.0017 15.7389C26.0816 15.712 26.1445 15.601 26.2205 15.5934C26.4377 15.5556 26.6364 15.4423 26.7843 15.2719C26.7308 15.394 26.6765 15.5168 26.6223 15.6402L26.7168 15.7879L26.9579 15.6244L27.2226 15.7672C27.2192 15.6849 27.1871 15.6066 27.1325 15.5471C27.0294 15.4526 26.9608 15.287 26.7836 15.2836ZM29.3526 15.5934L28.8007 15.1318C28.8503 15.0346 28.8882 14.9601 28.9292 14.8808L28.7062 14.8484L28.8575 14.7863C28.7906 14.7494 28.7263 14.7075 28.6652 14.6608C28.5121 14.5604 28.3761 14.434 28.2627 14.287C28.2489 14.2628 28.1795 14.2655 28.1359 14.2676C28.0606 14.2718 27.9857 14.2849 27.9084 14.2939C27.9209 14.1766 27.9291 14.1096 27.9397 14.0096C27.8117 14.0056 27.6837 14.0239 27.5614 14.0635C27.4795 14.1084 27.4417 14.2394 27.3849 14.3311C27.2686 14.109 27.487 14.0552 27.594 13.9421C27.2873 13.9076 27.065 14.0275 26.9989 14.2552L27.1545 14.3242L27.149 14.3436L26.9553 14.318C26.9705 14.3669 26.9734 14.4096 26.9873 14.4138C27.257 14.5035 27.5273 14.5905 27.8009 14.6677C27.8227 14.6746 27.867 14.6035 27.8974 14.569L28.3744 15.1933L28.0229 15.503C27.9541 15.5356 27.8775 15.5463 27.8028 15.534C27.738 15.5336 27.6733 15.5405 27.6098 15.5547C27.599 15.5822 27.5957 15.6123 27.6005 15.6416C27.6578 15.6699 27.7201 15.6849 27.7835 15.6857C27.8623 15.6661 27.9456 15.6761 28.0181 15.714C28.0906 15.7518 28.1479 15.815 28.1801 15.8927C28.2846 16.1561 28.5178 16.1976 28.7042 16.3224L28.7407 16.2823L28.5225 15.9831L28.5416 15.9603L28.8682 16.1734C29.0083 15.8871 28.7222 15.7699 28.6739 15.5809L28.8159 15.4733L29.0492 15.8182L29.3526 15.5934ZM25.4304 13.8L25.1338 13.7164C25.0836 13.6323 25.0592 13.5338 25.0063 13.5097C24.6421 13.3614 24.3842 13.6475 24.0901 13.7786C24.0683 13.7882 24.073 13.8642 24.0604 13.9408L24.6274 13.7407L24.6355 13.7592L24.4754 13.8586L24.5871 13.9089L24.3889 13.9925L24.4022 14.0372L24.8285 14.0827L24.8224 14.1428C24.7127 14.1289 24.6023 14.1231 24.4919 14.1255C24.423 14.1441 24.3574 14.1743 24.2976 14.2146L24.4629 14.3427L24.437 14.4808C24.6109 14.4525 24.7677 14.418 24.9237 14.4049C25.0453 14.3945 25.1667 14.3359 25.2923 14.4463C25.3498 14.498 25.4756 14.4677 25.5708 14.4746L25.584 14.4269L25.5211 14.369L25.7909 14.3159L25.6221 14.0787L25.8119 13.7516C25.5535 13.593 25.5477 13.9234 25.3772 13.9827L25.4304 13.8ZM29.106 19.0255C29.2753 19.0648 29.4293 19.1131 29.5866 19.1325C29.6904 19.1449 29.7849 19.1015 29.7777 18.9566C29.7774 18.9217 29.7819 18.8868 29.7909 18.8531L29.4427 18.6635L29.5847 18.4509L29.5146 18.3999L29.106 19.0255ZM26.1191 23.8008L26.5819 23.7484L26.5919 23.689C26.4022 23.591 26.215 23.4821 26.0207 23.3973C25.8852 23.3366 25.7449 23.2888 25.6011 23.2545C25.5339 23.2338 25.4622 23.2349 25.3956 23.2575C25.3289 23.2802 25.2704 23.3232 25.2277 23.3813C25.5852 23.3406 25.9434 23.4482 26.2256 23.6807L26.1191 23.8008ZM26.0365 13.3475L26.1027 13.2998C26.0101 13.3226 25.8769 13.3972 25.8313 13.3593C25.7424 13.2793 25.6346 13.2256 25.5192 13.2038C25.4037 13.1821 25.2848 13.1931 25.1748 13.2357C25.251 13.3473 25.3596 13.4304 25.4846 13.4724C25.6097 13.5144 25.7444 13.5132 25.8687 13.4689C25.9163 13.4544 25.9746 13.484 26.0268 13.4785C26.1075 13.4702 26.1866 13.4489 26.2666 13.433L26.1491 13.5199L26.0365 13.3475ZM27.2013 13.6979C27.516 13.8437 27.8608 13.9045 28.204 13.8751C28.1345 13.7976 28.0408 13.7487 27.9397 13.7372C27.8275 13.7483 27.7145 13.7292 27.6115 13.6816C27.5084 13.634 27.4188 13.5595 27.3513 13.4654L27.2013 13.6979ZM33.819 18.344L33.7693 18.3538C33.871 18.7173 33.9723 19.0814 34.0788 19.4635L34.3073 19.4746C34.1361 19.0766 33.9776 18.7096 33.819 18.3427V18.344ZM26.5774 24.0002C26.8551 24.0864 27.1518 24.0778 27.4246 23.9759L27.4365 23.9146L26.8304 23.7317V23.9808L26.5774 24.0002ZM26.1866 14.1193C26.3849 14.071 26.5927 14.0504 26.5616 13.7545C26.4347 13.6966 26.2972 13.6558 26.2456 13.831H26.0472L26.1266 13.9931C26.149 14.0352 26.1674 14.0793 26.1866 14.1193ZM32.538 16.8308C32.5949 17.135 32.8169 17.2611 33.0205 17.1066C33.0132 17.0513 32.9934 16.9985 32.9631 16.9525C32.9327 16.9066 32.8925 16.8687 32.8456 16.8419C32.7987 16.8151 32.7464 16.8001 32.6929 16.7981C32.6395 16.7962 32.5866 16.8074 32.538 16.8308ZM33.8064 18.7076L33.7099 18.7221V19.2358L33.908 19.1276L33.8064 18.7076ZM25.8371 14.4566L25.8296 14.5504L26.1272 14.6014L26.143 14.4566H25.8371ZM26.944 13.4676L26.9344 13.4061H26.5945C26.6025 13.4613 26.6097 13.5095 26.6216 13.5937L26.944 13.4676Z" fill="#B52A4D"/>
<path d="M20.0539 15.3678L19.9926 15.4872L20.161 15.4478C19.9383 15.6458 19.7294 15.8258 19.5278 16.0134C19.4649 16.0613 19.4148 16.1251 19.3823 16.1989C19.3497 16.2726 19.3358 16.354 19.3419 16.4349C19.3574 16.4823 19.3797 16.5269 19.4081 16.5673L19.319 16.7259L19.3577 16.7638L20.0274 16.0741L20.0452 16.0894L19.9348 16.259C20.0557 16.1679 20.2608 16.2101 20.2998 16.0032C20.3354 15.9838 20.3766 15.9791 20.4153 15.99C20.5038 16.0193 20.5868 16.0643 20.6606 16.1231C20.7408 16.2085 20.814 16.3009 20.8794 16.3991L20.923 16.33C20.9894 16.4143 21.0323 16.5163 21.0466 16.6244C21.061 16.7325 21.0463 16.8425 21.0043 16.9425C20.971 17.0658 20.958 17.1941 20.9659 17.3219C20.9905 17.4317 21.0272 17.5381 21.075 17.6392C21.075 17.6488 21.0684 17.6669 21.0605 17.6779C20.9693 17.8158 21.0031 17.9165 21.0982 18.0442C21.1764 18.1683 21.2341 18.3051 21.2693 18.449C21.2818 18.4897 21.2435 18.5483 21.2302 18.5931L21.0705 18.4875C20.9313 18.8197 20.8111 19.1601 20.7103 19.507C20.5684 19.8323 20.5466 20.2008 20.6493 20.5417C20.6931 20.7091 20.7216 20.8804 20.7345 21.0534C20.7562 21.1243 20.8017 21.1847 20.8623 21.2238C20.9247 21.2617 20.9778 21.3141 21.0176 21.3769C21.0573 21.4397 21.0825 21.5114 21.0915 21.5861C21.1418 21.7775 21.2026 21.9657 21.2728 22.1502C21.2796 22.2256 21.2823 22.3014 21.2812 22.3772C21.289 22.4364 21.3152 22.4912 21.3555 22.5336C21.4087 22.5656 21.4528 22.6117 21.4836 22.6672C21.5143 22.7226 21.5304 22.7855 21.5304 22.8495C21.5304 22.9661 21.6871 23.0806 21.7895 23.1868C21.6415 22.6999 21.4122 22.2454 21.2919 21.7543L21.3745 21.7039C21.4241 21.7667 21.5145 21.8274 21.5165 21.8915C21.5271 22.1674 21.7148 22.3482 21.8312 22.5641C21.9634 22.8048 22.1149 23.0304 22.2511 23.2677C22.2907 23.3367 22.3428 23.4353 22.3237 23.4987C22.2133 23.8615 22.4969 23.9249 22.6945 24.0408C22.9133 24.1677 23.1452 24.2713 23.3726 24.3816C23.4135 24.4009 23.4771 24.4299 23.5049 24.4119C23.7527 24.2429 23.8618 24.4808 24.029 24.5808C24.2363 24.689 24.4496 24.7837 24.668 24.8644L24.6864 24.8078L24.9891 25.3189L25.6682 25.6818C25.6916 25.6117 25.7263 25.5463 25.7711 25.4887C25.8042 25.459 25.9152 25.4556 25.9238 25.4742C25.9936 25.6146 26.0488 25.7623 26.0884 25.9149C26.1631 26.2418 25.974 26.4197 25.744 26.5998C25.6561 26.6687 25.6495 26.8551 25.6185 26.9909C25.6145 27.0089 25.6847 27.0454 25.7508 27.095C25.735 27.1332 25.7125 27.1682 25.6846 27.1979C25.5194 27.331 25.5267 27.4675 25.6979 27.5985C25.7767 27.6606 25.8438 27.7374 25.896 27.8249C26.0142 28.0535 26.1439 28.2754 26.2846 28.4897C26.3981 28.6133 26.5358 28.7102 26.688 28.7739C27.1355 29.0029 27.1004 29.0078 27.0747 29.4893C27.0555 29.85 27.017 30.2107 26.9859 30.5928C26.5589 30.2396 26.0449 30.3769 25.5572 30.372C24.2445 30.3603 22.9318 30.372 21.6198 30.372C21.5932 30.3682 21.5663 30.3682 21.5397 30.372C21.3909 30.4052 21.2364 30.3979 21.0911 30.3506C20.9458 30.3034 20.8147 30.218 20.7103 30.1024C19.4557 29.1701 18.4571 27.9109 17.8144 26.4502C17.247 25.2081 16.9511 23.85 16.9475 22.474C16.944 21.098 17.2331 19.7384 17.7941 18.4931C18.1804 17.614 18.693 16.8016 19.3142 16.0838C19.5343 15.8231 19.7598 15.5665 19.9825 15.3079L20.0539 15.3678ZM21.1492 18.4503C21.1763 18.2137 21.126 18.1296 20.8662 17.9771C20.8633 18.0764 20.8887 18.1745 20.9391 18.2587C20.9896 18.3429 21.0631 18.4096 21.1499 18.4503H21.1492Z" fill="#B52A4D"/>
<path d="M15 36.9862C15.2267 36.6296 15.4402 36.2889 15.661 35.9516C16.2492 35.0425 16.8447 34.1375 17.425 33.2229C17.5936 32.958 17.7025 32.6525 17.8704 32.3876C18.1467 31.9535 18.5036 31.5813 18.9196 31.2929C19.3356 31.0045 19.8023 30.8056 20.2929 30.708C20.8079 30.5921 21.3326 30.5295 21.8594 30.5211C23.2785 30.4963 24.6982 30.5108 26.1173 30.5135C26.2713 30.4983 26.4267 30.5222 26.5701 30.5831C26.7134 30.6439 26.8407 30.74 26.9409 30.8631C27.0411 30.9862 27.1112 31.1325 27.1455 31.29C27.1798 31.4475 27.177 31.6114 27.1378 31.7676C27.0834 31.9926 26.9575 32.1915 26.7805 32.3319C26.6035 32.4723 26.386 32.5456 26.1637 32.54C24.9982 32.54 23.8331 32.54 22.6685 32.54C22.6225 32.5313 22.5753 32.5326 22.5297 32.5436C22.4501 32.5907 22.3734 32.6433 22.3003 32.7008C22.3664 32.7588 22.4205 32.8497 22.4939 32.8691C22.6433 32.9063 22.7964 32.9238 22.9499 32.9214C25.4678 32.9214 27.9853 32.9183 30.5023 32.9118C30.5914 32.9047 30.6751 32.8648 30.7388 32.7993C31.4229 32.091 32.1003 31.3751 32.7818 30.6612C32.9186 30.5177 33.0614 30.3804 33.2068 30.2473C33.2843 30.1727 33.3753 30.1148 33.4743 30.077C33.5734 30.0392 33.6785 30.0223 33.7838 30.0272C33.8892 30.0321 33.9924 30.0587 34.0879 30.1055C34.1833 30.1523 34.2688 30.2182 34.3396 30.2997C34.485 30.4615 34.5644 30.6763 34.5607 30.8981C34.557 31.12 34.4707 31.3317 34.3199 31.4882C33.3681 32.5182 32.4169 33.5487 31.466 34.5796C31.0417 34.9999 30.5007 35.269 29.9207 35.348C29.6642 35.3959 29.4038 35.4191 29.1432 35.4171C27.1603 35.4219 25.1775 35.4295 23.1946 35.4171C22.7951 35.4071 22.402 35.5231 22.0666 35.7498C21.7313 35.9766 21.4695 36.3036 21.315 36.6882C21.286 36.743 21.2638 36.8015 21.2488 36.8621C21.2263 36.9683 21.1742 37 21.0677 37C19.0849 36.9968 17.103 36.9968 15.1223 37C15.0893 36.9993 15.0575 36.9924 15 36.9862Z" fill="#B52A4D"/>
<path d="M29.2139 32.5526C29.5443 32.1733 29.869 31.7849 30.2127 31.4173C30.6424 30.9586 31.0883 30.5205 31.5285 30.0694C31.5685 30.0181 31.6182 29.9759 31.6744 29.9453C31.7306 29.9147 31.7922 29.8962 31.8555 29.8913C31.9187 29.8863 31.982 29.8949 32.042 29.9164C32.1019 29.9379 32.1571 29.9719 32.204 30.0164C32.2519 30.0632 32.2903 30.1198 32.3163 30.1826C32.3424 30.2454 32.3557 30.3132 32.3557 30.3816C32.3557 30.4501 32.3424 30.5177 32.3163 30.5805C32.2903 30.6433 32.2519 30.7001 32.204 30.7469C31.8735 31.1125 31.5332 31.4663 31.1974 31.8256C30.9879 32.0505 30.7818 32.2788 30.5697 32.5009C30.5284 32.5536 30.4713 32.5902 30.4077 32.605C30.0217 32.6146 29.6357 32.6099 29.2497 32.6099L29.2139 32.5526Z" fill="#B52A4D"/>
<path d="M27.625 32.5752C27.8537 32.291 28.0833 32.0068 28.3137 31.7226C28.3384 31.699 28.368 31.6817 28.4002 31.6723C29.0162 31.4377 29.6329 31.2047 30.2443 30.9729C30.1643 31.0653 30.069 31.1751 29.9745 31.2854C29.6229 31.6993 29.2742 32.1096 28.9172 32.5166C28.8722 32.5722 28.8095 32.6091 28.7407 32.6207C28.3798 32.6303 28.0188 32.6256 27.6579 32.6256L27.625 32.5752Z" fill="#B52A4D"/>
<path d="M29.3528 15.597L29.0475 15.8156L28.8142 15.4707L28.6722 15.5783C28.7204 15.7673 29.0066 15.8846 28.8665 16.1709L28.5399 15.9577L28.5208 15.9804L28.739 16.2798L28.7025 16.3199C28.5161 16.1951 28.2828 16.1536 28.1784 15.8902C28.1461 15.8125 28.0886 15.7492 28.0161 15.7113C27.9435 15.6735 27.8606 15.6636 27.7818 15.6832C27.7184 15.6824 27.656 15.6674 27.5988 15.6391C27.594 15.6098 27.5973 15.5797 27.6081 15.5522C27.6715 15.538 27.7363 15.5311 27.8011 15.5315C27.8758 15.5438 27.9523 15.5331 28.0212 15.5005L28.3727 15.1906L27.8954 14.5666C27.863 14.601 27.8207 14.672 27.7989 14.6651C27.5252 14.5878 27.2549 14.501 26.9852 14.4113C26.9714 14.4072 26.9688 14.3644 26.9536 14.3155L27.1473 14.3409L27.1527 14.3215L26.9972 14.2527C27.0633 14.025 27.2846 13.9077 27.592 13.9394C27.4849 14.0553 27.2668 14.1063 27.3832 14.3284C27.44 14.2367 27.4778 14.1057 27.5597 14.0609C27.682 14.0212 27.8099 14.0031 27.938 14.0071C27.9274 14.1071 27.9192 14.174 27.9067 14.2912C27.984 14.2823 28.0588 14.2693 28.1342 14.2651C28.1778 14.2651 28.2471 14.2602 28.261 14.2843C28.3744 14.4314 28.5103 14.5577 28.6635 14.6582C28.7246 14.7048 28.7889 14.7469 28.8558 14.7838L28.7045 14.8458L28.9271 14.8783C28.8862 14.9576 28.8486 15.0321 28.799 15.1293L29.3528 15.597Z" fill="#B52A4D"/>
<path d="M25.4305 13.7987L25.3731 13.9814C25.5443 13.9221 25.5497 13.5917 25.8081 13.7504L25.6184 14.0774L25.7868 14.3147L25.5173 14.3677L25.58 14.4256L25.5667 14.4733C25.4715 14.4664 25.346 14.4967 25.2885 14.445C25.1629 14.3312 25.0413 14.3932 24.9196 14.4036C24.7623 14.4167 24.6071 14.4511 24.4333 14.4794L24.4591 14.3414L24.2939 14.2131C24.3537 14.1728 24.4192 14.1428 24.4881 14.1242C24.5986 14.1218 24.709 14.1275 24.8186 14.1414L24.8244 14.0814L24.3984 14.036L24.3852 13.9912L24.5833 13.9076L24.4717 13.8573L24.6314 13.7579L24.6237 13.7392L24.0566 13.9393C24.0692 13.8627 24.0645 13.787 24.0863 13.7773C24.3805 13.6442 24.6381 13.3634 25.0023 13.5082C25.0551 13.5303 25.0798 13.6289 25.1301 13.7152L25.4305 13.7987Z" fill="#B52A4D"/>
<path d="M29.1089 19.0243L29.5171 18.3987L29.5872 18.4497L29.4452 18.6622L29.7934 18.8518C29.7844 18.8855 29.7799 18.9203 29.7802 18.9552C29.7861 19.1001 29.6929 19.1436 29.5891 19.1312C29.4292 19.1147 29.2754 19.0636 29.1089 19.0243Z" fill="#B52A4D"/>
<path d="M26.1193 23.7996L26.2252 23.6795C25.943 23.447 25.5847 23.3394 25.2273 23.3801C25.27 23.3221 25.3285 23.279 25.3951 23.2563C25.4618 23.2337 25.5335 23.2326 25.6007 23.2533C25.7444 23.2876 25.8848 23.3352 26.0203 23.3959C26.2146 23.4835 26.4018 23.5898 26.5915 23.6878L26.5815 23.747L26.1193 23.7996Z" fill="#B52A4D"/>
<path d="M26.0365 13.3464L26.1472 13.5188L26.2647 13.4319C26.1847 13.4478 26.1055 13.4691 26.0249 13.4774C25.9727 13.4829 25.9143 13.4533 25.8667 13.4678C25.7424 13.5121 25.6077 13.5134 25.4827 13.4713C25.3576 13.4293 25.2491 13.3462 25.1729 13.2346C25.2828 13.192 25.4018 13.181 25.5172 13.2028C25.6327 13.2245 25.7402 13.2781 25.829 13.358C25.8746 13.396 26.0082 13.3215 26.1007 13.2987L26.0365 13.3464Z" fill="#B52A4D"/>
<path d="M27.2014 13.6967L27.3528 13.4614C27.4203 13.5556 27.5099 13.6299 27.6129 13.6775C27.7159 13.7251 27.829 13.7444 27.9411 13.7332C28.0422 13.7448 28.1359 13.7937 28.2054 13.8711C27.8621 13.9017 27.5168 13.8417 27.2014 13.6967Z" fill="#B52A4D"/>
<path d="M26.7836 15.2837C26.9607 15.2871 27.0295 15.4528 27.1418 15.5515C27.1964 15.6109 27.2282 15.6891 27.2316 15.7714L26.9672 15.6286L26.7262 15.7921L26.6316 15.6446C26.6858 15.5211 26.7397 15.3982 26.7933 15.2761L26.7836 15.2837Z" fill="#B52A4D"/>
<path d="M33.819 18.3428C33.9776 18.7097 34.1361 19.0768 34.3073 19.4734L34.0788 19.4623C33.9724 19.0802 33.8711 18.716 33.7693 18.3525L33.819 18.3428Z" fill="#B52A4D"/>
<path d="M26.5776 24.0001L26.8307 23.9807V23.7317L27.4368 23.9146L27.4248 23.9759C27.152 24.0778 26.8554 24.0864 26.5776 24.0001Z" fill="#B52A4D"/>
<path d="M26.1866 14.1193C26.1675 14.0779 26.149 14.0353 26.1292 13.9932L26.0498 13.831H26.2483C26.3025 13.6558 26.4373 13.6966 26.5642 13.7546C26.5927 14.0498 26.3816 14.071 26.1866 14.1193Z" fill="#B52A4D"/>
<path d="M32.5381 16.831C32.5867 16.8076 32.6395 16.7964 32.693 16.7983C32.7465 16.8002 32.7987 16.8153 32.8457 16.8421C32.8926 16.8689 32.9328 16.9068 32.9631 16.9527C32.9935 16.9987 33.0133 17.0515 33.0206 17.1068C32.817 17.2613 32.5949 17.1352 32.5381 16.831Z" fill="#B52A4D"/>
<path d="M26.597 14.0581C26.6969 13.7525 26.825 13.7027 27.1918 13.8759L26.5925 14.0545L26.597 14.0581Z" fill="#B52A4D"/>
<path d="M33.8063 18.7078L33.9106 19.1277L33.7124 19.236V18.7222L33.8063 18.7078Z" fill="#B52A4D"/>
<path d="M25.8373 14.4565H26.1432L26.1274 14.6014L25.8298 14.5503L25.8373 14.4565Z" fill="#B52A4D"/>
<path d="M26.9442 13.4677L26.6218 13.5938C26.6099 13.5097 26.6027 13.4614 26.5947 13.4062H26.9346L26.9442 13.4677Z" fill="#B52A4D"/>
<path d="M21.1497 18.4502C21.063 18.4094 20.9897 18.3427 20.9393 18.2584C20.889 18.1742 20.8637 18.0763 20.8667 17.9771C21.1264 18.1295 21.1775 18.2137 21.1497 18.4502Z" fill="#B52A4D"/>
</svg>
