<svg width="50" height="50" viewBox="0 0 50 50" fill="none" xmlns="http://www.w3.org/2000/svg">
<circle cx="25" cy="25" r="25" fill="white"/>
<g clip-path="url(#clip0)">
<path d="M24.9785 13C27.3519 12.9957 29.6732 13.6953 31.6491 15.0103C33.6249 16.3253 35.1667 18.1967 36.079 20.3878C36.9912 22.5789 37.2331 24.9913 36.7743 27.32C36.3156 29.6486 35.1767 31.7889 33.5015 33.4703C31.8263 35.1516 29.6899 36.2985 27.3629 36.7658C25.036 37.2331 22.6228 36.9999 20.4284 36.0956C18.2339 35.1914 16.357 33.6566 15.0348 31.6856C13.7126 29.7146 13.0044 27.3957 13 25.0223C12.9959 21.8401 14.2551 18.7864 16.5011 16.5322C18.7471 14.2779 21.7963 13.0075 24.9785 13ZM35.3603 25.0174C35.3633 22.9741 34.7622 20.9755 33.6324 19.273C32.5026 17.5705 30.8949 16.2399 29.011 15.4487C27.1271 14.6575 25.0513 14.441 23.0447 14.8263C21.0381 15.2116 19.19 16.1814 17.7331 17.6141C16.2762 19.0468 15.2756 20.8782 14.8567 22.8781C14.4379 24.878 14.6197 26.957 15.3792 28.8539C16.1388 30.7508 17.442 32.3808 19.1254 33.539C20.8088 34.6971 22.7969 35.3317 24.8399 35.3629C26.2122 35.3828 27.5747 35.1299 28.8485 34.6192C30.1224 34.1085 31.2824 33.3499 32.2609 32.3876C33.2394 31.4252 34.0171 30.2782 34.549 29.013C35.0808 27.7478 35.3561 26.3898 35.3591 25.0174H35.3603Z" fill="#B52A4D"/>
<path d="M35.359 25.0173C35.3554 27.0756 34.7389 29.0861 33.588 30.7927C32.4371 32.4992 30.8041 33.8244 28.8971 34.5991C26.9901 35.3738 24.8956 35.5629 22.8806 35.1424C20.8657 34.722 19.0214 33.7109 17.5834 32.2382C16.1454 30.7655 15.1785 28.8979 14.8061 26.8735C14.4338 24.8491 14.6731 22.7596 15.493 20.8716C16.3129 18.9836 17.6764 17.3826 19.4098 16.2726C21.1433 15.1627 23.1681 14.5943 25.2259 14.6397C27.9359 14.7028 30.5136 15.8238 32.4074 17.7633C34.3012 19.7028 35.3606 22.3066 35.359 25.0173ZM34.265 25.0173C34.2682 23.1895 33.7313 21.4015 32.7213 19.8782C31.7112 18.3549 30.2733 17.1642 28.5884 16.4557C26.9036 15.7473 25.0468 15.5527 23.2517 15.8965C21.4566 16.2403 19.8033 17.107 18.4994 18.3879C17.1955 19.6687 16.2992 21.3064 15.9234 23.0951C15.5477 24.8838 15.7092 26.7436 16.3875 28.4408C17.0658 30.138 18.2306 31.597 19.7356 32.6341C21.2407 33.6711 23.0187 34.24 24.8462 34.2694C26.0745 34.2895 27.2946 34.0653 28.4354 33.6097C29.5763 33.1541 30.6152 32.4763 31.4917 31.6156C32.3683 30.7549 33.0648 29.7286 33.5412 28.5962C34.0175 27.4639 34.2639 26.2482 34.2662 25.0197L34.265 25.0173Z" fill="white"/>
<path d="M34.2664 25.0198C34.2617 26.8598 33.7097 28.6567 32.6804 30.1818C31.6511 31.7069 30.1913 32.8912 28.4867 33.5839C26.7821 34.2766 24.9098 34.4464 23.1084 34.0716C21.307 33.6968 19.6578 32.7944 18.371 31.4793C17.0842 30.1642 16.2178 28.4958 15.8823 26.6867C15.5467 24.8776 15.7572 23.0096 16.4868 21.3205C17.2164 19.6313 18.4322 18.1975 19.9793 17.2016C21.5264 16.2057 23.335 15.6927 25.1747 15.728C27.6063 15.7737 29.9225 16.7737 31.6234 18.512C33.3244 20.2503 34.2735 22.5877 34.2664 25.0198ZM24.4502 24.4641H24.1547C22.803 24.4641 21.4514 24.4641 20.1001 24.4641C19.9969 24.4568 19.8939 24.4811 19.8049 24.534C19.7159 24.5868 19.6451 24.6656 19.6021 24.7598C19.5522 24.8551 19.5325 24.9635 19.5461 25.0703C19.5597 25.1771 19.6058 25.2771 19.678 25.357C19.7495 25.4311 19.8373 25.4874 19.9346 25.5212C20.032 25.5551 20.136 25.5655 20.2381 25.5517C21.7657 25.5517 23.2932 25.5517 24.8207 25.5517C24.9013 25.5516 24.9817 25.5468 25.0618 25.5373C25.191 25.5276 25.3118 25.4692 25.3995 25.3738C25.4872 25.2784 25.5356 25.1532 25.5344 25.0236C25.5369 22.8278 25.5369 20.6316 25.5344 18.4354C25.5367 18.3279 25.5048 18.2225 25.4436 18.1342C25.3824 18.0459 25.2947 17.9792 25.1933 17.9436C25.0972 17.8934 24.9865 17.8795 24.881 17.9044C24.7754 17.9294 24.6822 17.9917 24.6188 18.0796C24.5171 18.2274 24.4607 18.4014 24.456 18.5807C24.4447 20.4459 24.449 22.3113 24.449 24.1771L24.4502 24.4641ZM24.4649 16.8245C24.4632 16.896 24.4761 16.9671 24.5028 17.0334C24.5295 17.0998 24.5693 17.1599 24.62 17.2103C24.6707 17.2607 24.7313 17.3004 24.7977 17.3267C24.8642 17.353 24.9352 17.3654 25.0067 17.3634C25.1484 17.3595 25.283 17.3006 25.3821 17.1993C25.4812 17.0979 25.5373 16.9621 25.5381 16.8204C25.5389 16.6786 25.4846 16.5421 25.3867 16.4396C25.2887 16.3372 25.1548 16.2769 25.0131 16.2714C24.9401 16.2691 24.8672 16.2818 24.7993 16.3088C24.7314 16.3359 24.6699 16.3767 24.6185 16.4286C24.567 16.4805 24.5268 16.5424 24.5004 16.6105C24.4739 16.6786 24.4619 16.7515 24.4649 16.8245ZM16.8209 25.5336C16.8924 25.5354 16.9634 25.5226 17.0298 25.496C17.0962 25.4694 17.1567 25.4296 17.2072 25.379C17.2578 25.3283 17.2974 25.2679 17.3238 25.2014C17.3502 25.1349 17.3628 25.0638 17.3608 24.9923C17.3551 24.8518 17.2958 24.7189 17.1947 24.6212C17.0936 24.5235 16.9587 24.4684 16.8181 24.4675C16.6775 24.4665 16.5421 24.5197 16.4397 24.616C16.3373 24.7123 16.276 24.8444 16.2683 24.9848C16.2658 25.0582 16.2783 25.1314 16.3054 25.1997C16.3324 25.268 16.3734 25.33 16.4256 25.3817C16.4778 25.4335 16.5403 25.4738 16.6088 25.5003C16.6774 25.5267 16.7505 25.5387 16.8239 25.5355L16.8209 25.5336ZM33.1681 25.5336C33.2393 25.5363 33.3105 25.5247 33.3773 25.4997C33.4441 25.4746 33.5053 25.4365 33.5572 25.3875C33.6091 25.3386 33.6506 25.2799 33.6796 25.2147C33.7085 25.1495 33.7242 25.0792 33.7258 25.0079C33.7258 24.8631 33.6682 24.7242 33.5658 24.6218C33.4634 24.5194 33.3245 24.4618 33.1797 24.4618C33.0349 24.4618 32.896 24.5194 32.7936 24.6218C32.6912 24.7242 32.6336 24.8631 32.6336 25.0079C32.6369 25.1485 32.695 25.2823 32.7954 25.3808C32.8958 25.4793 33.0308 25.5348 33.1714 25.5355L33.1681 25.5336ZM25.5329 33.1882C25.5363 33.1149 25.5244 33.0416 25.498 32.9731C25.4716 32.9047 25.4313 32.8424 25.3796 32.7903C25.3279 32.7383 25.2659 32.6976 25.1976 32.6707C25.1293 32.6439 25.0562 32.6315 24.9828 32.6343C24.8424 32.6422 24.7107 32.7037 24.6145 32.8063C24.5183 32.9088 24.4652 33.0445 24.4664 33.1852C24.4676 33.3258 24.523 33.4604 24.6209 33.5613C24.7188 33.6622 24.8518 33.7216 24.9923 33.727C25.0636 33.7286 25.1347 33.7159 25.201 33.6896C25.2673 33.6633 25.3273 33.6239 25.3781 33.5738C25.4288 33.5237 25.469 33.464 25.4962 33.3981C25.5233 33.3321 25.537 33.2614 25.5363 33.1901L25.5329 33.1882Z" fill="#B52A4D"/>
<path d="M24.45 24.4641V24.1733C24.45 22.3075 24.4458 20.4423 24.457 18.5771C24.4617 18.3977 24.5181 18.2236 24.6198 18.0758C24.6832 17.9879 24.7765 17.9258 24.882 17.9008C24.9875 17.8758 25.0982 17.8897 25.1943 17.9398C25.2957 17.9754 25.3834 18.0422 25.4446 18.1306C25.5058 18.2189 25.5377 18.3243 25.5354 18.4318C25.5354 20.6276 25.5354 22.8236 25.5354 25.0199C25.5366 25.1495 25.4883 25.2746 25.4005 25.37C25.3128 25.4654 25.192 25.524 25.0628 25.5337C24.9827 25.5432 24.9023 25.5479 24.8217 25.5481C23.2942 25.5481 21.7667 25.5481 20.2391 25.5481C20.137 25.5618 20.033 25.5513 19.9357 25.5175C19.8383 25.4836 19.7505 25.4274 19.679 25.3532C19.6068 25.2733 19.561 25.1733 19.5474 25.0665C19.5339 24.9598 19.5532 24.8515 19.6031 24.7561C19.6461 24.662 19.7169 24.5831 19.8059 24.5302C19.895 24.4774 19.9979 24.453 20.1012 24.4603C21.4528 24.4628 22.8044 24.4628 24.1557 24.4603L24.45 24.4641Z" fill="white"/>
<path d="M24.465 16.8245C24.4631 16.6825 24.5176 16.5455 24.6167 16.4437C24.7158 16.3418 24.8513 16.2836 24.9933 16.2817C25.1354 16.2798 25.2724 16.3344 25.3742 16.4336C25.476 16.5327 25.5344 16.6681 25.5364 16.8102C25.538 16.8813 25.5257 16.952 25.5 17.0184C25.4742 17.0847 25.4356 17.1453 25.3865 17.1967C25.3373 17.2481 25.2784 17.2892 25.2133 17.3179C25.1482 17.3465 25.0779 17.362 25.0068 17.3634C24.9353 17.3655 24.8643 17.353 24.7978 17.3267C24.7314 17.3004 24.6708 17.2607 24.6201 17.2103C24.5694 17.1599 24.5296 17.0998 24.5029 17.0335C24.4762 16.9672 24.4633 16.896 24.465 16.8245Z" fill="white"/>
<path d="M16.8239 25.5354C16.7522 25.5386 16.6807 25.5272 16.6135 25.5022C16.5462 25.4771 16.4845 25.4389 16.4323 25.3896C16.3802 25.3403 16.3385 25.281 16.3097 25.2152C16.2809 25.1495 16.2656 25.0785 16.2647 25.0067C16.2638 24.935 16.2773 24.8638 16.3045 24.7973C16.3316 24.7309 16.3719 24.6706 16.4229 24.62C16.4738 24.5695 16.5346 24.5296 16.6012 24.5029C16.6679 24.4762 16.739 24.4632 16.8108 24.4646C16.8819 24.463 16.9528 24.4753 17.0191 24.501C17.0854 24.5268 17.1461 24.5654 17.1975 24.6145C17.2489 24.6637 17.29 24.7226 17.3186 24.7877C17.3472 24.8528 17.3627 24.9229 17.3642 24.994C17.3662 25.0656 17.3533 25.1368 17.3269 25.2033C17.3005 25.2698 17.2609 25.3301 17.2103 25.3807C17.1598 25.4314 17.0996 25.4713 17.0332 25.4979C16.9668 25.5245 16.8955 25.5372 16.8239 25.5354Z" fill="white"/>
<path d="M33.1714 25.5354C33.0315 25.534 32.8976 25.4783 32.7979 25.3802C32.6982 25.282 32.6405 25.1489 32.637 25.0091C32.637 24.8643 32.6943 24.7254 32.7967 24.623C32.8991 24.5206 33.0379 24.4631 33.1827 24.4631C33.3276 24.4631 33.4667 24.5206 33.5691 24.623C33.6715 24.7254 33.7288 24.8643 33.7288 25.0091C33.7274 25.0804 33.7119 25.1508 33.6829 25.216C33.654 25.2813 33.6125 25.3402 33.5606 25.3892C33.5087 25.4382 33.4475 25.4764 33.3807 25.5015C33.3139 25.5266 33.2428 25.5381 33.1714 25.5354Z" fill="white"/>
<path d="M25.5363 33.1899C25.5373 33.2611 25.524 33.3318 25.4971 33.3978C25.4703 33.4638 25.4304 33.5236 25.38 33.5739C25.3295 33.6241 25.2695 33.6637 25.2034 33.6903C25.1374 33.7169 25.0666 33.7299 24.9954 33.7287C24.8549 33.7232 24.7219 33.6641 24.624 33.5631C24.5261 33.4622 24.4707 33.3275 24.4695 33.1869C24.4683 33.0462 24.5214 32.9105 24.6176 32.808C24.7138 32.7054 24.8458 32.6438 24.9862 32.636C25.0595 32.6332 25.1324 32.6456 25.2007 32.6724C25.269 32.6993 25.331 32.7401 25.3827 32.7922C25.4344 32.8443 25.4747 32.9064 25.5011 32.9748C25.5275 33.0433 25.5396 33.1166 25.5363 33.1899Z" fill="white"/>
</g>
<defs>
<clipPath id="clip0">
<rect width="24" height="24" fill="white" transform="translate(13 13)"/>
</clipPath>
</defs>
</svg>
