<svg width="56" height="56" viewBox="0 0 56 56" fill="none" xmlns="http://www.w3.org/2000/svg">
<circle cx="28" cy="28" r="28" fill="white"/>
<g clip-path="url(#clip0)">
<path d="M27.4987 34.7513L28.1384 34.6879L28.9819 34.6106C29.2625 34.584 29.5437 34.5562 29.825 34.5302C30.1587 34.4986 30.4919 34.4669 30.8257 34.4378L31.8195 34.3434L32.9709 34.2364C33.4071 34.1941 33.8432 34.1519 34.2794 34.1097C34.6157 34.078 34.9527 34.0546 35.2877 34.0128C35.3773 33.9979 35.4691 34.0029 35.5565 34.0275C35.6439 34.052 35.7248 34.0955 35.7935 34.1549C35.8622 34.2143 35.9169 34.288 35.9539 34.371C35.9908 34.4539 36.009 34.544 36.0072 34.6347C36.0075 34.736 35.9815 34.8357 35.9317 34.9239C35.882 35.0122 35.8102 35.086 35.7235 35.1382L29.6742 38.984C29.1574 39.3125 28.6405 39.6419 28.1237 39.9721C28.1063 39.9853 28.0854 39.9931 28.0636 39.9946C28.0417 39.996 28.02 39.9911 28.0009 39.9803C26.5772 39.3322 25.1527 38.6857 23.7276 38.0409C23.682 38.0213 23.6329 38.0107 23.5832 38.0099C23.2165 38.0099 22.8505 38.0099 22.4838 38.0099H22.4026V34.0115C22.4286 34.0115 22.452 34.0083 22.4754 34.0083C23.5179 34.0083 24.5602 34.0083 25.6023 34.0083C25.6421 34.009 25.6809 34.0207 25.7144 34.0419C26.5619 34.6056 27.4085 35.1708 28.2542 35.7374C28.4155 35.836 28.5362 35.9891 28.5943 36.169C28.6524 36.3488 28.6441 36.5436 28.5709 36.7179C28.5275 36.8159 28.4653 36.9044 28.3877 36.9783C28.31 37.0521 28.2186 37.11 28.1186 37.1485C28.0186 37.1869 27.9119 37.2053 27.8047 37.2025C27.6976 37.1997 27.5921 37.1757 27.4942 37.1321C27.4212 37.0965 27.3507 37.0558 27.2833 37.0105C26.8007 36.6891 26.3189 36.3672 25.838 36.0446L25.7746 36.0028L25.5581 36.3321C25.579 36.348 25.5972 36.3625 25.6169 36.3752C26.1236 36.713 26.6313 37.0523 27.1401 37.393C27.3875 37.5689 27.6924 37.6441 27.9932 37.6036C28.294 37.563 28.5682 37.4096 28.7602 37.1745C28.9521 36.9394 29.0475 36.6402 29.0271 36.3374C29.0066 36.0345 28.8719 35.7508 28.6501 35.5436C28.5381 35.4501 28.4206 35.3636 28.298 35.2846C28.0586 35.1212 27.8165 34.9609 27.5759 34.7994C27.5505 34.7899 27.5304 34.7747 27.4987 34.7513Z" fill="#034EA2"/>
<path d="M19.5986 38.4097V33.6165H21.9934V38.4097H19.5986Z" fill="#034EA2"/>
<path d="M19.5994 22.3944V16.0012H20.3937V22.3944H19.5994Z" fill="#034EA2"/>
<path d="M36.4074 22.3969H35.6157V16H36.4087L36.4074 22.3969Z" fill="#034EA2"/>
<path d="M19.5994 25.6055H20.3931V32.0024H19.5994V25.6055Z" fill="#034EA2"/>
<path d="M35.6157 25.6055H36.4093V32.0024H35.6157V25.6055Z" fill="#034EA2"/>
<path d="M16 16H16.7885V22.3938H16V16Z" fill="#034EA2"/>
<path d="M39.2185 16H40.0077V22.3969H39.2185V16Z" fill="#034EA2"/>
<path d="M16.7886 32.0051H16.0007V25.6082H16.7886V32.0051Z" fill="#034EA2"/>
<path d="M40.007 32.0056H39.219V25.6086H40.007V32.0056Z" fill="#034EA2"/>
<path d="M23.9956 19.1933H23.2019V16.0024H23.993L23.9956 19.1933Z" fill="#034EA2"/>
<path d="M32.8025 19.1935H32.0127V16.002H32.8025V19.1935Z" fill="#034EA2"/>
<path d="M23.9974 32.4048H23.2051V29.2114H23.9974V32.4048Z" fill="#034EA2"/>
<path d="M32.0107 29.2107H32.8011V32.4022H32.0107V29.2107Z" fill="#034EA2"/>
<path d="M28.4006 18.3955H27.6064V16.0007H28.4006V18.3955Z" fill="#034EA2"/>
<path d="M28.3994 32.4041H27.6064V30.4109H28.3994V32.4041Z" fill="#034EA2"/>
<path d="M20.3931 24.7973H19.5994V23.2063H20.3931V24.7973Z" fill="#034EA2"/>
<path d="M35.6157 23.2039H36.4087V24.7974H35.6157V23.2039Z" fill="#034EA2"/>
<path d="M16.7905 23.2063V24.7954H16V23.2063H16.7905Z" fill="#034EA2"/>
<path d="M40.0096 23.2078V24.7969H39.2197V23.2078H40.0096Z" fill="#034EA2"/>
<path d="M28.0085 19.5969C27.0584 19.5956 26.1294 19.8759 25.3387 20.4025C24.5479 20.9291 23.9311 21.6784 23.5661 22.5555C23.2012 23.4327 23.1045 24.3983 23.2883 25.3304C23.4721 26.2625 23.9281 27.1192 24.5988 27.7921C25.2694 28.4651 26.1245 28.924 27.056 29.111C27.9874 29.2981 28.9533 29.2047 29.8317 28.8427C30.7101 28.4808 31.4615 27.8665 31.9908 27.0776C32.5201 26.2887 32.8037 25.3605 32.8056 24.4105C32.8069 23.1363 32.3025 21.9136 31.4031 21.0111C30.5036 20.1086 29.2827 19.5999 28.0085 19.5969ZM30.8016 25.6018H29.2061V27.1992H26.8064V25.6056H25.2034V23.2058H26.8019V21.606H29.2011V23.202H30.8016V25.6018Z" fill="#034EA2"/>
</g>
<defs>
<clipPath id="clip0">
<rect width="24.0095" height="24" fill="white" transform="translate(16 16)"/>
</clipPath>
</defs>
</svg>
