<svg width="138" height="241" viewBox="0 0 138 241" fill="none" xmlns="http://www.w3.org/2000/svg">
<path d="M0.018 18.1167L5.238 5.5167H7.452L12.6 18.1167H10.548L9.09 14.4267H3.456L1.98 18.1167H0.018ZM4.086 12.8607H8.478L6.282 7.3347L4.086 12.8607ZM23.0791 13.5267C23.0791 14.1867 22.9591 14.8107 22.7191 15.3987C22.4791 15.9747 22.1491 16.4727 21.7291 16.8927C21.3211 17.3127 20.8291 17.6487 20.2531 17.9007C19.6771 18.1407 19.0651 18.2607 18.4171 18.2607C17.9011 18.2607 17.4091 18.1827 16.9411 18.0267C16.4731 17.8707 16.0411 17.6427 15.6451 17.3427V18.1167H13.8631V5.5167L15.6631 5.1207V9.8187C16.0351 9.4947 16.4611 9.2487 16.9411 9.0807C17.4211 8.9007 17.9251 8.8107 18.4531 8.8107C19.1011 8.8107 19.7071 8.9367 20.2711 9.1887C20.8351 9.4287 21.3211 9.7587 21.7291 10.1787C22.1491 10.5987 22.4791 11.0967 22.7191 11.6727C22.9591 12.2487 23.0791 12.8667 23.0791 13.5267ZM18.2191 10.3767C17.7031 10.3767 17.2231 10.4727 16.7791 10.6647C16.3351 10.8567 15.9631 11.1267 15.6631 11.4747V15.6147C15.9511 15.9507 16.3171 16.2147 16.7611 16.4067C17.2171 16.5987 17.7031 16.6947 18.2191 16.6947C19.0951 16.6947 19.8271 16.3947 20.4151 15.7947C21.0151 15.1947 21.3151 14.4447 21.3151 13.5447C21.3151 12.6447 21.0151 11.8947 20.4151 11.2947C19.8151 10.6827 19.0831 10.3767 18.2191 10.3767ZM24.5978 13.5267C24.5978 12.8667 24.7178 12.2487 24.9578 11.6727C25.2098 11.0847 25.5518 10.5807 25.9838 10.1607C26.4158 9.7287 26.9198 9.3927 27.4958 9.1527C28.0838 8.9007 28.7078 8.7747 29.3678 8.7747C30.0278 8.7747 30.6458 8.9007 31.2218 9.1527C31.8098 9.3927 32.3138 9.7287 32.7338 10.1607C33.1658 10.5807 33.5018 11.0847 33.7418 11.6727C33.9938 12.2487 34.1198 12.8667 34.1198 13.5267C34.1198 14.1987 33.9938 14.8287 33.7418 15.4167C33.5018 15.9927 33.1658 16.4967 32.7338 16.9287C32.3138 17.3487 31.8098 17.6847 31.2218 17.9367C30.6458 18.1767 30.0278 18.2967 29.3678 18.2967C28.7078 18.2967 28.0838 18.1767 27.4958 17.9367C26.9198 17.6847 26.4158 17.3487 25.9838 16.9287C25.5518 16.4967 25.2098 15.9927 24.9578 15.4167C24.7178 14.8287 24.5978 14.1987 24.5978 13.5267ZM29.3678 16.7127C30.1958 16.7127 30.8978 16.4067 31.4738 15.7947C32.0618 15.1707 32.3558 14.4147 32.3558 13.5267C32.3558 12.6387 32.0618 11.8887 31.4738 11.2767C30.8978 10.6647 30.1958 10.3587 29.3678 10.3587C28.5398 10.3587 27.8318 10.6647 27.2438 11.2767C26.6558 11.8887 26.3618 12.6387 26.3618 13.5267C26.3618 14.4147 26.6498 15.1707 27.2258 15.7947C27.8138 16.4067 28.5278 16.7127 29.3678 16.7127ZM37.7664 8.9547V14.3907C37.7664 15.1107 37.9704 15.6807 38.3784 16.1007C38.7984 16.5207 39.3504 16.7307 40.0344 16.7307C40.5144 16.7307 40.9464 16.6287 41.3304 16.4247C41.7144 16.2087 42.0324 15.9087 42.2844 15.5247V8.9547H44.0844V18.1167H42.2844V17.1987C41.9244 17.5587 41.5104 17.8347 41.0424 18.0267C40.5864 18.2067 40.0824 18.2967 39.5304 18.2967C38.4864 18.2967 37.6284 17.9607 36.9564 17.2887C36.2964 16.6167 35.9664 15.7527 35.9664 14.6967V8.9547H37.7664ZM47.5833 15.8487V10.4667H45.6393V8.9547H47.5833V6.6147L49.3653 6.1827V8.9547H52.0653V10.4667H49.3653V15.4347C49.3653 15.9027 49.4673 16.2327 49.6713 16.4247C49.8873 16.6167 50.2353 16.7127 50.7153 16.7127C50.9673 16.7127 51.1893 16.7007 51.3813 16.6767C51.5853 16.6407 51.8013 16.5807 52.0293 16.4967V18.0087C51.7893 18.0927 51.5073 18.1587 51.1833 18.2067C50.8713 18.2547 50.5833 18.2787 50.3193 18.2787C49.4313 18.2787 48.7533 18.0747 48.2853 17.6667C47.8173 17.2467 47.5833 16.6407 47.5833 15.8487ZM64.1911 17.2167L59.4931 7.8567V18.1167H57.7291V5.5167H60.2491L64.2091 13.5627L68.1511 5.5167H70.6711V18.1167H68.8891V7.8387L64.1911 17.2167ZM75.9192 18.2787C74.9232 18.2787 74.1132 18.0207 73.4892 17.5047C72.8652 16.9887 72.5532 16.3167 72.5532 15.4887C72.5532 14.6247 72.8832 13.9467 73.5432 13.4547C74.2032 12.9507 75.1092 12.6987 76.2612 12.6987C76.7052 12.6987 77.1372 12.7467 77.5572 12.8427C77.9772 12.9267 78.3792 13.0467 78.7632 13.2027V12.2307C78.7632 11.5827 78.5712 11.0967 78.1872 10.7727C77.8032 10.4487 77.2512 10.2867 76.5312 10.2867C76.1112 10.2867 75.6732 10.3527 75.2172 10.4847C74.7612 10.6047 74.2512 10.7967 73.6872 11.0607L73.0212 9.7107C73.7052 9.3867 74.3532 9.1527 74.9652 9.0087C75.5772 8.8527 76.1832 8.7747 76.7832 8.7747C77.9712 8.7747 78.8892 9.0627 79.5372 9.6387C80.1972 10.2027 80.5272 11.0067 80.5272 12.0507V18.1167H78.7632V17.3247C78.3552 17.6487 77.9172 17.8887 77.4492 18.0447C76.9812 18.2007 76.4712 18.2787 75.9192 18.2787ZM74.2812 15.4527C74.2812 15.8967 74.4672 16.2567 74.8392 16.5327C75.2232 16.8087 75.7212 16.9467 76.3332 16.9467C76.8132 16.9467 77.2572 16.8747 77.6652 16.7307C78.0732 16.5867 78.4392 16.3707 78.7632 16.0827V14.4987C78.4152 14.3067 78.0492 14.1687 77.6652 14.0847C77.2812 13.9887 76.8612 13.9407 76.4052 13.9407C75.7572 13.9407 75.2412 14.0787 74.8572 14.3547C74.4732 14.6307 74.2812 14.9967 74.2812 15.4527ZM82.7813 18.1167V8.9547H84.5813V9.8727C84.9413 9.5127 85.3493 9.2427 85.8053 9.0627C86.2733 8.8707 86.7833 8.7747 87.3353 8.7747C88.3793 8.7747 89.2373 9.1107 89.9093 9.7827C90.5813 10.4427 90.9173 11.3007 90.9173 12.3567V18.1167H89.1173V12.6627C89.1173 11.9427 88.9073 11.3787 88.4873 10.9707C88.0793 10.5507 87.5333 10.3407 86.8493 10.3407C86.3693 10.3407 85.9313 10.4427 85.5353 10.6467C85.1513 10.8507 84.8333 11.1447 84.5813 11.5287V18.1167H82.7813ZM94.0742 7.4787C93.7742 7.4787 93.5162 7.3707 93.3002 7.1547C93.0842 6.9267 92.9762 6.6627 92.9762 6.3627C92.9762 6.0627 93.0842 5.8047 93.3002 5.5887C93.5162 5.3607 93.7742 5.2467 94.0742 5.2467C94.3742 5.2467 94.6322 5.3607 94.8482 5.5887C95.0762 5.8047 95.1902 6.0627 95.1902 6.3627C95.1902 6.6627 95.0762 6.9267 94.8482 7.1547C94.6322 7.3707 94.3742 7.4787 94.0742 7.4787ZM94.9742 8.9547V18.1167H93.1742V8.9547H94.9742ZM97.2741 21.8427V8.9547H99.0561V9.8367C99.4281 9.5007 99.8541 9.2487 100.334 9.0807C100.814 8.9007 101.324 8.8107 101.864 8.8107C102.512 8.8107 103.118 8.9367 103.682 9.1887C104.246 9.4287 104.732 9.7587 105.14 10.1787C105.56 10.5987 105.89 11.0967 106.13 11.6727C106.37 12.2487 106.49 12.8667 106.49 13.5267C106.49 14.1867 106.37 14.8107 106.13 15.3987C105.89 15.9747 105.56 16.4727 105.14 16.8927C104.732 17.3127 104.24 17.6487 103.664 17.9007C103.088 18.1407 102.476 18.2607 101.828 18.2607C101.324 18.2607 100.832 18.1827 100.352 18.0267C99.8841 17.8707 99.4581 17.6487 99.0741 17.3607V21.8427H97.2741ZM101.63 10.3767C101.114 10.3767 100.634 10.4727 100.19 10.6647C99.7461 10.8567 99.3741 11.1267 99.0741 11.4747V15.6147C99.3621 15.9507 99.7281 16.2147 100.172 16.4067C100.628 16.5987 101.114 16.6947 101.63 16.6947C102.506 16.6947 103.238 16.3947 103.826 15.7947C104.426 15.1947 104.726 14.4447 104.726 13.5447C104.726 12.6447 104.426 11.8947 103.826 11.2947C103.226 10.6827 102.494 10.3767 101.63 10.3767ZM111.374 18.2787C110.378 18.2787 109.568 18.0207 108.944 17.5047C108.32 16.9887 108.008 16.3167 108.008 15.4887C108.008 14.6247 108.338 13.9467 108.998 13.4547C109.658 12.9507 110.564 12.6987 111.716 12.6987C112.16 12.6987 112.592 12.7467 113.012 12.8427C113.432 12.9267 113.834 13.0467 114.218 13.2027V12.2307C114.218 11.5827 114.026 11.0967 113.642 10.7727C113.258 10.4487 112.706 10.2867 111.986 10.2867C111.566 10.2867 111.128 10.3527 110.672 10.4847C110.216 10.6047 109.706 10.7967 109.142 11.0607L108.476 9.7107C109.16 9.3867 109.808 9.1527 110.42 9.0087C111.032 8.8527 111.638 8.7747 112.238 8.7747C113.426 8.7747 114.344 9.0627 114.992 9.6387C115.652 10.2027 115.982 11.0067 115.982 12.0507V18.1167H114.218V17.3247C113.81 17.6487 113.372 17.8887 112.904 18.0447C112.436 18.2007 111.926 18.2787 111.374 18.2787ZM109.736 15.4527C109.736 15.8967 109.922 16.2567 110.294 16.5327C110.678 16.8087 111.176 16.9467 111.788 16.9467C112.268 16.9467 112.712 16.8747 113.12 16.7307C113.528 16.5867 113.894 16.3707 114.218 16.0827V14.4987C113.87 14.3067 113.504 14.1687 113.12 14.0847C112.736 13.9887 112.316 13.9407 111.86 13.9407C111.212 13.9407 110.696 14.0787 110.312 14.3547C109.928 14.6307 109.736 14.9967 109.736 15.4527ZM120.036 5.1207V18.1167H118.236V5.5167L120.036 5.1207Z" fill="white"/>
<path opacity="0.5" d="M6.02 45.4167L2.366 38.1367V46.1167H0.994V36.3167H2.954L6.034 42.5747L9.1 36.3167H11.06V46.1167H9.674V38.1227L6.02 45.4167ZM15.1419 46.2427C14.3672 46.2427 13.7372 46.042 13.2519 45.6407C12.7665 45.2394 12.5239 44.7167 12.5239 44.0727C12.5239 43.4007 12.7805 42.8734 13.2939 42.4907C13.8072 42.0987 14.5119 41.9027 15.4079 41.9027C15.7532 41.9027 16.0892 41.94 16.4159 42.0147C16.7425 42.08 17.0552 42.1734 17.3539 42.2947V41.5387C17.3539 41.0347 17.2045 40.6567 16.9059 40.4047C16.6072 40.1527 16.1779 40.0267 15.6179 40.0267C15.2912 40.0267 14.9505 40.078 14.5959 40.1807C14.2412 40.274 13.8445 40.4234 13.4059 40.6287L12.8879 39.5787C13.4199 39.3267 13.9239 39.1447 14.3999 39.0327C14.8759 38.9114 15.3472 38.8507 15.8139 38.8507C16.7379 38.8507 17.4519 39.0747 17.9559 39.5227C18.4692 39.9614 18.7259 40.5867 18.7259 41.3987V46.1167H17.3539V45.5007C17.0365 45.7527 16.6959 45.9394 16.3319 46.0607C15.9679 46.182 15.5712 46.2427 15.1419 46.2427ZM13.8679 44.0447C13.8679 44.39 14.0125 44.67 14.3019 44.8847C14.6005 45.0994 14.9879 45.2067 15.4639 45.2067C15.8372 45.2067 16.1825 45.1507 16.4999 45.0387C16.8172 44.9267 17.1019 44.7587 17.3539 44.5347V43.3027C17.0832 43.1534 16.7985 43.046 16.4999 42.9807C16.2012 42.906 15.8745 42.8687 15.5199 42.8687C15.0159 42.8687 14.6145 42.976 14.3159 43.1907C14.0172 43.4054 13.8679 43.69 13.8679 44.0447ZM21.179 37.8427C20.9457 37.8427 20.745 37.7587 20.577 37.5907C20.409 37.4134 20.325 37.208 20.325 36.9747C20.325 36.7414 20.409 36.5407 20.577 36.3727C20.745 36.1954 20.9457 36.1067 21.179 36.1067C21.4124 36.1067 21.613 36.1954 21.781 36.3727C21.9584 36.5407 22.047 36.7414 22.047 36.9747C22.047 37.208 21.9584 37.4134 21.781 37.5907C21.613 37.7587 21.4124 37.8427 21.179 37.8427ZM21.879 38.9907V46.1167H20.479V38.9907H21.879ZM23.6679 46.1167V38.9907H25.0679V39.7047C25.3479 39.4247 25.6652 39.2147 26.0199 39.0747C26.3839 38.9254 26.7805 38.8507 27.2099 38.8507C28.0219 38.8507 28.6892 39.112 29.2119 39.6347C29.7345 40.148 29.9959 40.8154 29.9959 41.6367V46.1167H28.5959V41.8747C28.5959 41.3147 28.4325 40.876 28.1059 40.5587C27.7885 40.232 27.3639 40.0687 26.8319 40.0687C26.4585 40.0687 26.1179 40.148 25.8099 40.3067C25.5112 40.4654 25.2639 40.694 25.0679 40.9927V46.1167H23.6679ZM37.505 46.1167H36.147L34.159 38.9907H35.517L36.889 44.2267L38.527 38.9907H39.731L41.355 44.2267L42.741 38.9907H44.057L42.055 46.1167H40.711L39.115 40.8947L37.505 46.1167ZM51.2345 45.3047C50.8239 45.622 50.3945 45.86 49.9465 46.0187C49.4985 46.168 49.0085 46.2427 48.4765 46.2427C47.9539 46.2427 47.4639 46.1494 47.0065 45.9627C46.5492 45.7667 46.1525 45.5054 45.8165 45.1787C45.4805 44.852 45.2145 44.4647 45.0185 44.0167C44.8319 43.5594 44.7385 43.0694 44.7385 42.5467C44.7385 42.0334 44.8319 41.5527 45.0185 41.1047C45.2052 40.6567 45.4572 40.2694 45.7745 39.9427C46.0919 39.616 46.4699 39.3594 46.9085 39.1727C47.3472 38.9767 47.8139 38.8787 48.3085 38.8787C48.7939 38.8787 49.2465 38.9767 49.6665 39.1727C50.0959 39.3594 50.4599 39.6207 50.7585 39.9567C51.0665 40.2834 51.3092 40.6754 51.4865 41.1327C51.6639 41.59 51.7525 42.08 51.7525 42.6027V43.0087H46.1245C46.2179 43.5967 46.4885 44.0867 46.9365 44.4787C47.3845 44.8614 47.9165 45.0527 48.5325 45.0527C48.8779 45.0527 49.2092 44.9967 49.5265 44.8847C49.8439 44.7727 50.1145 44.6187 50.3385 44.4227L51.2345 45.3047ZM48.2805 40.0547C47.7485 40.0547 47.2819 40.232 46.8805 40.5867C46.4885 40.9414 46.2412 41.3987 46.1385 41.9587H50.3665C50.2639 41.4174 50.0165 40.9647 49.6245 40.6007C49.2419 40.2367 48.7939 40.0547 48.2805 40.0547ZM60.3939 42.5467C60.3939 43.06 60.3006 43.5454 60.1139 44.0027C59.9273 44.4507 59.6706 44.838 59.3439 45.1647C59.0266 45.4914 58.6439 45.7527 58.1959 45.9487C57.7479 46.1354 57.2719 46.2287 56.7679 46.2287C56.3666 46.2287 55.9839 46.168 55.6199 46.0467C55.2559 45.9254 54.9199 45.748 54.6119 45.5147V46.1167H53.2259V36.3167L54.6259 36.0087V39.6627C54.9153 39.4107 55.2466 39.2194 55.6199 39.0887C55.9933 38.9487 56.3853 38.8787 56.7959 38.8787C57.2999 38.8787 57.7713 38.9767 58.2099 39.1727C58.6486 39.3594 59.0266 39.616 59.3439 39.9427C59.6706 40.2694 59.9273 40.6567 60.1139 41.1047C60.3006 41.5527 60.3939 42.0334 60.3939 42.5467ZM56.6139 40.0967C56.2126 40.0967 55.8393 40.1714 55.4939 40.3207C55.1486 40.47 54.8593 40.68 54.6259 40.9507V44.1707C54.8499 44.432 55.1346 44.6374 55.4799 44.7867C55.8346 44.936 56.2126 45.0107 56.6139 45.0107C57.2953 45.0107 57.8646 44.7774 58.3219 44.3107C58.7886 43.844 59.0219 43.2607 59.0219 42.5607C59.0219 41.8607 58.7886 41.2774 58.3219 40.8107C57.8553 40.3347 57.2859 40.0967 56.6139 40.0967ZM61.1978 45.1927L61.9538 44.2687C62.3272 44.558 62.7052 44.782 63.0878 44.9407C63.4798 45.09 63.8765 45.1647 64.2778 45.1647C64.7818 45.1647 65.1925 45.0667 65.5098 44.8707C65.8272 44.6747 65.9858 44.418 65.9858 44.1007C65.9858 43.8487 65.8925 43.648 65.7058 43.4987C65.5192 43.3494 65.2298 43.2467 64.8378 43.1907L63.5498 43.0087C62.8498 42.906 62.3178 42.6914 61.9538 42.3647C61.5992 42.0287 61.4218 41.5854 61.4218 41.0347C61.4218 40.3907 61.6785 39.8727 62.1918 39.4807C62.7052 39.0794 63.3772 38.8787 64.2078 38.8787C64.7305 38.8787 65.2252 38.9534 65.6918 39.1027C66.1678 39.252 66.6298 39.4807 67.0778 39.7887L66.3638 40.7127C65.9718 40.4514 65.5892 40.2647 65.2158 40.1527C64.8518 40.0314 64.4832 39.9707 64.1098 39.9707C63.6805 39.9707 63.3352 40.0594 63.0738 40.2367C62.8125 40.414 62.6818 40.6474 62.6818 40.9367C62.6818 41.198 62.7705 41.3987 62.9478 41.5387C63.1345 41.6694 63.4378 41.7674 63.8578 41.8327L65.1458 42.0147C65.8458 42.1174 66.3778 42.3367 66.7418 42.6727C67.1152 43.0087 67.3018 43.452 67.3018 44.0027C67.3018 44.32 67.2225 44.6187 67.0638 44.8987C66.9145 45.1694 66.7045 45.4027 66.4338 45.5987C66.1725 45.7947 65.8598 45.9534 65.4958 46.0747C65.1318 46.1867 64.7398 46.2427 64.3198 46.2427C63.7038 46.2427 63.1252 46.154 62.5838 45.9767C62.0518 45.7994 61.5898 45.538 61.1978 45.1927ZM69.2176 37.8427C68.9843 37.8427 68.7836 37.7587 68.6156 37.5907C68.4476 37.4134 68.3636 37.208 68.3636 36.9747C68.3636 36.7414 68.4476 36.5407 68.6156 36.3727C68.7836 36.1954 68.9843 36.1067 69.2176 36.1067C69.451 36.1067 69.6516 36.1954 69.8196 36.3727C69.997 36.5407 70.0856 36.7414 70.0856 36.9747C70.0856 37.208 69.997 37.4134 69.8196 37.5907C69.6516 37.7587 69.451 37.8427 69.2176 37.8427ZM69.9176 38.9907V46.1167H68.5176V38.9907H69.9176ZM72.6305 44.3527V40.1667H71.1185V38.9907H72.6305V37.1707L74.0165 36.8347V38.9907H76.1165V40.1667H74.0165V44.0307C74.0165 44.3947 74.0958 44.6514 74.2545 44.8007C74.4225 44.95 74.6931 45.0247 75.0665 45.0247C75.2625 45.0247 75.4351 45.0154 75.5845 44.9967C75.7431 44.9687 75.9111 44.922 76.0885 44.8567V46.0327C75.9018 46.098 75.6825 46.1494 75.4305 46.1867C75.1878 46.224 74.9638 46.2427 74.7585 46.2427C74.0678 46.2427 73.5405 46.084 73.1765 45.7667C72.8125 45.44 72.6305 44.9687 72.6305 44.3527ZM83.3115 45.3047C82.9008 45.622 82.4715 45.86 82.0235 46.0187C81.5755 46.168 81.0855 46.2427 80.5535 46.2427C80.0308 46.2427 79.5408 46.1494 79.0835 45.9627C78.6262 45.7667 78.2295 45.5054 77.8935 45.1787C77.5575 44.852 77.2915 44.4647 77.0955 44.0167C76.9088 43.5594 76.8155 43.0694 76.8155 42.5467C76.8155 42.0334 76.9088 41.5527 77.0955 41.1047C77.2822 40.6567 77.5342 40.2694 77.8515 39.9427C78.1688 39.616 78.5468 39.3594 78.9855 39.1727C79.4242 38.9767 79.8908 38.8787 80.3855 38.8787C80.8708 38.8787 81.3235 38.9767 81.7435 39.1727C82.1728 39.3594 82.5368 39.6207 82.8355 39.9567C83.1435 40.2834 83.3862 40.6754 83.5635 41.1327C83.7408 41.59 83.8295 42.08 83.8295 42.6027V43.0087H78.2015C78.2948 43.5967 78.5655 44.0867 79.0135 44.4787C79.4615 44.8614 79.9935 45.0527 80.6095 45.0527C80.9548 45.0527 81.2862 44.9967 81.6035 44.8847C81.9208 44.7727 82.1915 44.6187 82.4155 44.4227L83.3115 45.3047ZM80.3575 40.0547C79.8255 40.0547 79.3588 40.232 78.9575 40.5867C78.5655 40.9414 78.3182 41.3987 78.2155 41.9587H82.4435C82.3408 41.4174 82.0935 40.9647 81.7015 40.6007C81.3188 40.2367 80.8708 40.0547 80.3575 40.0547Z" fill="#F4F7FD"/>
<path opacity="0.5" d="M0.014 73.1167L4.074 63.3167H5.796L9.8 73.1167H8.204L7.07 70.2467H2.688L1.54 73.1167H0.014ZM3.178 69.0287H6.594L4.886 64.7307L3.178 69.0287ZM17.9504 69.5467C17.9504 70.06 17.8571 70.5454 17.6704 71.0027C17.4837 71.4507 17.2271 71.838 16.9004 72.1647C16.5831 72.4914 16.2004 72.7527 15.7524 72.9487C15.3044 73.1354 14.8284 73.2287 14.3244 73.2287C13.9231 73.2287 13.5404 73.168 13.1764 73.0467C12.8124 72.9254 12.4764 72.748 12.1684 72.5147V73.1167H10.7824V63.3167L12.1824 63.0087V66.6627C12.4717 66.4107 12.8031 66.2194 13.1764 66.0887C13.5497 65.9487 13.9417 65.8787 14.3524 65.8787C14.8564 65.8787 15.3277 65.9767 15.7664 66.1727C16.2051 66.3594 16.5831 66.616 16.9004 66.9427C17.2271 67.2694 17.4837 67.6567 17.6704 68.1047C17.8571 68.5527 17.9504 69.0334 17.9504 69.5467ZM14.1704 67.0967C13.7691 67.0967 13.3957 67.1714 13.0504 67.3207C12.7051 67.47 12.4157 67.68 12.1824 67.9507V71.1707C12.4064 71.432 12.6911 71.6374 13.0364 71.7867C13.3911 71.936 13.7691 72.0107 14.1704 72.0107C14.8517 72.0107 15.4211 71.7774 15.8784 71.3107C16.3451 70.844 16.5784 70.2607 16.5784 69.5607C16.5784 68.8607 16.3451 68.2774 15.8784 67.8107C15.4117 67.3347 14.8424 67.0967 14.1704 67.0967ZM19.1317 69.5467C19.1317 69.0334 19.225 68.5527 19.4117 68.1047C19.6077 67.6474 19.8737 67.2554 20.2097 66.9287C20.5457 66.5927 20.9377 66.3314 21.3857 66.1447C21.843 65.9487 22.3283 65.8507 22.8417 65.8507C23.355 65.8507 23.8357 65.9487 24.2837 66.1447C24.741 66.3314 25.133 66.5927 25.4597 66.9287C25.7957 67.2554 26.057 67.6474 26.2437 68.1047C26.4397 68.5527 26.5377 69.0334 26.5377 69.5467C26.5377 70.0694 26.4397 70.5594 26.2437 71.0167C26.057 71.4647 25.7957 71.8567 25.4597 72.1927C25.133 72.5194 24.741 72.7807 24.2837 72.9767C23.8357 73.1634 23.355 73.2567 22.8417 73.2567C22.3283 73.2567 21.843 73.1634 21.3857 72.9767C20.9377 72.7807 20.5457 72.5194 20.2097 72.1927C19.8737 71.8567 19.6077 71.4647 19.4117 71.0167C19.225 70.5594 19.1317 70.0694 19.1317 69.5467ZM22.8417 72.0247C23.4857 72.0247 24.0317 71.7867 24.4797 71.3107C24.937 70.8254 25.1657 70.2374 25.1657 69.5467C25.1657 68.856 24.937 68.2727 24.4797 67.7967C24.0317 67.3207 23.4857 67.0827 22.8417 67.0827C22.1977 67.0827 21.647 67.3207 21.1897 67.7967C20.7323 68.2727 20.5037 68.856 20.5037 69.5467C20.5037 70.2374 20.7277 70.8254 21.1757 71.3107C21.633 71.7867 22.1883 72.0247 22.8417 72.0247ZM29.3739 65.9907V70.2187C29.3739 70.7787 29.5325 71.222 29.8499 71.5487C30.1765 71.8754 30.6059 72.0387 31.1379 72.0387C31.5112 72.0387 31.8472 71.9594 32.1459 71.8007C32.4445 71.6327 32.6919 71.3994 32.8879 71.1007V65.9907H34.2879V73.1167H32.8879V72.4027C32.6079 72.6827 32.2859 72.8974 31.9219 73.0467C31.5672 73.1867 31.1752 73.2567 30.7459 73.2567C29.9339 73.2567 29.2665 72.9954 28.7439 72.4727C28.2305 71.95 27.9739 71.278 27.9739 70.4567V65.9907H29.3739ZM37.0092 71.3527V67.1667H35.4972V65.9907H37.0092V64.1707L38.3952 63.8347V65.9907H40.4952V67.1667H38.3952V71.0307C38.3952 71.3947 38.4746 71.6514 38.6332 71.8007C38.8012 71.95 39.0719 72.0247 39.4452 72.0247C39.6412 72.0247 39.8139 72.0154 39.9632 71.9967C40.1219 71.9687 40.2899 71.922 40.4672 71.8567V73.0327C40.2806 73.098 40.0612 73.1494 39.8092 73.1867C39.5666 73.224 39.3426 73.2427 39.1372 73.2427C38.4466 73.2427 37.9192 73.084 37.5552 72.7667C37.1912 72.44 37.0092 71.9687 37.0092 71.3527ZM53.0624 68.9307C53.0624 69.5934 52.9644 70.1954 52.7684 70.7367C52.5724 71.2687 52.2924 71.7214 51.9284 72.0947C51.5737 72.468 51.1351 72.7574 50.6124 72.9627C50.0991 73.168 49.5251 73.2707 48.8904 73.2707C47.6211 73.2707 46.6084 72.8787 45.8524 72.0947C45.1057 71.3107 44.7324 70.256 44.7324 68.9307V63.3167H46.2024V68.9307C46.2024 69.836 46.4451 70.5594 46.9304 71.1007C47.4251 71.642 48.0784 71.9127 48.8904 71.9127C49.7117 71.9127 50.3651 71.642 50.8504 71.1007C51.3451 70.5594 51.5924 69.836 51.5924 68.9307V63.3167H53.0624V68.9307ZM54.2356 72.1927L54.9916 71.2687C55.3649 71.558 55.7429 71.782 56.1256 71.9407C56.5176 72.09 56.9142 72.1647 57.3156 72.1647C57.8196 72.1647 58.2302 72.0667 58.5476 71.8707C58.8649 71.6747 59.0236 71.418 59.0236 71.1007C59.0236 70.8487 58.9302 70.648 58.7436 70.4987C58.5569 70.3494 58.2676 70.2467 57.8756 70.1907L56.5876 70.0087C55.8876 69.906 55.3556 69.6914 54.9916 69.3647C54.6369 69.0287 54.4596 68.5854 54.4596 68.0347C54.4596 67.3907 54.7162 66.8727 55.2296 66.4807C55.7429 66.0794 56.4149 65.8787 57.2456 65.8787C57.7682 65.8787 58.2629 65.9534 58.7296 66.1027C59.2056 66.252 59.6676 66.4807 60.1156 66.7887L59.4016 67.7127C59.0096 67.4514 58.6269 67.2647 58.2536 67.1527C57.8896 67.0314 57.5209 66.9707 57.1476 66.9707C56.7182 66.9707 56.3729 67.0594 56.1116 67.2367C55.8502 67.414 55.7196 67.6474 55.7196 67.9367C55.7196 68.198 55.8082 68.3987 55.9856 68.5387C56.1722 68.6694 56.4756 68.7674 56.8956 68.8327L58.1836 69.0147C58.8836 69.1174 59.4156 69.3367 59.7796 69.6727C60.1529 70.0087 60.3396 70.452 60.3396 71.0027C60.3396 71.32 60.2602 71.6187 60.1016 71.8987C59.9522 72.1694 59.7422 72.4027 59.4716 72.5987C59.2102 72.7947 58.8976 72.9534 58.5336 73.0747C58.1696 73.1867 57.7776 73.2427 57.3576 73.2427C56.7416 73.2427 56.1629 73.154 55.6216 72.9767C55.0896 72.7994 54.6276 72.538 54.2356 72.1927Z" fill="#F4F7FD"/>
<path opacity="0.5" d="M0.994 100.117V90.3167H2.464V98.8147H8.106V100.117H0.994ZM15.3705 99.3047C14.9598 99.622 14.5305 99.86 14.0825 100.019C13.6345 100.168 13.1445 100.243 12.6125 100.243C12.0898 100.243 11.5998 100.149 11.1425 99.9627C10.6851 99.7667 10.2885 99.5054 9.95247 99.1787C9.61647 98.852 9.35047 98.4647 9.15447 98.0167C8.9678 97.5594 8.87447 97.0694 8.87447 96.5467C8.87447 96.0334 8.9678 95.5527 9.15447 95.1047C9.34114 94.6567 9.59314 94.2694 9.91047 93.9427C10.2278 93.616 10.6058 93.3594 11.0445 93.1727C11.4831 92.9767 11.9498 92.8787 12.4445 92.8787C12.9298 92.8787 13.3825 92.9767 13.8025 93.1727C14.2318 93.3594 14.5958 93.6207 14.8945 93.9567C15.2025 94.2834 15.4451 94.6754 15.6225 95.1327C15.7998 95.59 15.8885 96.08 15.8885 96.6027V97.0087H10.2605C10.3538 97.5967 10.6245 98.0867 11.0725 98.4787C11.5205 98.8614 12.0525 99.0527 12.6685 99.0527C13.0138 99.0527 13.3451 98.9967 13.6625 98.8847C13.9798 98.7727 14.2505 98.6187 14.4745 98.4227L15.3705 99.3047ZM12.4165 94.0547C11.8845 94.0547 11.4178 94.232 11.0165 94.5867C10.6245 94.9414 10.3771 95.3987 10.2745 95.9587H14.5025C14.3998 95.4174 14.1525 94.9647 13.7605 94.6007C13.3778 94.2367 12.9298 94.0547 12.4165 94.0547ZM19.5338 100.243C18.7592 100.243 18.1292 100.042 17.6438 99.6407C17.1585 99.2394 16.9158 98.7167 16.9158 98.0727C16.9158 97.4007 17.1725 96.8734 17.6858 96.4907C18.1992 96.0987 18.9038 95.9027 19.7998 95.9027C20.1452 95.9027 20.4812 95.94 20.8078 96.0147C21.1345 96.08 21.4472 96.1734 21.7458 96.2947V95.5387C21.7458 95.0347 21.5965 94.6567 21.2978 94.4047C20.9992 94.1527 20.5698 94.0267 20.0098 94.0267C19.6832 94.0267 19.3425 94.078 18.9878 94.1807C18.6332 94.274 18.2365 94.4234 17.7978 94.6287L17.2798 93.5787C17.8118 93.3267 18.3158 93.1447 18.7918 93.0327C19.2678 92.9114 19.7392 92.8507 20.2058 92.8507C21.1298 92.8507 21.8438 93.0747 22.3478 93.5227C22.8612 93.9614 23.1178 94.5867 23.1178 95.3987V100.117H21.7458V99.5007C21.4285 99.7527 21.0878 99.9394 20.7238 100.061C20.3598 100.182 19.9632 100.243 19.5338 100.243ZM18.2598 98.0447C18.2598 98.39 18.4045 98.67 18.6938 98.8847C18.9925 99.0994 19.3798 99.2067 19.8558 99.2067C20.2292 99.2067 20.5745 99.1507 20.8918 99.0387C21.2092 98.9267 21.4938 98.7587 21.7458 98.5347V97.3027C21.4752 97.1534 21.1905 97.046 20.8918 96.9807C20.5932 96.906 20.2665 96.8687 19.9118 96.8687C19.4078 96.8687 19.0065 96.976 18.7078 97.1907C18.4092 97.4054 18.2598 97.69 18.2598 98.0447ZM30.331 100.117V99.4447C30.0323 99.6967 29.6963 99.8927 29.323 100.033C28.9497 100.163 28.5577 100.229 28.147 100.229C27.643 100.229 27.1717 100.135 26.733 99.9487C26.2943 99.7527 25.9117 99.4914 25.585 99.1647C25.2677 98.838 25.0157 98.4507 24.829 98.0027C24.6423 97.5454 24.549 97.06 24.549 96.5467C24.549 96.0334 24.6423 95.5527 24.829 95.1047C25.0157 94.6567 25.2677 94.2694 25.585 93.9427C25.9117 93.616 26.299 93.3594 26.747 93.1727C27.195 92.9767 27.671 92.8787 28.175 92.8787C28.567 92.8787 28.945 92.9394 29.309 93.0607C29.673 93.182 30.009 93.3547 30.317 93.5787V90.3167L31.717 90.0087V100.117H30.331ZM25.921 96.5327C25.921 97.2327 26.1543 97.8207 26.621 98.2967C27.0877 98.7727 27.6617 99.0107 28.343 99.0107C28.7443 99.0107 29.113 98.936 29.449 98.7867C29.7943 98.6374 30.0837 98.4274 30.317 98.1567V94.9227C30.0837 94.6614 29.7943 94.456 29.449 94.3067C29.1037 94.1574 28.735 94.0827 28.343 94.0827C27.6617 94.0827 27.0877 94.316 26.621 94.7827C26.1543 95.2494 25.921 95.8327 25.921 96.5327ZM39.6889 99.3047C39.2782 99.622 38.8489 99.86 38.4009 100.019C37.9529 100.168 37.4629 100.243 36.9309 100.243C36.4082 100.243 35.9182 100.149 35.4609 99.9627C35.0036 99.7667 34.6069 99.5054 34.2709 99.1787C33.9349 98.852 33.6689 98.4647 33.4729 98.0167C33.2862 97.5594 33.1929 97.0694 33.1929 96.5467C33.1929 96.0334 33.2862 95.5527 33.4729 95.1047C33.6596 94.6567 33.9116 94.2694 34.2289 93.9427C34.5462 93.616 34.9242 93.3594 35.3629 93.1727C35.8016 92.9767 36.2682 92.8787 36.7629 92.8787C37.2482 92.8787 37.7009 92.9767 38.1209 93.1727C38.5502 93.3594 38.9142 93.6207 39.2129 93.9567C39.5209 94.2834 39.7636 94.6754 39.9409 95.1327C40.1182 95.59 40.2069 96.08 40.2069 96.6027V97.0087H34.5789C34.6722 97.5967 34.9429 98.0867 35.3909 98.4787C35.8389 98.8614 36.3709 99.0527 36.9869 99.0527C37.3322 99.0527 37.6636 98.9967 37.9809 98.8847C38.2982 98.7727 38.5689 98.6187 38.7929 98.4227L39.6889 99.3047ZM36.7349 94.0547C36.2029 94.0547 35.7362 94.232 35.3349 94.5867C34.9429 94.9414 34.6956 95.3987 34.5929 95.9587H38.8209C38.7182 95.4174 38.4709 94.9647 38.0789 94.6007C37.6962 94.2367 37.2482 94.0547 36.7349 94.0547ZM41.6803 100.117V92.9907H43.0803V93.9007C43.295 93.5554 43.5703 93.294 43.9063 93.1167C44.2423 92.93 44.6203 92.8367 45.0403 92.8367C45.1896 92.8367 45.3203 92.846 45.4323 92.8647C45.5443 92.8834 45.6516 92.9114 45.7543 92.9487V94.2087C45.6236 94.162 45.4883 94.1247 45.3483 94.0967C45.2083 94.0687 45.0683 94.0547 44.9283 94.0547C44.5176 94.0547 44.149 94.1667 43.8223 94.3907C43.505 94.6054 43.2576 94.9274 43.0803 95.3567V100.117H41.6803ZM46.3299 99.1927L47.0859 98.2687C47.4593 98.558 47.8373 98.782 48.2199 98.9407C48.6119 99.09 49.0086 99.1647 49.4099 99.1647C49.9139 99.1647 50.3246 99.0667 50.6419 98.8707C50.9593 98.6747 51.1179 98.418 51.1179 98.1007C51.1179 97.8487 51.0246 97.648 50.8379 97.4987C50.6513 97.3494 50.3619 97.2467 49.9699 97.1907L48.6819 97.0087C47.9819 96.906 47.4499 96.6914 47.0859 96.3647C46.7313 96.0287 46.5539 95.5854 46.5539 95.0347C46.5539 94.3907 46.8106 93.8727 47.3239 93.4807C47.8373 93.0794 48.5093 92.8787 49.3399 92.8787C49.8626 92.8787 50.3573 92.9534 50.8239 93.1027C51.2999 93.252 51.7619 93.4807 52.2099 93.7887L51.4959 94.7127C51.1039 94.4514 50.7213 94.2647 50.3479 94.1527C49.9839 94.0314 49.6153 93.9707 49.2419 93.9707C48.8126 93.9707 48.4673 94.0594 48.2059 94.2367C47.9446 94.414 47.8139 94.6474 47.8139 94.9367C47.8139 95.198 47.9026 95.3987 48.0799 95.5387C48.2666 95.6694 48.5699 95.7674 48.9899 95.8327L50.2779 96.0147C50.9779 96.1174 51.5099 96.3367 51.8739 96.6727C52.2473 97.0087 52.4339 97.452 52.4339 98.0027C52.4339 98.32 52.3546 98.6187 52.1959 98.8987C52.0466 99.1694 51.8366 99.4027 51.5659 99.5987C51.3046 99.7947 50.9919 99.9534 50.6279 100.075C50.2639 100.187 49.8719 100.243 49.4519 100.243C48.8359 100.243 48.2573 100.154 47.7159 99.9767C47.1839 99.7994 46.7219 99.538 46.3299 99.1927ZM53.6497 100.117V90.3167L55.0497 90.0087V93.7047C55.3297 93.4247 55.6471 93.2147 56.0017 93.0747C56.3657 92.9254 56.7624 92.8507 57.1917 92.8507C58.0037 92.8507 58.6711 93.112 59.1937 93.6347C59.7164 94.148 59.9778 94.8154 59.9778 95.6367V100.117H58.5777V95.8747C58.5777 95.3147 58.4144 94.876 58.0877 94.5587C57.7704 94.232 57.3457 94.0687 56.8137 94.0687C56.4404 94.0687 56.0997 94.148 55.7917 94.3067C55.4931 94.4654 55.2457 94.694 55.0497 94.9927V100.117H53.6497ZM62.4331 91.8427C62.1998 91.8427 61.9991 91.7587 61.8311 91.5907C61.6631 91.4134 61.5791 91.208 61.5791 90.9747C61.5791 90.7414 61.6631 90.5407 61.8311 90.3727C61.9991 90.1954 62.1998 90.1067 62.4331 90.1067C62.6664 90.1067 62.8671 90.1954 63.0351 90.3727C63.2124 90.5407 63.3011 90.7414 63.3011 90.9747C63.3011 91.208 63.2124 91.4134 63.0351 91.5907C62.8671 91.7587 62.6664 91.8427 62.4331 91.8427ZM63.1331 92.9907V100.117H61.7331V92.9907H63.1331ZM64.9219 103.015V92.9907H66.3079V93.6767C66.5973 93.4154 66.9286 93.2194 67.3019 93.0887C67.6753 92.9487 68.0719 92.8787 68.4919 92.8787C68.9959 92.8787 69.4673 92.9767 69.9059 93.1727C70.3446 93.3594 70.7226 93.616 71.0399 93.9427C71.3666 94.2694 71.6233 94.6567 71.8099 95.1047C71.9966 95.5527 72.0899 96.0334 72.0899 96.5467C72.0899 97.06 71.9966 97.5454 71.8099 98.0027C71.6233 98.4507 71.3666 98.838 71.0399 99.1647C70.7226 99.4914 70.3399 99.7527 69.8919 99.9487C69.4439 100.135 68.9679 100.229 68.4639 100.229C68.0719 100.229 67.6893 100.168 67.3159 100.047C66.9519 99.9254 66.6206 99.7527 66.3219 99.5287V103.015H64.9219ZM68.3099 94.0967C67.9086 94.0967 67.5353 94.1714 67.1899 94.3207C66.8446 94.47 66.5553 94.68 66.3219 94.9507V98.1707C66.5459 98.432 66.8306 98.6374 67.1759 98.7867C67.5306 98.936 67.9086 99.0107 68.3099 99.0107C68.9913 99.0107 69.5606 98.7774 70.0179 98.3107C70.4846 97.844 70.7179 97.2607 70.7179 96.5607C70.7179 95.8607 70.4846 95.2774 70.0179 94.8107C69.5513 94.3347 68.9819 94.0967 68.3099 94.0967Z" fill="#F4F7FD"/>
<path opacity="0.5" d="M0.994 127.117V117.317H4.452C5.18933 117.317 5.87067 117.443 6.496 117.695C7.13067 117.937 7.67667 118.278 8.134 118.717C8.60067 119.146 8.96467 119.664 9.226 120.271C9.48733 120.877 9.618 121.531 9.618 122.231C9.618 122.931 9.48733 123.579 9.226 124.177C8.96467 124.774 8.60533 125.292 8.148 125.731C7.69067 126.16 7.14467 126.501 6.51 126.753C5.87533 126.995 5.18933 127.117 4.452 127.117H0.994ZM4.48 118.633H2.464V125.801H4.48C4.984 125.801 5.46 125.712 5.908 125.535C6.356 125.348 6.73867 125.096 7.056 124.779C7.38267 124.452 7.63933 124.074 7.826 123.645C8.01267 123.206 8.106 122.735 8.106 122.231C8.106 121.727 8.01267 121.255 7.826 120.817C7.63933 120.369 7.38267 119.986 7.056 119.669C6.73867 119.342 6.356 119.09 5.908 118.913C5.46 118.726 4.984 118.633 4.48 118.633ZM10.8295 123.547C10.8295 123.033 10.9229 122.553 11.1095 122.105C11.3055 121.647 11.5715 121.255 11.9075 120.929C12.2435 120.593 12.6355 120.331 13.0835 120.145C13.5409 119.949 14.0262 119.851 14.5395 119.851C15.0529 119.851 15.5335 119.949 15.9815 120.145C16.4389 120.331 16.8309 120.593 17.1575 120.929C17.4935 121.255 17.7549 121.647 17.9415 122.105C18.1375 122.553 18.2355 123.033 18.2355 123.547C18.2355 124.069 18.1375 124.559 17.9415 125.017C17.7549 125.465 17.4935 125.857 17.1575 126.193C16.8309 126.519 16.4389 126.781 15.9815 126.977C15.5335 127.163 15.0529 127.257 14.5395 127.257C14.0262 127.257 13.5409 127.163 13.0835 126.977C12.6355 126.781 12.2435 126.519 11.9075 126.193C11.5715 125.857 11.3055 125.465 11.1095 125.017C10.9229 124.559 10.8295 124.069 10.8295 123.547ZM14.5395 126.025C15.1835 126.025 15.7295 125.787 16.1775 125.311C16.6349 124.825 16.8635 124.237 16.8635 123.547C16.8635 122.856 16.6349 122.273 16.1775 121.797C15.7295 121.321 15.1835 121.083 14.5395 121.083C13.8955 121.083 13.3449 121.321 12.8875 121.797C12.4302 122.273 12.2015 122.856 12.2015 123.547C12.2015 124.237 12.4255 124.825 12.8735 125.311C13.3309 125.787 13.8862 126.025 14.5395 126.025ZM23.1291 126.011C23.4838 126.011 23.8198 125.941 24.1371 125.801C24.4544 125.651 24.7578 125.432 25.0471 125.143L25.8871 126.053C25.5138 126.426 25.0844 126.72 24.5991 126.935C24.1138 127.14 23.6051 127.243 23.0731 127.243C22.5598 127.243 22.0791 127.149 21.6311 126.963C21.1831 126.767 20.7958 126.505 20.4691 126.179C20.1424 125.852 19.8811 125.465 19.6851 125.017C19.4984 124.559 19.4051 124.069 19.4051 123.547C19.4051 123.033 19.4984 122.553 19.6851 122.105C19.8811 121.647 20.1424 121.255 20.4691 120.929C20.7958 120.593 21.1831 120.331 21.6311 120.145C22.0791 119.949 22.5598 119.851 23.0731 119.851C23.6051 119.851 24.1231 119.958 24.6271 120.173C25.1311 120.378 25.5698 120.667 25.9431 121.041L25.0611 121.993C24.7904 121.703 24.4871 121.484 24.1511 121.335C23.8151 121.176 23.4651 121.097 23.1011 121.097C22.4571 121.097 21.9111 121.335 21.4631 121.811C21.0151 122.287 20.7911 122.865 20.7911 123.547C20.7911 124.247 21.0151 124.835 21.4631 125.311C21.9204 125.777 22.4758 126.011 23.1291 126.011ZM28.2286 125.353V121.167H26.7166V119.991H28.2286V118.171L29.6146 117.835V119.991H31.7146V121.167H29.6146V125.031C29.6146 125.395 29.6939 125.651 29.8526 125.801C30.0206 125.95 30.2913 126.025 30.6646 126.025C30.8606 126.025 31.0333 126.015 31.1826 125.997C31.3413 125.969 31.5093 125.922 31.6866 125.857V127.033C31.4999 127.098 31.2806 127.149 31.0286 127.187C30.7859 127.224 30.5619 127.243 30.3566 127.243C29.6659 127.243 29.1386 127.084 28.7746 126.767C28.4106 126.44 28.2286 125.969 28.2286 125.353ZM32.4136 123.547C32.4136 123.033 32.5069 122.553 32.6936 122.105C32.8896 121.647 33.1556 121.255 33.4916 120.929C33.8276 120.593 34.2196 120.331 34.6676 120.145C35.1249 119.949 35.6103 119.851 36.1236 119.851C36.6369 119.851 37.1176 119.949 37.5656 120.145C38.0229 120.331 38.4149 120.593 38.7416 120.929C39.0776 121.255 39.3389 121.647 39.5256 122.105C39.7216 122.553 39.8196 123.033 39.8196 123.547C39.8196 124.069 39.7216 124.559 39.5256 125.017C39.3389 125.465 39.0776 125.857 38.7416 126.193C38.4149 126.519 38.0229 126.781 37.5656 126.977C37.1176 127.163 36.6369 127.257 36.1236 127.257C35.6103 127.257 35.1249 127.163 34.6676 126.977C34.2196 126.781 33.8276 126.519 33.4916 126.193C33.1556 125.857 32.8896 125.465 32.6936 125.017C32.5069 124.559 32.4136 124.069 32.4136 123.547ZM36.1236 126.025C36.7676 126.025 37.3136 125.787 37.7616 125.311C38.2189 124.825 38.4476 124.237 38.4476 123.547C38.4476 122.856 38.2189 122.273 37.7616 121.797C37.3136 121.321 36.7676 121.083 36.1236 121.083C35.4796 121.083 34.9289 121.321 34.4716 121.797C34.0143 122.273 33.7856 122.856 33.7856 123.547C33.7856 124.237 34.0096 124.825 34.4576 125.311C34.9149 125.787 35.4703 126.025 36.1236 126.025ZM41.2838 127.117V119.991H42.6838V120.901C42.8985 120.555 43.1738 120.294 43.5098 120.117C43.8458 119.93 44.2238 119.837 44.6438 119.837C44.7931 119.837 44.9238 119.846 45.0358 119.865C45.1478 119.883 45.2551 119.911 45.3578 119.949V121.209C45.2271 121.162 45.0918 121.125 44.9518 121.097C44.8118 121.069 44.6718 121.055 44.5318 121.055C44.1211 121.055 43.7525 121.167 43.4258 121.391C43.1085 121.605 42.8611 121.927 42.6838 122.357V127.117H41.2838ZM45.9335 126.193L46.6895 125.269C47.0628 125.558 47.4408 125.782 47.8235 125.941C48.2155 126.09 48.6121 126.165 49.0135 126.165C49.5175 126.165 49.9281 126.067 50.2455 125.871C50.5628 125.675 50.7215 125.418 50.7215 125.101C50.7215 124.849 50.6281 124.648 50.4415 124.499C50.2548 124.349 49.9655 124.247 49.5735 124.191L48.2855 124.009C47.5855 123.906 47.0535 123.691 46.6895 123.365C46.3348 123.029 46.1575 122.585 46.1575 122.035C46.1575 121.391 46.4141 120.873 46.9275 120.481C47.4408 120.079 48.1128 119.879 48.9435 119.879C49.4661 119.879 49.9608 119.953 50.4275 120.103C50.9035 120.252 51.3655 120.481 51.8135 120.789L51.0995 121.713C50.7075 121.451 50.3248 121.265 49.9515 121.153C49.5875 121.031 49.2188 120.971 48.8455 120.971C48.4161 120.971 48.0708 121.059 47.8095 121.237C47.5481 121.414 47.4175 121.647 47.4175 121.937C47.4175 122.198 47.5061 122.399 47.6835 122.539C47.8701 122.669 48.1735 122.767 48.5935 122.833L49.8815 123.015C50.5815 123.117 51.1135 123.337 51.4775 123.673C51.8508 124.009 52.0375 124.452 52.0375 125.003C52.0375 125.32 51.9581 125.619 51.7995 125.899C51.6501 126.169 51.4401 126.403 51.1695 126.599C50.9081 126.795 50.5955 126.953 50.2315 127.075C49.8675 127.187 49.4755 127.243 49.0555 127.243C48.4395 127.243 47.8608 127.154 47.3195 126.977C46.7875 126.799 46.3255 126.538 45.9335 126.193Z" fill="#F4F7FD"/>
<path opacity="0.5" d="M0.112 152.493L1.008 151.457C1.54 151.97 2.08133 152.357 2.632 152.619C3.192 152.871 3.77533 152.997 4.382 152.997C5.082 152.997 5.65133 152.843 6.09 152.535C6.538 152.227 6.762 151.835 6.762 151.359C6.762 150.929 6.608 150.598 6.3 150.365C5.992 150.122 5.48333 149.94 4.774 149.819L3.136 149.553C2.24 149.403 1.568 149.119 1.12 148.699C0.681333 148.269 0.462 147.705 0.462 147.005C0.462 146.155 0.793333 145.474 1.456 144.961C2.11867 144.447 2.99133 144.191 4.074 144.191C4.774 144.191 5.46933 144.307 6.16 144.541C6.85067 144.765 7.47133 145.091 8.022 145.521L7.21 146.641C6.678 146.239 6.146 145.941 5.614 145.745C5.082 145.539 4.54533 145.437 4.004 145.437C3.36933 145.437 2.856 145.572 2.464 145.843C2.072 146.113 1.876 146.463 1.876 146.893C1.876 147.294 2.01133 147.602 2.282 147.817C2.55267 148.022 3.00067 148.176 3.626 148.279L5.208 148.531C6.23467 148.699 6.99067 149.007 7.476 149.455C7.97067 149.893 8.218 150.491 8.218 151.247C8.218 151.695 8.12467 152.105 7.938 152.479C7.75133 152.852 7.48533 153.169 7.14 153.431C6.804 153.692 6.39333 153.897 5.908 154.047C5.42267 154.187 4.89067 154.257 4.312 154.257C3.528 154.257 2.772 154.103 2.044 153.795C1.316 153.487 0.672 153.053 0.112 152.493ZM9.55194 157.015V146.991H10.9379V147.677C11.2273 147.415 11.5586 147.219 11.9319 147.089C12.3053 146.949 12.7019 146.879 13.1219 146.879C13.6259 146.879 14.0973 146.977 14.5359 147.173C14.9746 147.359 15.3526 147.616 15.6699 147.943C15.9966 148.269 16.2533 148.657 16.4399 149.105C16.6266 149.553 16.7199 150.033 16.7199 150.547C16.7199 151.06 16.6266 151.545 16.4399 152.003C16.2533 152.451 15.9966 152.838 15.6699 153.165C15.3526 153.491 14.9699 153.753 14.5219 153.949C14.0739 154.135 13.5979 154.229 13.0939 154.229C12.7019 154.229 12.3193 154.168 11.9459 154.047C11.5819 153.925 11.2506 153.753 10.9519 153.529V157.015H9.55194ZM12.9399 148.097C12.5386 148.097 12.1653 148.171 11.8199 148.321C11.4746 148.47 11.1853 148.68 10.9519 148.951V152.171C11.1759 152.432 11.4606 152.637 11.8059 152.787C12.1606 152.936 12.5386 153.011 12.9399 153.011C13.6213 153.011 14.1906 152.777 14.6479 152.311C15.1146 151.844 15.3479 151.261 15.3479 150.561C15.3479 149.861 15.1146 149.277 14.6479 148.811C14.1813 148.335 13.6119 148.097 12.9399 148.097ZM24.3972 153.305C23.9865 153.622 23.5572 153.86 23.1092 154.019C22.6612 154.168 22.1712 154.243 21.6392 154.243C21.1165 154.243 20.6265 154.149 20.1692 153.963C19.7119 153.767 19.3152 153.505 18.9792 153.179C18.6432 152.852 18.3772 152.465 18.1812 152.017C17.9945 151.559 17.9012 151.069 17.9012 150.547C17.9012 150.033 17.9945 149.553 18.1812 149.105C18.3679 148.657 18.6199 148.269 18.9372 147.943C19.2545 147.616 19.6325 147.359 20.0712 147.173C20.5099 146.977 20.9765 146.879 21.4712 146.879C21.9565 146.879 22.4092 146.977 22.8292 147.173C23.2585 147.359 23.6225 147.621 23.9212 147.957C24.2292 148.283 24.4719 148.675 24.6492 149.133C24.8265 149.59 24.9152 150.08 24.9152 150.603V151.009H19.2872C19.3805 151.597 19.6512 152.087 20.0992 152.479C20.5472 152.861 21.0792 153.053 21.6952 153.053C22.0405 153.053 22.3719 152.997 22.6892 152.885C23.0065 152.773 23.2772 152.619 23.5012 152.423L24.3972 153.305ZM21.4432 148.055C20.9112 148.055 20.4445 148.232 20.0432 148.587C19.6512 148.941 19.4039 149.399 19.3012 149.959H23.5292C23.4265 149.417 23.1792 148.965 22.7872 148.601C22.4045 148.237 21.9565 148.055 21.4432 148.055ZM29.8179 153.011C30.1726 153.011 30.5086 152.941 30.8259 152.801C31.1433 152.651 31.4466 152.432 31.7359 152.143L32.5759 153.053C32.2026 153.426 31.7733 153.72 31.2879 153.935C30.8026 154.14 30.2939 154.243 29.7619 154.243C29.2486 154.243 28.7679 154.149 28.3199 153.963C27.8719 153.767 27.4846 153.505 27.1579 153.179C26.8313 152.852 26.5699 152.465 26.3739 152.017C26.1873 151.559 26.0939 151.069 26.0939 150.547C26.0939 150.033 26.1873 149.553 26.3739 149.105C26.5699 148.647 26.8313 148.255 27.1579 147.929C27.4846 147.593 27.8719 147.331 28.3199 147.145C28.7679 146.949 29.2486 146.851 29.7619 146.851C30.2939 146.851 30.8119 146.958 31.3159 147.173C31.8199 147.378 32.2586 147.667 32.6319 148.041L31.7499 148.993C31.4793 148.703 31.1759 148.484 30.8399 148.335C30.5039 148.176 30.1539 148.097 29.7899 148.097C29.1459 148.097 28.5999 148.335 28.1519 148.811C27.7039 149.287 27.4799 149.865 27.4799 150.547C27.4799 151.247 27.7039 151.835 28.1519 152.311C28.6093 152.777 29.1646 153.011 29.8179 153.011ZM34.5567 145.843C34.3234 145.843 34.1227 145.759 33.9547 145.591C33.7867 145.413 33.7027 145.208 33.7027 144.975C33.7027 144.741 33.7867 144.541 33.9547 144.373C34.1227 144.195 34.3234 144.107 34.5567 144.107C34.79 144.107 34.9907 144.195 35.1587 144.373C35.336 144.541 35.4247 144.741 35.4247 144.975C35.4247 145.208 35.336 145.413 35.1587 145.591C34.9907 145.759 34.79 145.843 34.5567 145.843ZM35.2567 146.991V154.117H33.8567V146.991H35.2567ZM39.2995 154.243C38.5249 154.243 37.8949 154.042 37.4095 153.641C36.9242 153.239 36.6815 152.717 36.6815 152.073C36.6815 151.401 36.9382 150.873 37.4515 150.491C37.9649 150.099 38.6695 149.903 39.5655 149.903C39.9109 149.903 40.2469 149.94 40.5735 150.015C40.9002 150.08 41.2129 150.173 41.5115 150.295V149.539C41.5115 149.035 41.3622 148.657 41.0635 148.405C40.7649 148.153 40.3355 148.027 39.7755 148.027C39.4489 148.027 39.1082 148.078 38.7535 148.181C38.3989 148.274 38.0022 148.423 37.5635 148.629L37.0455 147.579C37.5775 147.327 38.0815 147.145 38.5575 147.033C39.0335 146.911 39.5049 146.851 39.9715 146.851C40.8955 146.851 41.6095 147.075 42.1135 147.523C42.6269 147.961 42.8835 148.587 42.8835 149.399V154.117H41.5115V153.501C41.1942 153.753 40.8535 153.939 40.4895 154.061C40.1255 154.182 39.7289 154.243 39.2995 154.243ZM38.0255 152.045C38.0255 152.39 38.1702 152.67 38.4595 152.885C38.7582 153.099 39.1455 153.207 39.6215 153.207C39.9949 153.207 40.3402 153.151 40.6575 153.039C40.9749 152.927 41.2595 152.759 41.5115 152.535V151.303C41.2409 151.153 40.9562 151.046 40.6575 150.981C40.3589 150.906 40.0322 150.869 39.6775 150.869C39.1735 150.869 38.7722 150.976 38.4735 151.191C38.1749 151.405 38.0255 151.69 38.0255 152.045ZM46.0367 144.009V154.117H44.6367V144.317L46.0367 144.009ZM48.5255 145.843C48.2922 145.843 48.0915 145.759 47.9235 145.591C47.7555 145.413 47.6715 145.208 47.6715 144.975C47.6715 144.741 47.7555 144.541 47.9235 144.373C48.0915 144.195 48.2922 144.107 48.5255 144.107C48.7589 144.107 48.9595 144.195 49.1275 144.373C49.3049 144.541 49.3935 144.741 49.3935 144.975C49.3935 145.208 49.3049 145.413 49.1275 145.591C48.9595 145.759 48.7589 145.843 48.5255 145.843ZM49.2255 146.991V154.117H47.8255V146.991H49.2255ZM51.9384 152.353V148.167H50.4264V146.991H51.9384V145.171L53.3244 144.835V146.991H55.4244V148.167H53.3244V152.031C53.3244 152.395 53.4037 152.651 53.5624 152.801C53.7304 152.95 54.001 153.025 54.3744 153.025C54.5704 153.025 54.743 153.015 54.8924 152.997C55.051 152.969 55.219 152.922 55.3964 152.857V154.033C55.2097 154.098 54.9904 154.149 54.7384 154.187C54.4957 154.224 54.2717 154.243 54.0664 154.243C53.3757 154.243 52.8484 154.084 52.4844 153.767C52.1204 153.44 51.9384 152.969 51.9384 152.353ZM57.2958 145.843C57.0624 145.843 56.8618 145.759 56.6938 145.591C56.5258 145.413 56.4418 145.208 56.4418 144.975C56.4418 144.741 56.5258 144.541 56.6938 144.373C56.8618 144.195 57.0624 144.107 57.2958 144.107C57.5291 144.107 57.7298 144.195 57.8978 144.373C58.0751 144.541 58.1638 144.741 58.1638 144.975C58.1638 145.208 58.0751 145.413 57.8978 145.591C57.7298 145.759 57.5291 145.843 57.2958 145.843ZM57.9958 146.991V154.117H56.5958V146.991H57.9958ZM65.9586 153.305C65.5479 153.622 65.1186 153.86 64.6706 154.019C64.2226 154.168 63.7326 154.243 63.2006 154.243C62.6779 154.243 62.1879 154.149 61.7306 153.963C61.2733 153.767 60.8766 153.505 60.5406 153.179C60.2046 152.852 59.9386 152.465 59.7426 152.017C59.5559 151.559 59.4626 151.069 59.4626 150.547C59.4626 150.033 59.5559 149.553 59.7426 149.105C59.9293 148.657 60.1813 148.269 60.4986 147.943C60.8159 147.616 61.1939 147.359 61.6326 147.173C62.0713 146.977 62.5379 146.879 63.0326 146.879C63.5179 146.879 63.9706 146.977 64.3906 147.173C64.8199 147.359 65.1839 147.621 65.4826 147.957C65.7906 148.283 66.0333 148.675 66.2106 149.133C66.3879 149.59 66.4766 150.08 66.4766 150.603V151.009H60.8486C60.9419 151.597 61.2126 152.087 61.6606 152.479C62.1086 152.861 62.6406 153.053 63.2566 153.053C63.6019 153.053 63.9333 152.997 64.2506 152.885C64.5679 152.773 64.8386 152.619 65.0626 152.423L65.9586 153.305ZM63.0046 148.055C62.4726 148.055 62.0059 148.232 61.6046 148.587C61.2126 148.941 60.9653 149.399 60.8626 149.959H65.0906C64.9879 149.417 64.7406 148.965 64.3486 148.601C63.9659 148.237 63.5179 148.055 63.0046 148.055ZM67.3463 153.193L68.1023 152.269C68.4757 152.558 68.8537 152.782 69.2363 152.941C69.6283 153.09 70.025 153.165 70.4263 153.165C70.9303 153.165 71.341 153.067 71.6583 152.871C71.9757 152.675 72.1343 152.418 72.1343 152.101C72.1343 151.849 72.041 151.648 71.8543 151.499C71.6677 151.349 71.3783 151.247 70.9863 151.191L69.6983 151.009C68.9983 150.906 68.4663 150.691 68.1023 150.365C67.7477 150.029 67.5703 149.585 67.5703 149.035C67.5703 148.391 67.827 147.873 68.3403 147.481C68.8537 147.079 69.5257 146.879 70.3563 146.879C70.879 146.879 71.3737 146.953 71.8403 147.103C72.3163 147.252 72.7783 147.481 73.2263 147.789L72.5123 148.713C72.1203 148.451 71.7377 148.265 71.3643 148.153C71.0003 148.031 70.6317 147.971 70.2583 147.971C69.829 147.971 69.4837 148.059 69.2223 148.237C68.961 148.414 68.8303 148.647 68.8303 148.937C68.8303 149.198 68.919 149.399 69.0963 149.539C69.283 149.669 69.5863 149.767 70.0063 149.833L71.2943 150.015C71.9943 150.117 72.5263 150.337 72.8903 150.673C73.2637 151.009 73.4503 151.452 73.4503 152.003C73.4503 152.32 73.371 152.619 73.2123 152.899C73.063 153.169 72.853 153.403 72.5823 153.599C72.321 153.795 72.0083 153.953 71.6443 154.075C71.2803 154.187 70.8883 154.243 70.4683 154.243C69.8523 154.243 69.2737 154.154 68.7323 153.977C68.2003 153.799 67.7383 153.538 67.3463 153.193Z" fill="#F4F7FD"/>
<path opacity="0.5" d="M0.994 181.117V171.317H8.232V172.605H2.464V175.615H6.272V176.875H2.464V181.117H0.994ZM10.8763 181.243C10.1016 181.243 9.47158 181.042 8.98625 180.641C8.50092 180.239 8.25825 179.717 8.25825 179.073C8.25825 178.401 8.51492 177.873 9.02825 177.491C9.54158 177.099 10.2462 176.903 11.1422 176.903C11.4876 176.903 11.8236 176.94 12.1503 177.015C12.4769 177.08 12.7896 177.173 13.0883 177.295V176.539C13.0883 176.035 12.9389 175.657 12.6403 175.405C12.3416 175.153 11.9123 175.027 11.3522 175.027C11.0256 175.027 10.6849 175.078 10.3302 175.181C9.97558 175.274 9.57892 175.423 9.14025 175.629L8.62225 174.579C9.15425 174.327 9.65825 174.145 10.1343 174.033C10.6103 173.911 11.0816 173.851 11.5482 173.851C12.4723 173.851 13.1863 174.075 13.6903 174.523C14.2036 174.961 14.4603 175.587 14.4603 176.399V181.117H13.0883V180.501C12.7709 180.753 12.4303 180.939 12.0662 181.061C11.7022 181.182 11.3056 181.243 10.8763 181.243ZM9.60225 179.045C9.60225 179.39 9.74692 179.67 10.0363 179.885C10.3349 180.099 10.7222 180.207 11.1983 180.207C11.5716 180.207 11.9169 180.151 12.2342 180.039C12.5516 179.927 12.8363 179.759 13.0883 179.535V178.303C12.8176 178.153 12.5329 178.046 12.2342 177.981C11.9356 177.906 11.6089 177.869 11.2542 177.869C10.7502 177.869 10.3489 177.976 10.0503 178.191C9.75158 178.405 9.60225 178.69 9.60225 179.045ZM19.6154 180.011C19.9701 180.011 20.3061 179.941 20.6234 179.801C20.9408 179.651 21.2441 179.432 21.5334 179.143L22.3734 180.053C22.0001 180.426 21.5708 180.72 21.0854 180.935C20.6001 181.14 20.0914 181.243 19.5594 181.243C19.0461 181.243 18.5654 181.149 18.1174 180.963C17.6694 180.767 17.2821 180.505 16.9554 180.179C16.6288 179.852 16.3674 179.465 16.1714 179.017C15.9848 178.559 15.8914 178.069 15.8914 177.547C15.8914 177.033 15.9848 176.553 16.1714 176.105C16.3674 175.647 16.6288 175.255 16.9554 174.929C17.2821 174.593 17.6694 174.331 18.1174 174.145C18.5654 173.949 19.0461 173.851 19.5594 173.851C20.0914 173.851 20.6094 173.958 21.1134 174.173C21.6174 174.378 22.0561 174.667 22.4294 175.041L21.5474 175.993C21.2768 175.703 20.9734 175.484 20.6374 175.335C20.3014 175.176 19.9514 175.097 19.5874 175.097C18.9434 175.097 18.3974 175.335 17.9494 175.811C17.5014 176.287 17.2774 176.865 17.2774 177.547C17.2774 178.247 17.5014 178.835 17.9494 179.311C18.4068 179.777 18.9621 180.011 19.6154 180.011ZM24.3542 172.843C24.1209 172.843 23.9202 172.759 23.7522 172.591C23.5842 172.413 23.5002 172.208 23.5002 171.975C23.5002 171.741 23.5842 171.541 23.7522 171.373C23.9202 171.195 24.1209 171.107 24.3542 171.107C24.5875 171.107 24.7882 171.195 24.9562 171.373C25.1335 171.541 25.2222 171.741 25.2222 171.975C25.2222 172.208 25.1335 172.413 24.9562 172.591C24.7882 172.759 24.5875 172.843 24.3542 172.843ZM25.0542 173.991V181.117H23.6542V173.991H25.0542ZM28.243 171.009V181.117H26.843V171.317L28.243 171.009ZM30.7319 172.843C30.4985 172.843 30.2979 172.759 30.1299 172.591C29.9619 172.413 29.8779 172.208 29.8779 171.975C29.8779 171.741 29.9619 171.541 30.1299 171.373C30.2979 171.195 30.4985 171.107 30.7319 171.107C30.9652 171.107 31.1659 171.195 31.3339 171.373C31.5112 171.541 31.5999 171.741 31.5999 171.975C31.5999 172.208 31.5112 172.413 31.3339 172.591C31.1659 172.759 30.9652 172.843 30.7319 172.843ZM31.4319 173.991V181.117H30.0319V173.991H31.4319ZM34.1447 179.353V175.167H32.6327V173.991H34.1447V172.171L35.5307 171.835V173.991H37.6307V175.167H35.5307V179.031C35.5307 179.395 35.61 179.651 35.7687 179.801C35.9367 179.95 36.2074 180.025 36.5807 180.025C36.7767 180.025 36.9494 180.015 37.0987 179.997C37.2574 179.969 37.4254 179.922 37.6027 179.857V181.033C37.416 181.098 37.1967 181.149 36.9447 181.187C36.702 181.224 36.478 181.243 36.2727 181.243C35.582 181.243 35.0547 181.084 34.6907 180.767C34.3267 180.44 34.1447 179.969 34.1447 179.353ZM39.5021 172.843C39.2688 172.843 39.0681 172.759 38.9001 172.591C38.7321 172.413 38.6481 172.208 38.6481 171.975C38.6481 171.741 38.7321 171.541 38.9001 171.373C39.0681 171.195 39.2688 171.107 39.5021 171.107C39.7354 171.107 39.9361 171.195 40.1041 171.373C40.2814 171.541 40.3701 171.741 40.3701 171.975C40.3701 172.208 40.2814 172.413 40.1041 172.591C39.9361 172.759 39.7354 172.843 39.5021 172.843ZM40.2021 173.991V181.117H38.8021V173.991H40.2021ZM48.1649 180.305C47.7543 180.622 47.3249 180.86 46.8769 181.019C46.4289 181.168 45.9389 181.243 45.4069 181.243C44.8843 181.243 44.3943 181.149 43.9369 180.963C43.4796 180.767 43.0829 180.505 42.7469 180.179C42.4109 179.852 42.1449 179.465 41.9489 179.017C41.7623 178.559 41.6689 178.069 41.6689 177.547C41.6689 177.033 41.7623 176.553 41.9489 176.105C42.1356 175.657 42.3876 175.269 42.7049 174.943C43.0223 174.616 43.4003 174.359 43.8389 174.173C44.2776 173.977 44.7443 173.879 45.2389 173.879C45.7243 173.879 46.1769 173.977 46.5969 174.173C47.0263 174.359 47.3903 174.621 47.6889 174.957C47.9969 175.283 48.2396 175.675 48.4169 176.133C48.5943 176.59 48.6829 177.08 48.6829 177.603V178.009H43.0549C43.1483 178.597 43.4189 179.087 43.8669 179.479C44.3149 179.861 44.8469 180.053 45.4629 180.053C45.8083 180.053 46.1396 179.997 46.4569 179.885C46.7743 179.773 47.0449 179.619 47.2689 179.423L48.1649 180.305ZM45.2109 175.055C44.6789 175.055 44.2123 175.232 43.8109 175.587C43.4189 175.941 43.1716 176.399 43.0689 176.959H47.2969C47.1943 176.417 46.9469 175.965 46.5549 175.601C46.1723 175.237 45.7243 175.055 45.2109 175.055ZM49.5527 180.193L50.3087 179.269C50.682 179.558 51.06 179.782 51.4427 179.941C51.8347 180.09 52.2313 180.165 52.6327 180.165C53.1367 180.165 53.5473 180.067 53.8647 179.871C54.182 179.675 54.3407 179.418 54.3407 179.101C54.3407 178.849 54.2473 178.648 54.0607 178.499C53.874 178.349 53.5847 178.247 53.1927 178.191L51.9047 178.009C51.2047 177.906 50.6727 177.691 50.3087 177.365C49.954 177.029 49.7767 176.585 49.7767 176.035C49.7767 175.391 50.0333 174.873 50.5467 174.481C51.06 174.079 51.732 173.879 52.5627 173.879C53.0853 173.879 53.58 173.953 54.0467 174.103C54.5227 174.252 54.9847 174.481 55.4327 174.789L54.7187 175.713C54.3267 175.451 53.944 175.265 53.5707 175.153C53.2067 175.031 52.838 174.971 52.4647 174.971C52.0353 174.971 51.69 175.059 51.4287 175.237C51.1673 175.414 51.0367 175.647 51.0367 175.937C51.0367 176.198 51.1253 176.399 51.3027 176.539C51.4893 176.669 51.7927 176.767 52.2127 176.833L53.5007 177.015C54.2007 177.117 54.7327 177.337 55.0967 177.673C55.47 178.009 55.6567 178.452 55.6567 179.003C55.6567 179.32 55.5773 179.619 55.4187 179.899C55.2693 180.169 55.0593 180.403 54.7887 180.599C54.5273 180.795 54.2147 180.953 53.8507 181.075C53.4867 181.187 53.0947 181.243 52.6747 181.243C52.0587 181.243 51.48 181.154 50.9387 180.977C50.4067 180.799 49.9447 180.538 49.5527 180.193Z" fill="#F4F7FD"/>
<path opacity="0.5" d="M0.014 208.117L4.074 198.317H5.796L9.8 208.117H8.204L7.07 205.247H2.688L1.54 208.117H0.014ZM3.178 204.029H6.594L4.886 199.731L3.178 204.029ZM13.8016 207.011C14.1563 207.011 14.4923 206.941 14.8096 206.801C15.1269 206.651 15.4303 206.432 15.7196 206.143L16.5596 207.053C16.1863 207.426 15.7569 207.72 15.2716 207.935C14.7863 208.14 14.2776 208.243 13.7456 208.243C13.2323 208.243 12.7516 208.149 12.3036 207.963C11.8556 207.767 11.4683 207.505 11.1416 207.179C10.8149 206.852 10.5536 206.465 10.3576 206.017C10.1709 205.559 10.0776 205.069 10.0776 204.547C10.0776 204.033 10.1709 203.553 10.3576 203.105C10.5536 202.647 10.8149 202.255 11.1416 201.929C11.4683 201.593 11.8556 201.331 12.3036 201.145C12.7516 200.949 13.2323 200.851 13.7456 200.851C14.2776 200.851 14.7956 200.958 15.2996 201.173C15.8036 201.378 16.2423 201.667 16.6156 202.041L15.7336 202.993C15.4629 202.703 15.1596 202.484 14.8236 202.335C14.4876 202.176 14.1376 202.097 13.7736 202.097C13.1296 202.097 12.5836 202.335 12.1356 202.811C11.6876 203.287 11.4636 203.865 11.4636 204.547C11.4636 205.247 11.6876 205.835 12.1356 206.311C12.5929 206.777 13.1483 207.011 13.8016 207.011ZM20.9689 207.011C21.3236 207.011 21.6596 206.941 21.9769 206.801C22.2943 206.651 22.5976 206.432 22.8869 206.143L23.7269 207.053C23.3536 207.426 22.9243 207.72 22.4389 207.935C21.9536 208.14 21.4449 208.243 20.9129 208.243C20.3996 208.243 19.9189 208.149 19.4709 207.963C19.0229 207.767 18.6356 207.505 18.3089 207.179C17.9823 206.852 17.7209 206.465 17.5249 206.017C17.3383 205.559 17.2449 205.069 17.2449 204.547C17.2449 204.033 17.3383 203.553 17.5249 203.105C17.7209 202.647 17.9823 202.255 18.3089 201.929C18.6356 201.593 19.0229 201.331 19.4709 201.145C19.9189 200.949 20.3996 200.851 20.9129 200.851C21.4449 200.851 21.9629 200.958 22.4669 201.173C22.9709 201.378 23.4096 201.667 23.7829 202.041L22.9009 202.993C22.6303 202.703 22.3269 202.484 21.9909 202.335C21.6549 202.176 21.3049 202.097 20.9409 202.097C20.2969 202.097 19.7509 202.335 19.3029 202.811C18.8549 203.287 18.6309 203.865 18.6309 204.547C18.6309 205.247 18.8549 205.835 19.3029 206.311C19.7603 206.777 20.3156 207.011 20.9689 207.011ZM25.0077 208.117V200.991H26.4077V201.901C26.6224 201.555 26.8977 201.294 27.2337 201.117C27.5697 200.93 27.9477 200.837 28.3677 200.837C28.5171 200.837 28.6477 200.846 28.7597 200.865C28.8717 200.883 28.9791 200.911 29.0817 200.949V202.209C28.9511 202.162 28.8157 202.125 28.6757 202.097C28.5357 202.069 28.3957 202.055 28.2557 202.055C27.8451 202.055 27.4764 202.167 27.1497 202.391C26.8324 202.605 26.5851 202.927 26.4077 203.357V208.117H25.0077ZM36.0795 207.305C35.6689 207.622 35.2395 207.86 34.7915 208.019C34.3435 208.168 33.8535 208.243 33.3215 208.243C32.7989 208.243 32.3089 208.149 31.8515 207.963C31.3942 207.767 30.9975 207.505 30.6615 207.179C30.3255 206.852 30.0595 206.465 29.8635 206.017C29.6769 205.559 29.5835 205.069 29.5835 204.547C29.5835 204.033 29.6769 203.553 29.8635 203.105C30.0502 202.657 30.3022 202.269 30.6195 201.943C30.9369 201.616 31.3149 201.359 31.7535 201.173C32.1922 200.977 32.6589 200.879 33.1535 200.879C33.6389 200.879 34.0915 200.977 34.5115 201.173C34.9409 201.359 35.3049 201.621 35.6035 201.957C35.9115 202.283 36.1542 202.675 36.3315 203.133C36.5089 203.59 36.5975 204.08 36.5975 204.603V205.009H30.9695C31.0629 205.597 31.3335 206.087 31.7815 206.479C32.2295 206.861 32.7615 207.053 33.3775 207.053C33.7229 207.053 34.0542 206.997 34.3715 206.885C34.6889 206.773 34.9595 206.619 35.1835 206.423L36.0795 207.305ZM33.1255 202.055C32.5935 202.055 32.1269 202.232 31.7255 202.587C31.3335 202.941 31.0862 203.399 30.9835 203.959H35.2115C35.1089 203.417 34.8615 202.965 34.4695 202.601C34.0869 202.237 33.6389 202.055 33.1255 202.055ZM43.5583 208.117V207.445C43.2596 207.697 42.9236 207.893 42.5503 208.033C42.1769 208.163 41.7849 208.229 41.3743 208.229C40.8703 208.229 40.3989 208.135 39.9603 207.949C39.5216 207.753 39.1389 207.491 38.8123 207.165C38.4949 206.838 38.2429 206.451 38.0563 206.003C37.8696 205.545 37.7763 205.06 37.7763 204.547C37.7763 204.033 37.8696 203.553 38.0563 203.105C38.2429 202.657 38.4949 202.269 38.8123 201.943C39.1389 201.616 39.5263 201.359 39.9743 201.173C40.4223 200.977 40.8983 200.879 41.4023 200.879C41.7943 200.879 42.1723 200.939 42.5363 201.061C42.9003 201.182 43.2363 201.355 43.5443 201.579V198.317L44.9443 198.009V208.117H43.5583ZM39.1483 204.533C39.1483 205.233 39.3816 205.821 39.8483 206.297C40.3149 206.773 40.8889 207.011 41.5703 207.011C41.9716 207.011 42.3403 206.936 42.6763 206.787C43.0216 206.637 43.3109 206.427 43.5443 206.157V202.923C43.3109 202.661 43.0216 202.456 42.6763 202.307C42.3309 202.157 41.9623 202.083 41.5703 202.083C40.8889 202.083 40.3149 202.316 39.8483 202.783C39.3816 203.249 39.1483 203.833 39.1483 204.533ZM47.4422 199.843C47.2088 199.843 47.0082 199.759 46.8402 199.591C46.6722 199.413 46.5882 199.208 46.5882 198.975C46.5882 198.741 46.6722 198.541 46.8402 198.373C47.0082 198.195 47.2088 198.107 47.4422 198.107C47.6755 198.107 47.8762 198.195 48.0442 198.373C48.2215 198.541 48.3102 198.741 48.3102 198.975C48.3102 199.208 48.2215 199.413 48.0442 199.591C47.8762 199.759 47.6755 199.843 47.4422 199.843ZM48.1422 200.991V208.117H46.7422V200.991H48.1422ZM50.855 206.353V202.167H49.343V200.991H50.855V199.171L52.241 198.835V200.991H54.341V202.167H52.241V206.031C52.241 206.395 52.3203 206.651 52.479 206.801C52.647 206.95 52.9177 207.025 53.291 207.025C53.487 207.025 53.6597 207.015 53.809 206.997C53.9677 206.969 54.1357 206.922 54.313 206.857V208.033C54.1263 208.098 53.907 208.149 53.655 208.187C53.4123 208.224 53.1883 208.243 52.983 208.243C52.2923 208.243 51.765 208.084 51.401 207.767C51.037 207.44 50.855 206.969 50.855 206.353ZM57.7664 208.243C56.9917 208.243 56.3617 208.042 55.8764 207.641C55.3911 207.239 55.1484 206.717 55.1484 206.073C55.1484 205.401 55.4051 204.873 55.9184 204.491C56.4317 204.099 57.1364 203.903 58.0324 203.903C58.3777 203.903 58.7137 203.94 59.0404 204.015C59.3671 204.08 59.6797 204.173 59.9784 204.295V203.539C59.9784 203.035 59.8291 202.657 59.5304 202.405C59.2317 202.153 58.8024 202.027 58.2424 202.027C57.9157 202.027 57.5751 202.078 57.2204 202.181C56.8657 202.274 56.4691 202.423 56.0304 202.629L55.5124 201.579C56.0444 201.327 56.5484 201.145 57.0244 201.033C57.5004 200.911 57.9717 200.851 58.4384 200.851C59.3624 200.851 60.0764 201.075 60.5804 201.523C61.0937 201.961 61.3504 202.587 61.3504 203.399V208.117H59.9784V207.501C59.6611 207.753 59.3204 207.939 58.9564 208.061C58.5924 208.182 58.1957 208.243 57.7664 208.243ZM56.4924 206.045C56.4924 206.39 56.6371 206.67 56.9264 206.885C57.2251 207.099 57.6124 207.207 58.0884 207.207C58.4617 207.207 58.8071 207.151 59.1244 207.039C59.4417 206.927 59.7264 206.759 59.9784 206.535V205.303C59.7077 205.153 59.4231 205.046 59.1244 204.981C58.8257 204.906 58.4991 204.869 58.1444 204.869C57.6404 204.869 57.2391 204.976 56.9404 205.191C56.6417 205.405 56.4924 205.69 56.4924 206.045ZM63.7541 206.353V202.167H62.2421V200.991H63.7541V199.171L65.1401 198.835V200.991H67.2401V202.167H65.1401V206.031C65.1401 206.395 65.2195 206.651 65.3781 206.801C65.5461 206.95 65.8168 207.025 66.1901 207.025C66.3861 207.025 66.5588 207.015 66.7081 206.997C66.8668 206.969 67.0348 206.922 67.2121 206.857V208.033C67.0255 208.098 66.8061 208.149 66.5541 208.187C66.3115 208.224 66.0875 208.243 65.8821 208.243C65.1915 208.243 64.6641 208.084 64.3001 207.767C63.9361 207.44 63.7541 206.969 63.7541 206.353ZM69.1115 199.843C68.8782 199.843 68.6775 199.759 68.5095 199.591C68.3415 199.413 68.2575 199.208 68.2575 198.975C68.2575 198.741 68.3415 198.541 68.5095 198.373C68.6775 198.195 68.8782 198.107 69.1115 198.107C69.3449 198.107 69.5455 198.195 69.7135 198.373C69.8909 198.541 69.9795 198.741 69.9795 198.975C69.9795 199.208 69.8909 199.413 69.7135 199.591C69.5455 199.759 69.3449 199.843 69.1115 199.843ZM69.8115 200.991V208.117H68.4115V200.991H69.8115ZM71.2784 204.547C71.2784 204.033 71.3717 203.553 71.5584 203.105C71.7544 202.647 72.0204 202.255 72.3564 201.929C72.6924 201.593 73.0844 201.331 73.5324 201.145C73.9897 200.949 74.475 200.851 74.9884 200.851C75.5017 200.851 75.9824 200.949 76.4304 201.145C76.8877 201.331 77.2797 201.593 77.6064 201.929C77.9424 202.255 78.2037 202.647 78.3904 203.105C78.5864 203.553 78.6844 204.033 78.6844 204.547C78.6844 205.069 78.5864 205.559 78.3904 206.017C78.2037 206.465 77.9424 206.857 77.6064 207.193C77.2797 207.519 76.8877 207.781 76.4304 207.977C75.9824 208.163 75.5017 208.257 74.9884 208.257C74.475 208.257 73.9897 208.163 73.5324 207.977C73.0844 207.781 72.6924 207.519 72.3564 207.193C72.0204 206.857 71.7544 206.465 71.5584 206.017C71.3717 205.559 71.2784 205.069 71.2784 204.547ZM74.9884 207.025C75.6324 207.025 76.1784 206.787 76.6264 206.311C77.0837 205.825 77.3124 205.237 77.3124 204.547C77.3124 203.856 77.0837 203.273 76.6264 202.797C76.1784 202.321 75.6324 202.083 74.9884 202.083C74.3444 202.083 73.7937 202.321 73.3364 202.797C72.879 203.273 72.6504 203.856 72.6504 204.547C72.6504 205.237 72.8744 205.825 73.3224 206.311C73.7797 206.787 74.335 207.025 74.9884 207.025ZM80.1486 208.117V200.991H81.5486V201.705C81.8286 201.425 82.1459 201.215 82.5006 201.075C82.8646 200.925 83.2612 200.851 83.6906 200.851C84.5026 200.851 85.1699 201.112 85.6926 201.635C86.2152 202.148 86.4766 202.815 86.4766 203.637V208.117H85.0766V203.875C85.0766 203.315 84.9132 202.876 84.5866 202.559C84.2692 202.232 83.8446 202.069 83.3126 202.069C82.9392 202.069 82.5986 202.148 82.2906 202.307C81.9919 202.465 81.7446 202.694 81.5486 202.993V208.117H80.1486Z" fill="#F4F7FD"/>
<path opacity="0.5" d="M0.994 235.117V225.317H5.446C6.41667 225.317 7.20067 225.587 7.798 226.129C8.40467 226.661 8.708 227.356 8.708 228.215C8.708 228.859 8.526 229.419 8.162 229.895C7.798 230.361 7.308 230.697 6.692 230.903L8.876 235.117H7.252L5.222 231.099H2.464V235.117H0.994ZM5.32 226.605H2.464V229.881H5.32C5.88933 229.881 6.34667 229.731 6.692 229.433C7.04667 229.125 7.224 228.728 7.224 228.243C7.224 227.748 7.04667 227.351 6.692 227.053C6.34667 226.754 5.88933 226.605 5.32 226.605ZM15.9447 234.305C15.534 234.622 15.1047 234.86 14.6567 235.019C14.2087 235.168 13.7187 235.243 13.1867 235.243C12.664 235.243 12.174 235.149 11.7167 234.963C11.2594 234.767 10.8627 234.505 10.5267 234.179C10.1907 233.852 9.92469 233.465 9.72869 233.017C9.54202 232.559 9.44869 232.069 9.44869 231.547C9.44869 231.033 9.54202 230.553 9.72869 230.105C9.91535 229.657 10.1674 229.269 10.4847 228.943C10.802 228.616 11.18 228.359 11.6187 228.173C12.0574 227.977 12.524 227.879 13.0187 227.879C13.504 227.879 13.9567 227.977 14.3767 228.173C14.806 228.359 15.17 228.621 15.4687 228.957C15.7767 229.283 16.0194 229.675 16.1967 230.133C16.374 230.59 16.4627 231.08 16.4627 231.603V232.009H10.8347C10.928 232.597 11.1987 233.087 11.6467 233.479C12.0947 233.861 12.6267 234.053 13.2427 234.053C13.588 234.053 13.9194 233.997 14.2367 233.885C14.554 233.773 14.8247 233.619 15.0487 233.423L15.9447 234.305ZM12.9907 229.055C12.4587 229.055 11.992 229.232 11.5907 229.587C11.1987 229.941 10.9514 230.399 10.8487 230.959H15.0767C14.974 230.417 14.7267 229.965 14.3347 229.601C13.952 229.237 13.504 229.055 12.9907 229.055ZM21.3654 234.011C21.7201 234.011 22.0561 233.941 22.3734 233.801C22.6908 233.651 22.9941 233.432 23.2834 233.143L24.1234 234.053C23.7501 234.426 23.3208 234.72 22.8354 234.935C22.3501 235.14 21.8414 235.243 21.3094 235.243C20.7961 235.243 20.3154 235.149 19.8674 234.963C19.4194 234.767 19.0321 234.505 18.7054 234.179C18.3788 233.852 18.1174 233.465 17.9214 233.017C17.7348 232.559 17.6414 232.069 17.6414 231.547C17.6414 231.033 17.7348 230.553 17.9214 230.105C18.1174 229.647 18.3788 229.255 18.7054 228.929C19.0321 228.593 19.4194 228.331 19.8674 228.145C20.3154 227.949 20.7961 227.851 21.3094 227.851C21.8414 227.851 22.3594 227.958 22.8634 228.173C23.3674 228.378 23.8061 228.667 24.1794 229.041L23.2974 229.993C23.0268 229.703 22.7234 229.484 22.3874 229.335C22.0514 229.176 21.7014 229.097 21.3374 229.097C20.6934 229.097 20.1474 229.335 19.6994 229.811C19.2514 230.287 19.0274 230.865 19.0274 231.547C19.0274 232.247 19.2514 232.835 19.6994 233.311C20.1568 233.777 20.7121 234.011 21.3654 234.011ZM24.8088 231.547C24.8088 231.033 24.9021 230.553 25.0888 230.105C25.2848 229.647 25.5508 229.255 25.8868 228.929C26.2228 228.593 26.6148 228.331 27.0628 228.145C27.5201 227.949 28.0054 227.851 28.5188 227.851C29.0321 227.851 29.5128 227.949 29.9608 228.145C30.4181 228.331 30.8101 228.593 31.1368 228.929C31.4728 229.255 31.7341 229.647 31.9208 230.105C32.1168 230.553 32.2148 231.033 32.2148 231.547C32.2148 232.069 32.1168 232.559 31.9208 233.017C31.7341 233.465 31.4728 233.857 31.1368 234.193C30.8101 234.519 30.4181 234.781 29.9608 234.977C29.5128 235.163 29.0321 235.257 28.5188 235.257C28.0054 235.257 27.5201 235.163 27.0628 234.977C26.6148 234.781 26.2228 234.519 25.8868 234.193C25.5508 233.857 25.2848 233.465 25.0888 233.017C24.9021 232.559 24.8088 232.069 24.8088 231.547ZM28.5188 234.025C29.1628 234.025 29.7088 233.787 30.1568 233.311C30.6141 232.825 30.8428 232.237 30.8428 231.547C30.8428 230.856 30.6141 230.273 30.1568 229.797C29.7088 229.321 29.1628 229.083 28.5188 229.083C27.8748 229.083 27.3241 229.321 26.8668 229.797C26.4094 230.273 26.1808 230.856 26.1808 231.547C26.1808 232.237 26.4048 232.825 26.8528 233.311C27.3101 233.787 27.8654 234.025 28.5188 234.025ZM36.9683 235.173C36.4736 235.173 36.007 235.079 35.5683 234.893C35.1296 234.697 34.747 234.435 34.4203 234.109C34.103 233.782 33.851 233.395 33.6643 232.947C33.4776 232.499 33.3843 232.023 33.3843 231.519C33.3843 231.015 33.4776 230.539 33.6643 230.091C33.851 229.643 34.103 229.255 34.4203 228.929C34.747 228.602 35.1296 228.345 35.5683 228.159C36.0163 227.963 36.4923 227.865 36.9963 227.865C37.379 227.865 37.7476 227.925 38.1023 228.047C38.4663 228.168 38.8023 228.345 39.1103 228.579V227.991H40.4963V235.215C40.4963 236.139 40.2116 236.848 39.6423 237.343C39.0823 237.847 38.2796 238.099 37.2343 238.099C36.721 238.099 36.2123 238.038 35.7083 237.917C35.2136 237.795 34.7656 237.623 34.3643 237.399L34.9103 236.307C35.3116 236.512 35.699 236.666 36.0723 236.769C36.4456 236.871 36.819 236.923 37.1923 236.923C37.8083 236.923 38.2796 236.778 38.6063 236.489C38.933 236.199 39.0963 235.775 39.0963 235.215V234.417C38.7976 234.659 38.4663 234.846 38.1023 234.977C37.7383 235.107 37.3603 235.173 36.9683 235.173ZM34.7563 231.519C34.7563 232.2 34.985 232.779 35.4423 233.255C35.8996 233.721 36.4643 233.955 37.1363 233.955C37.5376 233.955 37.9063 233.885 38.2423 233.745C38.5783 233.595 38.863 233.39 39.0963 233.129V229.909C38.8723 229.647 38.5876 229.447 38.2423 229.307C37.9063 229.157 37.5376 229.083 37.1363 229.083C36.4643 229.083 35.8996 229.321 35.4423 229.797C34.985 230.263 34.7563 230.837 34.7563 231.519ZM42.2819 235.117V227.991H43.6819V228.705C43.9619 228.425 44.2792 228.215 44.6339 228.075C44.9979 227.925 45.3945 227.851 45.8239 227.851C46.6359 227.851 47.3032 228.112 47.8259 228.635C48.3485 229.148 48.6099 229.815 48.6099 230.637V235.117H47.2099V230.875C47.2099 230.315 47.0465 229.876 46.7199 229.559C46.4025 229.232 45.9779 229.069 45.4459 229.069C45.0725 229.069 44.7319 229.148 44.4239 229.307C44.1252 229.465 43.8779 229.694 43.6819 229.993V235.117H42.2819ZM51.0652 226.843C50.8319 226.843 50.6312 226.759 50.4632 226.591C50.2952 226.413 50.2112 226.208 50.2112 225.975C50.2112 225.741 50.2952 225.541 50.4632 225.373C50.6312 225.195 50.8319 225.107 51.0652 225.107C51.2986 225.107 51.4992 225.195 51.6672 225.373C51.8446 225.541 51.9332 225.741 51.9332 225.975C51.9332 226.208 51.8446 226.413 51.6672 226.591C51.4992 226.759 51.2986 226.843 51.0652 226.843ZM51.7652 227.991V235.117H50.3652V227.991H51.7652ZM54.478 233.353V229.167H52.966V227.991H54.478V226.171L55.864 225.835V227.991H57.964V229.167H55.864V233.031C55.864 233.395 55.9434 233.651 56.102 233.801C56.27 233.95 56.5407 234.025 56.914 234.025C57.11 234.025 57.2827 234.015 57.432 233.997C57.5907 233.969 57.7587 233.922 57.936 233.857V235.033C57.7494 235.098 57.53 235.149 57.278 235.187C57.0354 235.224 56.8114 235.243 56.606 235.243C55.9154 235.243 55.388 235.084 55.024 234.767C54.66 234.44 54.478 233.969 54.478 233.353ZM59.8355 226.843C59.6021 226.843 59.4015 226.759 59.2335 226.591C59.0655 226.413 58.9815 226.208 58.9815 225.975C58.9815 225.741 59.0655 225.541 59.2335 225.373C59.4015 225.195 59.6021 225.107 59.8355 225.107C60.0688 225.107 60.2695 225.195 60.4375 225.373C60.6148 225.541 60.7035 225.741 60.7035 225.975C60.7035 226.208 60.6148 226.413 60.4375 226.591C60.2695 226.759 60.0688 226.843 59.8355 226.843ZM60.5355 227.991V235.117H59.1355V227.991H60.5355ZM62.0023 231.547C62.0023 231.033 62.0956 230.553 62.2823 230.105C62.4783 229.647 62.7443 229.255 63.0803 228.929C63.4163 228.593 63.8083 228.331 64.2563 228.145C64.7136 227.949 65.1989 227.851 65.7123 227.851C66.2256 227.851 66.7063 227.949 67.1543 228.145C67.6116 228.331 68.0036 228.593 68.3303 228.929C68.6663 229.255 68.9276 229.647 69.1143 230.105C69.3103 230.553 69.4083 231.033 69.4083 231.547C69.4083 232.069 69.3103 232.559 69.1143 233.017C68.9276 233.465 68.6663 233.857 68.3303 234.193C68.0036 234.519 67.6116 234.781 67.1543 234.977C66.7063 235.163 66.2256 235.257 65.7123 235.257C65.1989 235.257 64.7136 235.163 64.2563 234.977C63.8083 234.781 63.4163 234.519 63.0803 234.193C62.7443 233.857 62.4783 233.465 62.2823 233.017C62.0956 232.559 62.0023 232.069 62.0023 231.547ZM65.7123 234.025C66.3563 234.025 66.9023 233.787 67.3503 233.311C67.8076 232.825 68.0363 232.237 68.0363 231.547C68.0363 230.856 67.8076 230.273 67.3503 229.797C66.9023 229.321 66.3563 229.083 65.7123 229.083C65.0683 229.083 64.5176 229.321 64.0603 229.797C63.6029 230.273 63.3743 230.856 63.3743 231.547C63.3743 232.237 63.5983 232.825 64.0463 233.311C64.5036 233.787 65.0589 234.025 65.7123 234.025ZM70.8725 235.117V227.991H72.2725V228.705C72.5525 228.425 72.8698 228.215 73.2245 228.075C73.5885 227.925 73.9852 227.851 74.4145 227.851C75.2265 227.851 75.8938 228.112 76.4165 228.635C76.9392 229.148 77.2005 229.815 77.2005 230.637V235.117H75.8005V230.875C75.8005 230.315 75.6372 229.876 75.3105 229.559C74.9932 229.232 74.5685 229.069 74.0365 229.069C73.6632 229.069 73.3225 229.148 73.0145 229.307C72.7158 229.465 72.4685 229.694 72.2725 229.993V235.117H70.8725Z" fill="#F4F7FD"/>
</svg>
