<svg width="50" height="50" viewBox="0 0 50 50" fill="none" xmlns="http://www.w3.org/2000/svg">
<circle cx="25" cy="25" r="25" fill="white"/>
<path d="M17.5678 22.7935C17.2088 22.7935 16.8578 22.6859 16.5593 22.4842C16.2608 22.2826 16.028 21.9958 15.8906 21.6604C15.7532 21.325 15.7175 20.9559 15.7875 20.5999C15.8576 20.2438 16.0305 19.9169 16.2843 19.6602C16.5382 19.4035 16.8613 19.2286 17.2134 19.1578C17.5655 19.087 17.9307 19.1233 18.2624 19.2623C18.5941 19.4012 18.8775 19.6364 19.077 19.9382C19.2764 20.2401 19.3828 20.595 19.3828 20.958C19.3828 21.4448 19.1917 21.9118 18.8513 22.256C18.5109 22.6003 18.0492 22.7935 17.5678 22.7935ZM19.9851 24.4306C19.9175 24.1381 19.7643 23.873 19.5455 23.6699C19.3268 23.4668 19.0528 23.3348 18.7589 23.2917C18.7051 23.284 18.6503 23.288 18.5981 23.3033C18.5459 23.3185 18.4974 23.3447 18.456 23.3803L17.9798 23.7995C17.8677 23.8964 17.7249 23.9497 17.5774 23.9497C17.4298 23.9497 17.2874 23.8964 17.1752 23.7995L16.6987 23.3803C16.6573 23.3447 16.6092 23.3183 16.557 23.3031C16.5048 23.2878 16.45 23.2839 16.3962 23.2917C16.1026 23.335 15.8287 23.4669 15.6103 23.6701C15.392 23.8733 15.2394 24.1383 15.1723 24.4306L14.0099 29.374C13.9805 29.54 14.0173 29.711 14.1122 29.8496C14.2072 29.9881 14.3526 30.0831 14.5166 30.1135L14.548 30.1181C14.6281 30.1274 14.7095 30.1198 14.7866 30.0959L14.2486 32.3933C14.2293 32.4993 14.2525 32.6087 14.3127 32.6976C14.3729 32.7865 14.4654 32.8477 14.5701 32.8679C14.5936 32.872 14.6173 32.8741 14.6411 32.8742H16.2538L16.5665 36.4526C16.5832 36.5995 16.6527 36.735 16.7617 36.8336C16.8707 36.9321 17.0118 36.9869 17.1581 36.9873H17.9695C18.1157 36.987 18.2566 36.9324 18.3655 36.8338C18.4744 36.7352 18.544 36.5995 18.5603 36.4526L18.873 32.8742H20.4849C20.5378 32.8739 20.5901 32.8629 20.6388 32.8422C20.6876 32.8214 20.7319 32.7912 20.769 32.7532C20.8062 32.7151 20.8354 32.6701 20.8553 32.6205C20.8753 32.571 20.8854 32.518 20.8851 32.4645C20.8852 32.4404 20.8831 32.4162 20.8783 32.3925L20.3356 30.0952C20.4115 30.1186 20.4912 30.1262 20.5701 30.1174C20.6522 30.1071 20.7316 30.0806 20.8034 30.0392C20.8753 29.9978 20.9381 29.9424 20.9886 29.8762C21.0392 29.81 21.0764 29.7344 21.0978 29.6536C21.1193 29.5728 21.1245 29.4886 21.1135 29.4057L21.1081 29.3733L19.9851 24.4306ZM35.2779 20.9557C35.2779 20.5928 35.1714 20.238 34.972 19.9363C34.7727 19.6346 34.4894 19.3996 34.1579 19.2607C33.8263 19.1218 33.4612 19.0855 33.1093 19.1563C32.7573 19.2271 32.4343 19.4017 32.1805 19.6582C31.9268 19.9148 31.7537 20.2418 31.6837 20.5977C31.6137 20.9536 31.6499 21.3225 31.7872 21.6577C31.9245 21.993 32.1571 22.2796 32.4555 22.4812C32.7539 22.6828 33.1044 22.7905 33.4633 22.7905C33.7016 22.7906 33.9377 22.743 34.1579 22.6509C34.3781 22.5587 34.5782 22.4237 34.7467 22.2533C34.9152 22.0829 35.0489 21.8805 35.1401 21.6579C35.2312 21.4353 35.278 21.1967 35.2779 20.9557ZM35.8809 24.4306C35.8132 24.1382 35.6601 23.8732 35.4414 23.6701C35.2226 23.467 34.9482 23.3351 34.6543 23.2917C34.6005 23.2839 34.5457 23.2878 34.4935 23.3031C34.4414 23.3183 34.3932 23.3446 34.3519 23.3803L33.8757 23.7995C33.7634 23.8962 33.6207 23.9495 33.4732 23.9495C33.3257 23.9495 33.1829 23.8962 33.0707 23.7995L32.5945 23.3803C32.5531 23.3447 32.5046 23.3185 32.4524 23.3033C32.4003 23.288 32.3454 23.284 32.2917 23.2917C31.9981 23.3351 31.7245 23.4671 31.5062 23.6703C31.2878 23.8734 31.1349 24.1384 31.0678 24.4306L29.9011 29.374C29.8859 29.4562 29.887 29.5405 29.9042 29.6223C29.9214 29.7041 29.9545 29.7816 30.0016 29.8503C30.0486 29.9191 30.1088 29.9778 30.1784 30.0229C30.248 30.0681 30.3257 30.0989 30.4071 30.1135L30.4392 30.1181C30.5181 30.1269 30.5978 30.1193 30.6737 30.0959L30.1264 32.3933C30.107 32.4994 30.1298 32.609 30.1902 32.698C30.2506 32.7869 30.3434 32.8481 30.4484 32.8679C30.4719 32.872 30.4959 32.8742 30.5198 32.8742H32.1317L32.4444 36.4526C32.4608 36.5999 32.5302 36.7359 32.6396 36.8345C32.7489 36.9332 32.8905 36.9876 33.0371 36.9873H33.8497C33.9963 36.9876 34.1378 36.9332 34.2472 36.8345C34.3566 36.7359 34.426 36.5999 34.4424 36.4526L34.7555 32.8742H36.3674C36.4202 32.8739 36.4722 32.863 36.5209 32.8422C36.5696 32.8214 36.614 32.7912 36.6511 32.7532C36.6882 32.7151 36.7176 32.6701 36.7374 32.6205C36.7573 32.571 36.7672 32.518 36.7668 32.4645C36.7666 32.4404 36.7647 32.4163 36.7607 32.3925L36.2131 30.0952C36.2903 30.119 36.3716 30.1266 36.4518 30.1174C36.5338 30.107 36.613 30.0804 36.6847 30.039C36.7565 29.9975 36.8195 29.942 36.8699 29.8758C36.9204 29.8096 36.9574 29.7341 36.9788 29.6534C37.0002 29.5727 37.0054 29.4885 36.9944 29.4057L36.9898 29.3733L35.8809 24.4306ZM23.3566 17.8951C23.3566 17.5322 23.2501 17.1776 23.0507 16.8759C22.8514 16.5742 22.5681 16.339 22.2366 16.2001C21.905 16.0613 21.5403 16.0249 21.1883 16.0957C20.8364 16.1665 20.513 16.3413 20.2592 16.5979C20.0055 16.8545 19.8328 17.1813 19.7628 17.5372C19.6928 17.8931 19.7286 18.2621 19.8659 18.5973C20.0032 18.9326 20.2358 19.2192 20.5342 19.4208C20.8326 19.6224 21.1835 19.7299 21.5423 19.7299C22.0235 19.7299 22.4848 19.5366 22.825 19.1926C23.1653 18.8485 23.3566 18.3817 23.3566 17.8951ZM31.3034 17.8951C31.3034 17.5322 31.1969 17.1776 30.9975 16.8759C30.7981 16.5742 30.5149 16.339 30.1833 16.2001C29.8518 16.0613 29.4867 16.0249 29.1347 16.0957C28.7828 16.1665 28.4598 16.3413 28.206 16.5979C27.9523 16.8545 27.7792 17.1813 27.7092 17.5372C27.6392 17.8931 27.6754 18.2621 27.8127 18.5973C27.95 18.9326 28.1826 19.2192 28.481 19.4208C28.7793 19.6224 29.1299 19.7299 29.4887 19.7299C29.9699 19.7299 30.4315 19.5366 30.7718 19.1926C31.1121 18.8485 31.3034 18.3817 31.3034 17.8951ZM25.5161 16.6695C25.875 16.6695 26.2255 16.5618 26.5239 16.3602C26.8222 16.1586 27.0548 15.872 27.1921 15.5367C27.3295 15.2015 27.3656 14.8327 27.2956 14.4768C27.2256 14.1209 27.0526 13.7939 26.7988 13.5373C26.5451 13.2807 26.2221 13.1061 25.8701 13.0353C25.5181 12.9645 25.153 13.0007 24.8215 13.1396C24.4899 13.2784 24.2067 13.5136 24.0073 13.8153C23.808 14.117 23.7014 14.4719 23.7014 14.8347C23.7014 15.321 23.8923 15.7874 24.2322 16.1314C24.5722 16.4754 25.0332 16.6691 25.5142 16.6695H25.5161ZM25.5161 22.7905C25.875 22.7905 26.2255 22.6828 26.5239 22.4812C26.8222 22.2796 27.0548 21.993 27.1921 21.6577C27.3295 21.3225 27.3656 20.9536 27.2956 20.5977C27.2256 20.2418 27.0526 19.9148 26.7988 19.6582C26.5451 19.4017 26.2221 19.2271 25.8701 19.1563C25.5181 19.0855 25.153 19.1218 24.8215 19.2607C24.4899 19.3996 24.2067 19.6346 24.0073 19.9363C23.808 20.238 23.7014 20.5928 23.7014 20.9557C23.7014 21.4426 23.8924 21.9095 24.2326 22.2541C24.5728 22.5987 25.0346 22.7927 25.5161 22.7935V22.7905ZM27.2364 23.272H26.6109C26.5354 23.2805 26.4639 23.3117 26.4059 23.3614L25.9297 23.7829C25.817 23.8786 25.6744 23.9311 25.5272 23.9311C25.38 23.9311 25.2378 23.8786 25.1251 23.7829L24.6485 23.3614C24.5905 23.3117 24.5194 23.2806 24.4438 23.272H23.7961C23.5944 23.2719 23.3945 23.3119 23.2081 23.3899C23.0217 23.468 22.8524 23.5824 22.7097 23.7267C22.5671 23.8709 22.4539 24.0421 22.3767 24.2306C22.2996 24.4191 22.2602 24.6213 22.2603 24.8252C22.2603 24.8831 22.2632 24.9409 22.2694 24.9984L22.7147 28.3942C22.7425 28.6372 22.8365 28.8676 22.9862 29.0597C23.1359 29.2518 23.3353 29.3981 23.5624 29.4823L24.3147 36.4654C24.3313 36.6127 24.4011 36.7486 24.5106 36.8473C24.6201 36.9459 24.7615 37.0004 24.9082 37H26.0985C26.2447 36.9999 26.3859 36.9453 26.4948 36.8467C26.6038 36.7481 26.6731 36.6123 26.6892 36.4654L27.4392 29.4966C27.6737 29.4169 27.8808 29.2713 28.0365 29.0769C28.1921 28.8825 28.2899 28.6473 28.3183 28.3988L28.7655 24.9984C28.7877 24.7957 28.7705 24.5904 28.7143 24.3945C28.6581 24.1986 28.5643 24.0158 28.4382 23.8566C28.3121 23.6974 28.156 23.5649 27.9792 23.4666C27.8024 23.3683 27.6084 23.3063 27.4079 23.284C27.3521 23.2776 27.2957 23.2742 27.2395 23.2743L27.2364 23.272Z" fill="#034EA2"/>
</svg>
