<svg width="50" height="50" viewBox="0 0 50 50" fill="none" xmlns="http://www.w3.org/2000/svg">
<circle cx="25" cy="25" r="25" fill="white"/>
<path d="M16.6695 35.2884V34.9265C16.6695 29.4178 16.6695 23.9092 16.6695 18.401C16.6695 18.2936 16.6692 18.1855 16.6785 18.0781C16.6875 17.8606 16.7798 17.6555 16.9354 17.5078C17.0909 17.36 17.2971 17.2816 17.5087 17.2896C18.5263 17.2896 19.5446 17.2896 20.5629 17.2896H20.8319C20.8336 16.7111 20.9488 16.139 21.1705 15.6073C21.3922 15.0757 21.7158 14.5954 22.1223 14.1953C22.5287 13.7952 23.0096 13.4833 23.5359 13.2786C24.0623 13.0738 24.6232 12.9802 25.1855 13.0035C26.2578 13.06 27.2688 13.535 28.0122 14.3314C28.7555 15.1279 29.175 16.1859 29.1855 17.2896H32.4356C32.5539 17.2797 32.6731 17.2956 32.785 17.3361C32.8969 17.3766 32.999 17.441 33.0852 17.5248C33.1713 17.6087 33.2393 17.7103 33.2847 17.8229C33.3301 17.9356 33.3522 18.0569 33.349 18.1789C33.3533 18.2524 33.349 18.3318 33.349 18.4091V35.2905C33.6352 35.2905 33.9121 35.2846 34.1861 35.2905C34.3687 35.2931 34.5453 35.3578 34.6882 35.4746C34.8312 35.5914 34.9325 35.7536 34.9761 35.9359C35.0198 36.1182 35.0033 36.3104 34.9293 36.482C34.8554 36.6536 34.728 36.7951 34.5673 36.8844C34.4278 36.9571 34.2737 36.9952 34.1173 36.9956C28.0401 37.0015 21.9627 37.0015 15.885 36.9956C15.7717 37.0028 15.6582 36.9861 15.5514 36.9466C15.4445 36.907 15.3464 36.8455 15.2635 36.7657C15.1806 36.6859 15.1145 36.5894 15.0692 36.4824C15.0238 36.3753 15.0004 36.2599 15 36.1431C14.9996 36.0264 15.0225 35.9109 15.0671 35.8036C15.1117 35.6962 15.1769 35.5993 15.2593 35.5189C15.3416 35.4385 15.4392 35.3762 15.5458 35.3359C15.6524 35.2957 15.766 35.2782 15.8795 35.2846C16.1335 35.2816 16.3861 35.2884 16.6695 35.2884ZM24.9989 13.8663C24.3411 13.8668 23.6978 14.0676 23.1509 14.4435C22.604 14.8193 22.178 15.3533 21.9262 15.978C21.6745 16.6027 21.6084 17.2902 21.7365 17.9535C21.8646 18.6168 22.1808 19.226 22.6457 19.7045C23.1105 20.1831 23.7029 20.5093 24.348 20.6419C24.993 20.7746 25.6619 20.7077 26.27 20.4498C26.8782 20.1919 27.3983 19.7547 27.7648 19.1931C28.1313 18.6315 28.3277 17.9708 28.3291 17.2946C28.3325 16.8439 28.2488 16.397 28.0827 15.9798C27.9167 15.5626 27.6714 15.1834 27.3616 14.8644C27.0517 14.5454 26.6833 14.293 26.2777 14.1217C25.8721 13.9503 25.4374 13.8635 24.9989 13.8663ZM22.5035 35.2758H27.4982V30.1609H22.5035V35.2758ZM19.1796 21.5888V24.125H21.66V21.5888H19.1796ZM23.7592 24.1293H26.2344V21.5931H23.7592V24.1293ZM30.8221 24.1345V21.591H28.3469V24.1345H30.8221ZM21.6576 28.4124V25.8705H19.1768V28.4124H21.6576ZM26.2375 28.4124V25.8674H23.7606V28.4124H26.2375ZM30.8263 25.8674H28.3427V28.4088H30.8263V25.8674Z" fill="#034EA2"/>
<path d="M24.999 13.8662C25.6578 13.8657 26.3018 14.0661 26.8497 14.4422C27.3977 14.8182 27.8245 15.3529 28.0765 15.9786C28.3285 16.6043 28.3945 17.2929 28.2655 17.957C28.1366 18.6211 27.8186 19.2308 27.3522 19.7091C26.8858 20.1874 26.2917 20.5126 25.6454 20.6436C24.999 20.7746 24.3293 20.7056 23.7212 20.445C23.1131 20.1845 22.5938 19.7442 22.2292 19.1801C21.8647 18.616 21.6712 17.9534 21.6733 17.2762C21.6723 16.8274 21.7577 16.3829 21.9245 15.9682C22.0914 15.5535 22.3366 15.1766 22.6457 14.8597C22.9548 14.5427 23.3219 14.2918 23.7257 14.1212C24.1296 13.9507 24.5624 13.8641 24.999 13.8662ZM25.6349 19.4042V17.9227H27.066V16.6355H25.6164V15.1549H24.3683V16.6495H22.9371V17.9286H24.3749V19.4056L25.6349 19.4042Z" fill="white"/>
<path d="M22.5034 35.2758V30.1609H27.4981V35.2758H22.5034Z" fill="white"/>
<path d="M19.1795 21.5889H21.66V24.125H19.1795V21.5889Z" fill="white"/>
<path d="M23.7617 24.1292V21.593H26.2368V24.1292H23.7617Z" fill="white"/>
<path d="M30.8242 24.1343H28.349V21.5908H30.8242V24.1343Z" fill="white"/>
<path d="M21.66 28.4123H19.1788V25.8704H21.66V28.4123Z" fill="white"/>
<path d="M26.2411 28.4117H23.7645V25.8667H26.2411V28.4117Z" fill="white"/>
<path d="M30.8322 25.8667V28.4081H28.3483V25.8667H30.8322Z" fill="white"/>
<path d="M25.6348 19.4043H24.3728V17.9273H22.935V16.6482H24.3662V15.1536H25.6142V16.6342H27.0639V17.9214H25.6327L25.6348 19.4043Z" fill="#034EA2"/>
</svg>
