<svg width="626" height="174" viewBox="0 0 626 174" fill="none" xmlns="http://www.w3.org/2000/svg">
<path d="M9.78 29.16C8.54 29.16 7.52 28.78 6.72 28.02C5.96 27.22 5.58 26.2 5.58 24.96C5.58 23.4 6.22 21.7 7.5 19.86C8.82 17.98 10.56 16.32 12.72 14.88L13.62 15.78C12.78 16.66 12.12 17.48 11.64 18.24C11.16 19 10.92 19.62 10.92 20.1C10.92 20.38 11 20.64 11.16 20.88C11.36 21.12 11.64 21.38 12 21.66C12.56 22.1 13 22.56 13.32 23.04C13.64 23.52 13.8 24.16 13.8 24.96C13.8 26.2 13.42 27.22 12.66 28.02C11.9 28.78 10.94 29.16 9.78 29.16ZM21.42 29.16C20.18 29.16 19.16 28.78 18.36 28.02C17.6 27.22 17.22 26.2 17.22 24.96C17.22 23.4 17.86 21.7 19.14 19.86C20.46 17.98 22.2 16.32 24.36 14.88L25.26 15.78C24.42 16.66 23.76 17.48 23.28 18.24C22.8 19 22.56 19.62 22.56 20.1C22.56 20.38 22.64 20.64 22.8 20.88C23 21.12 23.28 21.38 23.64 21.66C24.2 22.1 24.64 22.56 24.96 23.04C25.28 23.52 25.44 24.16 25.44 24.96C25.44 26.2 25.06 27.22 24.3 28.02C23.54 28.78 22.58 29.16 21.42 29.16Z" fill="white"/>
<path d="M367.22 128.16C368.46 128.16 369.48 127.78 370.28 127.02C371.04 126.22 371.42 125.2 371.42 123.96C371.42 122.4 370.78 120.7 369.5 118.86C368.18 116.98 366.44 115.32 364.28 113.88L363.38 114.78C364.22 115.66 364.88 116.48 365.36 117.24C365.84 118 366.08 118.62 366.08 119.1C366.08 119.38 366 119.64 365.84 119.88C365.64 120.12 365.36 120.38 365 120.66C364.44 121.1 364 121.56 363.68 122.04C363.36 122.52 363.2 123.16 363.2 123.96C363.2 125.2 363.58 126.22 364.34 127.02C365.1 127.78 366.06 128.16 367.22 128.16ZM355.58 128.16C356.82 128.16 357.84 127.78 358.64 127.02C359.4 126.22 359.78 125.2 359.78 123.96C359.78 122.4 359.14 120.7 357.86 118.86C356.54 116.98 354.8 115.32 352.64 113.88L351.74 114.78C352.58 115.66 353.24 116.48 353.72 117.24C354.2 118 354.44 118.62 354.44 119.1C354.44 119.38 354.36 119.64 354.2 119.88C354 120.12 353.72 120.38 353.36 120.66C352.8 121.1 352.36 121.56 352.04 122.04C351.72 122.52 351.56 123.16 351.56 123.96C351.56 125.2 351.94 126.22 352.7 127.02C353.46 127.78 354.42 128.16 355.58 128.16Z" fill="white"/>
<path d="M52.984 30.8L49.896 39.952L46.808 30.8H45.336L42.184 39.904L39.16 30.8H37.512L41.256 42H42.968L46.024 33.056L49.08 42H50.76L54.504 30.8H52.984ZM63.5806 37.808C63.5806 35.2 61.8366 33.44 59.3886 33.44C56.9406 33.44 55.1326 35.248 55.1326 37.76C55.1326 40.288 56.9566 42.096 59.6926 42.096C61.1006 42.096 62.2686 41.616 63.0366 40.72L62.1886 39.728C61.5646 40.416 60.7326 40.752 59.7406 40.752C58.0606 40.752 56.8606 39.76 56.6686 38.272H63.5486C63.5646 38.128 63.5806 37.936 63.5806 37.808ZM59.3886 34.736C60.8766 34.736 61.9486 35.744 62.1086 37.168H56.6686C56.8286 35.728 57.9166 34.736 59.3886 34.736ZM75.1784 33.44C73.8824 33.44 72.8264 33.904 72.1864 34.72V30.128H70.6504V42H72.1864V37.632C72.1864 35.792 73.2424 34.816 74.8744 34.816C76.3304 34.816 77.1624 35.632 77.1624 37.296V42H78.6984V37.12C78.6984 34.624 77.2424 33.44 75.1784 33.44ZM84.949 33.44C83.589 33.44 82.325 33.824 81.445 34.528L82.085 35.68C82.741 35.12 83.765 34.768 84.773 34.768C86.293 34.768 87.045 35.52 87.045 36.816V37.12H84.613C82.085 37.12 81.205 38.24 81.205 39.6C81.205 41.072 82.421 42.096 84.341 42.096C85.669 42.096 86.613 41.648 87.125 40.88V42H88.581V36.88C88.581 34.56 87.269 33.44 84.949 33.44ZM84.597 40.912C83.429 40.912 82.725 40.384 82.725 39.536C82.725 38.816 83.157 38.224 84.677 38.224H87.045V39.408C86.661 40.384 85.749 40.912 84.597 40.912ZM98.2544 30.128V34.8C97.5504 33.888 96.4944 33.44 95.2944 33.44C92.8144 33.44 91.0064 35.168 91.0064 37.76C91.0064 40.352 92.8144 42.096 95.2944 42.096C96.5424 42.096 97.6304 41.616 98.3184 40.656V42H99.7904V30.128H98.2544ZM95.4224 40.752C93.7904 40.752 92.5584 39.568 92.5584 37.76C92.5584 35.952 93.7904 34.784 95.4224 34.784C97.0384 34.784 98.2704 35.952 98.2704 37.76C98.2704 39.568 97.0384 40.752 95.4224 40.752ZM110.721 33.44C109.361 33.44 108.097 33.824 107.217 34.528L107.857 35.68C108.513 35.12 109.537 34.768 110.545 34.768C112.065 34.768 112.817 35.52 112.817 36.816V37.12H110.385C107.857 37.12 106.977 38.24 106.977 39.6C106.977 41.072 108.193 42.096 110.113 42.096C111.441 42.096 112.385 41.648 112.897 40.88V42H114.353V36.88C114.353 34.56 113.041 33.44 110.721 33.44ZM110.369 40.912C109.201 40.912 108.497 40.384 108.497 39.536C108.497 38.816 108.929 38.224 110.449 38.224H112.817V39.408C112.433 40.384 111.521 40.912 110.369 40.912ZM128.613 42H130.501L126.581 37.024L130.149 33.52H128.293L123.669 37.744V30.128H122.133V42H123.669V39.68L125.429 38.048L128.613 42ZM136.731 33.44C135.387 33.44 134.299 33.936 133.675 34.8V33.52H132.203V42H133.739V37.632C133.739 35.792 134.795 34.816 136.427 34.816C137.883 34.816 138.715 35.632 138.715 37.296V42H140.251V37.12C140.251 34.624 138.795 33.44 136.731 33.44ZM151.124 37.808C151.124 35.2 149.38 33.44 146.932 33.44C144.484 33.44 142.676 35.248 142.676 37.76C142.676 40.288 144.5 42.096 147.236 42.096C148.644 42.096 149.812 41.616 150.58 40.72L149.732 39.728C149.108 40.416 148.276 40.752 147.284 40.752C145.604 40.752 144.404 39.76 144.212 38.272H151.092C151.108 38.128 151.124 37.936 151.124 37.808ZM146.932 34.736C148.42 34.736 149.492 35.744 149.652 37.168H144.212C144.372 35.728 145.46 34.736 146.932 34.736ZM161.241 37.808C161.241 35.2 159.497 33.44 157.049 33.44C154.601 33.44 152.793 35.248 152.793 37.76C152.793 40.288 154.617 42.096 157.353 42.096C158.761 42.096 159.929 41.616 160.697 40.72L159.849 39.728C159.225 40.416 158.393 40.752 157.401 40.752C155.721 40.752 154.521 39.76 154.329 38.272H161.209C161.225 38.128 161.241 37.936 161.241 37.808ZM157.049 34.736C158.537 34.736 159.609 35.744 159.769 37.168H154.329C154.489 35.728 155.577 34.736 157.049 34.736ZM169.783 34.944V33.52H168.311V42H169.847V37.776C169.847 35.92 170.871 34.912 172.519 34.912C172.631 34.912 172.743 34.912 172.871 34.928V33.44C171.383 33.44 170.327 33.952 169.783 34.944ZM182.67 37.808C182.67 35.2 180.926 33.44 178.478 33.44C176.03 33.44 174.222 35.248 174.222 37.76C174.222 40.288 176.046 42.096 178.782 42.096C180.19 42.096 181.358 41.616 182.126 40.72L181.278 39.728C180.654 40.416 179.822 40.752 178.83 40.752C177.15 40.752 175.95 39.76 175.758 38.272H182.638C182.654 38.128 182.67 37.936 182.67 37.808ZM178.478 34.736C179.966 34.736 181.038 35.744 181.198 37.168H175.758C175.918 35.728 177.006 34.736 178.478 34.736ZM189.619 33.44C188.371 33.44 187.283 33.92 186.595 34.864V33.52H185.123V45.104H186.659V40.72C187.363 41.632 188.419 42.096 189.619 42.096C192.099 42.096 193.907 40.368 193.907 37.76C193.907 35.168 192.099 33.44 189.619 33.44ZM189.491 40.752C187.875 40.752 186.643 39.568 186.643 37.76C186.643 35.968 187.875 34.784 189.491 34.784C191.123 34.784 192.355 35.968 192.355 37.76C192.355 39.568 191.123 40.752 189.491 40.752ZM196.349 42H197.885V30.128H196.349V42ZM204.226 33.44C202.866 33.44 201.602 33.824 200.722 34.528L201.362 35.68C202.018 35.12 203.042 34.768 204.05 34.768C205.57 34.768 206.322 35.52 206.322 36.816V37.12H203.89C201.362 37.12 200.482 38.24 200.482 39.6C200.482 41.072 201.698 42.096 203.618 42.096C204.946 42.096 205.89 41.648 206.402 40.88V42H207.858V36.88C207.858 34.56 206.546 33.44 204.226 33.44ZM203.874 40.912C202.706 40.912 202.002 40.384 202.002 39.536C202.002 38.816 202.434 38.224 203.954 38.224H206.322V39.408C205.938 40.384 205.026 40.912 203.874 40.912ZM214.763 42.096C216.283 42.096 217.547 41.456 218.219 40.272L217.051 39.536C216.507 40.368 215.675 40.752 214.747 40.752C213.083 40.752 211.835 39.6 211.835 37.76C211.835 35.952 213.083 34.784 214.747 34.784C215.675 34.784 216.507 35.168 217.051 36L218.219 35.248C217.547 34.064 216.283 33.44 214.763 33.44C212.155 33.44 210.283 35.232 210.283 37.76C210.283 40.288 212.155 42.096 214.763 42.096ZM228.067 37.808C228.067 35.2 226.323 33.44 223.875 33.44C221.427 33.44 219.619 35.248 219.619 37.76C219.619 40.288 221.443 42.096 224.179 42.096C225.587 42.096 226.755 41.616 227.523 40.72L226.675 39.728C226.051 40.416 225.219 40.752 224.227 40.752C222.547 40.752 221.347 39.76 221.155 38.272H228.035C228.051 38.128 228.067 37.936 228.067 37.808ZM223.875 34.736C225.363 34.736 226.435 35.744 226.595 37.168H221.155C221.315 35.728 222.403 34.736 223.875 34.736ZM241.128 33.44C239.688 33.44 238.504 34.048 237.864 35.008C237.304 33.952 236.216 33.44 234.92 33.44C233.64 33.44 232.6 33.92 231.992 34.784V33.52H230.52V42H232.056V37.632C232.056 35.792 233.064 34.816 234.6 34.816C235.992 34.816 236.792 35.632 236.792 37.296V42H238.328V37.632C238.328 35.792 239.336 34.816 240.872 34.816C242.264 34.816 243.064 35.632 243.064 37.296V42H244.6V37.12C244.6 34.624 243.192 33.44 241.128 33.44ZM255.457 37.808C255.457 35.2 253.713 33.44 251.265 33.44C248.817 33.44 247.009 35.248 247.009 37.76C247.009 40.288 248.833 42.096 251.569 42.096C252.977 42.096 254.145 41.616 254.913 40.72L254.065 39.728C253.441 40.416 252.609 40.752 251.617 40.752C249.937 40.752 248.737 39.76 248.545 38.272H255.425C255.441 38.128 255.457 37.936 255.457 37.808ZM251.265 34.736C252.753 34.736 253.825 35.744 253.985 37.168H248.545C248.705 35.728 249.793 34.736 251.265 34.736ZM262.438 33.44C261.094 33.44 260.006 33.936 259.382 34.8V33.52H257.91V42H259.446V37.632C259.446 35.792 260.502 34.816 262.134 34.816C263.59 34.816 264.422 35.632 264.422 37.296V42H265.958V37.12C265.958 34.624 264.502 33.44 262.438 33.44ZM273.408 40.4C273.088 40.656 272.656 40.8 272.208 40.8C271.36 40.8 270.88 40.288 270.88 39.376V34.784H273.312V33.52H270.88V31.664H269.344V33.52H267.904V34.784H269.344V39.44C269.344 41.152 270.32 42.096 272.032 42.096C272.72 42.096 273.424 41.904 273.888 41.504L273.408 40.4ZM283.114 42.096C285.37 42.096 286.778 41.12 286.778 39.584C286.778 36.288 281.402 37.92 281.402 35.92C281.402 35.248 282.058 34.752 283.402 34.752C284.234 34.752 285.082 34.928 285.85 35.424L286.506 34.208C285.77 33.728 284.522 33.44 283.418 33.44C281.242 33.44 279.882 34.464 279.882 35.984C279.882 39.36 285.242 37.712 285.242 39.616C285.242 40.336 284.65 40.768 283.226 40.768C282.122 40.768 280.97 40.4 280.25 39.888L279.61 41.104C280.314 41.664 281.706 42.096 283.114 42.096ZM295.386 33.52V37.904C295.386 39.728 294.362 40.72 292.762 40.72C291.306 40.72 290.474 39.888 290.474 38.224V33.52H288.938V38.4C288.938 40.896 290.394 42.096 292.586 42.096C293.786 42.096 294.842 41.6 295.466 40.72V42H296.922V33.52H295.386ZM301.638 34.944V33.52H300.166V42H301.702V37.776C301.702 35.92 302.726 34.912 304.374 34.912C304.486 34.912 304.598 34.912 304.726 34.928V33.44C303.238 33.44 302.182 33.952 301.638 34.944ZM313.517 33.52V34.832C312.797 33.904 311.645 33.44 310.381 33.44C307.933 33.44 306.077 35.088 306.077 37.536C306.077 39.984 307.933 41.648 310.381 41.648C311.597 41.648 312.701 41.216 313.437 40.336V41.008C313.437 42.928 312.525 43.856 310.525 43.856C309.277 43.856 308.045 43.424 307.261 42.752L306.525 43.936C307.453 44.768 309.021 45.2 310.573 45.2C313.453 45.2 314.973 43.84 314.973 40.848V33.52H313.517ZM310.557 40.304C308.845 40.304 307.629 39.168 307.629 37.536C307.629 35.888 308.845 34.784 310.557 34.784C312.253 34.784 313.469 35.888 313.469 37.536C313.469 39.168 312.253 40.304 310.557 40.304ZM325.892 37.808C325.892 35.2 324.148 33.44 321.7 33.44C319.252 33.44 317.444 35.248 317.444 37.76C317.444 40.288 319.268 42.096 322.004 42.096C323.412 42.096 324.58 41.616 325.348 40.72L324.5 39.728C323.876 40.416 323.044 40.752 322.052 40.752C320.372 40.752 319.172 39.76 318.98 38.272H325.86C325.876 38.128 325.892 37.936 325.892 37.808ZM321.7 34.736C323.188 34.736 324.26 35.744 324.42 37.168H318.98C319.14 35.728 320.228 34.736 321.7 34.736ZM329.817 34.944V33.52H328.345V42H329.881V37.776C329.881 35.92 330.905 34.912 332.553 34.912C332.665 34.912 332.777 34.912 332.905 34.928V33.44C331.417 33.44 330.361 33.952 329.817 34.944ZM341.462 33.52L338.534 40.304L335.574 33.52H333.974L337.718 41.984L337.446 42.576C337.03 43.552 336.566 43.888 335.83 43.888C335.254 43.888 334.726 43.664 334.31 43.264L333.654 44.416C334.182 44.928 335.014 45.2 335.83 45.2C337.126 45.2 338.102 44.64 338.854 42.848L342.966 33.52H341.462ZM350.104 31.888C350.712 31.888 351.144 31.44 351.144 30.864C351.144 30.32 350.696 29.888 350.104 29.888C349.512 29.888 349.064 30.336 349.064 30.896C349.064 31.456 349.512 31.888 350.104 31.888ZM349.336 42H350.872V33.52H349.336V42ZM358.653 33.44C357.309 33.44 356.221 33.936 355.597 34.8V33.52H354.125V42H355.661V37.632C355.661 35.792 356.717 34.816 358.349 34.816C359.805 34.816 360.637 35.632 360.637 37.296V42H362.173V37.12C362.173 34.624 360.717 33.44 358.653 33.44ZM374.24 40.4C373.92 40.656 373.488 40.8 373.04 40.8C372.192 40.8 371.712 40.288 371.712 39.376V34.784H374.144V33.52H371.712V31.664H370.176V33.52H368.736V34.784H370.176V39.44C370.176 41.152 371.152 42.096 372.864 42.096C373.552 42.096 374.256 41.904 374.72 41.504L374.24 40.4ZM381.425 33.44C380.129 33.44 379.073 33.904 378.433 34.72V30.128H376.897V42H378.433V37.632C378.433 35.792 379.489 34.816 381.121 34.816C382.577 34.816 383.409 35.632 383.409 37.296V42H384.945V37.12C384.945 34.624 383.489 33.44 381.425 33.44ZM395.819 37.808C395.819 35.2 394.075 33.44 391.627 33.44C389.179 33.44 387.371 35.248 387.371 37.76C387.371 40.288 389.195 42.096 391.931 42.096C393.339 42.096 394.507 41.616 395.275 40.72L394.427 39.728C393.803 40.416 392.971 40.752 391.979 40.752C390.299 40.752 389.099 39.76 388.907 38.272H395.787C395.803 38.128 395.819 37.936 395.819 37.808ZM391.627 34.736C393.115 34.736 394.187 35.744 394.347 37.168H388.907C389.067 35.728 390.155 34.736 391.627 34.736ZM405.992 31.296C406.44 31.296 406.856 31.456 407.176 31.696L407.64 30.528C407.208 30.192 406.568 30.032 405.912 30.032C404.104 30.032 403.112 31.12 403.112 32.768V33.52H401.672V34.784H403.112V42H404.648V34.784H407.08V33.52H404.616V32.784C404.616 31.808 405.08 31.296 405.992 31.296ZM411.781 33.44C410.421 33.44 409.157 33.824 408.277 34.528L408.917 35.68C409.573 35.12 410.597 34.768 411.605 34.768C413.125 34.768 413.877 35.52 413.877 36.816V37.12H411.445C408.917 37.12 408.037 38.24 408.037 39.6C408.037 41.072 409.253 42.096 411.173 42.096C412.501 42.096 413.445 41.648 413.957 40.88V42H415.413V36.88C415.413 34.56 414.101 33.44 411.781 33.44ZM411.429 40.912C410.261 40.912 409.557 40.384 409.557 39.536C409.557 38.816 409.989 38.224 411.509 38.224H413.877V39.408C413.493 40.384 412.581 40.912 411.429 40.912ZM429.183 33.44C427.743 33.44 426.559 34.048 425.919 35.008C425.359 33.952 424.271 33.44 422.975 33.44C421.695 33.44 420.655 33.92 420.047 34.784V33.52H418.575V42H420.111V37.632C420.111 35.792 421.119 34.816 422.655 34.816C424.047 34.816 424.847 35.632 424.847 37.296V42H426.383V37.632C426.383 35.792 427.391 34.816 428.927 34.816C430.319 34.816 431.119 35.632 431.119 37.296V42H432.655V37.12C432.655 34.624 431.247 33.44 429.183 33.44ZM436.57 31.888C437.178 31.888 437.61 31.44 437.61 30.864C437.61 30.32 437.162 29.888 436.57 29.888C435.978 29.888 435.53 30.336 435.53 30.896C435.53 31.456 435.978 31.888 436.57 31.888ZM435.802 42H437.338V33.52H435.802V42ZM440.59 42H442.126V30.128H440.59V42ZM451.379 33.52L448.451 40.304L445.491 33.52H443.891L447.635 41.984L447.363 42.576C446.947 43.552 446.483 43.888 445.747 43.888C445.171 43.888 444.643 43.664 444.227 43.264L443.571 44.416C444.099 44.928 444.931 45.2 445.747 45.2C447.043 45.2 448.019 44.64 448.771 42.848L452.883 33.52H451.379ZM454.473 42.096C455.049 42.096 455.529 41.632 455.529 40.992C455.529 40.352 455.049 39.904 454.473 39.904C453.881 39.904 453.385 40.352 453.385 40.992C453.385 41.632 453.881 42.096 454.473 42.096ZM465.115 42H466.699V32.192H470.539V30.8H461.275V32.192H465.115V42ZM476.906 33.44C475.61 33.44 474.554 33.904 473.914 34.72V30.128H472.378V42H473.914V37.632C473.914 35.792 474.97 34.816 476.602 34.816C478.058 34.816 478.89 35.632 478.89 37.296V42H480.426V37.12C480.426 34.624 478.97 33.44 476.906 33.44ZM491.299 37.808C491.299 35.2 489.555 33.44 487.107 33.44C484.659 33.44 482.851 35.248 482.851 37.76C482.851 40.288 484.675 42.096 487.411 42.096C488.819 42.096 489.987 41.616 490.755 40.72L489.907 39.728C489.283 40.416 488.451 40.752 487.459 40.752C485.779 40.752 484.579 39.76 484.387 38.272H491.267C491.283 38.128 491.299 37.936 491.299 37.808ZM487.107 34.736C488.595 34.736 489.667 35.744 489.827 37.168H484.387C484.547 35.728 485.635 34.736 487.107 34.736ZM503.649 42.128C507.057 42.128 509.585 39.696 509.585 36.4C509.585 33.104 507.057 30.672 503.649 30.672C500.209 30.672 497.681 33.12 497.681 36.4C497.681 39.68 500.209 42.128 503.649 42.128ZM503.649 40.704C501.137 40.704 499.281 38.88 499.281 36.4C499.281 33.92 501.137 32.096 503.649 32.096C506.129 32.096 507.985 33.92 507.985 36.4C507.985 38.88 506.129 40.704 503.649 40.704ZM513.599 34.944V33.52H512.127V42H513.663V37.776C513.663 35.92 514.687 34.912 516.335 34.912C516.447 34.912 516.559 34.912 516.687 34.928V33.44C515.199 33.44 514.143 33.952 513.599 34.944ZM523.532 40.4C523.212 40.656 522.78 40.8 522.332 40.8C521.484 40.8 521.004 40.288 521.004 39.376V34.784H523.436V33.52H521.004V31.664H519.468V33.52H518.028V34.784H519.468V39.44C519.468 41.152 520.444 42.096 522.156 42.096C522.844 42.096 523.548 41.904 524.012 41.504L523.532 40.4ZM530.717 33.44C529.421 33.44 528.365 33.904 527.725 34.72V30.128H526.189V42H527.725V37.632C527.725 35.792 528.781 34.816 530.413 34.816C531.869 34.816 532.701 35.632 532.701 37.296V42H534.237V37.12C534.237 34.624 532.781 33.44 530.717 33.44ZM541.078 42.096C543.622 42.096 545.478 40.288 545.478 37.76C545.478 35.232 543.622 33.44 541.078 33.44C538.534 33.44 536.662 35.232 536.662 37.76C536.662 40.288 538.534 42.096 541.078 42.096ZM541.078 40.752C539.446 40.752 538.214 39.568 538.214 37.76C538.214 35.952 539.446 34.784 541.078 34.784C542.71 34.784 543.926 35.952 543.926 37.76C543.926 39.568 542.71 40.752 541.078 40.752ZM552.418 33.44C551.17 33.44 550.082 33.92 549.394 34.864V33.52H547.922V45.104H549.458V40.72C550.162 41.632 551.218 42.096 552.418 42.096C554.898 42.096 556.706 40.368 556.706 37.76C556.706 35.168 554.898 33.44 552.418 33.44ZM552.29 40.752C550.674 40.752 549.442 39.568 549.442 37.76C549.442 35.968 550.674 34.784 552.29 34.784C553.922 34.784 555.154 35.968 555.154 37.76C555.154 39.568 553.922 40.752 552.29 40.752ZM566.813 37.808C566.813 35.2 565.069 33.44 562.621 33.44C560.173 33.44 558.365 35.248 558.365 37.76C558.365 40.288 560.189 42.096 562.925 42.096C564.333 42.096 565.501 41.616 566.269 40.72L565.421 39.728C564.797 40.416 563.965 40.752 562.973 40.752C561.293 40.752 560.093 39.76 559.901 38.272H566.781C566.797 38.128 566.813 37.936 566.813 37.808ZM562.621 34.736C564.109 34.736 565.181 35.744 565.341 37.168H559.901C560.061 35.728 561.149 34.736 562.621 34.736ZM575.729 30.128V34.8C575.025 33.888 573.969 33.44 572.769 33.44C570.289 33.44 568.481 35.168 568.481 37.76C568.481 40.352 570.289 42.096 572.769 42.096C574.017 42.096 575.105 41.616 575.793 40.656V42H577.265V30.128H575.729ZM572.897 40.752C571.265 40.752 570.033 39.568 570.033 37.76C570.033 35.952 571.265 34.784 572.897 34.784C574.513 34.784 575.745 35.952 575.745 37.76C575.745 39.568 574.513 40.752 572.897 40.752ZM581.26 31.888C581.868 31.888 582.3 31.44 582.3 30.864C582.3 30.32 581.852 29.888 581.26 29.888C580.668 29.888 580.22 30.336 580.22 30.896C580.22 31.456 580.668 31.888 581.26 31.888ZM580.492 42H582.028V33.52H580.492V42ZM588.976 42.096C590.496 42.096 591.76 41.456 592.432 40.272L591.264 39.536C590.72 40.368 589.888 40.752 588.96 40.752C587.296 40.752 586.048 39.6 586.048 37.76C586.048 35.952 587.296 34.784 588.96 34.784C589.888 34.784 590.72 35.168 591.264 36L592.432 35.248C591.76 34.064 590.496 33.44 588.976 33.44C586.368 33.44 584.496 35.232 584.496 37.76C584.496 40.288 586.368 42.096 588.976 42.096ZM41.944 68.128C44.904 68.128 46.28 66.656 46.28 64.944C46.28 60.832 39.496 62.544 39.496 59.808C39.496 58.832 40.312 58.032 42.216 58.032C43.208 58.032 44.312 58.32 45.288 58.944L45.816 57.664C44.888 57.024 43.528 56.672 42.216 56.672C39.272 56.672 37.928 58.144 37.928 59.872C37.928 64.032 44.712 62.304 44.712 65.04C44.712 66.016 43.88 66.768 41.944 66.768C40.504 66.768 39.08 66.224 38.248 65.472L37.656 66.72C38.552 67.552 40.232 68.128 41.944 68.128ZM55.0815 59.52V63.904C55.0815 65.728 54.0575 66.72 52.4575 66.72C51.0015 66.72 50.1695 65.888 50.1695 64.224V59.52H48.6335V64.4C48.6335 66.896 50.0895 68.096 52.2815 68.096C53.4815 68.096 54.5375 67.6 55.1615 66.72V68H56.6175V59.52H55.0815ZM61.3336 60.944V59.52H59.8616V68H61.3976V63.776C61.3976 61.92 62.4216 60.912 64.0696 60.912C64.1816 60.912 64.2936 60.912 64.4216 60.928V59.44C62.9336 59.44 61.8776 59.952 61.3336 60.944ZM73.2126 59.52V60.832C72.4926 59.904 71.3406 59.44 70.0766 59.44C67.6286 59.44 65.7726 61.088 65.7726 63.536C65.7726 65.984 67.6286 67.648 70.0766 67.648C71.2926 67.648 72.3966 67.216 73.1326 66.336V67.008C73.1326 68.928 72.2206 69.856 70.2206 69.856C68.9726 69.856 67.7406 69.424 66.9566 68.752L66.2206 69.936C67.1486 70.768 68.7166 71.2 70.2686 71.2C73.1486 71.2 74.6686 69.84 74.6686 66.848V59.52H73.2126ZM70.2526 66.304C68.5406 66.304 67.3246 65.168 67.3246 63.536C67.3246 61.888 68.5406 60.784 70.2526 60.784C71.9486 60.784 73.1646 61.888 73.1646 63.536C73.1646 65.168 71.9486 66.304 70.2526 66.304ZM85.5875 63.808C85.5875 61.2 83.8435 59.44 81.3955 59.44C78.9475 59.44 77.1395 61.248 77.1395 63.76C77.1395 66.288 78.9635 68.096 81.6995 68.096C83.1075 68.096 84.2755 67.616 85.0435 66.72L84.1955 65.728C83.5715 66.416 82.7395 66.752 81.7475 66.752C80.0675 66.752 78.8675 65.76 78.6755 64.272H85.5555C85.5715 64.128 85.5875 63.936 85.5875 63.808ZM81.3955 60.736C82.8835 60.736 83.9555 61.744 84.1155 63.168H78.6755C78.8355 61.728 79.9235 60.736 81.3955 60.736ZM91.6724 68.096C94.2164 68.096 96.0724 66.288 96.0724 63.76C96.0724 61.232 94.2164 59.44 91.6724 59.44C89.1284 59.44 87.2564 61.232 87.2564 63.76C87.2564 66.288 89.1284 68.096 91.6724 68.096ZM91.6724 66.752C90.0404 66.752 88.8084 65.568 88.8084 63.76C88.8084 61.952 90.0404 60.784 91.6724 60.784C93.3044 60.784 94.5204 61.952 94.5204 63.76C94.5204 65.568 93.3044 66.752 91.6724 66.752ZM103.045 59.44C101.701 59.44 100.613 59.936 99.9886 60.8V59.52H98.5166V68H100.053V63.632C100.053 61.792 101.109 60.816 102.741 60.816C104.197 60.816 105.029 61.632 105.029 63.296V68H106.565V63.12C106.565 60.624 105.109 59.44 103.045 59.44ZM125.8 59.52L123.272 66.304L120.76 59.52H119.464L116.904 66.272L114.44 59.52H112.984L116.136 68H117.608L120.088 61.568L122.536 68H124.008L127.176 59.52H125.8ZM131.877 59.44C130.517 59.44 129.253 59.824 128.373 60.528L129.013 61.68C129.669 61.12 130.693 60.768 131.701 60.768C133.221 60.768 133.973 61.52 133.973 62.816V63.12H131.541C129.013 63.12 128.133 64.24 128.133 65.6C128.133 67.072 129.349 68.096 131.269 68.096C132.597 68.096 133.541 67.648 134.053 66.88V68H135.509V62.88C135.509 60.56 134.197 59.44 131.877 59.44ZM131.525 66.912C130.357 66.912 129.653 66.384 129.653 65.536C129.653 64.816 130.085 64.224 131.605 64.224H133.973V65.408C133.589 66.384 132.677 66.912 131.525 66.912ZM141.104 68.096C143.36 68.096 144.768 67.12 144.768 65.584C144.768 62.288 139.392 63.92 139.392 61.92C139.392 61.248 140.048 60.752 141.392 60.752C142.224 60.752 143.072 60.928 143.84 61.424L144.496 60.208C143.76 59.728 142.512 59.44 141.408 59.44C139.232 59.44 137.872 60.464 137.872 61.984C137.872 65.36 143.232 63.712 143.232 65.616C143.232 66.336 142.64 66.768 141.216 66.768C140.112 66.768 138.96 66.4 138.24 65.888L137.6 67.104C138.304 67.664 139.696 68.096 141.104 68.096ZM157.624 59.52L154.648 66.32L151.736 59.52H150.136L153.848 68H155.416L159.128 59.52H157.624ZM168.311 63.808C168.311 61.2 166.567 59.44 164.119 59.44C161.671 59.44 159.863 61.248 159.863 63.76C159.863 66.288 161.687 68.096 164.423 68.096C165.831 68.096 166.999 67.616 167.767 66.72L166.919 65.728C166.295 66.416 165.463 66.752 164.471 66.752C162.791 66.752 161.591 65.76 161.399 64.272H168.279C168.295 64.128 168.311 63.936 168.311 63.808ZM164.119 60.736C165.607 60.736 166.679 61.744 166.839 63.168H161.399C161.559 61.728 162.647 60.736 164.119 60.736ZM172.236 60.944V59.52H170.764V68H172.3V63.776C172.3 61.92 173.324 60.912 174.972 60.912C175.084 60.912 175.196 60.912 175.324 60.928V59.44C173.836 59.44 172.78 59.952 172.236 60.944ZM183.881 59.52L180.953 66.304L177.993 59.52H176.393L180.137 67.984L179.865 68.576C179.449 69.552 178.985 69.888 178.249 69.888C177.673 69.888 177.145 69.664 176.729 69.264L176.073 70.416C176.601 70.928 177.433 71.2 178.249 71.2C179.545 71.2 180.521 70.64 181.273 68.848L185.385 59.52H183.881ZM195.451 68.096C196.971 68.096 198.235 67.456 198.907 66.272L197.739 65.536C197.195 66.368 196.363 66.752 195.435 66.752C193.771 66.752 192.523 65.6 192.523 63.76C192.523 61.952 193.771 60.784 195.435 60.784C196.363 60.784 197.195 61.168 197.739 62L198.907 61.248C198.235 60.064 196.971 59.44 195.451 59.44C192.843 59.44 190.971 61.232 190.971 63.76C190.971 66.288 192.843 68.096 195.451 68.096ZM204.723 68.096C207.267 68.096 209.123 66.288 209.123 63.76C209.123 61.232 207.267 59.44 204.723 59.44C202.179 59.44 200.307 61.232 200.307 63.76C200.307 66.288 202.179 68.096 204.723 68.096ZM204.723 66.752C203.091 66.752 201.859 65.568 201.859 63.76C201.859 61.952 203.091 60.784 204.723 60.784C206.355 60.784 207.571 61.952 207.571 63.76C207.571 65.568 206.355 66.752 204.723 66.752ZM216.095 59.44C214.751 59.44 213.663 59.936 213.039 60.8V59.52H211.567V68H213.103V63.632C213.103 61.792 214.159 60.816 215.791 60.816C217.247 60.816 218.079 61.632 218.079 63.296V68H219.615V63.12C219.615 60.624 218.159 59.44 216.095 59.44ZM230.474 57.888C231.082 57.888 231.514 57.44 231.514 56.864C231.514 56.32 231.066 55.888 230.474 55.888C229.882 55.888 229.434 56.336 229.434 56.896C229.434 57.456 229.882 57.888 230.474 57.888ZM223.002 58.768V59.52H221.562V60.784H223.002V68H224.538V60.784H226.97V59.52H224.506V58.784C224.506 57.808 224.97 57.296 225.882 57.296C226.33 57.296 226.746 57.456 227.066 57.696L227.53 56.528C227.098 56.192 226.458 56.032 225.802 56.032C223.994 56.032 223.002 57.12 223.002 58.768ZM229.706 68H231.242V59.52H229.706V68ZM240.953 56.128V60.8C240.249 59.888 239.193 59.44 237.993 59.44C235.513 59.44 233.705 61.168 233.705 63.76C233.705 66.352 235.513 68.096 237.993 68.096C239.241 68.096 240.329 67.616 241.017 66.656V68H242.489V56.128H240.953ZM238.121 66.752C236.489 66.752 235.257 65.568 235.257 63.76C235.257 61.952 236.489 60.784 238.121 60.784C239.737 60.784 240.969 61.952 240.969 63.76C240.969 65.568 239.737 66.752 238.121 66.752ZM253.379 63.808C253.379 61.2 251.635 59.44 249.187 59.44C246.739 59.44 244.931 61.248 244.931 63.76C244.931 66.288 246.755 68.096 249.491 68.096C250.899 68.096 252.067 67.616 252.835 66.72L251.987 65.728C251.363 66.416 250.531 66.752 249.539 66.752C247.859 66.752 246.659 65.76 246.467 64.272H253.347C253.363 64.128 253.379 63.936 253.379 63.808ZM249.187 60.736C250.675 60.736 251.747 61.744 251.907 63.168H246.467C246.627 61.728 247.715 60.736 249.187 60.736ZM260.36 59.44C259.016 59.44 257.928 59.936 257.304 60.8V59.52H255.832V68H257.368V63.632C257.368 61.792 258.424 60.816 260.056 60.816C261.512 60.816 262.344 61.632 262.344 63.296V68H263.88V63.12C263.88 60.624 262.424 59.44 260.36 59.44ZM271.33 66.4C271.01 66.656 270.578 66.8 270.13 66.8C269.282 66.8 268.802 66.288 268.802 65.376V60.784H271.234V59.52H268.802V57.664H267.266V59.52H265.826V60.784H267.266V65.44C267.266 67.152 268.242 68.096 269.954 68.096C270.642 68.096 271.346 67.904 271.81 67.504L271.33 66.4ZM274.528 65.904C273.92 65.904 273.456 66.352 273.456 66.992C273.456 67.472 273.728 67.84 274.128 67.984L273.536 70.368H274.544L275.296 68.144C275.504 67.552 275.568 67.312 275.568 66.992C275.568 66.368 275.136 65.904 274.528 65.904ZM285.793 59.44C284.433 59.44 283.169 59.824 282.289 60.528L282.929 61.68C283.585 61.12 284.609 60.768 285.617 60.768C287.137 60.768 287.889 61.52 287.889 62.816V63.12H285.457C282.929 63.12 282.049 64.24 282.049 65.6C282.049 67.072 283.265 68.096 285.185 68.096C286.513 68.096 287.457 67.648 287.969 66.88V68H289.425V62.88C289.425 60.56 288.113 59.44 285.793 59.44ZM285.441 66.912C284.273 66.912 283.569 66.384 283.569 65.536C283.569 64.816 284.001 64.224 285.521 64.224H287.889V65.408C287.505 66.384 286.593 66.912 285.441 66.912ZM295.02 68.096C297.276 68.096 298.684 67.12 298.684 65.584C298.684 62.288 293.308 63.92 293.308 61.92C293.308 61.248 293.964 60.752 295.308 60.752C296.14 60.752 296.988 60.928 297.756 61.424L298.412 60.208C297.676 59.728 296.428 59.44 295.324 59.44C293.148 59.44 291.788 60.464 291.788 61.984C291.788 65.36 297.148 63.712 297.148 65.616C297.148 66.336 296.556 66.768 295.132 66.768C294.028 66.768 292.876 66.4 292.156 65.888L291.516 67.104C292.22 67.664 293.612 68.096 295.02 68.096ZM303.355 68.096C305.611 68.096 307.019 67.12 307.019 65.584C307.019 62.288 301.643 63.92 301.643 61.92C301.643 61.248 302.299 60.752 303.643 60.752C304.475 60.752 305.323 60.928 306.091 61.424L306.747 60.208C306.011 59.728 304.763 59.44 303.659 59.44C301.483 59.44 300.123 60.464 300.123 61.984C300.123 65.36 305.483 63.712 305.483 65.616C305.483 66.336 304.891 66.768 303.467 66.768C302.363 66.768 301.211 66.4 300.491 65.888L299.851 67.104C300.555 67.664 301.947 68.096 303.355 68.096ZM315.627 59.52V63.904C315.627 65.728 314.603 66.72 313.003 66.72C311.547 66.72 310.715 65.888 310.715 64.224V59.52H309.179V64.4C309.179 66.896 310.635 68.096 312.827 68.096C314.027 68.096 315.083 67.6 315.707 66.72V68H317.163V59.52H315.627ZM321.879 60.944V59.52H320.407V68H321.943V63.776C321.943 61.92 322.967 60.912 324.615 60.912C324.727 60.912 324.839 60.912 324.967 60.928V59.44C323.479 59.44 322.423 59.952 321.879 60.944ZM327.948 57.888C328.556 57.888 328.988 57.44 328.988 56.864C328.988 56.32 328.54 55.888 327.948 55.888C327.356 55.888 326.908 56.336 326.908 56.896C326.908 57.456 327.356 57.888 327.948 57.888ZM327.18 68H328.716V59.52H327.18V68ZM336.497 59.44C335.153 59.44 334.065 59.936 333.441 60.8V59.52H331.969V68H333.505V63.632C333.505 61.792 334.561 60.816 336.193 60.816C337.649 60.816 338.481 61.632 338.481 63.296V68H340.017V63.12C340.017 60.624 338.561 59.44 336.497 59.44ZM349.883 59.52V60.832C349.163 59.904 348.011 59.44 346.747 59.44C344.299 59.44 342.443 61.088 342.443 63.536C342.443 65.984 344.299 67.648 346.747 67.648C347.963 67.648 349.067 67.216 349.803 66.336V67.008C349.803 68.928 348.891 69.856 346.891 69.856C345.643 69.856 344.411 69.424 343.627 68.752L342.891 69.936C343.819 70.768 345.387 71.2 346.939 71.2C349.819 71.2 351.339 69.84 351.339 66.848V59.52H349.883ZM346.923 66.304C345.211 66.304 343.995 65.168 343.995 63.536C343.995 61.888 345.211 60.784 346.923 60.784C348.619 60.784 349.835 61.888 349.835 63.536C349.835 65.168 348.619 66.304 346.923 66.304ZM362.298 59.44C360.938 59.44 359.674 59.824 358.794 60.528L359.434 61.68C360.09 61.12 361.114 60.768 362.122 60.768C363.642 60.768 364.394 61.52 364.394 62.816V63.12H361.962C359.434 63.12 358.554 64.24 358.554 65.6C358.554 67.072 359.77 68.096 361.69 68.096C363.018 68.096 363.962 67.648 364.474 66.88V68H365.93V62.88C365.93 60.56 364.618 59.44 362.298 59.44ZM361.946 66.912C360.778 66.912 360.074 66.384 360.074 65.536C360.074 64.816 360.506 64.224 362.026 64.224H364.394V65.408C364.01 66.384 363.098 66.912 361.946 66.912ZM373.621 59.44C372.277 59.44 371.189 59.936 370.565 60.8V59.52H369.093V68H370.629V63.632C370.629 61.792 371.685 60.816 373.317 60.816C374.773 60.816 375.605 61.632 375.605 63.296V68H377.141V63.12C377.141 60.624 375.685 59.44 373.621 59.44ZM386.814 56.128V60.8C386.11 59.888 385.054 59.44 383.854 59.44C381.374 59.44 379.566 61.168 379.566 63.76C379.566 66.352 381.374 68.096 383.854 68.096C385.102 68.096 386.19 67.616 386.878 66.656V68H388.35V56.128H386.814ZM383.982 66.752C382.35 66.752 381.118 65.568 381.118 63.76C381.118 61.952 382.35 60.784 383.982 60.784C385.598 60.784 386.83 61.952 386.83 63.76C386.83 65.568 385.598 66.752 383.982 66.752ZM403.857 63.808C403.857 61.2 402.113 59.44 399.665 59.44C397.217 59.44 395.409 61.248 395.409 63.76C395.409 66.288 397.233 68.096 399.969 68.096C401.377 68.096 402.545 67.616 403.313 66.72L402.465 65.728C401.841 66.416 401.009 66.752 400.017 66.752C398.337 66.752 397.137 65.76 396.945 64.272H403.825C403.841 64.128 403.857 63.936 403.857 63.808ZM399.665 60.736C401.153 60.736 402.225 61.744 402.385 63.168H396.945C397.105 61.728 398.193 60.736 399.665 60.736ZM413.228 68L409.852 63.664L413.052 59.52H411.372L409.052 62.576L406.716 59.52H405.004L408.188 63.664L404.844 68H406.556L409.036 64.752L411.484 68H413.228ZM419.72 59.44C418.472 59.44 417.384 59.92 416.696 60.864V59.52H415.224V71.104H416.76V66.72C417.464 67.632 418.52 68.096 419.72 68.096C422.2 68.096 424.008 66.368 424.008 63.76C424.008 61.168 422.2 59.44 419.72 59.44ZM419.592 66.752C417.976 66.752 416.744 65.568 416.744 63.76C416.744 61.968 417.976 60.784 419.592 60.784C421.224 60.784 422.456 61.968 422.456 63.76C422.456 65.568 421.224 66.752 419.592 66.752ZM426.45 68H427.986V56.128H426.45V68ZM434.327 59.44C432.967 59.44 431.703 59.824 430.823 60.528L431.463 61.68C432.119 61.12 433.143 60.768 434.151 60.768C435.671 60.768 436.423 61.52 436.423 62.816V63.12H433.991C431.463 63.12 430.583 64.24 430.583 65.6C430.583 67.072 431.799 68.096 433.719 68.096C435.047 68.096 435.991 67.648 436.503 66.88V68H437.959V62.88C437.959 60.56 436.647 59.44 434.327 59.44ZM433.975 66.912C432.807 66.912 432.103 66.384 432.103 65.536C432.103 64.816 432.535 64.224 434.055 64.224H436.423V65.408C436.039 66.384 435.127 66.912 433.975 66.912ZM441.89 57.888C442.498 57.888 442.93 57.44 442.93 56.864C442.93 56.32 442.482 55.888 441.89 55.888C441.298 55.888 440.85 56.336 440.85 56.896C440.85 57.456 441.298 57.888 441.89 57.888ZM441.122 68H442.658V59.52H441.122V68ZM450.438 59.44C449.094 59.44 448.006 59.936 447.382 60.8V59.52H445.91V68H447.446V63.632C447.446 61.792 448.502 60.816 450.134 60.816C451.59 60.816 452.422 61.632 452.422 63.296V68H453.958V63.12C453.958 60.624 452.502 59.44 450.438 59.44ZM464.832 63.808C464.832 61.2 463.088 59.44 460.64 59.44C458.192 59.44 456.384 61.248 456.384 63.76C456.384 66.288 458.208 68.096 460.944 68.096C462.352 68.096 463.52 67.616 464.288 66.72L463.44 65.728C462.816 66.416 461.984 66.752 460.992 66.752C459.312 66.752 458.112 65.76 457.92 64.272H464.8C464.816 64.128 464.832 63.936 464.832 63.808ZM460.64 60.736C462.128 60.736 463.2 61.744 463.36 63.168H457.92C458.08 61.728 459.168 60.736 460.64 60.736ZM473.749 56.128V60.8C473.045 59.888 471.989 59.44 470.789 59.44C468.309 59.44 466.501 61.168 466.501 63.76C466.501 66.352 468.309 68.096 470.789 68.096C472.037 68.096 473.125 67.616 473.813 66.656V68H475.285V56.128H473.749ZM470.917 66.752C469.285 66.752 468.053 65.568 468.053 63.76C468.053 61.952 469.285 60.784 470.917 60.784C472.533 60.784 473.765 61.952 473.765 63.76C473.765 65.568 472.533 66.752 470.917 66.752ZM487.416 66.4C487.096 66.656 486.664 66.8 486.216 66.8C485.368 66.8 484.888 66.288 484.888 65.376V60.784H487.32V59.52H484.888V57.664H483.352V59.52H481.912V60.784H483.352V65.44C483.352 67.152 484.328 68.096 486.04 68.096C486.728 68.096 487.432 67.904 487.896 67.504L487.416 66.4ZM494.601 59.44C493.305 59.44 492.249 59.904 491.609 60.72V56.128H490.073V68H491.609V63.632C491.609 61.792 492.665 60.816 494.297 60.816C495.753 60.816 496.585 61.632 496.585 63.296V68H498.121V63.12C498.121 60.624 496.665 59.44 494.601 59.44ZM502.052 57.888C502.66 57.888 503.092 57.44 503.092 56.864C503.092 56.32 502.644 55.888 502.052 55.888C501.46 55.888 501.012 56.336 501.012 56.896C501.012 57.456 501.46 57.888 502.052 57.888ZM501.284 68H502.82V59.52H501.284V68ZM510.6 59.44C509.256 59.44 508.168 59.936 507.544 60.8V59.52H506.072V68H507.608V63.632C507.608 61.792 508.664 60.816 510.296 60.816C511.752 60.816 512.584 61.632 512.584 63.296V68H514.12V63.12C514.12 60.624 512.664 59.44 510.6 59.44ZM523.986 59.52V60.832C523.266 59.904 522.114 59.44 520.85 59.44C518.402 59.44 516.546 61.088 516.546 63.536C516.546 65.984 518.402 67.648 520.85 67.648C522.066 67.648 523.17 67.216 523.906 66.336V67.008C523.906 68.928 522.994 69.856 520.994 69.856C519.746 69.856 518.514 69.424 517.73 68.752L516.994 69.936C517.922 70.768 519.49 71.2 521.042 71.2C523.922 71.2 525.442 69.84 525.442 66.848V59.52H523.986ZM521.026 66.304C519.314 66.304 518.098 65.168 518.098 63.536C518.098 61.888 519.314 60.784 521.026 60.784C522.722 60.784 523.938 61.888 523.938 63.536C523.938 65.168 522.722 66.304 521.026 66.304ZM531.129 68.096C533.385 68.096 534.793 67.12 534.793 65.584C534.793 62.288 529.417 63.92 529.417 61.92C529.417 61.248 530.073 60.752 531.417 60.752C532.249 60.752 533.097 60.928 533.865 61.424L534.521 60.208C533.785 59.728 532.537 59.44 531.433 59.44C529.257 59.44 527.897 60.464 527.897 61.984C527.897 65.36 533.257 63.712 533.257 65.616C533.257 66.336 532.665 66.768 531.241 66.768C530.137 66.768 528.985 66.4 528.265 65.888L527.625 67.104C528.329 67.664 529.721 68.096 531.129 68.096ZM542.417 57.888C543.025 57.888 543.457 57.44 543.457 56.864C543.457 56.32 543.009 55.888 542.417 55.888C541.825 55.888 541.377 56.336 541.377 56.896C541.377 57.456 541.825 57.888 542.417 57.888ZM541.649 68H543.185V59.52H541.649V68ZM550.966 59.44C549.622 59.44 548.534 59.936 547.91 60.8V59.52H546.438V68H547.974V63.632C547.974 61.792 549.03 60.816 550.662 60.816C552.118 60.816 552.95 61.632 552.95 63.296V68H554.486V63.12C554.486 60.624 553.03 59.44 550.966 59.44ZM568.729 56.128V60.8C568.025 59.888 566.969 59.44 565.769 59.44C563.289 59.44 561.481 61.168 561.481 63.76C561.481 66.352 563.289 68.096 565.769 68.096C567.017 68.096 568.105 67.616 568.793 66.656V68H570.265V56.128H568.729ZM565.897 66.752C564.265 66.752 563.033 65.568 563.033 63.76C563.033 61.952 564.265 60.784 565.897 60.784C567.513 60.784 568.745 61.952 568.745 63.76C568.745 65.568 567.513 66.752 565.897 66.752ZM581.156 63.808C581.156 61.2 579.412 59.44 576.964 59.44C574.516 59.44 572.708 61.248 572.708 63.76C572.708 66.288 574.532 68.096 577.268 68.096C578.676 68.096 579.844 67.616 580.612 66.72L579.764 65.728C579.14 66.416 578.308 66.752 577.316 66.752C575.636 66.752 574.436 65.76 574.244 64.272H581.124C581.14 64.128 581.156 63.936 581.156 63.808ZM576.964 60.736C578.452 60.736 579.524 61.744 579.684 63.168H574.244C574.404 61.728 575.492 60.736 576.964 60.736ZM587.897 66.4C587.577 66.656 587.145 66.8 586.697 66.8C585.849 66.8 585.369 66.288 585.369 65.376V60.784H587.801V59.52H585.369V57.664H583.833V59.52H582.393V60.784H583.833V65.44C583.833 67.152 584.809 68.096 586.521 68.096C587.209 68.096 587.913 67.904 588.377 67.504L587.897 66.4ZM593.641 59.44C592.281 59.44 591.017 59.824 590.137 60.528L590.777 61.68C591.433 61.12 592.457 60.768 593.465 60.768C594.985 60.768 595.737 61.52 595.737 62.816V63.12H593.305C590.777 63.12 589.897 64.24 589.897 65.6C589.897 67.072 591.113 68.096 593.033 68.096C594.361 68.096 595.305 67.648 595.817 66.88V68H597.273V62.88C597.273 60.56 595.961 59.44 593.641 59.44ZM593.289 66.912C592.121 66.912 591.417 66.384 591.417 65.536C591.417 64.816 591.849 64.224 593.369 64.224H595.737V65.408C595.353 66.384 594.441 66.912 593.289 66.912ZM601.204 57.888C601.812 57.888 602.244 57.44 602.244 56.864C602.244 56.32 601.796 55.888 601.204 55.888C600.612 55.888 600.164 56.336 600.164 56.896C600.164 57.456 600.612 57.888 601.204 57.888ZM600.436 68H601.972V59.52H600.436V68ZM605.225 68H606.761V56.128H605.225V68ZM612.445 68.096C614.701 68.096 616.109 67.12 616.109 65.584C616.109 62.288 610.733 63.92 610.733 61.92C610.733 61.248 611.389 60.752 612.733 60.752C613.565 60.752 614.413 60.928 615.181 61.424L615.837 60.208C615.101 59.728 613.853 59.44 612.749 59.44C610.573 59.44 609.213 60.464 609.213 61.984C609.213 65.36 614.573 63.712 614.573 65.616C614.573 66.336 613.981 66.768 612.557 66.768C611.453 66.768 610.301 66.4 609.581 65.888L608.941 67.104C609.645 67.664 611.037 68.096 612.445 68.096ZM618.717 68.096C619.293 68.096 619.773 67.632 619.773 66.992C619.773 66.352 619.293 65.904 618.717 65.904C618.125 65.904 617.629 66.352 617.629 66.992C617.629 67.632 618.125 68.096 618.717 68.096ZM41.944 94.128C44.904 94.128 46.28 92.656 46.28 90.944C46.28 86.832 39.496 88.544 39.496 85.808C39.496 84.832 40.312 84.032 42.216 84.032C43.208 84.032 44.312 84.32 45.288 84.944L45.816 83.664C44.888 83.024 43.528 82.672 42.216 82.672C39.272 82.672 37.928 84.144 37.928 85.872C37.928 90.032 44.712 88.304 44.712 91.04C44.712 92.016 43.88 92.768 41.944 92.768C40.504 92.768 39.08 92.224 38.248 91.472L37.656 92.72C38.552 93.552 40.232 94.128 41.944 94.128ZM55.0815 85.52V89.904C55.0815 91.728 54.0575 92.72 52.4575 92.72C51.0015 92.72 50.1695 91.888 50.1695 90.224V85.52H48.6335V90.4C48.6335 92.896 50.0895 94.096 52.2815 94.096C53.4815 94.096 54.5375 93.6 55.1615 92.72V94H56.6175V85.52H55.0815ZM61.3336 86.944V85.52H59.8616V94H61.3976V89.776C61.3976 87.92 62.4216 86.912 64.0696 86.912C64.1816 86.912 64.2936 86.912 64.4216 86.928V85.44C62.9336 85.44 61.8776 85.952 61.3336 86.944ZM73.2126 85.52V86.832C72.4926 85.904 71.3406 85.44 70.0766 85.44C67.6286 85.44 65.7726 87.088 65.7726 89.536C65.7726 91.984 67.6286 93.648 70.0766 93.648C71.2926 93.648 72.3966 93.216 73.1326 92.336V93.008C73.1326 94.928 72.2206 95.856 70.2206 95.856C68.9726 95.856 67.7406 95.424 66.9566 94.752L66.2206 95.936C67.1486 96.768 68.7166 97.2 70.2686 97.2C73.1486 97.2 74.6686 95.84 74.6686 92.848V85.52H73.2126ZM70.2526 92.304C68.5406 92.304 67.3246 91.168 67.3246 89.536C67.3246 87.888 68.5406 86.784 70.2526 86.784C71.9486 86.784 73.1646 87.888 73.1646 89.536C73.1646 91.168 71.9486 92.304 70.2526 92.304ZM85.5875 89.808C85.5875 87.2 83.8435 85.44 81.3955 85.44C78.9475 85.44 77.1395 87.248 77.1395 89.76C77.1395 92.288 78.9635 94.096 81.6995 94.096C83.1075 94.096 84.2755 93.616 85.0435 92.72L84.1955 91.728C83.5715 92.416 82.7395 92.752 81.7475 92.752C80.0675 92.752 78.8675 91.76 78.6755 90.272H85.5555C85.5715 90.128 85.5875 89.936 85.5875 89.808ZM81.3955 86.736C82.8835 86.736 83.9555 87.744 84.1155 89.168H78.6755C78.8355 87.728 79.9235 86.736 81.3955 86.736ZM89.5124 86.944V85.52H88.0404V94H89.5764V89.776C89.5764 87.92 90.6004 86.912 92.2484 86.912C92.3604 86.912 92.4724 86.912 92.6004 86.928V85.44C91.1124 85.44 90.0564 85.952 89.5124 86.944ZM101.157 85.52L98.2292 92.304L95.2692 85.52H93.6692L97.4132 93.984L97.1412 94.576C96.7252 95.552 96.2612 95.888 95.5252 95.888C94.9492 95.888 94.4212 95.664 94.0052 95.264L93.3492 96.416C93.8772 96.928 94.7092 97.2 95.5252 97.2C96.8212 97.2 97.7972 96.64 98.5492 94.848L102.661 85.52H101.157ZM120.488 85.52L117.96 92.304L115.448 85.52H114.152L111.592 92.272L109.128 85.52H107.672L110.824 94H112.296L114.776 87.568L117.224 94H118.696L121.864 85.52H120.488ZM131.172 89.808C131.172 87.2 129.428 85.44 126.98 85.44C124.532 85.44 122.724 87.248 122.724 89.76C122.724 92.288 124.548 94.096 127.284 94.096C128.692 94.096 129.86 93.616 130.628 92.72L129.78 91.728C129.156 92.416 128.324 92.752 127.332 92.752C125.652 92.752 124.452 91.76 124.26 90.272H131.14C131.156 90.128 131.172 89.936 131.172 89.808ZM126.98 86.736C128.468 86.736 129.54 87.744 129.7 89.168H124.26C124.42 87.728 125.508 86.736 126.98 86.736ZM138.153 85.44C136.809 85.44 135.721 85.936 135.097 86.8V85.52H133.625V94H135.161V89.632C135.161 87.792 136.217 86.816 137.849 86.816C139.305 86.816 140.137 87.632 140.137 89.296V94H141.673V89.12C141.673 86.624 140.217 85.44 138.153 85.44ZM149.123 92.4C148.803 92.656 148.371 92.8 147.923 92.8C147.075 92.8 146.595 92.288 146.595 91.376V86.784H149.027V85.52H146.595V83.664H145.059V85.52H143.619V86.784H145.059V91.44C145.059 93.152 146.035 94.096 147.747 94.096C148.435 94.096 149.139 93.904 149.603 93.504L149.123 92.4ZM160.893 85.44C159.693 85.44 158.637 85.888 157.933 86.8V82.128H156.397V94H157.869V92.656C158.557 93.616 159.645 94.096 160.893 94.096C163.373 94.096 165.181 92.352 165.181 89.76C165.181 87.168 163.373 85.44 160.893 85.44ZM160.765 92.752C159.149 92.752 157.917 91.568 157.917 89.76C157.917 87.952 159.149 86.784 160.765 86.784C162.397 86.784 163.629 87.952 163.629 89.76C163.629 91.568 162.397 92.752 160.765 92.752ZM173.389 85.52L170.461 92.304L167.501 85.52H165.901L169.645 93.984L169.373 94.576C168.957 95.552 168.493 95.888 167.757 95.888C167.181 95.888 166.653 95.664 166.237 95.264L165.581 96.416C166.109 96.928 166.941 97.2 167.757 97.2C169.053 97.2 170.029 96.64 170.781 94.848L174.893 85.52H173.389ZM184.959 94.096C186.479 94.096 187.743 93.456 188.415 92.272L187.247 91.536C186.703 92.368 185.871 92.752 184.943 92.752C183.279 92.752 182.031 91.6 182.031 89.76C182.031 87.952 183.279 86.784 184.943 86.784C185.871 86.784 186.703 87.168 187.247 88L188.415 87.248C187.743 86.064 186.479 85.44 184.959 85.44C182.351 85.44 180.479 87.232 180.479 89.76C180.479 92.288 182.351 94.096 184.959 94.096ZM190.615 94H192.151V82.128H190.615V94ZM199.035 94.096C201.579 94.096 203.435 92.288 203.435 89.76C203.435 87.232 201.579 85.44 199.035 85.44C196.491 85.44 194.619 87.232 194.619 89.76C194.619 92.288 196.491 94.096 199.035 94.096ZM199.035 92.752C197.403 92.752 196.171 91.568 196.171 89.76C196.171 87.952 197.403 86.784 199.035 86.784C200.667 86.784 201.883 87.952 201.883 89.76C201.883 91.568 200.667 92.752 199.035 92.752ZM209.576 94.096C211.096 94.096 212.36 93.456 213.032 92.272L211.864 91.536C211.32 92.368 210.488 92.752 209.56 92.752C207.896 92.752 206.648 91.6 206.648 89.76C206.648 87.952 207.896 86.784 209.56 86.784C210.488 86.784 211.32 87.168 211.864 88L213.032 87.248C212.36 86.064 211.096 85.44 209.576 85.44C206.968 85.44 205.096 87.232 205.096 89.76C205.096 92.288 206.968 94.096 209.576 94.096ZM221.711 94H223.599L219.679 89.024L223.247 85.52H221.391L216.767 89.744V82.128H215.231V94H216.767V91.68L218.527 90.048L221.711 94ZM241.483 85.52L238.955 92.304L236.443 85.52H235.147L232.587 92.272L230.123 85.52H228.667L231.819 94H233.291L235.771 87.568L238.219 94H239.691L242.859 85.52H241.483ZM248.136 94.096C250.68 94.096 252.536 92.288 252.536 89.76C252.536 87.232 250.68 85.44 248.136 85.44C245.592 85.44 243.72 87.232 243.72 89.76C243.72 92.288 245.592 94.096 248.136 94.096ZM248.136 92.752C246.504 92.752 245.272 91.568 245.272 89.76C245.272 87.952 246.504 86.784 248.136 86.784C249.768 86.784 250.984 87.952 250.984 89.76C250.984 91.568 249.768 92.752 248.136 92.752ZM256.452 86.944V85.52H254.98V94H256.516V89.776C256.516 87.92 257.54 86.912 259.188 86.912C259.3 86.912 259.412 86.912 259.54 86.928V85.44C258.052 85.44 256.996 85.952 256.452 86.944ZM268.233 94H270.121L266.201 89.024L269.769 85.52H267.913L263.289 89.744V82.128H261.753V94H263.289V91.68L265.049 90.048L268.233 94ZM281.045 85.44C279.797 85.44 278.709 85.92 278.021 86.864V85.52H276.549V97.104H278.085V92.72C278.789 93.632 279.845 94.096 281.045 94.096C283.525 94.096 285.333 92.368 285.333 89.76C285.333 87.168 283.525 85.44 281.045 85.44ZM280.917 92.752C279.301 92.752 278.069 91.568 278.069 89.76C278.069 87.968 279.301 86.784 280.917 86.784C282.549 86.784 283.781 87.968 283.781 89.76C283.781 91.568 282.549 92.752 280.917 92.752ZM289.247 86.944V85.52H287.775V94H289.311V89.776C289.311 87.92 290.335 86.912 291.983 86.912C292.095 86.912 292.207 86.912 292.335 86.928V85.44C290.847 85.44 289.791 85.952 289.247 86.944ZM302.134 89.808C302.134 87.2 300.39 85.44 297.942 85.44C295.494 85.44 293.686 87.248 293.686 89.76C293.686 92.288 295.51 94.096 298.246 94.096C299.654 94.096 300.822 93.616 301.59 92.72L300.742 91.728C300.118 92.416 299.286 92.752 298.294 92.752C296.614 92.752 295.414 91.76 295.222 90.272H302.102C302.118 90.128 302.134 89.936 302.134 89.808ZM297.942 86.736C299.43 86.736 300.502 87.744 300.662 89.168H295.222C295.382 87.728 296.47 86.736 297.942 86.736ZM308.283 94.096C309.803 94.096 311.067 93.456 311.739 92.272L310.571 91.536C310.027 92.368 309.195 92.752 308.267 92.752C306.603 92.752 305.355 91.6 305.355 89.76C305.355 87.952 306.603 86.784 308.267 86.784C309.195 86.784 310.027 87.168 310.571 88L311.739 87.248C311.067 86.064 309.803 85.44 308.283 85.44C305.675 85.44 303.803 87.232 303.803 89.76C303.803 92.288 305.675 94.096 308.283 94.096ZM314.816 83.888C315.424 83.888 315.856 83.44 315.856 82.864C315.856 82.32 315.408 81.888 314.816 81.888C314.224 81.888 313.776 82.336 313.776 82.896C313.776 83.456 314.224 83.888 314.816 83.888ZM314.048 94H315.584V85.52H314.048V94ZM321.269 94.096C323.525 94.096 324.933 93.12 324.933 91.584C324.933 88.288 319.557 89.92 319.557 87.92C319.557 87.248 320.213 86.752 321.557 86.752C322.389 86.752 323.237 86.928 324.005 87.424L324.661 86.208C323.925 85.728 322.677 85.44 321.573 85.44C319.397 85.44 318.037 86.464 318.037 87.984C318.037 91.36 323.397 89.712 323.397 91.616C323.397 92.336 322.805 92.768 321.381 92.768C320.277 92.768 319.125 92.4 318.405 91.888L317.765 93.104C318.469 93.664 319.861 94.096 321.269 94.096ZM327.94 83.888C328.548 83.888 328.98 83.44 328.98 82.864C328.98 82.32 328.532 81.888 327.94 81.888C327.348 81.888 326.9 82.336 326.9 82.896C326.9 83.456 327.348 83.888 327.94 83.888ZM327.172 94H328.708V85.52H327.172V94ZM335.593 94.096C338.137 94.096 339.993 92.288 339.993 89.76C339.993 87.232 338.137 85.44 335.593 85.44C333.049 85.44 331.177 87.232 331.177 89.76C331.177 92.288 333.049 94.096 335.593 94.096ZM335.593 92.752C333.961 92.752 332.729 91.568 332.729 89.76C332.729 87.952 333.961 86.784 335.593 86.784C337.225 86.784 338.441 87.952 338.441 89.76C338.441 91.568 337.225 92.752 335.593 92.752ZM346.965 85.44C345.621 85.44 344.533 85.936 343.909 86.8V85.52H342.437V94H343.973V89.632C343.973 87.792 345.029 86.816 346.661 86.816C348.117 86.816 348.949 87.632 348.949 89.296V94H350.485V89.12C350.485 86.624 349.029 85.44 346.965 85.44ZM361.353 85.44C359.993 85.44 358.729 85.824 357.849 86.528L358.489 87.68C359.145 87.12 360.169 86.768 361.177 86.768C362.697 86.768 363.449 87.52 363.449 88.816V89.12H361.017C358.489 89.12 357.609 90.24 357.609 91.6C357.609 93.072 358.825 94.096 360.745 94.096C362.073 94.096 363.017 93.648 363.529 92.88V94H364.985V88.88C364.985 86.56 363.673 85.44 361.353 85.44ZM361.001 92.912C359.833 92.912 359.129 92.384 359.129 91.536C359.129 90.816 359.561 90.224 361.081 90.224H363.449V91.408C363.065 92.384 362.153 92.912 361.001 92.912ZM372.675 85.44C371.331 85.44 370.243 85.936 369.619 86.8V85.52H368.147V94H369.683V89.632C369.683 87.792 370.739 86.816 372.371 86.816C373.827 86.816 374.659 87.632 374.659 89.296V94H376.195V89.12C376.195 86.624 374.739 85.44 372.675 85.44ZM385.869 82.128V86.8C385.165 85.888 384.109 85.44 382.909 85.44C380.429 85.44 378.621 87.168 378.621 89.76C378.621 92.352 380.429 94.096 382.909 94.096C384.157 94.096 385.245 93.616 385.933 92.656V94H387.405V82.128H385.869ZM383.037 92.752C381.405 92.752 380.173 91.568 380.173 89.76C380.173 87.952 381.405 86.784 383.037 86.784C384.653 86.784 385.885 87.952 385.885 89.76C385.885 91.568 384.653 92.752 383.037 92.752ZM406.704 85.52L404.176 92.304L401.664 85.52H400.368L397.808 92.272L395.344 85.52H393.888L397.04 94H398.512L400.992 87.568L403.44 94H404.912L408.08 85.52H406.704ZM412.781 85.44C411.421 85.44 410.157 85.824 409.277 86.528L409.917 87.68C410.573 87.12 411.597 86.768 412.605 86.768C414.125 86.768 414.877 87.52 414.877 88.816V89.12H412.445C409.917 89.12 409.037 90.24 409.037 91.6C409.037 93.072 410.253 94.096 412.173 94.096C413.501 94.096 414.445 93.648 414.957 92.88V94H416.413V88.88C416.413 86.56 415.101 85.44 412.781 85.44ZM412.429 92.912C411.261 92.912 410.557 92.384 410.557 91.536C410.557 90.816 410.989 90.224 412.509 90.224H414.877V91.408C414.493 92.384 413.581 92.912 412.429 92.912ZM422.007 94.096C424.263 94.096 425.671 93.12 425.671 91.584C425.671 88.288 420.295 89.92 420.295 87.92C420.295 87.248 420.951 86.752 422.295 86.752C423.127 86.752 423.975 86.928 424.743 87.424L425.399 86.208C424.663 85.728 423.415 85.44 422.311 85.44C420.135 85.44 418.775 86.464 418.775 87.984C418.775 91.36 424.135 89.712 424.135 91.616C424.135 92.336 423.543 92.768 422.119 92.768C421.015 92.768 419.863 92.4 419.143 91.888L418.503 93.104C419.207 93.664 420.599 94.096 422.007 94.096ZM435.616 85.44C434.256 85.44 432.992 85.824 432.112 86.528L432.752 87.68C433.408 87.12 434.432 86.768 435.44 86.768C436.96 86.768 437.712 87.52 437.712 88.816V89.12H435.28C432.752 89.12 431.872 90.24 431.872 91.6C431.872 93.072 433.088 94.096 435.008 94.096C436.336 94.096 437.28 93.648 437.792 92.88V94H439.248V88.88C439.248 86.56 437.936 85.44 435.616 85.44ZM435.264 92.912C434.096 92.912 433.392 92.384 433.392 91.536C433.392 90.816 433.824 90.224 435.344 90.224H437.712V91.408C437.328 92.384 436.416 92.912 435.264 92.912ZM449.459 94.096C451.715 94.096 453.123 93.12 453.123 91.584C453.123 88.288 447.747 89.92 447.747 87.92C447.747 87.248 448.403 86.752 449.747 86.752C450.579 86.752 451.427 86.928 452.195 87.424L452.851 86.208C452.115 85.728 450.867 85.44 449.763 85.44C447.587 85.44 446.227 86.464 446.227 87.984C446.227 91.36 451.587 89.712 451.587 91.616C451.587 92.336 450.995 92.768 449.571 92.768C448.467 92.768 447.315 92.4 446.595 91.888L445.955 93.104C446.659 93.664 448.051 94.096 449.459 94.096ZM461.731 85.52V89.904C461.731 91.728 460.707 92.72 459.107 92.72C457.651 92.72 456.819 91.888 456.819 90.224V85.52H455.283V90.4C455.283 92.896 456.739 94.096 458.931 94.096C460.131 94.096 461.187 93.6 461.811 92.72V94H463.267V85.52H461.731ZM470.207 94.096C471.727 94.096 472.991 93.456 473.663 92.272L472.495 91.536C471.951 92.368 471.119 92.752 470.191 92.752C468.527 92.752 467.279 91.6 467.279 89.76C467.279 87.952 468.527 86.784 470.191 86.784C471.119 86.784 471.951 87.168 472.495 88L473.663 87.248C472.991 86.064 471.727 85.44 470.207 85.44C467.599 85.44 465.727 87.232 465.727 89.76C465.727 92.288 467.599 94.096 470.207 94.096ZM479.543 94.096C481.063 94.096 482.327 93.456 482.999 92.272L481.831 91.536C481.287 92.368 480.455 92.752 479.527 92.752C477.863 92.752 476.615 91.6 476.615 89.76C476.615 87.952 477.863 86.784 479.527 86.784C480.455 86.784 481.287 87.168 481.831 88L482.999 87.248C482.327 86.064 481.063 85.44 479.543 85.44C476.935 85.44 475.063 87.232 475.063 89.76C475.063 92.288 476.935 94.096 479.543 94.096ZM492.846 89.808C492.846 87.2 491.102 85.44 488.654 85.44C486.206 85.44 484.398 87.248 484.398 89.76C484.398 92.288 486.222 94.096 488.958 94.096C490.366 94.096 491.534 93.616 492.302 92.72L491.454 91.728C490.83 92.416 489.998 92.752 489.006 92.752C487.326 92.752 486.126 91.76 485.934 90.272H492.814C492.83 90.128 492.846 89.936 492.846 89.808ZM488.654 86.736C490.142 86.736 491.214 87.744 491.374 89.168H485.934C486.094 87.728 487.182 86.736 488.654 86.736ZM497.731 94.096C499.987 94.096 501.395 93.12 501.395 91.584C501.395 88.288 496.019 89.92 496.019 87.92C496.019 87.248 496.675 86.752 498.019 86.752C498.851 86.752 499.699 86.928 500.467 87.424L501.123 86.208C500.387 85.728 499.139 85.44 498.035 85.44C495.859 85.44 494.499 86.464 494.499 87.984C494.499 91.36 499.859 89.712 499.859 91.616C499.859 92.336 499.267 92.768 497.843 92.768C496.739 92.768 495.587 92.4 494.867 91.888L494.227 93.104C494.931 93.664 496.323 94.096 497.731 94.096ZM506.067 94.096C508.323 94.096 509.731 93.12 509.731 91.584C509.731 88.288 504.355 89.92 504.355 87.92C504.355 87.248 505.011 86.752 506.355 86.752C507.187 86.752 508.035 86.928 508.803 87.424L509.459 86.208C508.723 85.728 507.475 85.44 506.371 85.44C504.195 85.44 502.835 86.464 502.835 87.984C502.835 91.36 508.195 89.712 508.195 91.616C508.195 92.336 507.603 92.768 506.179 92.768C505.075 92.768 503.923 92.4 503.203 91.888L502.563 93.104C503.267 93.664 504.659 94.096 506.067 94.096ZM516.667 90.464H517.883L518.187 82.8H516.379L516.667 90.464ZM517.291 94.096C517.883 94.096 518.315 93.632 518.315 93.072C518.315 92.496 517.883 92.048 517.291 92.048C516.683 92.048 516.235 92.496 516.235 93.072C516.235 93.632 516.683 94.096 517.291 94.096ZM521.269 90.464H522.485L522.789 82.8H520.981L521.269 90.464ZM521.893 94.096C522.485 94.096 522.917 93.632 522.917 93.072C522.917 92.496 522.485 92.048 521.893 92.048C521.285 92.048 520.837 92.496 520.837 93.072C520.837 93.632 521.285 94.096 521.893 94.096ZM525.87 90.464H527.086L527.39 82.8H525.582L525.87 90.464ZM526.494 94.096C527.086 94.096 527.518 93.632 527.518 93.072C527.518 92.496 527.086 92.048 526.494 92.048C525.886 92.048 525.438 92.496 525.438 93.072C525.438 93.632 525.886 94.096 526.494 94.096ZM535.376 94.096C535.952 94.096 536.432 93.632 536.432 92.992C536.432 92.352 535.952 91.904 535.376 91.904C534.784 91.904 534.288 92.352 534.288 92.992C534.288 93.632 534.784 94.096 535.376 94.096ZM546.018 94H547.602V84.192H551.442V82.8H542.178V84.192H546.018V94ZM557.808 85.44C556.512 85.44 555.456 85.904 554.816 86.72V82.128H553.28V94H554.816V89.632C554.816 87.792 555.872 86.816 557.504 86.816C558.96 86.816 559.792 87.632 559.792 89.296V94H561.328V89.12C561.328 86.624 559.872 85.44 557.808 85.44ZM572.202 89.808C572.202 87.2 570.458 85.44 568.01 85.44C565.562 85.44 563.754 87.248 563.754 89.76C563.754 92.288 565.578 94.096 568.314 94.096C569.722 94.096 570.89 93.616 571.658 92.72L570.81 91.728C570.186 92.416 569.354 92.752 568.362 92.752C566.682 92.752 565.482 91.76 565.29 90.272H572.17C572.186 90.128 572.202 89.936 572.202 89.808ZM568.01 86.736C569.498 86.736 570.57 87.744 570.73 89.168H565.29C565.45 87.728 566.538 86.736 568.01 86.736ZM583.768 85.44C582.568 85.44 581.512 85.888 580.808 86.8V82.128H579.272V94H580.744V92.656C581.432 93.616 582.52 94.096 583.768 94.096C586.248 94.096 588.056 92.352 588.056 89.76C588.056 87.168 586.248 85.44 583.768 85.44ZM583.64 92.752C582.024 92.752 580.792 91.568 580.792 89.76C580.792 87.952 582.024 86.784 583.64 86.784C585.272 86.784 586.504 87.952 586.504 89.76C586.504 91.568 585.272 92.752 583.64 92.752ZM598.162 89.808C598.162 87.2 596.418 85.44 593.97 85.44C591.522 85.44 589.714 87.248 589.714 89.76C589.714 92.288 591.538 94.096 594.274 94.096C595.682 94.096 596.85 93.616 597.618 92.72L596.77 91.728C596.146 92.416 595.314 92.752 594.322 92.752C592.642 92.752 591.442 91.76 591.25 90.272H598.13C598.146 90.128 598.162 89.936 598.162 89.808ZM593.97 86.736C595.458 86.736 596.53 87.744 596.69 89.168H591.25C591.41 87.728 592.498 86.736 593.97 86.736ZM603.047 94.096C605.303 94.096 606.711 93.12 606.711 91.584C606.711 88.288 601.335 89.92 601.335 87.92C601.335 87.248 601.991 86.752 603.335 86.752C604.167 86.752 605.015 86.928 605.783 87.424L606.439 86.208C605.703 85.728 604.455 85.44 603.351 85.44C601.175 85.44 599.815 86.464 599.815 87.984C599.815 91.36 605.175 89.712 605.175 91.616C605.175 92.336 604.583 92.768 603.159 92.768C602.055 92.768 600.903 92.4 600.183 91.888L599.543 93.104C600.247 93.664 601.639 94.096 603.047 94.096ZM613.238 92.4C612.918 92.656 612.486 92.8 612.038 92.8C611.19 92.8 610.71 92.288 610.71 91.376V86.784H613.142V85.52H610.71V83.664H609.174V85.52H607.734V86.784H609.174V91.44C609.174 93.152 610.15 94.096 611.862 94.096C612.55 94.096 613.254 93.904 613.718 93.504L613.238 92.4ZM42.744 118.4C42.424 118.656 41.992 118.8 41.544 118.8C40.696 118.8 40.216 118.288 40.216 117.376V112.784H42.648V111.52H40.216V109.664H38.68V111.52H37.24V112.784H38.68V117.44C38.68 119.152 39.656 120.096 41.368 120.096C42.056 120.096 42.76 119.904 43.224 119.504L42.744 118.4ZM52.7838 115.808C52.7838 113.2 51.0398 111.44 48.5918 111.44C46.1438 111.44 44.3358 113.248 44.3358 115.76C44.3358 118.288 46.1598 120.096 48.8958 120.096C50.3038 120.096 51.4718 119.616 52.2398 118.72L51.3918 117.728C50.7678 118.416 49.9358 118.752 48.9438 118.752C47.2638 118.752 46.0638 117.76 45.8718 116.272H52.7518C52.7678 116.128 52.7838 115.936 52.7838 115.808ZM48.5918 112.736C50.0798 112.736 51.1518 113.744 51.3118 115.168H45.8718C46.0318 113.728 47.1198 112.736 48.5918 112.736ZM58.0902 111.44C56.7302 111.44 55.4662 111.824 54.5862 112.528L55.2262 113.68C55.8822 113.12 56.9062 112.768 57.9142 112.768C59.4342 112.768 60.1862 113.52 60.1862 114.816V115.12H57.7542C55.2262 115.12 54.3462 116.24 54.3462 117.6C54.3462 119.072 55.5622 120.096 57.4822 120.096C58.8102 120.096 59.7542 119.648 60.2662 118.88V120H61.7222V114.88C61.7222 112.56 60.4102 111.44 58.0902 111.44ZM57.7382 118.912C56.5702 118.912 55.8662 118.384 55.8662 117.536C55.8662 116.816 56.2982 116.224 57.8182 116.224H60.1862V117.408C59.8022 118.384 58.8902 118.912 57.7382 118.912ZM75.4927 111.44C74.0527 111.44 72.8687 112.048 72.2287 113.008C71.6687 111.952 70.5807 111.44 69.2847 111.44C68.0047 111.44 66.9647 111.92 66.3567 112.784V111.52H64.8847V120H66.4207V115.632C66.4207 113.792 67.4287 112.816 68.9647 112.816C70.3567 112.816 71.1567 113.632 71.1567 115.296V120H72.6927V115.632C72.6927 113.792 73.7007 112.816 75.2367 112.816C76.6287 112.816 77.4288 113.632 77.4288 115.296V120H78.9648V115.12C78.9648 112.624 77.5567 111.44 75.4927 111.44ZM86.9519 120H88.5519V108.8H86.9519V120ZM101.146 111.44C99.8499 111.44 98.7939 111.904 98.1539 112.72V108.128H96.6179V120H98.1539V115.632C98.1539 113.792 99.2099 112.816 100.842 112.816C102.298 112.816 103.13 113.632 103.13 115.296V120H104.666V115.12C104.666 112.624 103.21 111.44 101.146 111.44ZM110.916 111.44C109.556 111.44 108.292 111.824 107.412 112.528L108.052 113.68C108.708 113.12 109.732 112.768 110.74 112.768C112.26 112.768 113.012 113.52 113.012 114.816V115.12H110.58C108.052 115.12 107.172 116.24 107.172 117.6C107.172 119.072 108.388 120.096 110.308 120.096C111.636 120.096 112.58 119.648 113.092 118.88V120H114.548V114.88C114.548 112.56 113.236 111.44 110.916 111.44ZM110.564 118.912C109.396 118.912 108.692 118.384 108.692 117.536C108.692 116.816 109.124 116.224 110.644 116.224H113.012V117.408C112.628 118.384 111.716 118.912 110.564 118.912ZM123.555 111.52L120.579 118.32L117.667 111.52H116.067L119.779 120H121.347L125.059 111.52H123.555ZM134.242 115.808C134.242 113.2 132.498 111.44 130.05 111.44C127.602 111.44 125.794 113.248 125.794 115.76C125.794 118.288 127.618 120.096 130.354 120.096C131.762 120.096 132.93 119.616 133.698 118.72L132.85 117.728C132.226 118.416 131.394 118.752 130.402 118.752C128.722 118.752 127.522 117.76 127.33 116.272H134.21C134.226 116.128 134.242 115.936 134.242 115.808ZM130.05 112.736C131.538 112.736 132.61 113.744 132.77 115.168H127.33C127.49 113.728 128.578 112.736 130.05 112.736ZM143.744 120.096C146 120.096 147.408 119.12 147.408 117.584C147.408 114.288 142.032 115.92 142.032 113.92C142.032 113.248 142.688 112.752 144.032 112.752C144.864 112.752 145.712 112.928 146.48 113.424L147.136 112.208C146.4 111.728 145.152 111.44 144.048 111.44C141.872 111.44 140.512 112.464 140.512 113.984C140.512 117.36 145.872 115.712 145.872 117.616C145.872 118.336 145.28 118.768 143.856 118.768C142.752 118.768 141.6 118.4 140.88 117.888L140.24 119.104C140.944 119.664 142.336 120.096 143.744 120.096ZM157.311 115.808C157.311 113.2 155.567 111.44 153.119 111.44C150.671 111.44 148.863 113.248 148.863 115.76C148.863 118.288 150.687 120.096 153.423 120.096C154.831 120.096 155.999 119.616 156.767 118.72L155.919 117.728C155.295 118.416 154.463 118.752 153.471 118.752C151.791 118.752 150.591 117.76 150.399 116.272H157.279C157.295 116.128 157.311 115.936 157.311 115.808ZM153.119 112.736C154.607 112.736 155.679 113.744 155.839 115.168H150.399C150.559 113.728 151.647 112.736 153.119 112.736ZM167.428 115.808C167.428 113.2 165.684 111.44 163.236 111.44C160.788 111.44 158.98 113.248 158.98 115.76C158.98 118.288 160.804 120.096 163.54 120.096C164.948 120.096 166.116 119.616 166.884 118.72L166.036 117.728C165.412 118.416 164.58 118.752 163.588 118.752C161.908 118.752 160.708 117.76 160.516 116.272H167.396C167.412 116.128 167.428 115.936 167.428 115.808ZM163.236 112.736C164.724 112.736 165.796 113.744 165.956 115.168H160.516C160.676 113.728 161.764 112.736 163.236 112.736ZM174.409 111.44C173.065 111.44 171.977 111.936 171.353 112.8V111.52H169.881V120H171.417V115.632C171.417 113.792 172.473 112.816 174.105 112.816C175.561 112.816 176.393 113.632 176.393 115.296V120H177.929V115.12C177.929 112.624 176.473 111.44 174.409 111.44ZM186.477 109.888C187.085 109.888 187.517 109.44 187.517 108.864C187.517 108.32 187.069 107.888 186.477 107.888C185.885 107.888 185.437 108.336 185.437 108.896C185.437 109.456 185.885 109.888 186.477 109.888ZM185.709 120H187.245V111.52H185.709V120ZM195.025 111.44C193.681 111.44 192.593 111.936 191.969 112.8V111.52H190.497V120H192.033V115.632C192.033 113.792 193.089 112.816 194.721 112.816C196.177 112.816 197.009 113.632 197.009 115.296V120H198.545V115.12C198.545 112.624 197.089 111.44 195.025 111.44ZM208.757 120.096C211.013 120.096 212.421 119.12 212.421 117.584C212.421 114.288 207.045 115.92 207.045 113.92C207.045 113.248 207.701 112.752 209.045 112.752C209.877 112.752 210.725 112.928 211.493 113.424L212.149 112.208C211.413 111.728 210.165 111.44 209.061 111.44C206.885 111.44 205.525 112.464 205.525 113.984C205.525 117.36 210.885 115.712 210.885 117.616C210.885 118.336 210.293 118.768 208.869 118.768C207.765 118.768 206.613 118.4 205.893 117.888L205.253 119.104C205.957 119.664 207.349 120.096 208.757 120.096ZM218.292 120.096C220.836 120.096 222.692 118.288 222.692 115.76C222.692 113.232 220.836 111.44 218.292 111.44C215.748 111.44 213.876 113.232 213.876 115.76C213.876 118.288 215.748 120.096 218.292 120.096ZM218.292 118.752C216.66 118.752 215.428 117.568 215.428 115.76C215.428 113.952 216.66 112.784 218.292 112.784C219.924 112.784 221.14 113.952 221.14 115.76C221.14 117.568 219.924 118.752 218.292 118.752ZM235.745 111.44C234.305 111.44 233.121 112.048 232.481 113.008C231.921 111.952 230.833 111.44 229.537 111.44C228.257 111.44 227.217 111.92 226.609 112.784V111.52H225.137V120H226.673V115.632C226.673 113.792 227.681 112.816 229.217 112.816C230.609 112.816 231.409 113.632 231.409 115.296V120H232.945V115.632C232.945 113.792 233.953 112.816 235.489 112.816C236.881 112.816 237.681 113.632 237.681 115.296V120H239.217V115.12C239.217 112.624 237.809 111.44 235.745 111.44ZM250.074 115.808C250.074 113.2 248.33 111.44 245.882 111.44C243.434 111.44 241.626 113.248 241.626 115.76C241.626 118.288 243.45 120.096 246.186 120.096C247.594 120.096 248.762 119.616 249.53 118.72L248.682 117.728C248.058 118.416 247.226 118.752 246.234 118.752C244.554 118.752 243.354 117.76 243.162 116.272H250.042C250.058 116.128 250.074 115.936 250.074 115.808ZM245.882 112.736C247.37 112.736 248.442 113.744 248.602 115.168H243.162C243.322 113.728 244.41 112.736 245.882 112.736ZM261.432 118.4C261.112 118.656 260.68 118.8 260.232 118.8C259.384 118.8 258.904 118.288 258.904 117.376V112.784H261.336V111.52H258.904V109.664H257.368V111.52H255.928V112.784H257.368V117.44C257.368 119.152 258.344 120.096 260.056 120.096C260.744 120.096 261.448 119.904 261.912 119.504L261.432 118.4ZM264.857 109.888C265.465 109.888 265.897 109.44 265.897 108.864C265.897 108.32 265.449 107.888 264.857 107.888C264.265 107.888 263.817 108.336 263.817 108.896C263.817 109.456 264.265 109.888 264.857 109.888ZM264.089 120H265.625V111.52H264.089V120ZM279.485 111.44C278.045 111.44 276.861 112.048 276.221 113.008C275.661 111.952 274.573 111.44 273.277 111.44C271.997 111.44 270.957 111.92 270.349 112.784V111.52H268.877V120H270.413V115.632C270.413 113.792 271.421 112.816 272.957 112.816C274.349 112.816 275.149 113.632 275.149 115.296V120H276.685V115.632C276.685 113.792 277.693 112.816 279.229 112.816C280.621 112.816 281.421 113.632 281.421 115.296V120H282.957V115.12C282.957 112.624 281.549 111.44 279.485 111.44ZM293.814 115.808C293.814 113.2 292.07 111.44 289.622 111.44C287.174 111.44 285.366 113.248 285.366 115.76C285.366 118.288 287.19 120.096 289.926 120.096C291.334 120.096 292.502 119.616 293.27 118.72L292.422 117.728C291.798 118.416 290.966 118.752 289.974 118.752C288.294 118.752 287.094 117.76 286.902 116.272H293.782C293.798 116.128 293.814 115.936 293.814 115.808ZM289.622 112.736C291.11 112.736 292.182 113.744 292.342 115.168H286.902C287.062 113.728 288.15 112.736 289.622 112.736ZM305.412 111.44C304.068 111.44 302.98 111.936 302.356 112.8V111.52H300.884V120H302.42V115.632C302.42 113.792 303.476 112.816 305.108 112.816C306.564 112.816 307.396 113.632 307.396 115.296V120H308.932V115.12C308.932 112.624 307.476 111.44 305.412 111.44ZM315.774 120.096C318.318 120.096 320.174 118.288 320.174 115.76C320.174 113.232 318.318 111.44 315.774 111.44C313.23 111.44 311.358 113.232 311.358 115.76C311.358 118.288 313.23 120.096 315.774 120.096ZM315.774 118.752C314.142 118.752 312.91 117.568 312.91 115.76C312.91 113.952 314.142 112.784 315.774 112.784C317.406 112.784 318.622 113.952 318.622 115.76C318.622 117.568 317.406 118.752 315.774 118.752ZM333.839 111.52L331.311 118.304L328.799 111.52H327.503L324.943 118.272L322.479 111.52H321.023L324.175 120H325.647L328.127 113.568L330.575 120H332.047L335.215 111.52H333.839ZM336.931 120.096C337.507 120.096 337.987 119.632 337.987 118.992C337.987 118.352 337.507 117.904 336.931 117.904C336.339 117.904 335.843 118.352 335.843 118.992C335.843 119.632 336.339 120.096 336.931 120.096Z" fill="white"/>
</svg>
