<svg width="50" height="50" viewBox="0 0 50 50" fill="none" xmlns="http://www.w3.org/2000/svg">
<circle cx="25" cy="25" r="25" fill="white"/>
<path d="M20.2519 15.1562L20.6327 14.843L20.6769 14.9023L20.2942 15.212L20.2519 15.1562Z" fill="#034EA2"/>
<path d="M26.7837 15.2836L26.8499 15.1788L27.4447 15.1305C27.4229 15.0084 27.4123 14.9492 27.403 14.8967L27.5305 14.7932C27.4821 14.7268 27.4257 14.6672 27.3627 14.6159C27.3375 14.6069 27.3105 14.6045 27.2843 14.6088C27.258 14.6131 27.2333 14.6242 27.212 14.6408C27.095 14.7505 26.9906 14.8746 26.8815 14.9932L26.8108 14.9643L26.8405 14.5911L26.672 14.7112C26.6436 14.6422 26.6132 14.5774 26.5907 14.5098C26.5815 14.4829 26.5788 14.4345 26.5907 14.4207C26.7308 14.2938 26.6527 14.1744 26.5846 14.0544L27.1842 13.8758C26.8161 13.7026 26.6879 13.7524 26.5894 14.058L26.3942 14.1422C26.2514 14.2042 26.2431 14.316 26.3283 14.4594C26.409 14.5919 26.3056 14.6663 26.2005 14.7208C26.1278 14.7601 26.0591 14.807 25.9798 14.8587C25.8971 14.7042 25.7155 14.7208 25.5483 14.7208C25.4596 14.7341 25.3695 14.7118 25.2959 14.6585C25.2223 14.6051 25.1706 14.5245 25.1516 14.4331L24.8489 14.4891L24.9812 14.5276C24.9039 14.6049 24.8173 14.6897 24.7347 14.7711C24.7294 14.5897 24.609 14.5683 24.4358 14.6063C24.3452 14.6116 24.2545 14.6031 24.1663 14.5808L24.1608 14.529L24.389 14.4387C24.2414 14.3644 24.0895 14.2997 23.9343 14.2449C23.7939 14.2157 23.6516 14.1974 23.5086 14.1903L23.5318 14.091C23.5211 14.0866 23.5095 14.0843 23.4979 14.0841L22.8673 14.2221C22.8415 14.2284 22.8087 14.222 22.7895 14.2344C22.6468 14.3379 22.5252 14.2442 22.3884 14.2146C22.1617 14.1326 21.9154 14.1308 21.6877 14.2097C21.6753 14.2145 21.6619 14.2165 21.6487 14.2156C21.6354 14.2146 21.6226 14.2107 21.6109 14.2041C23.4588 13.1161 25.6171 12.7494 27.7003 13.1695L27.6073 13.3143C27.6414 13.3425 27.6798 13.3644 27.7209 13.3791C27.809 13.3854 27.8963 13.4012 27.9814 13.4261L27.6218 13.5585C27.7309 13.5957 27.8142 13.6275 27.8981 13.6516C28.0135 13.6921 28.1309 13.7251 28.2502 13.7503C28.2871 13.7633 28.3269 13.7653 28.3648 13.7562C28.4027 13.7471 28.4375 13.7271 28.4652 13.6986C28.6024 13.6144 28.7631 13.582 28.9205 13.6068C29.1068 13.6305 29.2909 13.6696 29.4711 13.724L29.4592 13.7931L28.9964 13.7013C29.0466 13.9931 29.2398 14.0649 29.4718 14.1214C29.6394 14.1675 29.7859 14.2739 29.8855 14.422C29.9851 14.5701 30.0311 14.7502 30.0156 14.9304L30.2905 15.0897L30.2696 15.1429H30.1095C30.2067 15.2188 30.333 15.2671 30.3522 15.3437C30.3753 15.4375 30.3079 15.5553 30.2815 15.6574C30.2723 15.6395 30.2583 15.625 30.2412 15.6155C30.2061 15.5968 30.1421 15.5698 30.1276 15.585C30.0416 15.6781 30.1625 16.1307 30.2822 16.1825C30.2934 16.1873 30.3071 16.1866 30.2905 16.1825C30.2568 16.4811 30.4472 16.6735 30.58 16.8976L30.7256 16.8645L30.8724 17.077L30.9383 17.0915L31.0706 16.7466C31.0979 16.6884 31.1201 16.6277 31.1368 16.5652C31.1797 16.3211 31.3351 16.2804 31.5334 16.3142C31.5498 16.3163 31.5662 16.3144 31.5818 16.3088C31.5974 16.3031 31.6115 16.2939 31.6231 16.2816C31.7408 16.0747 31.9174 16.1561 32.0859 16.1658C32.117 16.1695 32.1486 16.1666 32.1785 16.1572C32.2085 16.1478 32.2362 16.1323 32.2602 16.1114C32.2853 16.0762 32.2509 15.9899 32.2331 15.9292C32.1888 15.7837 32.1394 15.6403 32.0885 15.4858C33.1831 16.4892 34.0041 17.7767 34.468 19.218C34.4211 19.287 34.3627 19.3387 34.3522 19.398C34.3119 19.6291 34.2618 19.7133 34.0972 19.7547C34.1672 19.8535 34.2276 19.9594 34.2776 20.0706C34.3102 20.1977 34.3309 20.3277 34.3396 20.4589C34.2563 20.441 34.1995 20.4341 34.1466 20.4161C33.9384 20.3472 33.9332 20.3513 33.9517 20.5685C33.9622 20.6913 33.9517 20.8162 33.9517 20.9397C33.9495 21.035 33.972 21.1291 34.0165 21.2123C34.061 21.2955 34.1261 21.3647 34.205 21.4127C34.4139 21.3838 34.482 21.2631 34.4509 21.021C34.4616 20.8665 34.4992 20.7153 34.5619 20.5748L34.7133 20.5285C34.9456 21.0088 35.0397 21.549 34.9847 22.084C34.9484 21.9384 34.9134 21.7928 34.8744 21.648C34.8552 21.579 34.8347 21.459 34.8043 21.4548C34.705 21.4313 34.6009 21.4465 34.5116 21.4976C34.4746 21.5434 34.4216 21.5721 34.3644 21.5774C34.3072 21.5827 34.2505 21.5642 34.2063 21.5259C34.1137 21.68 34.0421 21.847 33.9939 22.0218C33.963 22.2342 33.8756 22.4333 33.7416 22.5964C33.5976 22.8197 33.4888 23.0657 33.4191 23.3249C33.3874 23.4173 33.4409 23.5373 33.4362 23.6435C33.4386 23.7876 33.4201 23.9313 33.3814 24.0697C33.3392 24.1797 33.3248 24.2992 33.3398 24.4166C33.3547 24.534 33.3984 24.6456 33.4666 24.7403C33.569 24.9017 33.6418 25.0851 33.7377 25.25C33.7919 25.3445 33.8584 25.374 33.9668 25.2906C34.1317 25.1751 34.3025 25.0688 34.478 24.972C34.6631 25.0872 34.5619 25.2665 34.5216 25.4403C34.1861 26.698 33.555 27.8486 32.6859 28.7877C31.655 29.988 30.3414 30.8858 28.875 31.3921C28.5445 31.5108 28.1947 31.5922 27.851 31.6764C27.7371 31.6909 27.6221 31.6924 27.5079 31.6806L27.5028 31.6205L27.7267 31.4736L27.5734 31.399C27.7096 31.3142 27.904 31.2763 27.7903 31.0439C27.9324 31.0377 28.0792 31.0693 28.1208 30.881C28.1254 30.8597 28.1867 30.8515 28.2257 30.8411C28.3108 30.8259 28.3946 30.8027 28.4758 30.7721C28.5419 30.739 28.6297 30.6845 28.6475 30.621C28.6614 30.5714 28.5814 30.4935 28.5523 30.4397C28.6745 30.4697 28.803 30.4557 28.9167 30.3999C29.0303 30.3442 29.1225 30.25 29.1784 30.1327C29.2445 30.0072 29.4005 29.9348 29.4956 29.821C29.5421 29.7393 29.5807 29.6531 29.6112 29.5637C29.6408 29.4944 29.6863 29.4337 29.7435 29.387C29.9306 29.2718 30.1399 29.1905 30.3144 29.0622C30.4545 28.9639 30.572 28.8343 30.6581 28.6828C30.748 28.5131 30.7592 28.2993 30.8418 28.1227C30.93 27.9508 31.0353 27.789 31.1558 27.6399C31.2913 27.4592 31.4684 27.2998 31.364 27.0667C31.2648 27.0008 31.162 26.9413 31.0561 26.8882C30.9582 26.8377 30.8511 26.8096 30.7421 26.806C30.5429 26.7929 30.3475 26.7432 30.165 26.6592C30.0813 26.6468 29.9966 26.6455 29.9126 26.6556C29.8968 26.5356 29.8466 26.5308 29.5663 26.677C29.5663 26.6439 29.5596 26.6122 29.5715 26.5963C29.631 26.517 29.756 26.4335 29.7467 26.368C29.7118 26.237 29.6544 26.1139 29.577 26.0046C29.5267 25.9188 29.4518 25.8514 29.363 25.8121C29.2742 25.7728 29.176 25.7633 29.0819 25.7852C29.0037 25.7907 28.9253 25.7762 28.8537 25.7427C28.7822 25.7093 28.7195 25.658 28.6714 25.5934C28.5396 25.4741 28.3987 25.3661 28.2502 25.2705C28.1987 25.2319 28.1506 25.1885 28.1182 25.1616L27.4876 25.1975C27.4744 25.1975 27.4525 25.2044 27.4492 25.1975C27.4289 25.1484 27.3933 25.1082 27.3482 25.0831C27.303 25.058 27.251 25.0497 27.2007 25.0595C27.1055 25.0782 27.0124 25.1065 26.8663 25.1444L27.0025 24.896C26.6568 25.0712 26.2951 25.1319 26.1708 25.5506C26.1176 25.4559 26.0305 25.3873 25.9288 25.3596C25.827 25.3319 25.719 25.3476 25.6283 25.4031C25.4452 25.4983 25.1655 25.1961 25.2091 24.9753C25.2203 24.9209 25.245 24.8698 25.2562 24.816C25.3223 24.476 25.1966 24.3429 24.8596 24.3905C24.7495 24.3979 24.6391 24.3979 24.5291 24.3905L24.867 23.4773C24.7485 23.5006 24.6282 23.5149 24.5078 23.5201C24.3359 23.5145 24.3559 23.658 24.3096 23.756C24.2693 23.8328 24.2223 23.9056 24.1689 23.9732C24.1099 23.9694 24.0507 23.9694 23.9917 23.9732C23.9257 23.9932 23.8564 23.998 23.7884 23.9874C23.7204 23.9767 23.6555 23.9509 23.598 23.9116C23.5405 23.8723 23.4918 23.8203 23.4553 23.7595C23.4189 23.6987 23.3956 23.6304 23.3869 23.5593C23.3787 23.3156 23.3969 23.0718 23.4411 22.8323C23.4451 22.7854 23.453 22.7378 23.4544 22.6909C23.4475 22.5972 23.4694 22.5037 23.517 22.424C23.5645 22.3442 23.6351 22.2824 23.7187 22.2475C23.8734 22.1526 24.0528 22.111 24.2315 22.1288C24.337 22.1522 24.4401 22.1875 24.5384 22.2337C24.5656 22.1771 24.6039 22.1269 24.6507 22.0867C24.6976 22.0464 24.7517 22.0168 24.8102 21.9998C24.8686 21.9827 24.9299 21.9784 24.9899 21.9875C25.05 21.9965 25.1076 22.0185 25.1591 22.0521C25.1888 22.0714 25.2249 22.1039 25.2514 22.1018C25.4377 22.0894 25.512 22.1708 25.516 22.3729C25.517 22.4746 25.538 22.5749 25.578 22.6676C25.6179 22.7603 25.6759 22.8434 25.748 22.9116C25.9543 22.7185 25.8141 22.5171 25.8068 22.3288C25.7991 22.2457 25.7844 22.1636 25.7626 22.0833C25.7409 21.9955 25.7499 21.9025 25.7881 21.8211C25.8262 21.7397 25.891 21.6751 25.9707 21.6391C26.1671 21.5184 26.3528 21.3798 26.5258 21.2251C26.5867 21.1348 26.6197 21.0272 26.6204 20.9168C26.6185 20.823 26.6268 20.7295 26.6449 20.6376L26.7366 20.7755C26.769 20.6727 26.7961 20.5844 26.8299 20.4774C26.855 20.4588 26.9429 20.4286 26.9535 20.3796C27.0024 20.1527 27.1642 20.1132 27.3446 20.076C27.4259 20.0594 27.5193 20.047 27.5028 19.8884C27.4942 19.807 27.5992 19.6719 27.6851 19.6277C27.9006 19.516 28.1346 19.4429 28.3864 19.3443C28.3276 19.4988 28.0288 19.4774 28.1966 19.7037L28.8221 19.4042C28.7322 19.387 28.6847 19.3829 28.6398 19.3684C28.4785 19.3146 28.3434 19.2386 28.3877 19.0186C28.3917 18.9959 28.3546 18.9642 28.3348 18.9346L28.489 18.8442C28.3331 18.6283 28.0975 18.68 27.6719 18.9731C27.8649 18.8207 28.0545 18.6648 28.2522 18.52C28.3042 18.4928 28.3634 18.4833 28.4209 18.493C28.6047 18.5075 28.7878 18.5399 28.9709 18.5441C29.051 18.534 29.1284 18.5083 29.1994 18.4683C29.2463 18.4483 29.2893 18.4171 29.3356 18.3937C29.4162 18.353 29.5425 18.3331 29.5683 18.2689C29.5829 18.2412 29.5918 18.2106 29.5944 18.1792C29.597 18.1477 29.593 18.116 29.5831 18.0862C29.5732 18.0564 29.5576 18.0289 29.537 18.0059C29.5163 17.9828 29.4909 17.9646 29.4631 17.9523C29.3897 17.9247 29.2912 17.9715 29.2033 17.9847C29.1887 17.9886 29.1737 17.9888 29.159 17.9852C29.1444 17.9816 29.1307 17.9742 29.1193 17.9639L29.3992 17.8454L28.9854 17.4742C29.1037 17.1356 28.8199 16.9114 28.8305 16.639L28.4009 17.0287C28.2601 16.8438 28.1771 16.6928 28.2689 16.5017C28.2689 16.4962 28.2729 16.4845 28.2689 16.4817C28.1308 16.352 27.9944 16.2197 27.8503 16.0969C27.8199 16.0714 27.7606 16.0866 27.7183 16.0755C27.4262 16.0017 27.3826 16.0009 27.3879 16.2948C27.3893 16.3768 27.3705 16.4578 27.3336 16.5302C27.2968 16.6026 27.2427 16.6641 27.1768 16.7087C27.4088 17.1529 27.3315 17.319 26.8186 17.4825V17.9655C26.8186 18.1069 26.7056 18.113 26.6249 18.1488C26.342 17.9302 26.4332 17.6578 26.5145 17.4129C26.3513 17.3364 26.1981 17.2749 26.0521 17.1928C25.986 17.1563 25.9461 17.068 25.8807 17.0335C25.7392 16.9597 25.5886 16.9053 25.426 16.8364C25.426 16.8095 25.4404 16.7258 25.4437 16.6417C25.4437 16.61 25.4272 16.5501 25.4166 16.5494C25.1463 16.5363 25.3429 16.3425 25.3627 16.3121C25.5016 16.0461 25.7288 15.8422 26.0017 15.7389C26.0817 15.712 26.1445 15.601 26.2205 15.5934C26.4378 15.5556 26.6365 15.4423 26.7843 15.2719C26.7308 15.394 26.6765 15.5168 26.6223 15.6402L26.7169 15.7879L26.958 15.6244L27.2226 15.7672C27.2193 15.6849 27.1872 15.6066 27.1326 15.5471C27.0295 15.4526 26.9608 15.287 26.7837 15.2836ZM29.3527 15.5934L28.8008 15.1318C28.8504 15.0346 28.8883 14.9601 28.9292 14.8808L28.7062 14.8484L28.8576 14.7863C28.7907 14.7494 28.7264 14.7075 28.6653 14.6608C28.5121 14.5604 28.3762 14.434 28.2628 14.287C28.2489 14.2628 28.1796 14.2655 28.136 14.2676C28.0606 14.2718 27.9858 14.2849 27.9084 14.2939C27.921 14.1766 27.9292 14.1096 27.9397 14.0096C27.8117 14.0056 27.6838 14.0239 27.5615 14.0635C27.4795 14.1084 27.4418 14.2394 27.385 14.3311C27.2686 14.109 27.487 14.0552 27.5941 13.9421C27.2874 13.9076 27.0651 14.0275 26.999 14.2552L27.1545 14.3242L27.149 14.3436L26.9554 14.318C26.9706 14.3669 26.9735 14.4096 26.9873 14.4138C27.257 14.5035 27.5273 14.5905 27.801 14.6677C27.8228 14.6746 27.8671 14.6035 27.8975 14.569L28.3745 15.1933L28.023 15.503C27.9541 15.5356 27.8776 15.5463 27.8029 15.534C27.738 15.5336 27.6733 15.5405 27.6099 15.5547C27.5991 15.5822 27.5958 15.6123 27.6005 15.6416C27.6578 15.6699 27.7202 15.6849 27.7835 15.6857C27.8624 15.6661 27.9456 15.6761 28.0182 15.714C28.0907 15.7518 28.1479 15.815 28.1802 15.8927C28.2846 16.1561 28.5179 16.1976 28.7043 16.3224L28.7408 16.2823L28.5226 15.9831L28.5416 15.9603L28.8683 16.1734C29.0084 15.8871 28.7222 15.7699 28.674 15.5809L28.816 15.4733L29.0493 15.8182L29.3527 15.5934ZM25.4305 13.8L25.1339 13.7164C25.0836 13.6323 25.0593 13.5338 25.0064 13.5097C24.6422 13.3614 24.3843 13.6475 24.0902 13.7786C24.0683 13.7882 24.073 13.8642 24.0605 13.9408L24.6275 13.7407L24.6356 13.7592L24.4755 13.8586L24.5872 13.9089L24.389 13.9925L24.4022 14.0372L24.8286 14.0827L24.8224 14.1428C24.7128 14.1289 24.6024 14.1231 24.492 14.1255C24.423 14.1441 24.3575 14.1743 24.2977 14.2146L24.4629 14.3427L24.4371 14.4808C24.6109 14.4525 24.7678 14.418 24.9238 14.4049C25.0454 14.3945 25.1668 14.3359 25.2923 14.4463C25.3498 14.498 25.4757 14.4677 25.5709 14.4746L25.5841 14.4269L25.5212 14.369L25.791 14.3159L25.6222 14.0787L25.8119 13.7516C25.5535 13.593 25.5478 13.9234 25.3772 13.9827L25.4305 13.8ZM29.1061 19.0255C29.2753 19.0648 29.4294 19.1131 29.5867 19.1325C29.6904 19.1449 29.785 19.1015 29.7777 18.9566C29.7775 18.9217 29.7819 18.8868 29.791 18.8531L29.4427 18.6635L29.5847 18.4509L29.5147 18.3999L29.1061 19.0255ZM26.1192 23.8008L26.582 23.7484L26.592 23.689C26.4023 23.591 26.2151 23.4821 26.0208 23.3973C25.8853 23.3366 25.7449 23.2888 25.6012 23.2545C25.534 23.2338 25.4623 23.2349 25.3956 23.2575C25.329 23.2802 25.2705 23.3232 25.2278 23.3813C25.5852 23.3406 25.9435 23.4482 26.2257 23.6807L26.1192 23.8008ZM26.0366 13.3475L26.1027 13.2998C26.0102 13.3226 25.8769 13.3972 25.8313 13.3593C25.7425 13.2793 25.6347 13.2256 25.5192 13.2038C25.4038 13.1821 25.2848 13.1931 25.1749 13.2357C25.2511 13.3473 25.3597 13.4304 25.4847 13.4724C25.6097 13.5144 25.7444 13.5132 25.8687 13.4689C25.9163 13.4544 25.9747 13.484 26.0269 13.4785C26.1075 13.4702 26.1867 13.4489 26.2667 13.433L26.1492 13.5199L26.0366 13.3475ZM27.2013 13.6979C27.5161 13.8437 27.8609 13.9045 28.2041 13.8751C28.1346 13.7976 28.0408 13.7487 27.9397 13.7372C27.8276 13.7483 27.7145 13.7292 27.6115 13.6816C27.5085 13.634 27.4189 13.5595 27.3514 13.4654L27.2013 13.6979ZM33.819 18.344L33.7693 18.3538C33.8711 18.7173 33.9724 19.0814 34.0788 19.4635L34.3073 19.4746C34.1361 19.0766 33.9776 18.7096 33.819 18.3427V18.344ZM26.5775 24.0002C26.8552 24.0864 27.1519 24.0778 27.4247 23.9759L27.4366 23.9146L26.8305 23.7317V23.9808L26.5775 24.0002ZM26.1866 14.1193C26.3849 14.071 26.5927 14.0504 26.5617 13.7545C26.4348 13.6966 26.2973 13.6558 26.2457 13.831H26.0472L26.1266 13.9931C26.1491 14.0352 26.1675 14.0793 26.1866 14.1193ZM32.5381 16.8308C32.5949 17.135 32.817 17.2611 33.0206 17.1066C33.0133 17.0513 32.9935 16.9985 32.9631 16.9525C32.9328 16.9066 32.8926 16.8687 32.8456 16.8419C32.7987 16.8151 32.7464 16.8001 32.693 16.7981C32.6395 16.7962 32.5867 16.8074 32.5381 16.8308ZM33.8064 18.7076L33.7099 18.7221V19.2358L33.9081 19.1276L33.8064 18.7076ZM25.8371 14.4566L25.8297 14.5504L26.1273 14.6014L26.1431 14.4566H25.8371ZM26.9441 13.4676L26.9344 13.4061H26.5946C26.6025 13.4613 26.6098 13.5095 26.6217 13.5937L26.9441 13.4676Z" fill="#034EA2"/>
<path d="M20.0537 15.3678L19.9924 15.4872L20.1609 15.4478C19.9382 15.6458 19.7293 15.8258 19.5277 16.0134C19.4648 16.0613 19.4146 16.1251 19.3821 16.1989C19.3496 16.2726 19.3357 16.354 19.3418 16.4349C19.3572 16.4823 19.3796 16.5269 19.408 16.5673L19.3189 16.7259L19.3576 16.7638L20.0273 16.0741L20.045 16.0894L19.9347 16.259C20.0556 16.1679 20.2607 16.2101 20.2997 16.0032C20.3353 15.9838 20.3764 15.9791 20.4152 15.99C20.5037 16.0193 20.5867 16.0643 20.6605 16.1231C20.7407 16.2085 20.8139 16.3009 20.8793 16.3991L20.9229 16.33C20.9893 16.4143 21.0321 16.5163 21.0465 16.6244C21.0608 16.7325 21.0462 16.8425 21.0042 16.9425C20.9709 17.0658 20.9578 17.1941 20.9658 17.3219C20.9904 17.4317 21.027 17.5381 21.0749 17.6392C21.0749 17.6488 21.0683 17.6669 21.0604 17.6779C20.9691 17.8158 21.0029 17.9165 21.0981 18.0442C21.1763 18.1683 21.234 18.3051 21.2692 18.449C21.2817 18.4897 21.2433 18.5483 21.2301 18.5931L21.0704 18.4875C20.9312 18.8197 20.811 19.1601 20.7102 19.507C20.5683 19.8323 20.5465 20.2008 20.6492 20.5417C20.693 20.7091 20.7214 20.8804 20.7344 21.0534C20.7561 21.1243 20.8016 21.1847 20.8622 21.2238C20.9245 21.2617 20.9777 21.3141 21.0174 21.3769C21.0572 21.4397 21.0824 21.5114 21.0913 21.5861C21.1417 21.7775 21.2025 21.9657 21.2727 22.1502C21.2795 22.2256 21.2822 22.3014 21.2811 22.3772C21.2889 22.4364 21.3151 22.4912 21.3553 22.5336C21.4086 22.5656 21.4527 22.6117 21.4835 22.6672C21.5142 22.7226 21.5303 22.7855 21.5303 22.8495C21.5303 22.9661 21.687 23.0806 21.7894 23.1868C21.6414 22.6999 21.4121 22.2454 21.2918 21.7543L21.3744 21.7039C21.424 21.7667 21.5144 21.8274 21.5164 21.8915C21.527 22.1674 21.7147 22.3482 21.8311 22.5641C21.9632 22.8048 22.1148 23.0304 22.2509 23.2677C22.2906 23.3367 22.3427 23.4353 22.3235 23.4987C22.2132 23.8615 22.4967 23.9249 22.6944 24.0408C22.9131 24.1677 23.1451 24.2713 23.3724 24.3816C23.4134 24.4009 23.477 24.4299 23.5048 24.4119C23.7526 24.2429 23.8617 24.4808 24.0289 24.5808C24.2361 24.689 24.4495 24.7837 24.6679 24.8644L24.6863 24.8078L24.989 25.3189L25.6681 25.6818C25.6915 25.6117 25.7262 25.5463 25.771 25.4887C25.8041 25.459 25.9151 25.4556 25.9237 25.4742C25.9934 25.6146 26.0486 25.7623 26.0883 25.9149C26.1629 26.2418 25.9739 26.4197 25.7439 26.5998C25.656 26.6687 25.6494 26.8551 25.6184 26.9909C25.6144 27.0089 25.6846 27.0454 25.7507 27.095C25.7349 27.1332 25.7124 27.1682 25.6845 27.1979C25.5193 27.331 25.5266 27.4675 25.6977 27.5985C25.7765 27.6606 25.8436 27.7374 25.8959 27.8249C26.0141 28.0535 26.1438 28.2754 26.2845 28.4897C26.398 28.6133 26.5357 28.7102 26.6879 28.7739C27.1354 29.0029 27.1003 29.0078 27.0745 29.4893C27.0554 29.85 27.0168 30.2107 26.9858 30.5928C26.5588 30.2396 26.0448 30.3769 25.557 30.372C24.2444 30.3603 22.9317 30.372 21.6197 30.372C21.5931 30.3682 21.5662 30.3682 21.5396 30.372C21.3908 30.4052 21.2363 30.3979 21.091 30.3506C20.9457 30.3034 20.8146 30.218 20.7102 30.1024C19.4556 29.1701 18.4569 27.9109 17.8143 26.4502C17.2469 25.2081 16.951 23.85 16.9474 22.474C16.9439 21.098 17.233 19.7384 17.794 18.4931C18.1803 17.614 18.6928 16.8016 19.314 16.0838C19.5341 15.8231 19.7597 15.5665 19.9824 15.3079L20.0537 15.3678ZM21.1491 18.4503C21.1762 18.2137 21.1258 18.1296 20.8661 17.9771C20.8632 18.0764 20.8885 18.1745 20.939 18.2587C20.9895 18.3429 21.0629 18.4096 21.1498 18.4503H21.1491Z" fill="#034EA2"/>
<path d="M15 36.9862C15.2267 36.6296 15.4402 36.2889 15.661 35.9516C16.2492 35.0425 16.8447 34.1375 17.425 33.2229C17.5936 32.958 17.7025 32.6525 17.8704 32.3876C18.1467 31.9535 18.5036 31.5813 18.9196 31.2929C19.3356 31.0045 19.8023 30.8056 20.2929 30.708C20.8079 30.5921 21.3326 30.5295 21.8594 30.5211C23.2785 30.4963 24.6982 30.5108 26.1173 30.5135C26.2713 30.4983 26.4267 30.5222 26.5701 30.5831C26.7134 30.6439 26.8407 30.74 26.9409 30.8631C27.0411 30.9862 27.1112 31.1325 27.1455 31.29C27.1798 31.4475 27.177 31.6114 27.1378 31.7676C27.0834 31.9926 26.9575 32.1915 26.7805 32.3319C26.6035 32.4723 26.386 32.5456 26.1637 32.54C24.9982 32.54 23.8331 32.54 22.6685 32.54C22.6225 32.5313 22.5753 32.5326 22.5297 32.5436C22.4501 32.5907 22.3734 32.6433 22.3003 32.7008C22.3664 32.7588 22.4205 32.8497 22.4939 32.8691C22.6433 32.9063 22.7964 32.9238 22.9499 32.9214C25.4678 32.9214 27.9853 32.9183 30.5023 32.9118C30.5914 32.9047 30.6751 32.8648 30.7388 32.7993C31.4229 32.091 32.1003 31.3751 32.7818 30.6612C32.9186 30.5177 33.0614 30.3804 33.2068 30.2473C33.2843 30.1727 33.3753 30.1148 33.4743 30.077C33.5734 30.0392 33.6785 30.0223 33.7838 30.0272C33.8892 30.0321 33.9924 30.0587 34.0879 30.1055C34.1833 30.1523 34.2688 30.2182 34.3396 30.2997C34.485 30.4615 34.5644 30.6763 34.5607 30.8981C34.557 31.12 34.4707 31.3317 34.3199 31.4882C33.3681 32.5182 32.4169 33.5487 31.466 34.5796C31.0417 34.9999 30.5007 35.269 29.9207 35.348C29.6642 35.3959 29.4038 35.4191 29.1432 35.4171C27.1603 35.4219 25.1775 35.4295 23.1946 35.4171C22.7951 35.4071 22.402 35.5231 22.0666 35.7498C21.7313 35.9766 21.4695 36.3036 21.315 36.6882C21.286 36.743 21.2638 36.8015 21.2488 36.8621C21.2263 36.9683 21.1742 37 21.0677 37C19.0849 36.9968 17.103 36.9968 15.1223 37C15.0893 36.9993 15.0575 36.9924 15 36.9862Z" fill="#034EA2"/>
<path d="M29.2139 32.5526C29.5444 32.1733 29.8691 31.7849 30.2128 31.4173C30.6424 30.9586 31.0884 30.5205 31.5286 30.0694C31.5686 30.0181 31.6183 29.9759 31.6745 29.9453C31.7307 29.9147 31.7923 29.8962 31.8555 29.8913C31.9187 29.8863 31.9821 29.8949 32.0421 29.9164C32.102 29.9379 32.1571 29.9719 32.2041 30.0164C32.2519 30.0632 32.2903 30.1198 32.3164 30.1826C32.3425 30.2454 32.3558 30.3132 32.3558 30.3816C32.3558 30.4501 32.3425 30.5177 32.3164 30.5805C32.2903 30.6433 32.2519 30.7001 32.2041 30.7469C31.8736 31.1125 31.5332 31.4663 31.1975 31.8256C30.9879 32.0505 30.7819 32.2788 30.5697 32.5009C30.5285 32.5536 30.4714 32.5902 30.4077 32.605C30.0217 32.6146 29.6358 32.6099 29.2498 32.6099L29.2139 32.5526Z" fill="#034EA2"/>
<path d="M27.6251 32.5752C27.8538 32.291 28.0833 32.0068 28.3138 31.7226C28.3385 31.699 28.368 31.6817 28.4003 31.6723C29.0163 31.4377 29.633 31.2047 30.2444 30.9729C30.1644 31.0653 30.0691 31.1751 29.9746 31.2854C29.6229 31.6993 29.2742 32.1096 28.9173 32.5166C28.8723 32.5722 28.8096 32.6091 28.7408 32.6207C28.3799 32.6303 28.0189 32.6256 27.658 32.6256L27.6251 32.5752Z" fill="#034EA2"/>
<path d="M29.3527 15.597L29.0474 15.8156L28.8141 15.4707L28.6721 15.5783C28.7203 15.7673 29.0065 15.8846 28.8663 16.1709L28.5397 15.9577L28.5207 15.9804L28.7389 16.2798L28.7024 16.3199C28.516 16.1951 28.2827 16.1536 28.1783 15.8902C28.146 15.8125 28.0885 15.7492 28.0159 15.7113C27.9434 15.6735 27.8605 15.6636 27.7816 15.6832C27.7183 15.6824 27.6559 15.6674 27.5986 15.6391C27.5939 15.6098 27.5972 15.5797 27.608 15.5522C27.6714 15.538 27.7361 15.5311 27.801 15.5315C27.8757 15.5438 27.9522 15.5331 28.0211 15.5005L28.3726 15.1906L27.8952 14.5666C27.8628 14.601 27.8205 14.672 27.7987 14.6651C27.5251 14.5878 27.2548 14.501 26.9851 14.4113C26.9712 14.4072 26.9687 14.3644 26.9535 14.3155L27.1471 14.3409L27.1526 14.3215L26.9971 14.2527C27.0632 14.025 27.2845 13.9077 27.5919 13.9394C27.4848 14.0553 27.2667 14.1063 27.3831 14.3284C27.4399 14.2367 27.4776 14.1057 27.5596 14.0609C27.6819 14.0212 27.8098 14.0031 27.9378 14.0071C27.9273 14.1071 27.9191 14.174 27.9065 14.2912C27.9839 14.2823 28.0587 14.2693 28.1341 14.2651C28.1777 14.2651 28.247 14.2602 28.2609 14.2843C28.3743 14.4314 28.5102 14.5577 28.6633 14.6582C28.7245 14.7048 28.7887 14.7469 28.8557 14.7838L28.7043 14.8458L28.927 14.8783C28.886 14.9576 28.8485 15.0321 28.7989 15.1293L29.3527 15.597Z" fill="#034EA2"/>
<path d="M25.4305 13.7987L25.3731 13.9814C25.5443 13.9221 25.5497 13.5917 25.8081 13.7504L25.6184 14.0774L25.7868 14.3147L25.5173 14.3677L25.58 14.4256L25.5667 14.4733C25.4715 14.4664 25.346 14.4967 25.2885 14.445C25.1629 14.3312 25.0413 14.3932 24.9196 14.4036C24.7623 14.4167 24.6071 14.4511 24.4333 14.4794L24.4591 14.3414L24.2939 14.2131C24.3537 14.1728 24.4192 14.1428 24.4881 14.1242C24.5986 14.1218 24.709 14.1275 24.8186 14.1414L24.8244 14.0814L24.3984 14.036L24.3852 13.9912L24.5833 13.9076L24.4717 13.8573L24.6314 13.7579L24.6237 13.7392L24.0566 13.9393C24.0692 13.8627 24.0645 13.787 24.0863 13.7773C24.3805 13.6442 24.6381 13.3634 25.0023 13.5082C25.0551 13.5303 25.0798 13.6289 25.1301 13.7152L25.4305 13.7987Z" fill="#034EA2"/>
<path d="M29.109 19.0243L29.5173 18.3987L29.5873 18.4497L29.4453 18.6622L29.7935 18.8518C29.7845 18.8855 29.7801 18.9203 29.7803 18.9552C29.7862 19.1001 29.693 19.1436 29.5892 19.1312C29.4293 19.1147 29.2756 19.0636 29.109 19.0243Z" fill="#034EA2"/>
<path d="M26.1192 23.7996L26.2251 23.6795C25.9429 23.447 25.5846 23.3394 25.2272 23.3801C25.2698 23.3221 25.3283 23.279 25.395 23.2563C25.4617 23.2337 25.5333 23.2326 25.6006 23.2533C25.7443 23.2876 25.8846 23.3352 26.0201 23.3959C26.2145 23.4835 26.4017 23.5898 26.5914 23.6878L26.5814 23.747L26.1192 23.7996Z" fill="#034EA2"/>
<path d="M26.0366 13.3464L26.1473 13.5188L26.2647 13.4319C26.1847 13.4478 26.1056 13.4691 26.0249 13.4774C25.9727 13.4829 25.9144 13.4533 25.8668 13.4678C25.7425 13.5121 25.6078 13.5134 25.4827 13.4713C25.3577 13.4293 25.2491 13.3462 25.1729 13.2346C25.2829 13.192 25.4018 13.181 25.5173 13.2028C25.6327 13.2245 25.7402 13.2781 25.829 13.358C25.8746 13.396 26.0082 13.3215 26.1008 13.2987L26.0366 13.3464Z" fill="#034EA2"/>
<path d="M27.2014 13.6967L27.3527 13.4614C27.4202 13.5556 27.5098 13.6299 27.6128 13.6775C27.7159 13.7251 27.8289 13.7444 27.9411 13.7332C28.0422 13.7448 28.1359 13.7937 28.2054 13.8711C27.862 13.9017 27.5167 13.8417 27.2014 13.6967Z" fill="#034EA2"/>
<path d="M26.7837 15.2837C26.9609 15.2871 27.0296 15.4528 27.142 15.5515C27.1966 15.6109 27.2284 15.6891 27.2317 15.7714L26.9674 15.6286L26.7263 15.7921L26.6317 15.6446C26.6859 15.5211 26.7399 15.3982 26.7934 15.2761L26.7837 15.2837Z" fill="#034EA2"/>
<path d="M33.819 18.3428C33.9777 18.7097 34.1362 19.0768 34.3073 19.4734L34.0789 19.4623C33.9724 19.0802 33.8711 18.716 33.7693 18.3525L33.819 18.3428Z" fill="#034EA2"/>
<path d="M26.5775 24.0001L26.8305 23.9807V23.7317L27.4366 23.9146L27.4247 23.9759C27.1519 24.0778 26.8552 24.0864 26.5775 24.0001Z" fill="#034EA2"/>
<path d="M26.1867 14.1193C26.1675 14.0779 26.1491 14.0353 26.1293 13.9932L26.0499 13.831H26.2483C26.3025 13.6558 26.4374 13.6966 26.5643 13.7546C26.5927 14.0498 26.3817 14.071 26.1867 14.1193Z" fill="#034EA2"/>
<path d="M32.5381 16.831C32.5867 16.8076 32.6395 16.7964 32.693 16.7983C32.7465 16.8002 32.7987 16.8153 32.8457 16.8421C32.8926 16.8689 32.9328 16.9068 32.9631 16.9527C32.9935 16.9987 33.0133 17.0515 33.0206 17.1068C32.817 17.2613 32.5949 17.1352 32.5381 16.831Z" fill="#034EA2"/>
<path d="M26.5972 14.0581C26.697 13.7525 26.8251 13.7027 27.192 13.8759L26.5927 14.0545L26.5972 14.0581Z" fill="#034EA2"/>
<path d="M33.8064 18.7078L33.9107 19.1277L33.7125 19.236V18.7222L33.8064 18.7078Z" fill="#034EA2"/>
<path d="M25.8371 14.4565H26.1431L26.1273 14.6014L25.8297 14.5503L25.8371 14.4565Z" fill="#034EA2"/>
<path d="M26.9441 13.4677L26.6217 13.5938C26.6098 13.5097 26.6025 13.4614 26.5946 13.4062H26.9344L26.9441 13.4677Z" fill="#034EA2"/>
<path d="M21.1497 18.4502C21.063 18.4094 20.9896 18.3427 20.9392 18.2584C20.8889 18.1742 20.8637 18.0763 20.8666 17.9771C21.1264 18.1295 21.1774 18.2137 21.1497 18.4502Z" fill="#034EA2"/>
</svg>
