<svg width="624" height="56" viewBox="0 0 624 56" fill="none" xmlns="http://www.w3.org/2000/svg">
<path d="M70.944 34.128C73.904 34.128 75.28 32.656 75.28 30.944C75.28 26.832 68.496 28.544 68.496 25.808C68.496 24.832 69.312 24.032 71.216 24.032C72.208 24.032 73.312 24.32 74.288 24.944L74.816 23.664C73.888 23.024 72.528 22.672 71.216 22.672C68.272 22.672 66.928 24.144 66.928 25.872C66.928 30.032 73.712 28.304 73.712 31.04C73.712 32.016 72.88 32.768 70.944 32.768C69.504 32.768 68.08 32.224 67.248 31.472L66.656 32.72C67.552 33.552 69.232 34.128 70.944 34.128ZM83.7615 25.52V29.904C83.7615 31.728 82.7375 32.72 81.1375 32.72C79.6815 32.72 78.8495 31.888 78.8495 30.224V25.52H77.3135V30.4C77.3135 32.896 78.7695 34.096 80.9615 34.096C82.1615 34.096 83.2175 33.6 83.8415 32.72V34H85.2975V25.52H83.7615ZM92.7176 25.44C91.4696 25.44 90.3816 25.92 89.6936 26.864V25.52H88.2216V37.104H89.7576V32.72C90.4616 33.632 91.5176 34.096 92.7176 34.096C95.1976 34.096 97.0056 32.368 97.0056 29.76C97.0056 27.168 95.1976 25.44 92.7176 25.44ZM92.5896 32.752C90.9736 32.752 89.7416 31.568 89.7416 29.76C89.7416 27.968 90.9736 26.784 92.5896 26.784C94.2216 26.784 95.4536 27.968 95.4536 29.76C95.4536 31.568 94.2216 32.752 92.5896 32.752ZM106.792 29.808C106.792 27.2 105.048 25.44 102.6 25.44C100.152 25.44 98.3439 27.248 98.3439 29.76C98.3439 32.288 100.168 34.096 102.904 34.096C104.312 34.096 105.48 33.616 106.248 32.72L105.4 31.728C104.776 32.416 103.944 32.752 102.952 32.752C101.272 32.752 100.072 31.76 99.8799 30.272H106.76C106.776 30.128 106.792 29.936 106.792 29.808ZM102.6 26.736C104.088 26.736 105.16 27.744 105.32 29.168H99.8799C100.04 27.728 101.128 26.736 102.6 26.736ZM110.397 26.944V25.52H108.925V34H110.461V29.776C110.461 27.92 111.485 26.912 113.133 26.912C113.245 26.912 113.357 26.912 113.485 26.928V25.44C111.997 25.44 110.941 25.952 110.397 26.944ZM116.146 23.888C116.754 23.888 117.186 23.44 117.186 22.864C117.186 22.32 116.738 21.888 116.146 21.888C115.554 21.888 115.106 22.336 115.106 22.896C115.106 23.456 115.554 23.888 116.146 23.888ZM115.378 34H116.914V25.52H115.378V34ZM123.479 34.096C126.023 34.096 127.879 32.288 127.879 29.76C127.879 27.232 126.023 25.44 123.479 25.44C120.935 25.44 119.063 27.232 119.063 29.76C119.063 32.288 120.935 34.096 123.479 34.096ZM123.479 32.752C121.847 32.752 120.615 31.568 120.615 29.76C120.615 27.952 121.847 26.784 123.479 26.784C125.111 26.784 126.327 27.952 126.327 29.76C126.327 31.568 125.111 32.752 123.479 32.752ZM131.475 26.944V25.52H130.003V34H131.539V29.776C131.539 27.92 132.563 26.912 134.211 26.912C134.323 26.912 134.435 26.912 134.563 26.928V25.44C133.075 25.44 132.019 25.952 131.475 26.944ZM145.358 25.44C144.11 25.44 143.022 25.92 142.334 26.864V25.52H140.862V37.104H142.398V32.72C143.102 33.632 144.158 34.096 145.358 34.096C147.838 34.096 149.646 32.368 149.646 29.76C149.646 27.168 147.838 25.44 145.358 25.44ZM145.23 32.752C143.614 32.752 142.382 31.568 142.382 29.76C142.382 27.968 143.614 26.784 145.23 26.784C146.862 26.784 148.094 27.968 148.094 29.76C148.094 31.568 146.862 32.752 145.23 32.752ZM153.241 26.944V25.52H151.769V34H153.305V29.776C153.305 27.92 154.329 26.912 155.977 26.912C156.089 26.912 156.201 26.912 156.329 26.928V25.44C154.841 25.44 153.785 25.952 153.241 26.944ZM165.808 29.808C165.808 27.2 164.064 25.44 161.616 25.44C159.168 25.44 157.36 27.248 157.36 29.76C157.36 32.288 159.184 34.096 161.92 34.096C163.328 34.096 164.496 33.616 165.264 32.72L164.416 31.728C163.792 32.416 162.96 32.752 161.968 32.752C160.288 32.752 159.088 31.76 158.896 30.272H165.776C165.792 30.128 165.808 29.936 165.808 29.808ZM161.616 26.736C163.104 26.736 164.176 27.744 164.336 29.168H158.896C159.056 27.728 160.144 26.736 161.616 26.736ZM171.636 34.096C173.156 34.096 174.42 33.456 175.092 32.272L173.924 31.536C173.38 32.368 172.548 32.752 171.62 32.752C169.956 32.752 168.708 31.6 168.708 29.76C168.708 27.952 169.956 26.784 171.62 26.784C172.548 26.784 173.38 27.168 173.924 28L175.092 27.248C174.42 26.064 173.156 25.44 171.636 25.44C169.028 25.44 167.156 27.232 167.156 29.76C167.156 32.288 169.028 34.096 171.636 34.096ZM177.849 23.888C178.457 23.888 178.889 23.44 178.889 22.864C178.889 22.32 178.441 21.888 177.849 21.888C177.257 21.888 176.809 22.336 176.809 22.896C176.809 23.456 177.257 23.888 177.849 23.888ZM177.081 34H178.617V25.52H177.081V34ZM183.982 34.096C186.238 34.096 187.646 33.12 187.646 31.584C187.646 28.288 182.27 29.92 182.27 27.92C182.27 27.248 182.926 26.752 184.27 26.752C185.102 26.752 185.95 26.928 186.718 27.424L187.374 26.208C186.638 25.728 185.39 25.44 184.286 25.44C182.11 25.44 180.75 26.464 180.75 27.984C180.75 31.36 186.11 29.712 186.11 31.616C186.11 32.336 185.518 32.768 184.094 32.768C182.99 32.768 181.838 32.4 181.118 31.888L180.478 33.104C181.182 33.664 182.574 34.096 183.982 34.096ZM190.333 23.888C190.941 23.888 191.373 23.44 191.373 22.864C191.373 22.32 190.925 21.888 190.333 21.888C189.741 21.888 189.293 22.336 189.293 22.896C189.293 23.456 189.741 23.888 190.333 23.888ZM189.565 34H191.101V25.52H189.565V34ZM197.666 34.096C200.21 34.096 202.066 32.288 202.066 29.76C202.066 27.232 200.21 25.44 197.666 25.44C195.122 25.44 193.25 27.232 193.25 29.76C193.25 32.288 195.122 34.096 197.666 34.096ZM197.666 32.752C196.034 32.752 194.802 31.568 194.802 29.76C194.802 27.952 196.034 26.784 197.666 26.784C199.298 26.784 200.514 27.952 200.514 29.76C200.514 31.568 199.298 32.752 197.666 32.752ZM208.718 25.44C207.374 25.44 206.286 25.936 205.662 26.8V25.52H204.19V34H205.726V29.632C205.726 27.792 206.782 26.816 208.414 26.816C209.87 26.816 210.702 27.632 210.702 29.296V34H212.238V29.12C212.238 26.624 210.782 25.44 208.718 25.44Z" fill="white"/>
<path d="M313.584 24.192V22.8H305.68V34H307.28V29.472H312.896V28.096H307.28V24.192H313.584ZM318.403 25.44C317.043 25.44 315.779 25.824 314.899 26.528L315.539 27.68C316.195 27.12 317.219 26.768 318.227 26.768C319.747 26.768 320.499 27.52 320.499 28.816V29.12H318.067C315.539 29.12 314.659 30.24 314.659 31.6C314.659 33.072 315.875 34.096 317.795 34.096C319.123 34.096 320.067 33.648 320.579 32.88V34H322.035V28.88C322.035 26.56 320.723 25.44 318.403 25.44ZM318.051 32.912C316.883 32.912 316.179 32.384 316.179 31.536C316.179 30.816 316.611 30.224 318.131 30.224H320.499V31.408C320.115 32.384 319.203 32.912 318.051 32.912ZM327.31 34.096C329.566 34.096 330.974 33.12 330.974 31.584C330.974 28.288 325.598 29.92 325.598 27.92C325.598 27.248 326.254 26.752 327.598 26.752C328.43 26.752 329.278 26.928 330.046 27.424L330.702 26.208C329.966 25.728 328.718 25.44 327.614 25.44C325.438 25.44 324.078 26.464 324.078 27.984C324.078 31.36 329.438 29.712 329.438 31.616C329.438 32.336 328.846 32.768 327.422 32.768C326.318 32.768 325.166 32.4 324.446 31.888L323.806 33.104C324.51 33.664 325.902 34.096 327.31 34.096ZM337.182 32.4C336.862 32.656 336.43 32.8 335.982 32.8C335.134 32.8 334.654 32.288 334.654 31.376V26.784H337.086V25.52H334.654V23.664H333.118V25.52H331.678V26.784H333.118V31.44C333.118 33.152 334.094 34.096 335.806 34.096C336.494 34.096 337.198 33.904 337.662 33.504L337.182 32.4ZM346.901 29.808C346.901 27.2 345.157 25.44 342.709 25.44C340.261 25.44 338.453 27.248 338.453 29.76C338.453 32.288 340.277 34.096 343.013 34.096C344.421 34.096 345.589 33.616 346.357 32.72L345.509 31.728C344.885 32.416 344.053 32.752 343.061 32.752C341.381 32.752 340.181 31.76 339.989 30.272H346.869C346.885 30.128 346.901 29.936 346.901 29.808ZM342.709 26.736C344.197 26.736 345.269 27.744 345.429 29.168H339.989C340.149 27.728 341.237 26.736 342.709 26.736ZM350.506 26.944V25.52H349.034V34H350.57V29.776C350.57 27.92 351.594 26.912 353.242 26.912C353.354 26.912 353.466 26.912 353.594 26.928V25.44C352.106 25.44 351.05 25.952 350.506 26.944ZM361.366 26.944V25.52H359.894V34H361.43V29.776C361.43 27.92 362.454 26.912 364.102 26.912C364.214 26.912 364.326 26.912 364.454 26.928V25.44C362.966 25.44 361.91 25.952 361.366 26.944ZM373.933 29.808C373.933 27.2 372.189 25.44 369.741 25.44C367.293 25.44 365.485 27.248 365.485 29.76C365.485 32.288 367.309 34.096 370.045 34.096C371.453 34.096 372.621 33.616 373.389 32.72L372.541 31.728C371.917 32.416 371.085 32.752 370.093 32.752C368.413 32.752 367.213 31.76 367.021 30.272H373.901C373.917 30.128 373.933 29.936 373.933 29.808ZM369.741 26.736C371.229 26.736 372.301 27.744 372.461 29.168H367.021C367.181 27.728 368.269 26.736 369.741 26.736ZM379.761 34.096C381.281 34.096 382.545 33.456 383.217 32.272L382.049 31.536C381.505 32.368 380.673 32.752 379.745 32.752C378.081 32.752 376.833 31.6 376.833 29.76C376.833 27.952 378.081 26.784 379.745 26.784C380.673 26.784 381.505 27.168 382.049 28L383.217 27.248C382.545 26.064 381.281 25.44 379.761 25.44C377.153 25.44 375.281 27.232 375.281 29.76C375.281 32.288 377.153 34.096 379.761 34.096ZM388.713 34.096C391.257 34.096 393.113 32.288 393.113 29.76C393.113 27.232 391.257 25.44 388.713 25.44C386.169 25.44 384.297 27.232 384.297 29.76C384.297 32.288 386.169 34.096 388.713 34.096ZM388.713 32.752C387.081 32.752 385.849 31.568 385.849 29.76C385.849 27.952 387.081 26.784 388.713 26.784C390.345 26.784 391.561 27.952 391.561 29.76C391.561 31.568 390.345 32.752 388.713 32.752ZM401.003 25.52L398.027 32.32L395.115 25.52H393.515L397.227 34H398.795L402.507 25.52H401.003ZM411.37 29.808C411.37 27.2 409.626 25.44 407.178 25.44C404.73 25.44 402.922 27.248 402.922 29.76C402.922 32.288 404.746 34.096 407.482 34.096C408.89 34.096 410.058 33.616 410.826 32.72L409.978 31.728C409.354 32.416 408.522 32.752 407.53 32.752C405.85 32.752 404.65 31.76 404.458 30.272H411.338C411.354 30.128 411.37 29.936 411.37 29.808ZM407.178 26.736C408.666 26.736 409.738 27.744 409.898 29.168H404.458C404.618 27.728 405.706 26.736 407.178 26.736ZM414.975 26.944V25.52H413.503V34H415.039V29.776C415.039 27.92 416.063 26.912 417.711 26.912C417.823 26.912 417.935 26.912 418.063 26.928V25.44C416.575 25.44 415.519 25.952 414.975 26.944ZM426.3 25.52L423.372 32.304L420.412 25.52H418.812L422.556 33.984L422.284 34.576C421.868 35.552 421.404 35.888 420.668 35.888C420.092 35.888 419.564 35.664 419.148 35.264L418.492 36.416C419.02 36.928 419.852 37.2 420.668 37.2C421.964 37.2 422.94 36.64 423.692 34.848L427.804 25.52H426.3Z" fill="white"/>
<path d="M528.912 34L526.256 30.24C527.824 29.68 528.72 28.432 528.72 26.704C528.72 24.272 526.96 22.8 524.048 22.8H519.68V34H521.28V30.592H524.048C524.288 30.592 524.528 30.576 524.752 30.56L527.168 34H528.912ZM524 29.232H521.28V24.192H524C526.048 24.192 527.12 25.104 527.12 26.704C527.12 28.304 526.048 29.232 524 29.232ZM538.745 29.808C538.745 27.2 537.001 25.44 534.553 25.44C532.105 25.44 530.297 27.248 530.297 29.76C530.297 32.288 532.121 34.096 534.857 34.096C536.265 34.096 537.433 33.616 538.201 32.72L537.353 31.728C536.729 32.416 535.897 32.752 534.905 32.752C533.225 32.752 532.025 31.76 531.833 30.272H538.713C538.729 30.128 538.745 29.936 538.745 29.808ZM534.553 26.736C536.041 26.736 537.113 27.744 537.273 29.168H531.833C531.993 27.728 533.081 26.736 534.553 26.736ZM547.342 22.128V26.8C546.638 25.888 545.582 25.44 544.382 25.44C541.902 25.44 540.094 27.168 540.094 29.76C540.094 32.352 541.902 34.096 544.382 34.096C545.63 34.096 546.718 33.616 547.406 32.656V34H548.878V22.128H547.342ZM544.51 32.752C542.878 32.752 541.646 31.568 541.646 29.76C541.646 27.952 542.878 26.784 544.51 26.784C546.126 26.784 547.358 27.952 547.358 29.76C547.358 31.568 546.126 32.752 544.51 32.752ZM558.152 25.52V29.904C558.152 31.728 557.128 32.72 555.528 32.72C554.072 32.72 553.24 31.888 553.24 30.224V25.52H551.704V30.4C551.704 32.896 553.16 34.096 555.352 34.096C556.552 34.096 557.608 33.6 558.232 32.72V34H559.688V25.52H558.152ZM566.308 34.096C567.828 34.096 569.092 33.456 569.764 32.272L568.596 31.536C568.052 32.368 567.22 32.752 566.292 32.752C564.628 32.752 563.38 31.6 563.38 29.76C563.38 27.952 564.628 26.784 566.292 26.784C567.22 26.784 568.052 27.168 568.596 28L569.764 27.248C569.092 26.064 567.828 25.44 566.308 25.44C563.7 25.44 561.828 27.232 561.828 29.76C561.828 32.288 563.7 34.096 566.308 34.096ZM579.292 29.808C579.292 27.2 577.548 25.44 575.1 25.44C572.652 25.44 570.844 27.248 570.844 29.76C570.844 32.288 572.668 34.096 575.404 34.096C576.812 34.096 577.98 33.616 578.748 32.72L577.9 31.728C577.276 32.416 576.444 32.752 575.452 32.752C573.772 32.752 572.572 31.76 572.38 30.272H579.26C579.276 30.128 579.292 29.936 579.292 29.808ZM575.1 26.736C576.588 26.736 577.66 27.744 577.82 29.168H572.38C572.54 27.728 573.628 26.736 575.1 26.736ZM587.889 22.128V26.8C587.185 25.888 586.129 25.44 584.929 25.44C582.449 25.44 580.641 27.168 580.641 29.76C580.641 32.352 582.449 34.096 584.929 34.096C586.177 34.096 587.265 33.616 587.953 32.656V34H589.425V22.128H587.889ZM585.057 32.752C583.425 32.752 582.193 31.568 582.193 29.76C582.193 27.952 583.425 26.784 585.057 26.784C586.673 26.784 587.905 27.952 587.905 29.76C587.905 31.568 586.673 32.752 585.057 32.752ZM598.1 26.944V25.52H596.628V34H598.164V29.776C598.164 27.92 599.188 26.912 600.836 26.912C600.948 26.912 601.06 26.912 601.188 26.928V25.44C599.7 25.44 598.644 25.952 598.1 26.944ZM603.849 23.888C604.457 23.888 604.889 23.44 604.889 22.864C604.889 22.32 604.441 21.888 603.849 21.888C603.257 21.888 602.809 22.336 602.809 22.896C602.809 23.456 603.257 23.888 603.849 23.888ZM603.081 34H604.617V25.52H603.081V34ZM609.982 34.096C612.238 34.096 613.646 33.12 613.646 31.584C613.646 28.288 608.27 29.92 608.27 27.92C608.27 27.248 608.926 26.752 610.27 26.752C611.102 26.752 611.95 26.928 612.718 27.424L613.374 26.208C612.638 25.728 611.39 25.44 610.286 25.44C608.11 25.44 606.75 26.464 606.75 27.984C606.75 31.36 612.11 29.712 612.11 31.616C612.11 32.336 611.518 32.768 610.094 32.768C608.99 32.768 607.838 32.4 607.118 31.888L606.478 33.104C607.182 33.664 608.574 34.096 609.982 34.096ZM622.045 34H623.933L620.013 29.024L623.581 25.52H621.725L617.101 29.744V22.128H615.565V34H617.101V31.68L618.861 30.048L622.045 34Z" fill="white"/>
<circle cx="28" cy="28" r="28" fill="white"/>
<path d="M24.2897 28.9028C25.0769 29.6901 25.8586 30.4646 26.6261 31.2519C26.6614 31.3015 26.6859 31.358 26.698 31.4178C26.7101 31.4775 26.7097 31.5391 26.6965 31.5986C26.4655 32.5649 26.0161 33.4654 25.3828 34.2309C23.3699 36.7447 20.6609 38.6097 17.5943 39.5929C16.6281 39.9568 15.5849 40.0679 14.5638 39.9156C14.3291 39.8733 14.0169 39.8592 14 39.5668C14.0126 39.3465 14.1071 39.1388 14.265 38.9846C17.272 35.9372 20.2847 32.8966 23.303 29.8627C23.618 29.5463 23.9429 29.2397 24.2897 28.9028Z" fill="#034EA2"/>
<path d="M23.3169 39.958C23.004 39.958 22.6903 39.9615 22.3767 39.958C22.1477 39.9537 22.0335 39.8438 22.0243 39.5999C21.9926 38.91 22.0588 38.8332 22.7566 38.8332C23.2266 38.8332 23.6967 38.8289 24.1661 38.8332C24.5643 38.8374 24.6524 38.9466 24.6531 39.4125C24.6538 39.8783 24.5876 39.9523 24.1866 39.958C23.8969 39.9622 23.6079 39.958 23.3183 39.958H23.3169Z" fill="#034EA2"/>
<path d="M36.7721 39.9587C36.4578 39.9587 36.1434 39.9587 35.8291 39.9587C35.7745 39.9666 35.7188 39.9614 35.6666 39.9434C35.6144 39.9254 35.5672 39.8953 35.529 39.8555C35.4908 39.8156 35.4628 39.7672 35.447 39.7143C35.4313 39.6614 35.4284 39.6056 35.4386 39.5514C35.4527 39.2617 35.3477 38.8748 35.791 38.8466C36.419 38.8145 37.0483 38.8145 37.6763 38.8466C38.004 38.8593 38.1245 39.1137 38.0928 39.6028C38.0744 39.8847 37.8814 39.9552 37.6425 39.9601C37.3507 39.9601 37.0625 39.9587 36.7721 39.9587Z" fill="#034EA2"/>
<path d="M32.3313 38.893C32.633 38.893 32.9339 38.8888 33.2355 38.893C33.2929 38.8855 33.3511 38.8916 33.4057 38.9107C33.4603 38.9297 33.5097 38.9613 33.5498 39.0029C33.59 39.0445 33.6198 39.0949 33.637 39.1501C33.6541 39.2053 33.6581 39.2638 33.6486 39.3208C33.6408 39.7979 33.5435 39.9833 33.232 39.9897C32.6174 40.0009 32.0029 40.0009 31.3883 39.9897C30.9908 39.984 30.9909 39.6915 30.9845 39.3997C30.9782 39.108 31.0494 38.8945 31.3912 38.8916C31.7048 38.8874 32.0177 38.893 32.3313 38.893Z" fill="#034EA2"/>
<path d="M27.862 38.8929C28.1746 38.8768 28.488 38.8815 28.8001 38.907C28.8721 38.924 28.9389 38.9587 28.9942 39.0079C29.0496 39.0571 29.0918 39.1194 29.1172 39.189C29.1637 39.7422 29.2271 40.0347 28.4484 39.9966C27.955 39.9727 27.4617 39.9966 26.9684 39.9903C26.6012 39.9867 26.5165 39.8832 26.5151 39.4624C26.5151 38.9937 26.5857 38.8986 26.9599 38.8908C27.2587 38.8873 27.5603 38.8922 27.862 38.8929Z" fill="#034EA2"/>
<path d="M41.2488 38.8937C41.5624 38.8937 41.8768 38.8937 42.1904 38.8937C42.4723 38.8902 42.5787 39.041 42.5766 39.3011C42.5766 39.5781 42.6224 39.9227 42.2313 39.9431C41.5695 39.9776 40.9042 39.9579 40.2403 39.9466C40.1613 39.9466 40.0233 39.8607 40.0169 39.8022C39.9732 39.547 39.9732 39.2863 40.0169 39.0312C40.0359 38.9522 40.3207 38.9134 40.4877 38.8986C40.7393 38.8768 40.9944 38.893 41.2481 38.893L41.2488 38.8937Z" fill="#034EA2"/>
<path d="M39.2536 17.9112C38.7175 17.3709 38.1793 16.8324 37.6389 16.2958C37.2436 15.9026 37.185 15.9019 36.7995 16.2909C33.8042 19.3097 30.8089 22.3287 27.8136 25.348C27.0299 26.1366 26.2406 26.9196 25.4562 27.7076C25.1644 28.0007 25.1651 28.1121 25.4498 28.3982C26.0136 28.962 26.5775 29.5259 27.1413 30.0897C27.2543 30.1868 27.3737 30.2763 27.4986 30.3575C27.617 30.2862 27.7295 30.2053 27.8348 30.1158C31.6448 26.3039 35.4527 22.4899 39.2585 18.6738C39.563 18.3714 39.5602 18.2178 39.2536 17.9112ZM34.1911 21.9432C34.1232 22.0281 34.0503 22.1088 33.9727 22.1849C32.2916 23.8849 30.6095 25.5841 28.9265 27.2826C28.6016 27.6096 28.4769 27.6194 28.1971 27.3692C27.887 27.0916 27.8813 26.9541 28.1759 26.6588C29.9181 24.9162 31.6627 23.1759 33.4096 21.4379C33.4715 21.3752 33.5464 21.3269 33.6292 21.2964C33.7119 21.266 33.8003 21.2541 33.8881 21.2617C34.0671 21.3223 34.1961 21.5267 34.3511 21.6733C34.3037 21.766 34.2512 21.8561 34.194 21.9432H34.1911Z" fill="#034EA2"/>
<circle cx="266" cy="28" r="28" fill="white"/>
<g clip-path="url(#clip0)">
<path d="M265.499 34.7513L266.138 34.6879L266.982 34.6106C267.262 34.584 267.544 34.5562 267.825 34.5302C268.159 34.4986 268.492 34.4669 268.826 34.4378L269.82 34.3434L270.971 34.2364C271.407 34.1941 271.843 34.1519 272.279 34.1097C272.616 34.078 272.953 34.0546 273.288 34.0128C273.377 33.9979 273.469 34.0029 273.556 34.0275C273.644 34.052 273.725 34.0955 273.794 34.1549C273.862 34.2143 273.917 34.288 273.954 34.371C273.991 34.4539 274.009 34.544 274.007 34.6347C274.007 34.736 273.981 34.8357 273.932 34.9239C273.882 35.0122 273.81 35.086 273.723 35.1382L267.674 38.984C267.157 39.3125 266.641 39.6419 266.124 39.9721C266.106 39.9853 266.085 39.9931 266.064 39.9946C266.042 39.996 266.02 39.9911 266.001 39.9803C264.577 39.3322 263.153 38.6857 261.728 38.0409C261.682 38.0213 261.633 38.0107 261.583 38.0099C261.216 38.0099 260.85 38.0099 260.484 38.0099H260.403V34.0115C260.429 34.0115 260.452 34.0083 260.475 34.0083C261.518 34.0083 262.56 34.0083 263.602 34.0083C263.642 34.009 263.681 34.0207 263.714 34.0419C264.562 34.6056 265.408 35.1708 266.254 35.7374C266.416 35.836 266.536 35.9891 266.594 36.169C266.652 36.3488 266.644 36.5436 266.571 36.7179C266.528 36.8159 266.465 36.9044 266.388 36.9783C266.31 37.0521 266.219 37.11 266.119 37.1485C266.019 37.1869 265.912 37.2053 265.805 37.2025C265.698 37.1997 265.592 37.1757 265.494 37.1321C265.421 37.0965 265.351 37.0558 265.283 37.0105C264.801 36.6891 264.319 36.3672 263.838 36.0446L263.775 36.0028L263.558 36.3321C263.579 36.348 263.597 36.3625 263.617 36.3752C264.124 36.713 264.631 37.0523 265.14 37.393C265.387 37.5689 265.692 37.6441 265.993 37.6036C266.294 37.563 266.568 37.4096 266.76 37.1745C266.952 36.9394 267.047 36.6402 267.027 36.3374C267.007 36.0345 266.872 35.7508 266.65 35.5436C266.538 35.4501 266.421 35.3636 266.298 35.2846C266.059 35.1212 265.817 34.9609 265.576 34.7994C265.551 34.7899 265.53 34.7747 265.499 34.7513Z" fill="#034EA2"/>
<path d="M257.599 38.4097V33.6165H259.993V38.4097H257.599Z" fill="#034EA2"/>
<path d="M257.599 22.3944V16.0012H258.394V22.3944H257.599Z" fill="#034EA2"/>
<path d="M274.407 22.3969H273.616V16H274.409L274.407 22.3969Z" fill="#034EA2"/>
<path d="M257.599 25.6055H258.393V32.0024H257.599V25.6055Z" fill="#034EA2"/>
<path d="M273.616 25.6055H274.409V32.0024H273.616V25.6055Z" fill="#034EA2"/>
<path d="M254 16H254.788V22.3938H254V16Z" fill="#034EA2"/>
<path d="M277.219 16H278.008V22.3969H277.219V16Z" fill="#034EA2"/>
<path d="M254.789 32.0051H254.001V25.6082H254.789V32.0051Z" fill="#034EA2"/>
<path d="M278.007 32.0056H277.219V25.6086H278.007V32.0056Z" fill="#034EA2"/>
<path d="M261.996 19.1933H261.202V16.0024H261.993L261.996 19.1933Z" fill="#034EA2"/>
<path d="M270.803 19.1935H270.013V16.002H270.803V19.1935Z" fill="#034EA2"/>
<path d="M261.997 32.4048H261.205V29.2114H261.997V32.4048Z" fill="#034EA2"/>
<path d="M270.011 29.2107H270.801V32.4022H270.011V29.2107Z" fill="#034EA2"/>
<path d="M266.401 18.3955H265.606V16.0007H266.401V18.3955Z" fill="#034EA2"/>
<path d="M266.399 32.4041H265.606V30.4109H266.399V32.4041Z" fill="#034EA2"/>
<path d="M258.393 24.7973H257.599V23.2063H258.393V24.7973Z" fill="#034EA2"/>
<path d="M273.616 23.2039H274.409V24.7974H273.616V23.2039Z" fill="#034EA2"/>
<path d="M254.79 23.2063V24.7954H254V23.2063H254.79Z" fill="#034EA2"/>
<path d="M278.01 23.2078V24.7969H277.22V23.2078H278.01Z" fill="#034EA2"/>
<path d="M266.008 19.5969C265.058 19.5956 264.129 19.8759 263.339 20.4025C262.548 20.9291 261.931 21.6784 261.566 22.5555C261.201 23.4327 261.104 24.3983 261.288 25.3304C261.472 26.2625 261.928 27.1192 262.599 27.7921C263.269 28.4651 264.125 28.924 265.056 29.111C265.987 29.2981 266.953 29.2047 267.832 28.8427C268.71 28.4808 269.461 27.8665 269.991 27.0776C270.52 26.2887 270.804 25.3605 270.806 24.4105C270.807 23.1363 270.303 21.9136 269.403 21.0111C268.504 20.1086 267.283 19.5999 266.008 19.5969ZM268.802 25.6018H267.206V27.1992H264.806V25.6056H263.203V23.2058H264.802V21.606H267.201V23.202H268.802V25.6018Z" fill="#034EA2"/>
</g>
<circle cx="480" cy="28" r="28" fill="white"/>
<path d="M479.991 39.6497C475.66 39.6497 471.328 39.6497 466.996 39.6497C466.734 39.686 466.468 39.63 466.244 39.4917C466.02 39.3534 465.854 39.1417 465.775 38.8945C465.727 38.7125 465.722 38.5223 465.758 38.3378C465.794 38.1533 465.872 37.9788 465.985 37.8271C467.134 35.959 468.281 34.0894 469.426 32.2182C472.592 27.0566 475.759 21.8948 478.927 16.7327C479.016 16.572 479.128 16.4243 479.259 16.2937C479.384 16.179 479.534 16.0941 479.698 16.0459C479.862 15.9976 480.035 15.9873 480.204 16.0156C480.373 16.044 480.533 16.1104 480.671 16.2095C480.809 16.3086 480.921 16.4377 481 16.5866C481.31 17.0683 481.6 17.562 481.9 18.0504L494.015 37.8064C494.184 38.0048 494.281 38.2528 494.289 38.511C494.298 38.7692 494.218 39.0227 494.062 39.2314C493.978 39.3445 493.87 39.439 493.745 39.5089C493.621 39.5787 493.483 39.6224 493.341 39.6371C493.194 39.6514 493.046 39.6568 492.898 39.6531L479.991 39.6497ZM491.25 37.4808C487.499 31.3676 483.768 25.2871 480.009 19.1612L468.767 37.4815L491.25 37.4808Z" fill="#034EA2"/>
<path d="M480.009 19.1611L468.768 37.4814H491.25L480.009 19.1611ZM478.908 24.6458C478.895 24.417 478.958 24.1901 479.087 23.9992C479.217 23.8083 479.406 23.6637 479.627 23.5871C479.835 23.5037 480.064 23.489 480.281 23.5451C480.498 23.6012 480.69 23.7251 480.828 23.898C480.989 24.1139 481.084 24.3703 481.101 24.6372C481.123 26.4025 481.12 28.1685 481.108 29.9344C481.113 30.0795 481.088 30.224 481.034 30.3593C480.981 30.4946 480.899 30.6179 480.796 30.7217C480.692 30.8255 480.568 30.9078 480.431 30.9635C480.294 31.0192 480.147 31.0472 479.999 31.0458C479.85 31.0445 479.704 31.0138 479.568 30.9556C479.432 30.8974 479.309 30.8129 479.208 30.7072C479.106 30.6015 479.027 30.4768 478.976 30.3406C478.925 30.2043 478.903 30.0594 478.91 29.9144C478.899 29.0365 478.91 28.1585 478.91 27.2805C478.91 26.4025 478.899 25.5245 478.908 24.6458ZM481.091 34.4184C481.061 34.6756 480.936 34.913 480.738 35.0854C480.541 35.2577 480.286 35.3528 480.021 35.3525C479.752 35.3604 479.489 35.2674 479.287 35.0925C479.085 34.9176 478.959 34.6739 478.934 34.4111C478.895 33.9598 478.895 33.5061 478.934 33.0548C478.961 32.7973 479.085 32.559 479.282 32.3863C479.479 32.2136 479.735 32.1189 479.999 32.1207C480.268 32.1175 480.529 32.2122 480.731 32.3866C480.933 32.5609 481.061 32.8024 481.091 33.0641C481.106 33.2947 481.107 33.5259 481.095 33.7566C481.106 33.9772 481.103 34.1982 481.087 34.4184H481.091Z" fill="white" stroke="#034EA2" stroke-width="0.566" stroke-miterlimit="10"/>
<path d="M478.905 27.2806C478.905 26.4027 478.899 25.524 478.905 24.646C478.892 24.4172 478.955 24.1903 479.084 23.9994C479.214 23.8084 479.403 23.6638 479.624 23.5872C479.832 23.5039 480.061 23.4891 480.278 23.5451C480.495 23.6011 480.687 23.7248 480.825 23.8975C480.986 24.1136 481.081 24.3703 481.098 24.6373C481.121 26.4026 481.118 28.1686 481.106 29.9339C481.111 30.079 481.086 30.2235 481.032 30.3589C480.978 30.4942 480.898 30.6174 480.794 30.7213C480.69 30.8252 480.566 30.9075 480.429 30.9632C480.292 31.019 480.145 31.047 479.997 31.0457C479.848 31.0444 479.702 31.0138 479.566 30.9556C479.43 30.8975 479.307 30.813 479.206 30.7073C479.104 30.6017 479.025 30.477 478.974 30.3407C478.923 30.2045 478.9 30.0595 478.908 29.9146C478.897 29.0366 478.905 28.1586 478.905 27.2806Z" fill="#034EA2"/>
<path d="M481.091 33.7545C481.103 33.9757 481.102 34.1974 481.087 34.4184C481.057 34.6755 480.932 34.9129 480.735 35.0853C480.537 35.2576 480.282 35.3527 480.018 35.3524C479.748 35.3603 479.485 35.2673 479.283 35.0924C479.081 34.9175 478.955 34.6738 478.931 34.411C478.892 33.9597 478.892 33.506 478.931 33.0547C478.958 32.7974 479.082 32.5594 479.279 32.3867C479.476 32.2141 479.731 32.1193 479.996 32.1207C480.265 32.1177 480.526 32.2127 480.727 32.3871C480.929 32.5615 481.057 32.803 481.087 33.0647C481.102 33.2953 481.103 33.5265 481.091 33.7572V33.7545Z" fill="#034EA2"/>
<path d="M464 18.875L496 40" stroke="#034EA2" stroke-width="2.168" stroke-miterlimit="10"/>
<defs>
<clipPath id="clip0">
<rect width="24.0095" height="24" fill="white" transform="translate(254 16)"/>
</clipPath>
</defs>
</svg>
