<svg width="731" height="101" viewBox="0 0 731 101" fill="none" xmlns="http://www.w3.org/2000/svg">
<path d="M39.5016 36L39.411 4.29H33.3861L21.6987 23.9955L9.8301 4.29H3.7599V36H10.6455V17.3817L19.932 32.6478H23.2389L32.5707 16.974L32.616 36H39.5016ZM50.513 8.2311C53.1404 8.2311 54.9071 6.5097 54.9071 4.1541C54.9071 1.9797 53.1404 0.348898 50.513 0.348898C47.8856 0.348898 46.1189 2.0703 46.1189 4.29C46.1189 6.5097 47.8856 8.2311 50.513 8.2311ZM46.9796 36H54.0464V11.6286H46.9796V36ZM75.8711 11.2662C72.5642 11.2662 69.7103 12.3987 67.8077 14.4825V11.6286H61.058V36H68.1248V23.9502C68.1248 19.4655 70.571 17.3817 73.9685 17.3817C77.0942 17.3817 78.9062 19.1937 78.9062 23.1348V36H85.973V22.0476C85.973 14.6184 81.6242 11.2662 75.8711 11.2662ZM96.3651 8.2311C98.9925 8.2311 100.759 6.5097 100.759 4.1541C100.759 1.9797 98.9925 0.348898 96.3651 0.348898C93.7377 0.348898 91.971 2.0703 91.971 4.29C91.971 6.5097 93.7377 8.2311 96.3651 8.2311ZM92.8317 36H99.8985V11.6286H92.8317V36ZM138.122 11.2662C134.453 11.2662 131.282 12.7611 129.334 15.2526C127.612 12.5799 124.713 11.2662 121.316 11.2662C118.19 11.2662 115.472 12.3534 113.66 14.4372V11.6286H106.91V36H113.977V23.769C113.977 19.4202 116.197 17.3817 119.322 17.3817C122.267 17.3817 123.943 19.1937 123.943 23.1348V36H131.01V23.769C131.01 19.4202 133.229 17.3817 136.4 17.3817C139.254 17.3817 141.021 19.1937 141.021 23.1348V36H148.088V22.0476C148.088 14.6184 143.92 11.2662 138.122 11.2662ZM164.705 11.2662C160.809 11.2662 156.868 12.3081 154.196 14.2107L156.732 19.1484C158.499 17.7441 161.172 16.8834 163.754 16.8834C167.559 16.8834 169.371 18.6501 169.371 21.6852H163.754C156.325 21.6852 153.29 24.675 153.29 28.9785C153.29 33.1914 156.687 36.3624 162.395 36.3624C165.974 36.3624 168.51 35.1846 169.824 32.9649V36H176.438V22.0929C176.438 14.709 172.134 11.2662 164.705 11.2662ZM164.162 31.6059C161.67 31.6059 160.175 30.4281 160.175 28.6614C160.175 27.0306 161.217 25.8075 164.524 25.8075H169.371V28.299C168.556 30.5187 166.517 31.6059 164.162 31.6059ZM183.287 36H190.353V2.3874H183.287V36ZM197.365 36H204.432V2.3874H197.365V36ZM228.839 11.6286L221.953 28.1631L215.113 11.6286H207.819L218.374 36.1812L218.284 36.4077C217.332 38.5821 216.245 39.4428 214.297 39.4428C212.893 39.4428 211.398 38.8539 210.311 37.9026L207.729 42.9309C209.314 44.3352 212.032 45.1506 214.524 45.1506C218.918 45.1506 222.27 43.3839 224.626 37.4949L235.634 11.6286H228.839ZM255.786 8.2311C258.413 8.2311 260.18 6.5097 260.18 4.1541C260.18 1.9797 258.413 0.348898 255.786 0.348898C253.158 0.348898 251.392 2.0703 251.392 4.29C251.392 6.5097 253.158 8.2311 255.786 8.2311ZM252.252 36H259.319V11.6286H252.252V36ZM281.144 11.2662C277.837 11.2662 274.983 12.3987 273.08 14.4825V11.6286H266.331V36H273.398V23.9502C273.398 19.4655 275.844 17.3817 279.241 17.3817C282.367 17.3817 284.179 19.1937 284.179 23.1348V36H291.246V22.0476C291.246 14.6184 286.897 11.2662 281.144 11.2662ZM315.057 11.6286L308.081 28.2084L301.331 11.6286H294.038L304.276 36H311.569L321.852 11.6286H315.057ZM334.223 11.2662C330.327 11.2662 326.386 12.3081 323.713 14.2107L326.25 19.1484C328.017 17.7441 330.689 16.8834 333.271 16.8834C337.077 16.8834 338.889 18.6501 338.889 21.6852H333.271C325.842 21.6852 322.807 24.675 322.807 28.9785C322.807 33.1914 326.205 36.3624 331.912 36.3624C335.491 36.3624 338.028 35.1846 339.342 32.9649V36H345.955V22.0929C345.955 14.709 341.652 11.2662 334.223 11.2662ZM333.679 31.6059C331.188 31.6059 329.693 30.4281 329.693 28.6614C329.693 27.0306 330.735 25.8075 334.041 25.8075H338.889V28.299C338.073 30.5187 336.035 31.6059 333.679 31.6059ZM361.003 36.3624C368.297 36.3624 372.51 33.1461 372.51 28.6161C372.51 19.0125 357.787 23.0442 357.787 18.8766C357.787 17.6082 359.146 16.6116 362.317 16.6116C364.537 16.6116 366.938 17.0646 369.339 18.4236L371.694 13.3953C369.384 12.0363 365.669 11.2662 362.317 11.2662C355.205 11.2662 351.037 14.5278 351.037 19.1484C351.037 28.8879 365.76 24.8109 365.76 28.7973C365.76 30.1563 364.537 31.017 361.275 31.017C358.285 31.017 354.979 30.0657 352.804 28.6614L350.449 33.735C352.714 35.2299 356.881 36.3624 361.003 36.3624ZM380.856 8.2311C383.484 8.2311 385.25 6.5097 385.25 4.1541C385.25 1.9797 383.484 0.348898 380.856 0.348898C378.229 0.348898 376.462 2.0703 376.462 4.29C376.462 6.5097 378.229 8.2311 380.856 8.2311ZM377.323 36H384.39V11.6286H377.323V36ZM408.796 11.6286L401.82 28.2084L395.07 11.6286H387.777L398.015 36H405.308L415.591 11.6286H408.796ZM442.138 23.9049C442.138 16.068 436.611 11.2662 429.454 11.2662C422.024 11.2662 416.452 16.521 416.452 23.8143C416.452 31.0623 421.934 36.3624 430.36 36.3624C434.754 36.3624 438.151 35.0034 440.416 32.4213L436.656 28.3443C434.98 29.9298 433.123 30.6999 430.541 30.6999C426.826 30.6999 424.244 28.8426 423.565 25.8075H442.002C442.047 25.2186 442.138 24.4485 442.138 23.9049ZM429.499 16.6116C432.67 16.6116 434.98 18.6048 435.478 21.6852H423.474C423.972 18.5595 426.283 16.6116 429.499 16.6116ZM474.394 29.8392C473.624 30.4281 472.582 30.7452 471.54 30.7452C469.637 30.7452 468.505 29.6127 468.505 27.5289V17.6082H474.575V12.1722H468.505V6.2379H461.438V12.1722H457.678V17.6082H461.438V27.6195C461.438 33.4179 464.79 36.3624 470.543 36.3624C472.718 36.3624 474.847 35.8641 476.297 34.8222L474.394 29.8392ZM503.838 23.9049C503.838 16.068 498.311 11.2662 491.154 11.2662C483.724 11.2662 478.152 16.521 478.152 23.8143C478.152 31.0623 483.634 36.3624 492.06 36.3624C496.454 36.3624 499.851 35.0034 502.116 32.4213L498.356 28.3443C496.68 29.9298 494.823 30.6999 492.241 30.6999C488.526 30.6999 485.944 28.8426 485.265 25.8075H503.702C503.747 25.2186 503.838 24.4485 503.838 23.9049ZM491.199 16.6116C494.37 16.6116 496.68 18.6048 497.178 21.6852H485.174C485.672 18.5595 487.983 16.6116 491.199 16.6116ZM520.773 36.3624C525.892 36.3624 529.924 34.0974 531.691 30.2016L526.209 27.2118C524.896 29.5674 522.948 30.564 520.728 30.564C517.149 30.564 514.341 28.0725 514.341 23.8143C514.341 19.5561 517.149 17.0646 520.728 17.0646C522.948 17.0646 524.896 18.1065 526.209 20.4168L531.691 17.4723C529.924 13.4859 525.892 11.2662 520.773 11.2662C512.846 11.2662 507.183 16.4757 507.183 23.8143C507.183 31.1529 512.846 36.3624 520.773 36.3624ZM550.849 11.2662C547.723 11.2662 545.005 12.2628 543.102 14.1654V2.3874H536.036V36H543.102V23.9502C543.102 19.4655 545.549 17.3817 548.946 17.3817C552.072 17.3817 553.884 19.1937 553.884 23.1348V36H560.951V22.0476C560.951 14.6184 556.602 11.2662 550.849 11.2662ZM582.622 11.2662C579.316 11.2662 576.462 12.3987 574.559 14.4825V11.6286H567.809V36H574.876V23.9502C574.876 19.4655 577.322 17.3817 580.72 17.3817C583.846 17.3817 585.658 19.1937 585.658 23.1348V36H592.724V22.0476C592.724 14.6184 588.376 11.2662 582.622 11.2662ZM611.445 36.3624C619.192 36.3624 624.809 31.1529 624.809 23.8143C624.809 16.4757 619.192 11.2662 611.445 11.2662C603.699 11.2662 598.036 16.4757 598.036 23.8143C598.036 31.1529 603.699 36.3624 611.445 36.3624ZM611.445 30.564C607.912 30.564 605.194 28.0272 605.194 23.8143C605.194 19.6014 607.912 17.0646 611.445 17.0646C614.979 17.0646 617.651 19.6014 617.651 23.8143C617.651 28.0272 614.979 30.564 611.445 30.564ZM629.985 36H637.052V2.3874H629.985V36ZM655.661 36.3624C663.407 36.3624 669.024 31.1529 669.024 23.8143C669.024 16.4757 663.407 11.2662 655.661 11.2662C647.914 11.2662 642.252 16.4757 642.252 23.8143C642.252 31.1529 647.914 36.3624 655.661 36.3624ZM655.661 30.564C652.127 30.564 649.409 28.0272 649.409 23.8143C649.409 19.6014 652.127 17.0646 655.661 17.0646C659.194 17.0646 661.867 19.6014 661.867 23.8143C661.867 28.0272 659.194 30.564 655.661 30.564ZM692.638 11.6286V14.7543C690.78 12.3987 687.972 11.2662 684.574 11.2662C677.825 11.2662 672.389 15.9321 672.389 23.0442C672.389 30.1563 677.825 34.8222 684.574 34.8222C687.745 34.8222 690.418 33.8256 692.275 31.7871V32.829C692.275 37.2231 690.101 39.4881 685.118 39.4881C681.992 39.4881 678.595 38.4009 676.511 36.7248L673.702 41.7984C676.556 44.0181 681.041 45.1506 685.661 45.1506C694.45 45.1506 699.342 40.983 699.342 31.923V11.6286H692.638ZM685.979 29.0238C682.264 29.0238 679.546 26.6229 679.546 23.0442C679.546 19.4655 682.264 17.0646 685.979 17.0646C689.693 17.0646 692.366 19.4655 692.366 23.0442C692.366 26.6229 689.693 29.0238 685.979 29.0238ZM723.768 11.6286L716.882 28.1631L710.042 11.6286H702.748L713.303 36.1812L713.213 36.4077C712.261 38.5821 711.174 39.4428 709.226 39.4428C707.822 39.4428 706.327 38.8539 705.24 37.9026L702.658 42.9309C704.243 44.3352 706.961 45.1506 709.453 45.1506C713.847 45.1506 717.199 43.3839 719.555 37.4949L730.563 11.6286H723.768ZM11.0079 66.1303C11.0079 63.7294 12.1404 62.5969 14.2242 62.5969C15.3114 62.5969 16.308 62.914 17.0781 63.4576L18.9354 58.3387C17.6217 57.4327 15.5379 57.025 13.5447 57.025C7.4745 57.025 4.1223 60.6037 4.1223 66.085V67.1722H0.3624V72.6082H4.1223V91H11.1891V72.6082H17.2593V67.1722H11.0079V66.1303ZM32.5201 91.3624C40.2664 91.3624 45.8836 86.1529 45.8836 78.8143C45.8836 71.4757 40.2664 66.2662 32.5201 66.2662C24.7738 66.2662 19.1113 71.4757 19.1113 78.8143C19.1113 86.1529 24.7738 91.3624 32.5201 91.3624ZM32.5201 85.564C28.9867 85.564 26.2687 83.0272 26.2687 78.8143C26.2687 74.6014 28.9867 72.0646 32.5201 72.0646C36.0535 72.0646 38.7262 74.6014 38.7262 78.8143C38.7262 83.0272 36.0535 85.564 32.5201 85.564ZM57.8099 69.8449V66.6286H51.0602V91H58.127V79.4938C58.127 74.8279 60.7091 72.6988 64.6049 72.6988C65.1485 72.6988 65.6015 72.7441 66.1904 72.7894V66.2662C62.4305 66.2662 59.5313 67.4893 57.8099 69.8449ZM101.7 66.6286L94.814 83.1631L87.9737 66.6286H80.6804L91.2353 91.1812L91.1447 91.4077C90.1934 93.5821 89.1062 94.4428 87.1583 94.4428C85.754 94.4428 84.2591 93.8539 83.1719 92.9026L80.5898 97.9309C82.1753 99.3352 84.8933 100.151 87.3848 100.151C91.7789 100.151 95.1311 98.3839 97.4867 92.4949L108.495 66.6286H101.7ZM122.764 91.3624C130.511 91.3624 136.128 86.1529 136.128 78.8143C136.128 71.4757 130.511 66.2662 122.764 66.2662C115.018 66.2662 109.356 71.4757 109.356 78.8143C109.356 86.1529 115.018 91.3624 122.764 91.3624ZM122.764 85.564C119.231 85.564 116.513 83.0272 116.513 78.8143C116.513 74.6014 119.231 72.0646 122.764 72.0646C126.298 72.0646 128.971 74.6014 128.971 78.8143C128.971 83.0272 126.298 85.564 122.764 85.564ZM158.79 66.6286V78.6784C158.79 83.1631 156.435 85.2469 153.173 85.2469C150.047 85.2469 148.235 83.4349 148.235 79.3579V66.6286H141.169V80.3998C141.169 87.9196 145.472 91.3624 151.588 91.3624C154.577 91.3624 157.295 90.2299 159.153 88.1008V91H165.857V66.6286H158.79ZM179.607 69.8449V66.6286H172.857V91H179.924V79.4938C179.924 74.8279 182.506 72.6988 186.402 72.6988C186.945 72.6988 187.398 72.7441 187.987 72.7894V66.2662C184.227 66.2662 181.328 67.4893 179.607 69.8449ZM237.313 66.2662C233.644 66.2662 230.473 67.7611 228.525 70.2526C226.803 67.5799 223.904 66.2662 220.507 66.2662C217.381 66.2662 214.663 67.3534 212.851 69.4372V66.6286H206.101V91H213.168V78.769C213.168 74.4202 215.388 72.3817 218.513 72.3817C221.458 72.3817 223.134 74.1937 223.134 78.1348V91H230.201V78.769C230.201 74.4202 232.421 72.3817 235.592 72.3817C238.445 72.3817 240.212 74.1937 240.212 78.1348V91H247.279V77.0476C247.279 69.6184 243.111 66.2662 237.313 66.2662ZM263.896 66.2662C260 66.2662 256.059 67.3081 253.387 69.2107L255.923 74.1484C257.69 72.7441 260.363 71.8834 262.945 71.8834C266.75 71.8834 268.562 73.6501 268.562 76.6852H262.945C255.516 76.6852 252.481 79.675 252.481 83.9785C252.481 88.1914 255.878 91.3624 261.586 91.3624C265.165 91.3624 267.701 90.1846 269.015 87.9649V91H275.629V77.0929C275.629 69.709 271.325 66.2662 263.896 66.2662ZM263.353 86.6059C260.861 86.6059 259.366 85.4281 259.366 83.6614C259.366 82.0306 260.408 80.8075 263.715 80.8075H268.562V83.299C267.747 85.5187 265.708 86.6059 263.353 86.6059ZM286.328 63.2311C288.956 63.2311 290.722 61.5097 290.722 59.1541C290.722 56.9797 288.956 55.3489 286.328 55.3489C283.701 55.3489 281.934 57.0703 281.934 59.29C281.934 61.5097 283.701 63.2311 286.328 63.2311ZM280.666 100.151C286.555 100.151 289.862 96.5719 289.862 90.9547V66.6286H282.795V91C282.795 93.4009 281.662 94.5334 279.896 94.5334C278.718 94.5334 277.676 94.2163 276.906 93.6727L275.003 98.7916C276.362 99.7429 278.491 100.151 280.666 100.151ZM308.418 91.3624C316.165 91.3624 321.782 86.1529 321.782 78.8143C321.782 71.4757 316.165 66.2662 308.418 66.2662C300.672 66.2662 295.01 71.4757 295.01 78.8143C295.01 86.1529 300.672 91.3624 308.418 91.3624ZM308.418 85.564C304.885 85.564 302.167 83.0272 302.167 78.8143C302.167 74.6014 304.885 72.0646 308.418 72.0646C311.952 72.0646 314.624 74.6014 314.624 78.8143C314.624 83.0272 311.952 85.564 308.418 85.564ZM333.708 69.8449V66.6286H326.958V91H334.025V79.4938C334.025 74.8279 336.607 72.6988 340.503 72.6988C341.047 72.6988 341.5 72.7441 342.089 72.7894V66.2662C338.329 66.2662 335.43 67.4893 333.708 69.8449ZM368.402 91.3624C375.695 91.3624 379.908 88.1461 379.908 83.6161C379.908 74.0125 365.186 78.0442 365.186 73.8766C365.186 72.6082 366.545 71.6116 369.716 71.6116C371.935 71.6116 374.336 72.0646 376.737 73.4236L379.093 68.3953C376.782 67.0363 373.068 66.2662 369.716 66.2662C362.603 66.2662 358.436 69.5278 358.436 74.1484C358.436 83.8879 373.158 79.8109 373.158 83.7973C373.158 85.1563 371.935 86.017 368.674 86.017C365.684 86.017 362.377 85.0657 360.203 83.6614L357.847 88.735C360.112 90.2299 364.28 91.3624 368.402 91.3624ZM402.207 66.6286V78.6784C402.207 83.1631 399.851 85.2469 396.59 85.2469C393.464 85.2469 391.652 83.4349 391.652 79.3579V66.6286H384.585V80.3998C384.585 87.9196 388.889 91.3624 395.004 91.3624C397.994 91.3624 400.712 90.2299 402.569 88.1008V91H409.274V66.6286H402.207ZM423.023 69.8449V66.6286H416.274V91H423.341V79.4938C423.341 74.8279 425.923 72.6988 429.818 72.6988C430.362 72.6988 430.815 72.7441 431.404 72.7894V66.2662C427.644 66.2662 424.745 67.4893 423.023 69.8449ZM454.275 66.6286V69.7543C452.417 67.3987 449.609 66.2662 446.211 66.2662C439.462 66.2662 434.026 70.9321 434.026 78.0442C434.026 85.1563 439.462 89.8222 446.211 89.8222C449.382 89.8222 452.055 88.8256 453.912 86.7871V87.829C453.912 92.2231 451.738 94.4881 446.755 94.4881C443.629 94.4881 440.232 93.4009 438.148 91.7248L435.339 96.7984C438.193 99.0181 442.678 100.151 447.299 100.151C456.087 100.151 460.979 95.983 460.979 86.923V66.6286H454.275ZM447.616 84.0238C443.901 84.0238 441.183 81.6229 441.183 78.0442C441.183 74.4655 443.901 72.0646 447.616 72.0646C451.33 72.0646 454.003 74.4655 454.003 78.0442C454.003 81.6229 451.33 84.0238 447.616 84.0238ZM491.883 78.9049C491.883 71.068 486.356 66.2662 479.199 66.2662C471.769 66.2662 466.197 71.521 466.197 78.8143C466.197 86.0623 471.679 91.3624 480.105 91.3624C484.499 91.3624 487.896 90.0034 490.161 87.4213L486.401 83.3443C484.725 84.9298 482.868 85.6999 480.286 85.6999C476.571 85.6999 473.989 83.8426 473.31 80.8075H491.747C491.792 80.2186 491.883 79.4485 491.883 78.9049ZM479.244 71.6116C482.415 71.6116 484.725 73.6048 485.223 76.6852H473.219C473.717 73.5595 476.028 71.6116 479.244 71.6116ZM503.79 69.8449V66.6286H497.04V91H504.107V79.4938C504.107 74.8279 506.689 72.6988 510.585 72.6988C511.129 72.6988 511.582 72.7441 512.171 72.7894V66.2662C508.411 66.2662 505.512 67.4893 503.79 69.8449ZM520.359 63.2311C522.986 63.2311 524.753 61.5097 524.753 59.1541C524.753 56.9797 522.986 55.3489 520.359 55.3489C517.732 55.3489 515.965 57.0703 515.965 59.29C515.965 61.5097 517.732 63.2311 520.359 63.2311ZM516.826 91H523.892V66.6286H516.826V91ZM554.777 78.9049C554.777 71.068 549.25 66.2662 542.093 66.2662C534.664 66.2662 529.092 71.521 529.092 78.8143C529.092 86.0623 534.573 91.3624 542.999 91.3624C547.393 91.3624 550.791 90.0034 553.056 87.4213L549.296 83.3443C547.62 84.9298 545.762 85.6999 543.18 85.6999C539.466 85.6999 536.884 83.8426 536.204 80.8075H554.641C554.686 80.2186 554.777 79.4485 554.777 78.9049ZM542.138 71.6116C545.309 71.6116 547.62 73.6048 548.118 76.6852H536.113C536.612 73.5595 538.922 71.6116 542.138 71.6116ZM568.134 91.3624C575.427 91.3624 579.64 88.1461 579.64 83.6161C579.64 74.0125 564.918 78.0442 564.918 73.8766C564.918 72.6082 566.277 71.6116 569.448 71.6116C571.668 71.6116 574.068 72.0646 576.469 73.4236L578.825 68.3953C576.515 67.0363 572.8 66.2662 569.448 66.2662C562.336 66.2662 558.168 69.5278 558.168 74.1484C558.168 83.8879 572.891 79.8109 572.891 83.7973C572.891 85.1563 571.668 86.017 568.406 86.017C565.416 86.017 562.109 85.0657 559.935 83.6614L557.579 88.735C559.844 90.2299 564.012 91.3624 568.134 91.3624ZM587.126 91.3624C589.572 91.3624 591.52 89.5051 591.52 86.923C591.52 84.2956 589.572 82.5742 587.126 82.5742C584.68 82.5742 582.732 84.2956 582.732 86.923C582.732 89.5051 584.68 91.3624 587.126 91.3624Z" fill="white"/>
</svg>
