<svg width="24" height="24" viewBox="0 0 24 24" fill="none" xmlns="http://www.w3.org/2000/svg">
<g clip-path="url(#clip0)">
<path d="M11.9785 2.00079e-05C14.3519 -0.00431322 16.6732 0.695299 18.6491 2.0103C20.6249 3.32531 22.1667 5.19673 23.079 7.38784C23.9912 9.57894 24.2331 11.9913 23.7743 14.32C23.3156 16.6486 22.1767 18.7889 20.5015 20.4703C18.8263 22.1516 16.6899 23.2985 14.3629 23.7658C12.036 24.2331 9.62279 23.9999 7.42836 23.0956C5.23393 22.1914 3.35699 20.6566 2.03477 18.6856C0.712551 16.7146 0.00435142 14.3957 1.02757e-05 12.0223C-0.00414995 8.84008 1.25508 5.78641 3.5011 3.53217C5.74713 1.27792 8.79633 0.00748992 11.9785 2.00079e-05ZM22.3603 12.0174C22.3633 9.97408 21.7622 7.97555 20.6324 6.27302C19.5026 4.57048 17.8949 3.23991 16.011 2.44871C14.1271 1.65751 12.0513 1.44099 10.0447 1.82629C8.03807 2.21158 6.18996 3.18143 4.73309 4.6141C3.27623 6.04676 2.27558 7.87824 1.85672 9.87813C1.43786 11.878 1.61972 13.957 2.37925 15.8539C3.13878 17.7508 4.44203 19.3808 6.12539 20.539C7.80876 21.6971 9.79687 22.3317 11.8399 22.3629C13.2122 22.3828 14.5747 22.1299 15.8485 21.6192C17.1224 21.1085 18.2824 20.3499 19.2609 19.3876C20.2394 18.4252 21.0171 17.2782 21.549 16.013C22.0808 14.7478 22.3561 13.3898 22.3591 12.0174H22.3603Z" fill="#034EA2"/>
<path d="M22.3589 12.0173C22.3553 14.0756 21.7388 16.0861 20.5879 17.7927C19.437 19.4992 17.804 20.8244 15.897 21.5991C13.99 22.3738 11.8955 22.5629 9.88057 22.1424C7.86562 21.722 6.02138 20.7109 4.58334 19.2382C3.14531 17.7655 2.17844 15.8979 1.80609 13.8735C1.43374 11.8491 1.67301 9.75959 2.49291 7.87158C3.3128 5.98357 4.6763 4.38256 6.40976 3.27265C8.14323 2.16273 10.168 1.59431 12.2258 1.63973C14.9358 1.70276 17.5135 2.82384 19.4073 4.7633C21.3011 6.70277 22.3605 9.30655 22.3589 12.0173ZM21.2649 12.0173C21.2682 10.1895 20.7312 8.40153 19.7212 6.87822C18.7112 5.35491 17.2732 4.16421 15.5884 3.45575C13.9035 2.74729 12.0468 2.55273 10.2517 2.8965C8.45655 3.24028 6.8032 4.10705 5.49931 5.38787C4.19542 6.66869 3.29912 8.3064 2.92335 10.0951C2.54759 11.8838 2.70918 13.7436 3.38745 15.4408C4.06573 17.138 5.23054 18.597 6.73558 19.6341C8.24062 20.6711 10.0187 21.24 11.8462 21.2694C13.0745 21.2895 14.2945 21.0653 15.4354 20.6097C16.5762 20.1541 17.6151 19.4763 18.4917 18.6156C19.3682 17.7549 20.0647 16.7286 20.5411 15.5962C21.0175 14.4639 21.2638 13.2482 21.2662 12.0197L21.2649 12.0173Z" fill="white"/>
<path d="M21.2664 12.0198C21.2617 13.8598 20.7097 15.6567 19.6804 17.1818C18.6511 18.7069 17.1913 19.8912 15.4867 20.5839C13.7821 21.2766 11.9098 21.4464 10.1084 21.0716C8.307 20.6968 6.65785 19.7944 5.37102 18.4793C4.08419 17.1642 3.21781 15.4958 2.88225 13.6867C2.5467 11.8776 2.75718 10.0096 3.48678 8.32048C4.21637 6.63135 5.43216 5.19745 6.9793 4.20155C8.52645 3.20565 10.335 2.69271 12.1747 2.72803C14.6063 2.77373 16.9225 3.77368 18.6234 5.51201C20.3244 7.25035 21.2735 9.58774 21.2664 12.0198ZM11.4502 11.4641H11.1547C9.803 11.4641 8.45141 11.4641 7.10015 11.4641C6.99688 11.4568 6.89394 11.4811 6.80492 11.534C6.7159 11.5868 6.6451 11.6656 6.60209 11.7598C6.55216 11.8551 6.53255 11.9635 6.5461 12.0703C6.55966 12.1771 6.60579 12.2771 6.67796 12.357C6.74946 12.4311 6.83732 12.4874 6.93464 12.5212C7.03195 12.5551 7.13601 12.5655 7.23812 12.5517C8.76565 12.5517 10.2932 12.5517 11.8207 12.5517C11.9013 12.5516 11.9817 12.5468 12.0618 12.5373C12.191 12.5276 12.3118 12.4692 12.3995 12.3738C12.4872 12.2784 12.5356 12.1532 12.5344 12.0236C12.5369 9.82779 12.5369 7.63164 12.5344 5.43538C12.5367 5.32794 12.5048 5.22251 12.4436 5.13419C12.3824 5.04586 12.2947 4.97921 12.1933 4.94359C12.0972 4.89343 11.9865 4.87946 11.881 4.90443C11.7754 4.9294 11.6822 4.99165 11.6188 5.07958C11.5171 5.22737 11.4607 5.40137 11.456 5.5807C11.4447 7.44594 11.449 9.31126 11.449 11.1771L11.4502 11.4641ZM11.4649 3.82449C11.4632 3.89597 11.4761 3.96712 11.5028 4.03344C11.5295 4.09977 11.5693 4.15986 11.62 4.21027C11.6707 4.26068 11.7313 4.30037 11.7977 4.32668C11.8642 4.35299 11.9352 4.36545 12.0067 4.36339C12.1484 4.35947 12.283 4.30058 12.3821 4.19926C12.4812 4.09794 12.5373 3.9621 12.5381 3.82036C12.5389 3.67862 12.4846 3.54208 12.3867 3.43963C12.2887 3.33717 12.1548 3.27691 12.0131 3.27136C11.9401 3.26906 11.8672 3.28178 11.7993 3.30884C11.7314 3.3359 11.6699 3.3767 11.6185 3.42861C11.567 3.48052 11.5268 3.54236 11.5004 3.61049C11.4739 3.67862 11.4619 3.75147 11.4649 3.82449ZM3.82086 12.5336C3.89238 12.5354 3.96338 12.5226 4.02981 12.496C4.09624 12.4694 4.15671 12.4296 4.20725 12.379C4.25778 12.3283 4.29738 12.2679 4.32381 12.2014C4.35023 12.1349 4.36281 12.0638 4.36083 11.9923C4.35514 11.8518 4.29577 11.7189 4.1947 11.6212C4.09364 11.5235 3.95868 11.4684 3.8181 11.4675C3.67752 11.4665 3.54206 11.5197 3.43966 11.616C3.33726 11.7123 3.27596 11.8444 3.26834 11.9848C3.26576 12.0582 3.27828 12.1314 3.30536 12.1997C3.33244 12.268 3.37339 12.33 3.42559 12.3817C3.47779 12.4335 3.54028 12.4738 3.60884 12.5003C3.67741 12.5267 3.75049 12.5387 3.82391 12.5355L3.82086 12.5336ZM20.1681 12.5336C20.2393 12.5363 20.3105 12.5247 20.3773 12.4997C20.4441 12.4746 20.5053 12.4365 20.5572 12.3875C20.6091 12.3386 20.6506 12.2799 20.6796 12.2147C20.7085 12.1495 20.7242 12.0792 20.7258 12.0079C20.7258 11.8631 20.6682 11.7242 20.5658 11.6218C20.4634 11.5194 20.3245 11.4618 20.1797 11.4618C20.0349 11.4618 19.896 11.5194 19.7936 11.6218C19.6912 11.7242 19.6336 11.8631 19.6336 12.0079C19.6369 12.1485 19.695 12.2823 19.7954 12.3808C19.8958 12.4793 20.0308 12.5348 20.1714 12.5355L20.1681 12.5336ZM12.5329 20.1882C12.5363 20.1149 12.5244 20.0416 12.498 19.9731C12.4716 19.9047 12.4313 19.8424 12.3796 19.7903C12.3279 19.7383 12.2659 19.6976 12.1976 19.6707C12.1293 19.6439 12.0562 19.6315 11.9828 19.6343C11.8424 19.6422 11.7107 19.7037 11.6145 19.8063C11.5183 19.9088 11.4652 20.0445 11.4664 20.1852C11.4676 20.3258 11.523 20.4604 11.6209 20.5613C11.7188 20.6622 11.8518 20.7216 11.9923 20.727C12.0636 20.7286 12.1347 20.7159 12.201 20.6896C12.2673 20.6633 12.3273 20.6239 12.3781 20.5738C12.4288 20.5237 12.469 20.464 12.4962 20.3981C12.5233 20.3321 12.537 20.2614 12.5363 20.1901L12.5329 20.1882Z" fill="#034EA2"/>
<path d="M11.4501 11.4641V11.1733C11.4501 9.30748 11.4458 7.44231 11.4571 5.57708C11.4617 5.39775 11.5182 5.2236 11.6199 5.0758C11.6833 4.98788 11.7765 4.92578 11.882 4.90081C11.9875 4.87584 12.0983 4.88965 12.1944 4.93982C12.2958 4.97544 12.3834 5.04224 12.4446 5.13057C12.5059 5.21889 12.5378 5.32432 12.5355 5.43176C12.5355 7.62761 12.5355 9.8236 12.5355 12.0199C12.5367 12.1495 12.4883 12.2746 12.4006 12.37C12.3129 12.4654 12.1921 12.524 12.0628 12.5337C11.9828 12.5432 11.9024 12.5479 11.8218 12.5481C10.2942 12.5481 8.76673 12.5481 7.2392 12.5481C7.13709 12.5618 7.03303 12.5513 6.93572 12.5175C6.8384 12.4836 6.75054 12.4274 6.67904 12.3532C6.60687 12.2733 6.56104 12.1733 6.54749 12.0665C6.53393 11.9598 6.55324 11.8515 6.60317 11.7561C6.64618 11.662 6.71698 11.5831 6.806 11.5302C6.89502 11.4774 6.99796 11.453 7.10123 11.4603C8.4529 11.4628 9.80449 11.4628 11.1558 11.4603L11.4501 11.4641Z" fill="white"/>
<path d="M11.465 3.82454C11.4631 3.68247 11.5176 3.54547 11.6167 3.44366C11.7158 3.34184 11.8513 3.28358 11.9933 3.28166C12.1354 3.27975 12.2724 3.33445 12.3742 3.43356C12.476 3.53267 12.5344 3.66809 12.5364 3.81016C12.538 3.88128 12.5257 3.95203 12.5 4.01835C12.4742 4.08467 12.4356 4.14532 12.3865 4.19671C12.3373 4.2481 12.2784 4.28924 12.2133 4.31786C12.1482 4.34647 12.0779 4.36198 12.0068 4.36344C11.9353 4.3655 11.8643 4.35304 11.7978 4.32673C11.7314 4.30042 11.6708 4.26073 11.6201 4.21032C11.5694 4.15992 11.5296 4.09982 11.5029 4.03349C11.4762 3.96717 11.4633 3.89602 11.465 3.82454Z" fill="white"/>
<path d="M3.82387 12.5354C3.75215 12.5386 3.68067 12.5272 3.61339 12.5022C3.54612 12.4771 3.48445 12.4389 3.43228 12.3896C3.3801 12.3403 3.33841 12.281 3.3096 12.2152C3.28079 12.1495 3.26551 12.0785 3.26463 12.0067C3.26375 11.935 3.27721 11.8638 3.3044 11.7973C3.33159 11.7309 3.37185 11.6706 3.4228 11.62C3.47374 11.5695 3.53451 11.5296 3.60115 11.5029C3.66779 11.4762 3.73894 11.4632 3.81072 11.4646C3.88183 11.463 3.95274 11.4753 4.01906 11.501C4.08538 11.5268 4.14602 11.5654 4.19742 11.6145C4.24881 11.6637 4.28995 11.7226 4.31857 11.7877C4.34718 11.8528 4.36269 11.9229 4.36415 11.994C4.36613 12.0656 4.35325 12.1368 4.32683 12.2033C4.3004 12.2698 4.2608 12.3301 4.21027 12.3807C4.15973 12.4314 4.09956 12.4713 4.03313 12.4979C3.9667 12.5245 3.8954 12.5372 3.82387 12.5354Z" fill="white"/>
<path d="M20.1714 12.5354C20.0315 12.534 19.8975 12.4783 19.7978 12.3802C19.6981 12.282 19.6405 12.1489 19.6369 12.0091C19.6369 11.8643 19.6942 11.7254 19.7966 11.623C19.899 11.5206 20.0379 11.4631 20.1827 11.4631C20.3275 11.4631 20.4667 11.5206 20.5691 11.623C20.6715 11.7254 20.7288 11.8643 20.7288 12.0091C20.7273 12.0804 20.7118 12.1508 20.6829 12.216C20.654 12.2813 20.6124 12.3402 20.5605 12.3892C20.5086 12.4382 20.4474 12.4764 20.3806 12.5015C20.3138 12.5266 20.2427 12.5381 20.1714 12.5354Z" fill="white"/>
<path d="M12.5362 20.1899C12.5372 20.2611 12.5239 20.3318 12.4971 20.3978C12.4702 20.4638 12.4303 20.5236 12.3799 20.5739C12.3295 20.6241 12.2694 20.6637 12.2034 20.6903C12.1373 20.7169 12.0665 20.7299 11.9953 20.7287C11.8548 20.7232 11.7219 20.6641 11.6239 20.5631C11.526 20.4622 11.4707 20.3275 11.4694 20.1869C11.4682 20.0462 11.5213 19.9105 11.6175 19.808C11.7137 19.7054 11.8458 19.6438 11.9862 19.636C12.0595 19.6332 12.1323 19.6456 12.2006 19.6724C12.2689 19.6993 12.3309 19.7401 12.3827 19.7922C12.4344 19.8443 12.4746 19.9064 12.501 19.9748C12.5275 20.0433 12.5396 20.1166 12.5362 20.1899Z" fill="white"/>
</g>
<defs>
<clipPath id="clip0">
<rect width="24" height="24" fill="white"/>
</clipPath>
</defs>
</svg>
