<svg width="56" height="56" viewBox="0 0 56 56" fill="none" xmlns="http://www.w3.org/2000/svg">
<circle cx="28" cy="28" r="28" fill="white"/>
<path d="M27.991 39.6497C23.6597 39.6497 19.3282 39.6497 14.9964 39.6497C14.7343 39.686 14.4676 39.63 14.2438 39.4917C14.0201 39.3534 13.8539 39.1417 13.775 38.8945C13.7274 38.7125 13.7215 38.5223 13.7578 38.3378C13.7942 38.1533 13.8717 37.9788 13.9849 37.8271C15.1343 35.959 16.2814 34.0894 17.4262 32.2182C20.5923 27.0566 23.7592 21.8948 26.9271 16.7327C27.0164 16.572 27.1282 16.4243 27.2592 16.2937C27.384 16.179 27.5341 16.0941 27.6981 16.0459C27.8621 15.9976 28.0353 15.9873 28.2041 16.0156C28.3728 16.044 28.5325 16.1104 28.6706 16.2095C28.8086 16.3086 28.9212 16.4377 28.9996 16.5866C29.3099 17.0683 29.6004 17.562 29.8998 18.0504L42.0153 37.8064C42.1844 38.0048 42.2808 38.2528 42.2894 38.511C42.2979 38.7692 42.2181 39.0227 42.0624 39.2314C41.9777 39.3445 41.8697 39.439 41.7454 39.5089C41.6212 39.5787 41.4834 39.6224 41.3409 39.6371C41.1936 39.6514 41.0456 39.6568 40.8976 39.6531L27.991 39.6497ZM39.25 37.4808C35.4993 31.3676 31.7675 25.2871 28.0086 19.1612L16.7674 37.4815L39.25 37.4808Z" fill="#034EA2"/>
<path d="M28.0095 19.1611L16.7676 37.4814H39.2502L28.0095 19.1611ZM26.9081 24.6458C26.8947 24.417 26.9575 24.1901 27.0871 23.9992C27.2167 23.8083 27.4063 23.6637 27.6271 23.5871C27.8345 23.5037 28.0641 23.489 28.2809 23.5451C28.4977 23.6012 28.6898 23.7251 28.828 23.898C28.9891 24.1139 29.0837 24.3703 29.1007 24.6372C29.1232 26.4025 29.1198 28.1685 29.1082 29.9344C29.113 30.0795 29.088 30.224 29.0343 30.3593C28.9806 30.4946 28.8993 30.6179 28.7957 30.7217C28.692 30.8255 28.568 30.9078 28.4311 30.9635C28.2941 31.0192 28.1469 31.0472 27.9985 31.0458C27.8502 31.0445 27.7037 31.0138 27.5678 30.9556C27.4319 30.8974 27.3093 30.8129 27.2077 30.7072C27.106 30.6015 27.0274 30.4768 26.9762 30.3406C26.9251 30.2043 26.9027 30.0594 26.9103 29.9144C26.8994 29.0365 26.9103 28.1585 26.9103 27.2805C26.9103 26.4025 26.8986 25.5245 26.9081 24.6458ZM29.0905 34.4184C29.061 34.6756 28.9355 34.913 28.7382 35.0854C28.5409 35.2577 28.2856 35.3528 28.0211 35.3525C27.7515 35.3604 27.4891 35.2674 27.2871 35.0925C27.0851 34.9176 26.9588 34.6739 26.9341 34.4111C26.8952 33.9598 26.8952 33.5061 26.9341 33.0548C26.9611 32.7973 27.0851 32.559 27.2821 32.3863C27.4791 32.2136 27.7348 32.1189 27.9993 32.1207C28.2684 32.1175 28.5292 32.2122 28.7309 32.3866C28.9326 32.5609 29.0608 32.8024 29.0905 33.0641C29.1058 33.2947 29.1073 33.5259 29.0952 33.7566C29.106 33.9772 29.1033 34.1982 29.087 34.4184H29.0905Z" fill="white" stroke="#034EA2" stroke-width="0.566" stroke-miterlimit="10"/>
<path d="M26.9054 27.2806C26.9054 26.4027 26.8986 25.524 26.9054 24.646C26.8919 24.4172 26.9547 24.1903 27.0844 23.9994C27.214 23.8084 27.4033 23.6638 27.6241 23.5872C27.8315 23.5039 28.0612 23.4891 28.2779 23.5451C28.4947 23.6011 28.6867 23.7248 28.825 23.8975C28.9863 24.1136 29.0811 24.3703 29.0979 24.6373C29.1211 26.4026 29.1177 28.1686 29.1061 29.9339C29.111 30.079 29.0858 30.2235 29.0322 30.3589C28.9785 30.4942 28.8975 30.6174 28.7939 30.7213C28.6903 30.8252 28.5661 30.9075 28.4291 30.9632C28.2921 31.019 28.1451 31.047 27.9967 31.0457C27.8484 31.0444 27.7019 31.0138 27.566 30.9556C27.4301 30.8975 27.3074 30.813 27.2057 30.7073C27.104 30.6017 27.0253 30.477 26.9741 30.3407C26.923 30.2045 26.9004 30.0595 26.908 29.9146C26.8971 29.0366 26.9054 28.1586 26.9054 27.2806Z" fill="#034EA2"/>
<path d="M29.091 33.7545C29.1033 33.9757 29.1019 34.1974 29.0868 34.4184C29.0573 34.6755 28.932 34.9129 28.7347 35.0853C28.5374 35.2576 28.2821 35.3527 28.0176 35.3524C27.748 35.3603 27.4854 35.2673 27.2834 35.0924C27.0814 34.9175 26.9553 34.6738 26.9306 34.411C26.8916 33.9597 26.8916 33.506 26.9306 33.0547C26.958 32.7974 27.0822 32.5594 27.2791 32.3867C27.4759 32.2141 27.7314 32.1193 27.9958 32.1207C28.2649 32.1177 28.5256 32.2127 28.7272 32.3871C28.9288 32.5615 29.0569 32.803 29.0868 33.0647C29.1019 33.2953 29.1033 33.5265 29.091 33.7572V33.7545Z" fill="#034EA2"/>
<path d="M12 18.875L44 40" stroke="#034EA2" stroke-width="2.168" stroke-miterlimit="10"/>
</svg>
