<svg width="143" height="38" viewBox="0 0 143 38" fill="none" xmlns="http://www.w3.org/2000/svg">
<path d="M35.3874 25L32.9714 21.56C32.6727 21.5813 32.438 21.592 32.2674 21.592H29.4994V25H27.8994V13.8H32.2674C33.718 13.8 34.8594 14.1467 35.6914 14.84C36.5234 15.5333 36.9394 16.488 36.9394 17.704C36.9394 18.568 36.726 19.304 36.2994 19.912C35.8727 20.52 35.2647 20.9627 34.4754 21.24L37.1314 25H35.3874ZM32.2194 20.232C33.2327 20.232 34.006 20.0133 34.5394 19.576C35.0727 19.1387 35.3394 18.5147 35.3394 17.704C35.3394 16.8933 35.0727 16.2747 34.5394 15.848C34.006 15.4107 33.2327 15.192 32.2194 15.192H29.4994V20.232H32.2194ZM47.1244 20.808C47.1244 20.9253 47.1137 21.08 47.0924 21.272H40.2124C40.3084 22.0187 40.6337 22.6213 41.1884 23.08C41.7537 23.528 42.4524 23.752 43.2844 23.752C44.2977 23.752 45.1137 23.4107 45.7324 22.728L46.5804 23.72C46.1964 24.168 45.7164 24.5093 45.1404 24.744C44.575 24.9787 43.9404 25.096 43.2364 25.096C42.3404 25.096 41.5457 24.9147 40.8524 24.552C40.159 24.1787 39.6204 23.6613 39.2364 23C38.863 22.3387 38.6764 21.592 38.6764 20.76C38.6764 19.9387 38.8577 19.1973 39.2204 18.536C39.5937 17.8747 40.1004 17.3627 40.7404 17C41.391 16.6267 42.1217 16.44 42.9324 16.44C43.743 16.44 44.463 16.6267 45.0924 17C45.7324 17.3627 46.2284 17.8747 46.5804 18.536C46.943 19.1973 47.1244 19.9547 47.1244 20.808ZM42.9324 17.736C42.1964 17.736 41.5777 17.96 41.0764 18.408C40.5857 18.856 40.2977 19.4427 40.2124 20.168H45.6524C45.567 19.4533 45.2737 18.872 44.7724 18.424C44.2817 17.9653 43.6684 17.736 42.9324 17.736ZM52.2709 16.44C53.4442 16.44 54.3402 16.728 54.9589 17.304C55.5882 17.88 55.9029 18.7387 55.9029 19.88V25H54.4469V23.88C54.1909 24.2747 53.8229 24.5787 53.3429 24.792C52.8735 24.9947 52.3135 25.096 51.6629 25.096C50.7135 25.096 49.9509 24.8667 49.3749 24.408C48.8095 23.9493 48.5269 23.3467 48.5269 22.6C48.5269 21.8533 48.7989 21.256 49.3429 20.808C49.8869 20.3493 50.7509 20.12 51.9349 20.12H54.3669V19.816C54.3669 19.1547 54.1749 18.648 53.7909 18.296C53.4069 17.944 52.8415 17.768 52.0949 17.768C51.5935 17.768 51.1029 17.8533 50.6229 18.024C50.1429 18.184 49.7375 18.4027 49.4069 18.68L48.7669 17.528C49.2042 17.176 49.7269 16.9093 50.3349 16.728C50.9429 16.536 51.5882 16.44 52.2709 16.44ZM51.9189 23.912C52.5055 23.912 53.0122 23.784 53.4389 23.528C53.8655 23.2613 54.1749 22.888 54.3669 22.408V21.224H51.9989C50.6975 21.224 50.0469 21.6613 50.0469 22.536C50.0469 22.9627 50.2122 23.2987 50.5429 23.544C50.8735 23.7893 51.3322 23.912 51.9189 23.912ZM66.9523 13.128V25H65.4803V23.656C65.1389 24.1253 64.7069 24.4827 64.1843 24.728C63.6616 24.9733 63.0856 25.096 62.4563 25.096C61.6349 25.096 60.8989 24.9147 60.2483 24.552C59.5976 24.1893 59.0856 23.6827 58.7123 23.032C58.3496 22.3707 58.1683 21.6133 58.1683 20.76C58.1683 19.9067 58.3496 19.1547 58.7123 18.504C59.0856 17.8533 59.5976 17.3467 60.2483 16.984C60.8989 16.6213 61.6349 16.44 62.4563 16.44C63.0643 16.44 63.6243 16.5573 64.1363 16.792C64.6483 17.016 65.0749 17.352 65.4163 17.8V13.128H66.9523ZM62.5843 23.752C63.1176 23.752 63.6029 23.6293 64.0403 23.384C64.4776 23.128 64.8189 22.776 65.0643 22.328C65.3096 21.8693 65.4323 21.3467 65.4323 20.76C65.4323 20.1733 65.3096 19.656 65.0643 19.208C64.8189 18.7493 64.4776 18.3973 64.0403 18.152C63.6029 17.9067 63.1176 17.784 62.5843 17.784C62.0403 17.784 61.5496 17.9067 61.1123 18.152C60.6856 18.3973 60.3443 18.7493 60.0883 19.208C59.8429 19.656 59.7203 20.1733 59.7203 20.76C59.7203 21.3467 59.8429 21.8693 60.0883 22.328C60.3443 22.776 60.6856 23.128 61.1123 23.384C61.5496 23.6293 62.0403 23.752 62.5843 23.752ZM85.0834 16.44C86.15 16.44 86.9927 16.7493 87.6114 17.368C88.2407 17.9867 88.5554 18.904 88.5554 20.12V25H87.0194V20.296C87.0194 19.4747 86.8274 18.856 86.4434 18.44C86.07 18.024 85.5314 17.816 84.8274 17.816C84.0487 17.816 83.43 18.0613 82.9714 18.552C82.5127 19.032 82.2834 19.7253 82.2834 20.632V25H80.7474V20.296C80.7474 19.4747 80.5554 18.856 80.1714 18.44C79.798 18.024 79.2594 17.816 78.5554 17.816C77.7767 17.816 77.158 18.0613 76.6994 18.552C76.2407 19.032 76.0114 19.7253 76.0114 20.632V25H74.4754V16.52H75.9474V17.784C76.2567 17.3467 76.662 17.016 77.1634 16.792C77.6647 16.5573 78.2354 16.44 78.8754 16.44C79.5367 16.44 80.1234 16.5733 80.6354 16.84C81.1474 17.1067 81.542 17.496 81.8194 18.008C82.1394 17.5173 82.582 17.1333 83.1474 16.856C83.7234 16.5787 84.3687 16.44 85.0834 16.44ZM95.2205 25.096C94.3778 25.096 93.6205 24.9093 92.9485 24.536C92.2765 24.1627 91.7485 23.6507 91.3645 23C90.9912 22.3387 90.8045 21.592 90.8045 20.76C90.8045 19.928 90.9912 19.1867 91.3645 18.536C91.7485 17.8747 92.2765 17.3627 92.9485 17C93.6205 16.6267 94.3778 16.44 95.2205 16.44C96.0632 16.44 96.8152 16.6267 97.4765 17C98.1485 17.3627 98.6712 17.8747 99.0445 18.536C99.4285 19.1867 99.6205 19.928 99.6205 20.76C99.6205 21.592 99.4285 22.3387 99.0445 23C98.6712 23.6507 98.1485 24.1627 97.4765 24.536C96.8152 24.9093 96.0632 25.096 95.2205 25.096ZM95.2205 23.752C95.7645 23.752 96.2498 23.6293 96.6765 23.384C97.1138 23.128 97.4552 22.776 97.7005 22.328C97.9458 21.8693 98.0685 21.3467 98.0685 20.76C98.0685 20.1733 97.9458 19.656 97.7005 19.208C97.4552 18.7493 97.1138 18.3973 96.6765 18.152C96.2498 17.9067 95.7645 17.784 95.2205 17.784C94.6765 17.784 94.1858 17.9067 93.7485 18.152C93.3218 18.3973 92.9805 18.7493 92.7245 19.208C92.4792 19.656 92.3565 20.1733 92.3565 20.76C92.3565 21.3467 92.4792 21.8693 92.7245 22.328C92.9805 22.776 93.3218 23.128 93.7485 23.384C94.1858 23.6293 94.6765 23.752 95.2205 23.752ZM103.377 17.944C103.643 17.4533 104.038 17.08 104.561 16.824C105.083 16.568 105.718 16.44 106.465 16.44V17.928C106.379 17.9173 106.262 17.912 106.113 17.912C105.281 17.912 104.625 18.1627 104.145 18.664C103.675 19.1547 103.441 19.8587 103.441 20.776V25H101.905V16.52H103.377V17.944ZM116.104 20.808C116.104 20.9253 116.093 21.08 116.072 21.272H109.192C109.288 22.0187 109.613 22.6213 110.168 23.08C110.733 23.528 111.432 23.752 112.264 23.752C113.277 23.752 114.093 23.4107 114.712 22.728L115.56 23.72C115.176 24.168 114.696 24.5093 114.12 24.744C113.554 24.9787 112.92 25.096 112.216 25.096C111.32 25.096 110.525 24.9147 109.832 24.552C109.138 24.1787 108.6 23.6613 108.216 23C107.842 22.3387 107.656 21.592 107.656 20.76C107.656 19.9387 107.837 19.1973 108.2 18.536C108.573 17.8747 109.08 17.3627 109.72 17C110.37 16.6267 111.101 16.44 111.912 16.44C112.722 16.44 113.442 16.6267 114.072 17C114.712 17.3627 115.208 17.8747 115.56 18.536C115.922 19.1973 116.104 19.9547 116.104 20.808ZM111.912 17.736C111.176 17.736 110.557 17.96 110.056 18.408C109.565 18.856 109.277 19.4427 109.192 20.168H114.632C114.546 19.4533 114.253 18.872 113.752 18.424C113.261 17.9653 112.648 17.736 111.912 17.736Z" fill="white"/>
<rect x="0.5" y="0.5" width="142" height="37" rx="18.5" stroke="white"/>
</svg>
