<svg width="56" height="56" viewBox="0 0 56 56" fill="none" xmlns="http://www.w3.org/2000/svg">
<circle cx="28" cy="28" r="28" fill="white"/>
<path d="M24.2897 28.9028C25.0769 29.6901 25.8586 30.4646 26.6261 31.2519C26.6614 31.3015 26.6859 31.358 26.698 31.4178C26.7101 31.4775 26.7097 31.5391 26.6965 31.5986C26.4655 32.5649 26.0161 33.4654 25.3828 34.2309C23.3699 36.7447 20.6609 38.6097 17.5943 39.5929C16.6281 39.9568 15.5849 40.0679 14.5638 39.9156C14.3291 39.8733 14.0169 39.8592 14 39.5668C14.0126 39.3465 14.1071 39.1388 14.265 38.9846C17.272 35.9372 20.2847 32.8966 23.303 29.8627C23.618 29.5463 23.9429 29.2397 24.2897 28.9028Z" fill="#034EA2"/>
<path d="M23.3169 39.958C23.004 39.958 22.6903 39.9615 22.3767 39.958C22.1477 39.9537 22.0335 39.8438 22.0243 39.5999C21.9926 38.91 22.0588 38.8332 22.7566 38.8332C23.2266 38.8332 23.6967 38.8289 24.1661 38.8332C24.5643 38.8374 24.6524 38.9466 24.6531 39.4125C24.6538 39.8783 24.5876 39.9523 24.1866 39.958C23.8969 39.9622 23.6079 39.958 23.3183 39.958H23.3169Z" fill="#034EA2"/>
<path d="M36.7721 39.9587C36.4578 39.9587 36.1434 39.9587 35.8291 39.9587C35.7745 39.9666 35.7188 39.9614 35.6666 39.9434C35.6144 39.9254 35.5672 39.8953 35.529 39.8555C35.4908 39.8156 35.4628 39.7672 35.447 39.7143C35.4313 39.6614 35.4284 39.6056 35.4386 39.5514C35.4527 39.2617 35.3477 38.8748 35.791 38.8466C36.419 38.8145 37.0483 38.8145 37.6763 38.8466C38.004 38.8593 38.1245 39.1137 38.0928 39.6028C38.0744 39.8847 37.8814 39.9552 37.6425 39.9601C37.3507 39.9601 37.0625 39.9587 36.7721 39.9587Z" fill="#034EA2"/>
<path d="M32.3313 38.893C32.633 38.893 32.9339 38.8888 33.2355 38.893C33.2929 38.8855 33.3511 38.8916 33.4057 38.9107C33.4603 38.9297 33.5097 38.9613 33.5498 39.0029C33.59 39.0445 33.6198 39.0949 33.637 39.1501C33.6541 39.2053 33.6581 39.2638 33.6486 39.3208C33.6408 39.7979 33.5435 39.9833 33.232 39.9897C32.6174 40.0009 32.0029 40.0009 31.3883 39.9897C30.9908 39.984 30.9909 39.6915 30.9845 39.3997C30.9782 39.108 31.0494 38.8945 31.3912 38.8916C31.7048 38.8874 32.0177 38.893 32.3313 38.893Z" fill="#034EA2"/>
<path d="M27.862 38.8929C28.1746 38.8768 28.488 38.8815 28.8001 38.907C28.8721 38.924 28.9389 38.9587 28.9942 39.0079C29.0496 39.0571 29.0918 39.1194 29.1172 39.189C29.1637 39.7422 29.2271 40.0347 28.4484 39.9966C27.955 39.9727 27.4617 39.9966 26.9684 39.9903C26.6012 39.9867 26.5165 39.8832 26.5151 39.4624C26.5151 38.9937 26.5857 38.8986 26.9599 38.8908C27.2587 38.8873 27.5603 38.8922 27.862 38.8929Z" fill="#034EA2"/>
<path d="M41.2488 38.8937C41.5624 38.8937 41.8768 38.8937 42.1904 38.8937C42.4723 38.8902 42.5787 39.041 42.5766 39.3011C42.5766 39.5781 42.6224 39.9227 42.2313 39.9431C41.5695 39.9776 40.9042 39.9579 40.2403 39.9466C40.1613 39.9466 40.0233 39.8607 40.0169 39.8022C39.9732 39.547 39.9732 39.2863 40.0169 39.0312C40.0359 38.9522 40.3207 38.9134 40.4877 38.8986C40.7393 38.8768 40.9944 38.893 41.2481 38.893L41.2488 38.8937Z" fill="#034EA2"/>
<path d="M39.2536 17.9112C38.7175 17.3709 38.1793 16.8324 37.6389 16.2958C37.2436 15.9026 37.185 15.9019 36.7995 16.2909C33.8042 19.3097 30.8089 22.3287 27.8136 25.348C27.0299 26.1366 26.2406 26.9196 25.4562 27.7076C25.1644 28.0007 25.1651 28.1121 25.4498 28.3982C26.0136 28.962 26.5775 29.5259 27.1413 30.0897C27.2543 30.1868 27.3737 30.2763 27.4986 30.3575C27.617 30.2862 27.7295 30.2053 27.8348 30.1158C31.6448 26.3039 35.4527 22.4899 39.2585 18.6738C39.563 18.3714 39.5602 18.2178 39.2536 17.9112ZM34.1911 21.9432C34.1232 22.0281 34.0503 22.1088 33.9727 22.1849C32.2916 23.8849 30.6095 25.5841 28.9265 27.2826C28.6016 27.6096 28.4769 27.6194 28.1971 27.3692C27.887 27.0916 27.8813 26.9541 28.1759 26.6588C29.9181 24.9162 31.6627 23.1759 33.4096 21.4379C33.4715 21.3752 33.5464 21.3269 33.6292 21.2964C33.7119 21.266 33.8003 21.2541 33.8881 21.2617C34.0671 21.3223 34.1961 21.5267 34.3511 21.6733C34.3037 21.766 34.2512 21.8561 34.194 21.9432H34.1911Z" fill="#034EA2"/>
</svg>
