<svg width="653" height="52" viewBox="0 0 653 52" fill="none" xmlns="http://www.w3.org/2000/svg">
<path d="M19.98 2L16.12 13.44L12.26 2H10.42L6.48 13.38L2.7 2H0.64L5.32 16H7.46L11.28 4.82L15.1 16H17.2L21.88 2H19.98ZM33.2258 10.76C33.2258 7.5 31.0458 5.3 27.9858 5.3C24.9258 5.3 22.6658 7.56 22.6658 10.7C22.6658 13.86 24.9458 16.12 28.3658 16.12C30.1258 16.12 31.5858 15.52 32.5458 14.4L31.4858 13.16C30.7058 14.02 29.6658 14.44 28.4258 14.44C26.3258 14.44 24.8258 13.2 24.5858 11.34H33.1858C33.2058 11.16 33.2258 10.92 33.2258 10.76ZM27.9858 6.92C29.8458 6.92 31.1858 8.18 31.3858 9.96H24.5858C24.7858 8.16 26.1458 6.92 27.9858 6.92ZM45.923 5.3C44.223 5.3 42.643 5.78 41.543 6.66L42.343 8.1C43.163 7.4 44.443 6.96 45.703 6.96C47.603 6.96 48.543 7.9 48.543 9.52V9.9H45.503C42.343 9.9 41.243 11.3 41.243 13C41.243 14.84 42.763 16.12 45.163 16.12C46.823 16.12 48.003 15.56 48.643 14.6V16H50.463V9.6C50.463 6.7 48.823 5.3 45.923 5.3ZM45.483 14.64C44.023 14.64 43.143 13.98 43.143 12.92C43.143 12.02 43.683 11.28 45.583 11.28H48.543V12.76C48.063 13.98 46.923 14.64 45.483 14.64ZM56.2561 7.18V5.4H54.4161V16H56.3361V10.72C56.3361 8.4 57.6161 7.14 59.6761 7.14C59.8161 7.14 59.9561 7.14 60.1161 7.16V5.3C58.2561 5.3 56.9361 5.94 56.2561 7.18ZM72.3648 10.76C72.3648 7.5 70.1848 5.3 67.1248 5.3C64.0648 5.3 61.8048 7.56 61.8048 10.7C61.8048 13.86 64.0848 16.12 67.5048 16.12C69.2648 16.12 70.7248 15.52 71.6848 14.4L70.6248 13.16C69.8448 14.02 68.8048 14.44 67.5648 14.44C65.4648 14.44 63.9648 13.2 63.7248 11.34H72.3248C72.3448 11.16 72.3648 10.92 72.3648 10.76ZM67.1248 6.92C68.9848 6.92 70.3248 8.18 70.5248 9.96H63.7248C63.9248 8.16 65.2848 6.92 67.1248 6.92ZM85.062 5.3C83.362 5.3 81.782 5.78 80.682 6.66L81.482 8.1C82.302 7.4 83.582 6.96 84.842 6.96C86.742 6.96 87.682 7.9 87.682 9.52V9.9H84.642C81.482 9.9 80.382 11.3 80.382 13C80.382 14.84 81.902 16.12 84.302 16.12C85.962 16.12 87.142 15.56 87.782 14.6V16H89.602V9.6C89.602 6.7 87.962 5.3 85.062 5.3ZM84.622 14.64C83.162 14.64 82.282 13.98 82.282 12.92C82.282 12.02 82.822 11.28 84.722 11.28H87.682V12.76C87.202 13.98 86.062 14.64 84.622 14.64ZM106.815 5.3C105.015 5.3 103.535 6.06 102.735 7.26C102.035 5.94 100.675 5.3 99.0552 5.3C97.4552 5.3 96.1552 5.9 95.3952 6.98V5.4H93.5552V16H95.4752V10.54C95.4752 8.24 96.7352 7.02 98.6552 7.02C100.395 7.02 101.395 8.04 101.395 10.12V16H103.315V10.54C103.315 8.24 104.575 7.02 106.495 7.02C108.235 7.02 109.235 8.04 109.235 10.12V16H111.155V9.9C111.155 6.78 109.395 5.3 106.815 5.3ZM119.687 16.12C122.867 16.12 125.187 13.86 125.187 10.7C125.187 7.54 122.867 5.3 119.687 5.3C116.507 5.3 114.167 7.54 114.167 10.7C114.167 13.86 116.507 16.12 119.687 16.12ZM119.687 14.44C117.647 14.44 116.107 12.96 116.107 10.7C116.107 8.44 117.647 6.98 119.687 6.98C121.727 6.98 123.247 8.44 123.247 10.7C123.247 12.96 121.727 14.44 119.687 14.44ZM133.902 5.3C132.222 5.3 130.862 5.92 130.082 7V5.4H128.242V16H130.162V10.54C130.162 8.24 131.482 7.02 133.522 7.02C135.342 7.02 136.382 8.04 136.382 10.12V16H138.302V9.9C138.302 6.78 136.482 5.3 133.902 5.3ZM150.634 5.4V7.04C149.734 5.88 148.294 5.3 146.714 5.3C143.654 5.3 141.334 7.36 141.334 10.42C141.334 13.48 143.654 15.56 146.714 15.56C148.234 15.56 149.614 15.02 150.534 13.92V14.76C150.534 17.16 149.394 18.32 146.894 18.32C145.334 18.32 143.794 17.78 142.814 16.94L141.894 18.42C143.054 19.46 145.014 20 146.954 20C150.554 20 152.454 18.3 152.454 14.56V5.4H150.634ZM146.934 13.88C144.794 13.88 143.274 12.46 143.274 10.42C143.274 8.36 144.794 6.98 146.934 6.98C149.054 6.98 150.574 8.36 150.574 10.42C150.574 12.46 149.054 13.88 146.934 13.88ZM159.562 16.12C162.382 16.12 164.142 14.9 164.142 12.98C164.142 8.86 157.422 10.9 157.422 8.4C157.422 7.56 158.242 6.94 159.922 6.94C160.962 6.94 162.022 7.16 162.982 7.78L163.802 6.26C162.882 5.66 161.322 5.3 159.942 5.3C157.222 5.3 155.522 6.58 155.522 8.48C155.522 12.7 162.222 10.64 162.222 13.02C162.222 13.92 161.482 14.46 159.702 14.46C158.322 14.46 156.882 14 155.982 13.36L155.182 14.88C156.062 15.58 157.802 16.12 159.562 16.12ZM172.302 14C171.902 14.32 171.362 14.5 170.802 14.5C169.742 14.5 169.142 13.86 169.142 12.72V6.98H172.182V5.4H169.142V3.08H167.222V5.4H165.422V6.98H167.222V12.8C167.222 14.94 168.442 16.12 170.582 16.12C171.442 16.12 172.322 15.88 172.902 15.38L172.302 14ZM186.754 14C186.354 14.32 185.814 14.5 185.254 14.5C184.194 14.5 183.594 13.86 183.594 12.72V6.98H186.634V5.4H183.594V3.08H181.674V5.4H179.874V6.98H181.674V12.8C181.674 14.94 182.894 16.12 185.034 16.12C185.894 16.12 186.774 15.88 187.354 15.38L186.754 14ZM195.735 5.3C194.115 5.3 192.795 5.88 191.995 6.9V1.16H190.075V16H191.995V10.54C191.995 8.24 193.315 7.02 195.355 7.02C197.175 7.02 198.215 8.04 198.215 10.12V16H200.135V9.9C200.135 6.78 198.315 5.3 195.735 5.3ZM213.727 10.76C213.727 7.5 211.547 5.3 208.487 5.3C205.427 5.3 203.167 7.56 203.167 10.7C203.167 13.86 205.447 16.12 208.867 16.12C210.627 16.12 212.087 15.52 213.047 14.4L211.987 13.16C211.207 14.02 210.167 14.44 208.927 14.44C206.827 14.44 205.327 13.2 205.087 11.34H213.687C213.707 11.16 213.727 10.92 213.727 10.76ZM208.487 6.92C210.347 6.92 211.687 8.18 211.887 9.96H205.087C205.287 8.16 206.647 6.92 208.487 6.92ZM235.825 5.3C234.025 5.3 232.545 6.06 231.745 7.26C231.045 5.94 229.685 5.3 228.065 5.3C226.465 5.3 225.165 5.9 224.405 6.98V5.4H222.565V16H224.485V10.54C224.485 8.24 225.745 7.02 227.665 7.02C229.405 7.02 230.405 8.04 230.405 10.12V16H232.325V10.54C232.325 8.24 233.585 7.02 235.505 7.02C237.245 7.02 238.245 8.04 238.245 10.12V16H240.165V9.9C240.165 6.78 238.405 5.3 235.825 5.3ZM248.696 16.12C251.876 16.12 254.196 13.86 254.196 10.7C254.196 7.54 251.876 5.3 248.696 5.3C245.516 5.3 243.176 7.54 243.176 10.7C243.176 13.86 245.516 16.12 248.696 16.12ZM248.696 14.44C246.656 14.44 245.116 12.96 245.116 10.7C245.116 8.44 246.656 6.98 248.696 6.98C250.736 6.98 252.256 8.44 252.256 10.7C252.256 12.96 250.736 14.44 248.696 14.44ZM260.291 16.12C263.111 16.12 264.871 14.9 264.871 12.98C264.871 8.86 258.151 10.9 258.151 8.4C258.151 7.56 258.971 6.94 260.651 6.94C261.691 6.94 262.751 7.16 263.711 7.78L264.531 6.26C263.611 5.66 262.051 5.3 260.671 5.3C257.951 5.3 256.251 6.58 256.251 8.48C256.251 12.7 262.951 10.64 262.951 13.02C262.951 13.92 262.211 14.46 260.431 14.46C259.051 14.46 257.611 14 256.711 13.36L255.911 14.88C256.791 15.58 258.531 16.12 260.291 16.12ZM273.031 14C272.631 14.32 272.091 14.5 271.531 14.5C270.471 14.5 269.871 13.86 269.871 12.72V6.98H272.911V5.4H269.871V3.08H267.951V5.4H266.151V6.98H267.951V12.8C267.951 14.94 269.171 16.12 271.311 16.12C272.171 16.12 273.051 15.88 273.631 15.38L273.031 14ZM283.963 7.18V5.4H282.123V16H284.043V10.72C284.043 8.4 285.323 7.14 287.383 7.14C287.523 7.14 287.663 7.14 287.823 7.16V5.3C285.963 5.3 284.643 5.94 283.963 7.18ZM300.072 10.76C300.072 7.5 297.892 5.3 294.832 5.3C291.772 5.3 289.512 7.56 289.512 10.7C289.512 13.86 291.792 16.12 295.212 16.12C296.972 16.12 298.432 15.52 299.392 14.4L298.332 13.16C297.552 14.02 296.512 14.44 295.272 14.44C293.172 14.44 291.672 13.2 291.432 11.34H300.032C300.052 11.16 300.072 10.92 300.072 10.76ZM294.832 6.92C296.692 6.92 298.032 8.18 298.232 9.96H291.432C291.632 8.16 292.992 6.92 294.832 6.92ZM306.178 16.12C308.998 16.12 310.758 14.9 310.758 12.98C310.758 8.86 304.038 10.9 304.038 8.4C304.038 7.56 304.858 6.94 306.538 6.94C307.578 6.94 308.638 7.16 309.598 7.78L310.418 6.26C309.498 5.66 307.938 5.3 306.558 5.3C303.838 5.3 302.138 6.58 302.138 8.48C302.138 12.7 308.838 10.64 308.838 13.02C308.838 13.92 308.098 14.46 306.318 14.46C304.938 14.46 303.498 14 302.598 13.36L301.798 14.88C302.678 15.58 304.418 16.12 306.178 16.12ZM319.177 5.3C317.617 5.3 316.257 5.9 315.397 7.08V5.4H313.557V19.88H315.477V14.4C316.357 15.54 317.677 16.12 319.177 16.12C322.277 16.12 324.537 13.96 324.537 10.7C324.537 7.46 322.277 5.3 319.177 5.3ZM319.017 14.44C316.997 14.44 315.457 12.96 315.457 10.7C315.457 8.46 316.997 6.98 319.017 6.98C321.057 6.98 322.597 8.46 322.597 10.7C322.597 12.96 321.057 14.44 319.017 14.44ZM337.17 10.76C337.17 7.5 334.99 5.3 331.93 5.3C328.87 5.3 326.61 7.56 326.61 10.7C326.61 13.86 328.89 16.12 332.31 16.12C334.07 16.12 335.53 15.52 336.49 14.4L335.43 13.16C334.65 14.02 333.61 14.44 332.37 14.44C330.27 14.44 328.77 13.2 328.53 11.34H337.13C337.15 11.16 337.17 10.92 337.17 10.76ZM331.93 6.92C333.79 6.92 335.13 8.18 335.33 9.96H328.53C328.73 8.16 330.09 6.92 331.93 6.92ZM344.856 16.12C346.756 16.12 348.336 15.32 349.176 13.84L347.716 12.92C347.036 13.96 345.996 14.44 344.836 14.44C342.756 14.44 341.196 13 341.196 10.7C341.196 8.44 342.756 6.98 344.836 6.98C345.996 6.98 347.036 7.46 347.716 8.5L349.176 7.56C348.336 6.08 346.756 5.3 344.856 5.3C341.596 5.3 339.256 7.54 339.256 10.7C339.256 13.86 341.596 16.12 344.856 16.12ZM357.559 14C357.159 14.32 356.619 14.5 356.059 14.5C354.999 14.5 354.399 13.86 354.399 12.72V6.98H357.439V5.4H354.399V3.08H352.479V5.4H350.679V6.98H352.479V12.8C352.479 14.94 353.699 16.12 355.839 16.12C356.699 16.12 357.579 15.88 358.159 15.38L357.559 14ZM370.109 10.76C370.109 7.5 367.929 5.3 364.869 5.3C361.809 5.3 359.549 7.56 359.549 10.7C359.549 13.86 361.829 16.12 365.249 16.12C367.009 16.12 368.469 15.52 369.429 14.4L368.369 13.16C367.589 14.02 366.549 14.44 365.309 14.44C363.209 14.44 361.709 13.2 361.469 11.34H370.069C370.089 11.16 370.109 10.92 370.109 10.76ZM364.869 6.92C366.729 6.92 368.069 8.18 368.269 9.96H361.469C361.669 8.16 363.029 6.92 364.869 6.92ZM381.255 1.16V7C380.375 5.86 379.055 5.3 377.555 5.3C374.455 5.3 372.195 7.46 372.195 10.7C372.195 13.94 374.455 16.12 377.555 16.12C379.115 16.12 380.475 15.52 381.335 14.32V16H383.175V1.16H381.255ZM377.715 14.44C375.675 14.44 374.135 12.96 374.135 10.7C374.135 8.44 375.675 6.98 377.715 6.98C379.735 6.98 381.275 8.44 381.275 10.7C381.275 12.96 379.735 14.44 377.715 14.44ZM398.639 5.3C397.019 5.3 395.699 5.88 394.899 6.9V1.16H392.979V16H394.899V10.54C394.899 8.24 396.219 7.02 398.259 7.02C400.079 7.02 401.119 8.04 401.119 10.12V16H403.039V9.9C403.039 6.78 401.219 5.3 398.639 5.3ZM411.59 16.12C414.77 16.12 417.09 13.86 417.09 10.7C417.09 7.54 414.77 5.3 411.59 5.3C408.41 5.3 406.07 7.54 406.07 10.7C406.07 13.86 408.41 16.12 411.59 16.12ZM411.59 14.44C409.55 14.44 408.01 12.96 408.01 10.7C408.01 8.44 409.55 6.98 411.59 6.98C413.63 6.98 415.15 8.44 415.15 10.7C415.15 12.96 413.63 14.44 411.59 14.44ZM423.186 16.12C426.006 16.12 427.766 14.9 427.766 12.98C427.766 8.86 421.046 10.9 421.046 8.4C421.046 7.56 421.866 6.94 423.546 6.94C424.586 6.94 425.646 7.16 426.606 7.78L427.426 6.26C426.506 5.66 424.946 5.3 423.566 5.3C420.846 5.3 419.146 6.58 419.146 8.48C419.146 12.7 425.846 10.64 425.846 13.02C425.846 13.92 425.106 14.46 423.326 14.46C421.946 14.46 420.506 14 419.606 13.36L418.806 14.88C419.686 15.58 421.426 16.12 423.186 16.12ZM436.185 5.3C434.625 5.3 433.265 5.9 432.405 7.08V5.4H430.565V19.88H432.485V14.4C433.365 15.54 434.685 16.12 436.185 16.12C439.285 16.12 441.545 13.96 441.545 10.7C441.545 7.46 439.285 5.3 436.185 5.3ZM436.025 14.44C434.005 14.44 432.465 12.96 432.465 10.7C432.465 8.46 434.005 6.98 436.025 6.98C438.065 6.98 439.605 8.46 439.605 10.7C439.605 12.96 438.065 14.44 436.025 14.44ZM445.558 3.36C446.318 3.36 446.858 2.8 446.858 2.08C446.858 1.4 446.298 0.859999 445.558 0.859999C444.818 0.859999 444.258 1.42 444.258 2.12C444.258 2.82 444.818 3.36 445.558 3.36ZM444.598 16H446.518V5.4H444.598V16ZM455.944 14C455.544 14.32 455.004 14.5 454.444 14.5C453.384 14.5 452.784 13.86 452.784 12.72V6.98H455.824V5.4H452.784V3.08H450.864V5.4H449.064V6.98H450.864V12.8C450.864 14.94 452.084 16.12 454.224 16.12C455.084 16.12 455.964 15.88 456.544 15.38L455.944 14ZM463.125 5.3C461.425 5.3 459.845 5.78 458.745 6.66L459.545 8.1C460.365 7.4 461.645 6.96 462.905 6.96C464.805 6.96 465.745 7.9 465.745 9.52V9.9H462.705C459.545 9.9 458.445 11.3 458.445 13C458.445 14.84 459.965 16.12 462.365 16.12C464.025 16.12 465.205 15.56 465.845 14.6V16H467.665V9.6C467.665 6.7 466.025 5.3 463.125 5.3ZM462.685 14.64C461.225 14.64 460.345 13.98 460.345 12.92C460.345 12.02 460.885 11.28 462.785 11.28H465.745V12.76C465.265 13.98 464.125 14.64 462.685 14.64ZM471.618 16H473.538V1.16H471.618V16ZM480.644 16.12C483.464 16.12 485.224 14.9 485.224 12.98C485.224 8.86 478.504 10.9 478.504 8.4C478.504 7.56 479.324 6.94 481.004 6.94C482.044 6.94 483.104 7.16 484.064 7.78L484.884 6.26C483.964 5.66 482.404 5.3 481.024 5.3C478.304 5.3 476.604 6.58 476.604 8.48C476.604 12.7 483.304 10.64 483.304 13.02C483.304 13.92 482.564 14.46 480.784 14.46C479.404 14.46 477.964 14 477.064 13.36L476.264 14.88C477.144 15.58 478.884 16.12 480.644 16.12ZM488.504 13.38C487.744 13.38 487.164 13.94 487.164 14.74C487.164 15.34 487.504 15.8 488.004 15.98L487.264 18.96H488.524L489.464 16.18C489.724 15.44 489.804 15.14 489.804 14.74C489.804 13.96 489.264 13.38 488.504 13.38ZM504.086 14C503.686 14.32 503.146 14.5 502.586 14.5C501.526 14.5 500.926 13.86 500.926 12.72V6.98H503.966V5.4H500.926V3.08H499.006V5.4H497.206V6.98H499.006V12.8C499.006 14.94 500.226 16.12 502.366 16.12C503.226 16.12 504.106 15.88 504.686 15.38L504.086 14ZM513.067 5.3C511.447 5.3 510.127 5.88 509.327 6.9V1.16H507.407V16H509.327V10.54C509.327 8.24 510.647 7.02 512.687 7.02C514.507 7.02 515.547 8.04 515.547 10.12V16H517.467V9.9C517.467 6.78 515.647 5.3 513.067 5.3ZM525.281 5.3C523.581 5.3 522.001 5.78 520.901 6.66L521.701 8.1C522.521 7.4 523.801 6.96 525.061 6.96C526.961 6.96 527.901 7.9 527.901 9.52V9.9H524.861C521.701 9.9 520.601 11.3 520.601 13C520.601 14.84 522.121 16.12 524.521 16.12C526.181 16.12 527.361 15.56 528.001 14.6V16H529.821V9.6C529.821 6.7 528.181 5.3 525.281 5.3ZM524.841 14.64C523.381 14.64 522.501 13.98 522.501 12.92C522.501 12.02 523.041 11.28 524.941 11.28H527.901V12.76C527.421 13.98 526.281 14.64 524.841 14.64ZM539.434 5.3C537.754 5.3 536.394 5.92 535.614 7V5.4H533.774V16H535.694V10.54C535.694 8.24 537.014 7.02 539.054 7.02C540.874 7.02 541.914 8.04 541.914 10.12V16H543.834V9.9C543.834 6.78 542.014 5.3 539.434 5.3ZM555.887 16H558.247L553.347 9.78L557.807 5.4H555.487L549.707 10.68V1.16H547.787V16H549.707V13.1L551.907 11.06L555.887 16ZM563.219 16.12C566.039 16.12 567.799 14.9 567.799 12.98C567.799 8.86 561.079 10.9 561.079 8.4C561.079 7.56 561.899 6.94 563.579 6.94C564.619 6.94 565.679 7.16 566.639 7.78L567.459 6.26C566.539 5.66 564.979 5.3 563.599 5.3C560.879 5.3 559.179 6.58 559.179 8.48C559.179 12.7 565.879 10.64 565.879 13.02C565.879 13.92 565.139 14.46 563.359 14.46C561.979 14.46 560.539 14 559.639 13.36L558.839 14.88C559.719 15.58 561.459 16.12 563.219 16.12ZM581.73 14C581.33 14.32 580.79 14.5 580.23 14.5C579.17 14.5 578.57 13.86 578.57 12.72V6.98H581.61V5.4H578.57V3.08H576.65V5.4H574.85V6.98H576.65V12.8C576.65 14.94 577.87 16.12 580.01 16.12C580.87 16.12 581.75 15.88 582.33 15.38L581.73 14ZM589.24 16.12C592.42 16.12 594.74 13.86 594.74 10.7C594.74 7.54 592.42 5.3 589.24 5.3C586.06 5.3 583.72 7.54 583.72 10.7C583.72 13.86 586.06 16.12 589.24 16.12ZM589.24 14.44C587.2 14.44 585.66 12.96 585.66 10.7C585.66 8.44 587.2 6.98 589.24 6.98C591.28 6.98 592.8 8.44 592.8 10.7C592.8 12.96 591.28 14.44 589.24 14.44ZM6.36 48.12C9.54 48.12 11.86 45.86 11.86 42.7C11.86 39.54 9.54 37.3 6.36 37.3C3.18 37.3 0.84 39.54 0.84 42.7C0.84 45.86 3.18 48.12 6.36 48.12ZM6.36 46.44C4.32 46.44 2.78 44.96 2.78 42.7C2.78 40.44 4.32 38.98 6.36 38.98C8.4 38.98 9.92 40.44 9.92 42.7C9.92 44.96 8.4 46.44 6.36 46.44ZM22.8753 37.4V42.88C22.8753 45.16 21.5953 46.4 19.5953 46.4C17.7753 46.4 16.7353 45.36 16.7353 43.28V37.4H14.8153V43.5C14.8153 46.62 16.6353 48.12 19.3753 48.12C20.8753 48.12 22.1953 47.5 22.9753 46.4V48H24.7953V37.4H22.8753ZM30.6905 39.18V37.4H28.8505V48H30.7705V42.72C30.7705 40.4 32.0505 39.14 34.1105 39.14C34.2505 39.14 34.3905 39.14 34.5505 39.16V37.3C32.6905 37.3 31.3705 37.94 30.6905 39.18ZM47.8447 48.12C49.7447 48.12 51.3247 47.32 52.1647 45.84L50.7047 44.92C50.0247 45.96 48.9847 46.44 47.8247 46.44C45.7447 46.44 44.1847 45 44.1847 42.7C44.1847 40.44 45.7447 38.98 47.8247 38.98C48.9847 38.98 50.0247 39.46 50.7047 40.5L52.1647 39.56C51.3247 38.08 49.7447 37.3 47.8447 37.3C44.5847 37.3 42.2447 39.54 42.2447 42.7C42.2447 45.86 44.5847 48.12 47.8447 48.12ZM54.9138 48H56.8338V33.16H54.9138V48ZM61.8597 35.36C62.6197 35.36 63.1597 34.8 63.1597 34.08C63.1597 33.4 62.5997 32.86 61.8597 32.86C61.1197 32.86 60.5597 33.42 60.5597 34.12C60.5597 34.82 61.1197 35.36 61.8597 35.36ZM60.8997 48H62.8197V37.4H60.8997V48ZM72.5456 37.3C70.8656 37.3 69.5056 37.92 68.7256 39V37.4H66.8856V48H68.8056V42.54C68.8056 40.24 70.1256 39.02 72.1656 39.02C73.9856 39.02 75.0256 40.04 75.0256 42.12V48H76.9456V41.9C76.9456 38.78 75.1256 37.3 72.5456 37.3ZM81.8589 35.36C82.6189 35.36 83.1589 34.8 83.1589 34.08C83.1589 33.4 82.5989 32.86 81.8589 32.86C81.1189 32.86 80.5589 33.42 80.5589 34.12C80.5589 34.82 81.1189 35.36 81.8589 35.36ZM80.8989 48H82.8189V37.4H80.8989V48ZM91.5048 48.12C93.4048 48.12 94.9848 47.32 95.8248 45.84L94.3648 44.92C93.6848 45.96 92.6448 46.44 91.4848 46.44C89.4048 46.44 87.8448 45 87.8448 42.7C87.8448 40.44 89.4048 38.98 91.4848 38.98C92.6448 38.98 93.6848 39.46 94.3648 40.5L95.8248 39.56C94.9848 38.08 93.4048 37.3 91.5048 37.3C88.2448 37.3 85.9048 39.54 85.9048 42.7C85.9048 45.86 88.2448 48.12 91.5048 48.12ZM102.571 37.3C100.871 37.3 99.2906 37.78 98.1906 38.66L98.9906 40.1C99.8106 39.4 101.091 38.96 102.351 38.96C104.251 38.96 105.191 39.9 105.191 41.52V41.9H102.151C98.9906 41.9 97.8906 43.3 97.8906 45C97.8906 46.84 99.4106 48.12 101.811 48.12C103.471 48.12 104.651 47.56 105.291 46.6V48H107.111V41.6C107.111 38.7 105.471 37.3 102.571 37.3ZM102.131 46.64C100.671 46.64 99.7906 45.98 99.7906 44.92C99.7906 44.02 100.331 43.28 102.231 43.28H105.191V44.76C104.711 45.98 103.571 46.64 102.131 46.64ZM111.064 48H112.984V33.16H111.064V48ZM132.401 42.76C132.401 39.5 130.221 37.3 127.161 37.3C124.101 37.3 121.841 39.56 121.841 42.7C121.841 45.86 124.121 48.12 127.541 48.12C129.301 48.12 130.761 47.52 131.721 46.4L130.661 45.16C129.881 46.02 128.841 46.44 127.601 46.44C125.501 46.44 124.001 45.2 123.761 43.34H132.361C132.381 43.16 132.401 42.92 132.401 42.76ZM127.161 38.92C129.021 38.92 130.361 40.18 130.561 41.96H123.761C123.961 40.16 125.321 38.92 127.161 38.92ZM144.114 48L139.894 42.58L143.894 37.4H141.794L138.894 41.22L135.974 37.4H133.834L137.814 42.58L133.634 48H135.774L138.874 43.94L141.934 48H144.114ZM150.878 48.12C152.778 48.12 154.358 47.32 155.198 45.84L153.738 44.92C153.058 45.96 152.018 46.44 150.858 46.44C148.778 46.44 147.218 45 147.218 42.7C147.218 40.44 148.778 38.98 150.858 38.98C152.018 38.98 153.058 39.46 153.738 40.5L155.198 39.56C154.358 38.08 152.778 37.3 150.878 37.3C147.618 37.3 145.278 39.54 145.278 42.7C145.278 45.86 147.618 48.12 150.878 48.12ZM167.507 42.76C167.507 39.5 165.327 37.3 162.267 37.3C159.207 37.3 156.947 39.56 156.947 42.7C156.947 45.86 159.227 48.12 162.647 48.12C164.407 48.12 165.867 47.52 166.827 46.4L165.767 45.16C164.987 46.02 163.947 46.44 162.707 46.44C160.607 46.44 159.107 45.2 158.867 43.34H167.467C167.487 43.16 167.507 42.92 167.507 42.76ZM162.267 38.92C164.127 38.92 165.467 40.18 165.667 41.96H158.867C159.067 40.16 160.427 38.92 162.267 38.92ZM170.573 48H172.493V33.16H170.573V48ZM176.559 48H178.479V33.16H176.559V48ZM192.125 42.76C192.125 39.5 189.945 37.3 186.885 37.3C183.825 37.3 181.565 39.56 181.565 42.7C181.565 45.86 183.845 48.12 187.265 48.12C189.025 48.12 190.485 47.52 191.445 46.4L190.385 45.16C189.605 46.02 188.565 46.44 187.325 46.44C185.225 46.44 183.725 45.2 183.485 43.34H192.085C192.105 43.16 192.125 42.92 192.125 42.76ZM186.885 38.92C188.745 38.92 190.085 40.18 190.285 41.96H183.485C183.685 40.16 185.045 38.92 186.885 38.92ZM200.851 37.3C199.171 37.3 197.811 37.92 197.031 39V37.4H195.191V48H197.111V42.54C197.111 40.24 198.431 39.02 200.471 39.02C202.291 39.02 203.331 40.04 203.331 42.12V48H205.251V41.9C205.251 38.78 203.431 37.3 200.851 37.3ZM213.883 48.12C215.783 48.12 217.363 47.32 218.203 45.84L216.743 44.92C216.063 45.96 215.023 46.44 213.863 46.44C211.783 46.44 210.223 45 210.223 42.7C210.223 40.44 211.783 38.98 213.863 38.98C215.023 38.98 216.063 39.46 216.743 40.5L218.203 39.56C217.363 38.08 215.783 37.3 213.883 37.3C210.623 37.3 208.283 39.54 208.283 42.7C208.283 45.86 210.623 48.12 213.883 48.12ZM230.513 42.76C230.513 39.5 228.333 37.3 225.273 37.3C222.213 37.3 219.953 39.56 219.953 42.7C219.953 45.86 222.233 48.12 225.653 48.12C227.413 48.12 228.873 47.52 229.833 46.4L228.773 45.16C227.993 46.02 226.953 46.44 225.713 46.44C223.613 46.44 222.113 45.2 221.873 43.34H230.473C230.493 43.16 230.513 42.92 230.513 42.76ZM225.273 38.92C227.133 38.92 228.473 40.18 228.673 41.96H221.873C222.073 40.16 223.433 38.92 225.273 38.92ZM234.059 45.38C233.299 45.38 232.719 45.94 232.719 46.74C232.719 47.34 233.059 47.8 233.559 47.98L232.819 50.96H234.079L235.019 48.18C235.279 47.44 235.359 47.14 235.359 46.74C235.359 45.96 234.819 45.38 234.059 45.38ZM249.901 37.3C248.341 37.3 246.981 37.9 246.121 39.08V37.4H244.281V51.88H246.201V46.4C247.081 47.54 248.401 48.12 249.901 48.12C253.001 48.12 255.261 45.96 255.261 42.7C255.261 39.46 253.001 37.3 249.901 37.3ZM249.741 46.44C247.721 46.44 246.181 44.96 246.181 42.7C246.181 40.46 247.721 38.98 249.741 38.98C251.781 38.98 253.321 40.46 253.321 42.7C253.321 44.96 251.781 46.44 249.741 46.44ZM262.076 37.3C260.376 37.3 258.796 37.78 257.696 38.66L258.496 40.1C259.316 39.4 260.596 38.96 261.856 38.96C263.756 38.96 264.696 39.9 264.696 41.52V41.9H261.656C258.496 41.9 257.396 43.3 257.396 45C257.396 46.84 258.916 48.12 261.316 48.12C262.976 48.12 264.156 47.56 264.796 46.6V48H266.616V41.6C266.616 38.7 264.976 37.3 262.076 37.3ZM261.636 46.64C260.176 46.64 259.296 45.98 259.296 44.92C259.296 44.02 259.836 43.28 261.736 43.28H264.696V44.76C264.216 45.98 263.076 46.64 261.636 46.64ZM275.929 46C275.529 46.32 274.989 46.5 274.429 46.5C273.369 46.5 272.769 45.86 272.769 44.72V38.98H275.809V37.4H272.769V35.08H270.849V37.4H269.049V38.98H270.849V44.8C270.849 46.94 272.069 48.12 274.209 48.12C275.069 48.12 275.949 47.88 276.529 47.38L275.929 46ZM280.21 35.36C280.97 35.36 281.51 34.8 281.51 34.08C281.51 33.4 280.95 32.86 280.21 32.86C279.47 32.86 278.91 33.42 278.91 34.12C278.91 34.82 279.47 35.36 280.21 35.36ZM279.25 48H281.17V37.4H279.25V48ZM294.816 42.76C294.816 39.5 292.636 37.3 289.576 37.3C286.516 37.3 284.256 39.56 284.256 42.7C284.256 45.86 286.536 48.12 289.956 48.12C291.716 48.12 293.176 47.52 294.136 46.4L293.076 45.16C292.296 46.02 291.256 46.44 290.016 46.44C287.916 46.44 286.416 45.2 286.176 43.34H294.776C294.796 43.16 294.816 42.92 294.816 42.76ZM289.576 38.92C291.436 38.92 292.776 40.18 292.976 41.96H286.176C286.376 40.16 287.736 38.92 289.576 38.92ZM303.543 37.3C301.863 37.3 300.503 37.92 299.723 39V37.4H297.883V48H299.803V42.54C299.803 40.24 301.123 39.02 303.163 39.02C304.983 39.02 306.023 40.04 306.023 42.12V48H307.943V41.9C307.943 38.78 306.123 37.3 303.543 37.3ZM317.256 46C316.856 46.32 316.316 46.5 315.756 46.5C314.696 46.5 314.096 45.86 314.096 44.72V38.98H317.136V37.4H314.096V35.08H312.176V37.4H310.376V38.98H312.176V44.8C312.176 46.94 313.396 48.12 315.536 48.12C316.396 48.12 317.276 47.88 317.856 47.38L317.256 46ZM330.968 48.12C332.868 48.12 334.448 47.32 335.288 45.84L333.828 44.92C333.148 45.96 332.108 46.44 330.948 46.44C328.868 46.44 327.308 45 327.308 42.7C327.308 40.44 328.868 38.98 330.948 38.98C332.108 38.98 333.148 39.46 333.828 40.5L335.288 39.56C334.448 38.08 332.868 37.3 330.968 37.3C327.708 37.3 325.368 39.54 325.368 42.7C325.368 45.86 327.708 48.12 330.968 48.12ZM347.598 42.76C347.598 39.5 345.418 37.3 342.358 37.3C339.298 37.3 337.038 39.56 337.038 42.7C337.038 45.86 339.318 48.12 342.738 48.12C344.498 48.12 345.958 47.52 346.918 46.4L345.858 45.16C345.078 46.02 344.038 46.44 342.798 46.44C340.698 46.44 339.198 45.2 338.958 43.34H347.558C347.578 43.16 347.598 42.92 347.598 42.76ZM342.358 38.92C344.218 38.92 345.558 40.18 345.758 41.96H338.958C339.158 40.16 340.518 38.92 342.358 38.92ZM356.324 37.3C354.644 37.3 353.284 37.92 352.504 39V37.4H350.664V48H352.584V42.54C352.584 40.24 353.904 39.02 355.944 39.02C357.764 39.02 358.804 40.04 358.804 42.12V48H360.724V41.9C360.724 38.78 358.904 37.3 356.324 37.3ZM370.037 46C369.637 46.32 369.097 46.5 368.537 46.5C367.477 46.5 366.877 45.86 366.877 44.72V38.98H369.917V37.4H366.877V35.08H364.957V37.4H363.157V38.98H364.957V44.8C364.957 46.94 366.177 48.12 368.317 48.12C369.177 48.12 370.057 47.88 370.637 47.38L370.037 46ZM375.198 39.18V37.4H373.358V48H375.278V42.72C375.278 40.4 376.558 39.14 378.618 39.14C378.758 39.14 378.898 39.14 379.058 39.16V37.3C377.198 37.3 375.878 37.94 375.198 39.18ZM382.785 35.36C383.545 35.36 384.085 34.8 384.085 34.08C384.085 33.4 383.525 32.86 382.785 32.86C382.045 32.86 381.485 33.42 381.485 34.12C381.485 34.82 382.045 35.36 382.785 35.36ZM381.825 48H383.745V37.4H381.825V48ZM392.431 48.12C394.331 48.12 395.911 47.32 396.751 45.84L395.291 44.92C394.611 45.96 393.571 46.44 392.411 46.44C390.331 46.44 388.771 45 388.771 42.7C388.771 40.44 390.331 38.98 392.411 38.98C393.571 38.98 394.611 39.46 395.291 40.5L396.751 39.56C395.911 38.08 394.331 37.3 392.431 37.3C389.171 37.3 386.831 39.54 386.831 42.7C386.831 45.86 389.171 48.12 392.431 48.12ZM400.596 35.36C401.356 35.36 401.896 34.8 401.896 34.08C401.896 33.4 401.336 32.86 400.596 32.86C399.856 32.86 399.296 33.42 399.296 34.12C399.296 34.82 399.856 35.36 400.596 35.36ZM399.636 48H401.556V37.4H399.636V48ZM410.982 46C410.582 46.32 410.042 46.5 409.482 46.5C408.422 46.5 407.822 45.86 407.822 44.72V38.98H410.862V37.4H407.822V35.08H405.902V37.4H404.102V38.98H405.902V44.8C405.902 46.94 407.122 48.12 409.262 48.12C410.122 48.12 411.002 47.88 411.582 47.38L410.982 46ZM421.608 37.4L417.948 45.88L414.248 37.4H412.248L416.928 47.98L416.588 48.72C416.068 49.94 415.488 50.36 414.568 50.36C413.848 50.36 413.188 50.08 412.668 49.58L411.848 51.02C412.508 51.66 413.548 52 414.568 52C416.188 52 417.408 51.3 418.348 49.06L423.488 37.4H421.608ZM435.311 37.3C433.611 37.3 432.031 37.78 430.931 38.66L431.731 40.1C432.551 39.4 433.831 38.96 435.091 38.96C436.991 38.96 437.931 39.9 437.931 41.52V41.9H434.891C431.731 41.9 430.631 43.3 430.631 45C430.631 46.84 432.151 48.12 434.551 48.12C436.211 48.12 437.391 47.56 438.031 46.6V48H439.851V41.6C439.851 38.7 438.211 37.3 435.311 37.3ZM434.871 46.64C433.411 46.64 432.531 45.98 432.531 44.92C432.531 44.02 433.071 43.28 434.971 43.28H437.931V44.76C437.451 45.98 436.311 46.64 434.871 46.64ZM449.464 37.3C447.784 37.3 446.424 37.92 445.644 39V37.4H443.804V48H445.724V42.54C445.724 40.24 447.044 39.02 449.084 39.02C450.904 39.02 451.944 40.04 451.944 42.12V48H453.864V41.9C453.864 38.78 452.044 37.3 449.464 37.3ZM465.956 33.16V39C465.076 37.86 463.756 37.3 462.256 37.3C459.156 37.3 456.896 39.46 456.896 42.7C456.896 45.94 459.156 48.12 462.256 48.12C463.816 48.12 465.176 47.52 466.036 46.32V48H467.876V33.16H465.956ZM462.416 46.44C460.376 46.44 458.836 44.96 458.836 42.7C458.836 40.44 460.376 38.98 462.416 38.98C464.436 38.98 465.976 40.44 465.976 42.7C465.976 44.96 464.436 46.44 462.416 46.44ZM487.26 42.76C487.26 39.5 485.08 37.3 482.02 37.3C478.96 37.3 476.7 39.56 476.7 42.7C476.7 45.86 478.98 48.12 482.4 48.12C484.16 48.12 485.62 47.52 486.58 46.4L485.52 45.16C484.74 46.02 483.7 46.44 482.46 46.44C480.36 46.44 478.86 45.2 478.62 43.34H487.22C487.24 43.16 487.26 42.92 487.26 42.76ZM482.02 38.92C483.88 38.92 485.22 40.18 485.42 41.96H478.62C478.82 40.16 480.18 38.92 482.02 38.92ZM495.686 46C495.286 46.32 494.746 46.5 494.186 46.5C493.126 46.5 492.526 45.86 492.526 44.72V38.98H495.566V37.4H492.526V35.08H490.606V37.4H488.806V38.98H490.606V44.8C490.606 46.94 491.826 48.12 493.966 48.12C494.826 48.12 495.706 47.88 496.286 47.38L495.686 46ZM504.668 37.3C503.048 37.3 501.728 37.88 500.928 38.9V33.16H499.008V48H500.928V42.54C500.928 40.24 502.248 39.02 504.288 39.02C506.108 39.02 507.148 40.04 507.148 42.12V48H509.068V41.9C509.068 38.78 507.248 37.3 504.668 37.3ZM513.981 35.36C514.741 35.36 515.281 34.8 515.281 34.08C515.281 33.4 514.721 32.86 513.981 32.86C513.241 32.86 512.681 33.42 512.681 34.12C512.681 34.82 513.241 35.36 513.981 35.36ZM513.021 48H514.941V37.4H513.021V48ZM523.627 48.12C525.527 48.12 527.107 47.32 527.947 45.84L526.487 44.92C525.807 45.96 524.767 46.44 523.607 46.44C521.527 46.44 519.967 45 519.967 42.7C519.967 40.44 521.527 38.98 523.607 38.98C524.767 38.98 525.807 39.46 526.487 40.5L527.947 39.56C527.107 38.08 525.527 37.3 523.627 37.3C520.367 37.3 518.027 39.54 518.027 42.7C518.027 45.86 520.367 48.12 523.627 48.12ZM534.693 37.3C532.993 37.3 531.413 37.78 530.313 38.66L531.113 40.1C531.933 39.4 533.213 38.96 534.473 38.96C536.373 38.96 537.313 39.9 537.313 41.52V41.9H534.273C531.113 41.9 530.013 43.3 530.013 45C530.013 46.84 531.533 48.12 533.933 48.12C535.593 48.12 536.773 47.56 537.413 46.6V48H539.233V41.6C539.233 38.7 537.593 37.3 534.693 37.3ZM534.253 46.64C532.793 46.64 531.913 45.98 531.913 44.92C531.913 44.02 532.453 43.28 534.353 43.28H537.313V44.76C536.833 45.98 535.693 46.64 534.253 46.64ZM543.186 48H545.106V33.16H543.186V48ZM560.563 37.3C559.003 37.3 557.643 37.9 556.783 39.08V37.4H554.943V51.88H556.863V46.4C557.743 47.54 559.063 48.12 560.563 48.12C563.663 48.12 565.923 45.96 565.923 42.7C565.923 39.46 563.663 37.3 560.563 37.3ZM560.403 46.44C558.383 46.44 556.843 44.96 556.843 42.7C556.843 40.46 558.383 38.98 560.403 38.98C562.443 38.98 563.983 40.46 563.983 42.7C563.983 44.96 562.443 46.44 560.403 46.44ZM570.815 39.18V37.4H568.975V48H570.895V42.72C570.895 40.4 572.175 39.14 574.235 39.14C574.375 39.14 574.515 39.14 574.675 39.16V37.3C572.815 37.3 571.495 37.94 570.815 39.18ZM581.282 37.3C579.582 37.3 578.002 37.78 576.902 38.66L577.702 40.1C578.522 39.4 579.802 38.96 581.062 38.96C582.962 38.96 583.902 39.9 583.902 41.52V41.9H580.862C577.702 41.9 576.602 43.3 576.602 45C576.602 46.84 578.122 48.12 580.522 48.12C582.182 48.12 583.362 47.56 584.002 46.6V48H585.822V41.6C585.822 38.7 584.182 37.3 581.282 37.3ZM580.842 46.64C579.382 46.64 578.502 45.98 578.502 44.92C578.502 44.02 579.042 43.28 580.942 43.28H583.902V44.76C583.422 45.98 582.282 46.64 580.842 46.64ZM594.454 48.12C596.354 48.12 597.934 47.32 598.774 45.84L597.314 44.92C596.634 45.96 595.594 46.44 594.434 46.44C592.354 46.44 590.794 45 590.794 42.7C590.794 40.44 592.354 38.98 594.434 38.98C595.594 38.98 596.634 39.46 597.314 40.5L598.774 39.56C597.934 38.08 596.354 37.3 594.454 37.3C591.194 37.3 588.854 39.54 588.854 42.7C588.854 45.86 591.194 48.12 594.454 48.12ZM607.157 46C606.757 46.32 606.217 46.5 605.657 46.5C604.597 46.5 603.997 45.86 603.997 44.72V38.98H607.037V37.4H603.997V35.08H602.077V37.4H600.277V38.98H602.077V44.8C602.077 46.94 603.297 48.12 605.437 48.12C606.297 48.12 607.177 47.88 607.757 47.38L607.157 46ZM611.438 35.36C612.198 35.36 612.738 34.8 612.738 34.08C612.738 33.4 612.178 32.86 611.438 32.86C610.698 32.86 610.138 33.42 610.138 34.12C610.138 34.82 610.698 35.36 611.438 35.36ZM610.478 48H612.398V37.4H610.478V48ZM621.084 48.12C622.984 48.12 624.564 47.32 625.404 45.84L623.944 44.92C623.264 45.96 622.224 46.44 621.064 46.44C618.984 46.44 617.424 45 617.424 42.7C617.424 40.44 618.984 38.98 621.064 38.98C622.224 38.98 623.264 39.46 623.944 40.5L625.404 39.56C624.564 38.08 622.984 37.3 621.084 37.3C617.824 37.3 615.484 39.54 615.484 42.7C615.484 45.86 617.824 48.12 621.084 48.12ZM637.713 42.76C637.713 39.5 635.533 37.3 632.473 37.3C629.413 37.3 627.153 39.56 627.153 42.7C627.153 45.86 629.433 48.12 632.853 48.12C634.613 48.12 636.073 47.52 637.033 46.4L635.973 45.16C635.193 46.02 634.153 46.44 632.913 46.44C630.813 46.44 629.313 45.2 629.073 43.34H637.673C637.693 43.16 637.713 42.92 637.713 42.76ZM632.473 38.92C634.333 38.92 635.673 40.18 635.873 41.96H629.073C629.273 40.16 630.633 38.92 632.473 38.92ZM643.819 48.12C646.639 48.12 648.399 46.9 648.399 44.98C648.399 40.86 641.679 42.9 641.679 40.4C641.679 39.56 642.499 38.94 644.179 38.94C645.219 38.94 646.279 39.16 647.239 39.78L648.059 38.26C647.139 37.66 645.579 37.3 644.199 37.3C641.479 37.3 639.779 38.58 639.779 40.48C639.779 44.7 646.479 42.64 646.479 45.02C646.479 45.92 645.739 46.46 643.959 46.46C642.579 46.46 641.139 46 640.239 45.36L639.439 46.88C640.319 47.58 642.059 48.12 643.819 48.12ZM651.659 48.12C652.379 48.12 652.979 47.54 652.979 46.74C652.979 45.94 652.379 45.38 651.659 45.38C650.919 45.38 650.299 45.94 650.299 46.74C650.299 47.54 650.919 48.12 651.659 48.12Z" fill="white"/>
</svg>
