<svg width="100" height="99" viewBox="0 0 100 99" fill="none" xmlns="http://www.w3.org/2000/svg">
<g filter="url(#filter0_d)">
<rect x="24" y="20.001" width="52" height="51" rx="25.5" fill="white"/>
<g clip-path="url(#clip0)">
<path d="M50.9569 35.3807C50.6203 35.3807 50.3482 35.11 50.3482 34.7765C50.3482 33.9126 49.6397 33.2093 48.7699 33.2093C47.9 33.2093 47.1915 33.9126 47.1915 34.7765C47.1915 35.11 46.9188 35.3807 46.5828 35.3807C46.2468 35.3807 45.9741 35.11 45.9741 34.7765C45.9741 33.2462 47.228 32.001 48.7699 32.001C50.3117 32.001 51.5656 33.2462 51.5656 34.7765C51.5656 35.11 51.2935 35.3807 50.9569 35.3807Z" fill="#295090"/>
<path d="M58.3283 58.6852H58.021C57.831 58.6852 57.6527 58.597 57.537 58.4478L56.9783 57.7216H48.7657C48.6489 57.7216 48.5338 57.6877 48.4352 57.6249L41.7883 53.3613C41.7651 53.3468 41.7426 53.3299 41.7219 53.3118C41.2313 52.8937 40.9136 52.1397 41.3756 51.4721C41.6568 51.0661 42.0853 50.8425 42.582 50.8425C43.047 50.8425 43.4232 51.0347 43.4944 51.0739C45.0478 51.8001 47.871 53.006 48.6927 53.0767C49.1626 53.116 50.1207 53.1674 51.0477 53.1583C50.5145 53.0079 49.932 52.858 49.3896 52.7318C49.3671 52.7263 49.3452 52.7197 49.3233 52.7124C48.5807 52.4484 48.4048 51.8575 48.479 51.4316C48.5831 50.8377 49.1529 50.3538 49.7494 50.3538C50.6034 50.3538 51.7569 50.3538 54.0894 50.3713C55.4322 50.3822 59.7557 51.492 59.7557 52.3977C59.7557 52.426 59.7539 52.4551 59.7497 52.4834L58.9316 58.1668C58.8883 58.4641 58.6315 58.6852 58.3283 58.6852ZM48.9453 56.5132H57.279C57.4689 56.5132 57.6472 56.6014 57.7629 56.7507L57.8822 56.9065L58.4793 52.7553C57.6563 52.3898 55.6842 51.5923 54.079 51.5802C51.7514 51.5627 50.6003 51.5627 49.7488 51.5627C49.7457 51.5639 49.7403 51.5675 49.7348 51.5724C53.5312 52.4605 53.7759 52.9215 53.8934 53.1444C54.0072 53.3595 53.9993 53.6102 53.8745 53.815C53.6767 54.1389 53.3553 54.3678 51.0082 54.3678C50.0379 54.3678 49.0932 54.3249 48.5886 54.2814C47.2793 54.1691 43.3812 52.3566 42.9411 52.1506C42.8681 52.1131 42.7196 52.0521 42.5826 52.0521C42.4852 52.0521 42.4341 52.0787 42.3793 52.1578C42.3708 52.2061 42.4292 52.307 42.4974 52.3783L48.9453 56.5132Z" fill="#295090"/>
<path d="M63.2058 61.001C63.1596 61.001 63.1127 60.9956 63.0664 60.9853L58.1494 59.8362C57.8432 59.7643 57.6423 59.4719 57.6862 59.1631L58.7502 51.7361C58.7733 51.5754 58.8603 51.431 58.9918 51.3349C59.1233 51.2389 59.2889 51.1984 59.4496 51.2244L63.3026 51.8406C63.5972 51.8878 63.8145 52.1403 63.8145 52.4369V60.3968C63.8145 60.5817 63.7293 60.7563 63.5838 60.8705C63.4755 60.9557 63.3416 61.001 63.2058 61.001ZM58.9699 58.7861L62.5971 59.6338V52.9511L59.8683 52.5149L58.9699 58.7861Z" fill="#295090"/>
<path d="M57.1644 49.5617H40.3765C40.0405 49.5617 39.7678 49.2917 39.7678 48.9576V48.8525H38.7799C38.4439 48.8525 38.1712 48.5824 38.1712 48.2483V47.6997H36.7938C36.4578 47.6997 36.1851 47.4296 36.1851 47.0955V45.0208C36.1851 44.6873 36.4578 44.4167 36.7938 44.4167H60.7471C61.0838 44.4167 61.3558 44.6873 61.3558 45.0208V47.0961C61.3558 47.4302 61.0838 47.7003 60.7471 47.7003H59.3691V48.2489C59.3691 48.583 59.097 48.8531 58.7604 48.8531H57.7731V48.9582C57.7731 49.2917 57.5004 49.5617 57.1644 49.5617ZM40.9852 48.3534H56.5557V48.2483C56.5557 47.9142 56.8278 47.6441 57.1644 47.6441H58.1523V47.0955C58.1523 46.762 58.4244 46.4914 58.761 46.4914H60.1391V45.625H37.4024V46.492H38.7799C39.1159 46.492 39.3886 46.7626 39.3886 47.0961V47.6447H40.3765C40.7125 47.6447 40.9852 47.9148 40.9852 48.2489V48.3534Z" fill="#295090"/>
<path d="M38.441 45.6249C38.1044 45.6249 37.8323 45.3542 37.8323 45.0207C37.8365 39.0388 42.7432 34.1723 48.7699 34.1723C54.7972 34.1723 59.7033 39.0388 59.707 45.0207C59.707 45.3542 59.4349 45.6249 59.0989 45.6249C59.0983 45.6249 59.0983 45.6249 59.0983 45.6249C58.7623 45.6249 58.4896 45.3548 58.4896 45.0207C58.4859 39.7052 54.1258 35.38 48.7699 35.38C43.414 35.38 39.0533 39.7052 39.0497 45.0207C39.0491 45.3548 38.777 45.6249 38.441 45.6249Z" fill="#295090"/>
</g>
</g>
<defs>
<filter id="filter0_d" x="0" y="0.000976562" width="100" height="99" filterUnits="userSpaceOnUse" color-interpolation-filters="sRGB">
<feFlood flood-opacity="0" result="BackgroundImageFix"/>
<feColorMatrix in="SourceAlpha" type="matrix" values="0 0 0 0 0 0 0 0 0 0 0 0 0 0 0 0 0 0 127 0"/>
<feOffset dy="4"/>
<feGaussianBlur stdDeviation="12"/>
<feColorMatrix type="matrix" values="0 0 0 0 0 0 0 0 0 0 0 0 0 0 0 0 0 0 0.1 0"/>
<feBlend mode="normal" in2="BackgroundImageFix" result="effect1_dropShadow"/>
<feBlend mode="normal" in="SourceGraphic" in2="effect1_dropShadow" result="shape"/>
</filter>
<clipPath id="clip0">
<rect width="28" height="29" fill="white" transform="translate(36 32.001)"/>
</clipPath>
</defs>
</svg>
