<svg width="102" height="104" viewBox="0 0 102 104" fill="none" xmlns="http://www.w3.org/2000/svg">
<g filter="url(#filter0_d)">
<rect x="24" y="20.001" width="54" height="56" rx="27" fill="white"/>
<g clip-path="url(#clip0)">
<path d="M61.9758 44.8984L62.2378 44.7437C62.4239 44.6347 62.6328 44.5701 62.848 44.5551C62.1807 42.7898 61.1289 41.1951 59.7687 39.8868C58.4086 38.5785 56.7743 37.5894 54.9844 36.9912V37.9809C56.5794 38.5619 58.03 39.4809 59.2367 40.6749C60.4435 41.8689 61.3778 43.3096 61.9758 44.8984Z" fill="#295090"/>
<path d="M40.0243 44.8984C40.6222 43.3096 41.5566 41.8689 42.7633 40.6749C43.9701 39.4809 45.4206 38.5619 47.0157 37.9809V36.9912C45.2258 37.5894 43.5915 38.5785 42.2313 39.8868C40.8712 41.1951 39.8194 42.7898 39.1521 44.5551C39.3673 44.5701 39.5761 44.6347 39.7623 44.7437L40.0243 44.8984Z" fill="#295090"/>
<path d="M61.9758 53.104C61.3778 54.6928 60.4435 56.1335 59.2367 57.3275C58.03 58.5215 56.5794 59.4405 54.9844 60.0215V61.0112C56.7743 60.413 58.4086 59.4239 59.7687 58.1156C61.1288 56.8073 62.1807 55.2126 62.848 53.4473C62.6327 53.4322 62.4239 53.3677 62.2376 53.2587L61.9758 53.104Z" fill="#295090"/>
<path d="M40.0243 53.104L39.7624 53.2587C39.5762 53.3677 39.3673 53.4322 39.1521 53.4473C39.8194 55.2126 40.8712 56.8073 42.2314 58.1156C43.5915 59.4239 45.2258 60.413 47.0157 61.0112V60.0215C45.4206 59.4405 43.9701 58.5215 42.7633 57.3275C41.5566 56.1335 40.6222 54.6928 40.0243 53.104Z" fill="#295090"/>
<path d="M48.1834 39.4433L50.7615 40.967C50.8339 41.0093 50.9162 41.0316 51 41.0316C51.0838 41.0316 51.1661 41.0093 51.2385 40.967L53.8166 39.4433C53.8868 39.4019 53.9449 39.3429 53.9853 39.2721C54.0257 39.2014 54.0469 39.1213 54.0469 39.0398V35.9932C54.0469 35.9117 54.0257 35.8316 53.9853 35.7608C53.9449 35.6901 53.8868 35.6311 53.8166 35.5896L51.2385 34.0662C51.1663 34.0235 51.0839 34.001 51 34.001C50.9161 34.001 50.8337 34.0235 50.7615 34.0662L48.1834 35.5896C48.1132 35.6311 48.0551 35.6901 48.0147 35.7608C47.9743 35.8316 47.9531 35.9117 47.9531 35.9932V39.0398C47.9531 39.1213 47.9743 39.2014 48.0147 39.2721C48.0551 39.3429 48.1132 39.4019 48.1834 39.4433ZM48.8906 36.2605L51 35.0142L53.1094 36.2605V38.7725L51 40.019L48.8906 38.7725V36.2605Z" fill="#295090"/>
<path d="M53.8166 58.5589L51.2385 57.0354C51.1663 56.9927 51.0839 56.9702 51 56.9702C50.9161 56.9702 50.8337 56.9927 50.7615 57.0354L48.1834 58.5589C48.1132 58.6003 48.0551 58.6593 48.0147 58.7301C47.9743 58.8009 47.9531 58.8809 47.9531 58.9624V62.0092C47.9531 62.0906 47.9743 62.1707 48.0147 62.2415C48.0551 62.3122 48.1132 62.3712 48.1834 62.4127L50.7615 63.9362C50.8338 63.9786 50.9162 64.001 51 64.001C51.0838 64.001 51.1662 63.9786 51.2385 63.9362L53.8166 62.4127C53.8868 62.3712 53.9449 62.3122 53.9853 62.2415C54.0257 62.1707 54.0469 62.0906 54.0469 62.0092V58.9624C54.0469 58.8809 54.0257 58.8009 53.9853 58.7301C53.9449 58.6593 53.8868 58.6003 53.8166 58.5589ZM53.1094 61.7417L51 62.9882L48.8906 61.7417V59.2299L51 57.9835L53.1094 59.2299V61.7417Z" fill="#295090"/>
<path d="M41.8635 50.9281C41.9336 50.8866 41.9918 50.8276 42.0321 50.7568C42.0725 50.6861 42.0938 50.606 42.0938 50.5245V47.4778C42.0938 47.3963 42.0725 47.3162 42.0321 47.2455C41.9918 47.1747 41.9336 47.1157 41.8635 47.0743L39.2854 45.5508C39.2131 45.5081 39.1308 45.4856 39.0469 45.4856C38.963 45.4856 38.8806 45.5081 38.8084 45.5508L36.2303 47.0743C36.1601 47.1157 36.102 47.1747 36.0616 47.2455C36.0212 47.3163 36 47.3963 36 47.4778V50.5245C36 50.606 36.0212 50.6861 36.0616 50.7568C36.102 50.8276 36.1601 50.8866 36.2303 50.9281L38.8084 52.4516C38.8807 52.494 38.963 52.5163 39.0469 52.5163C39.1307 52.5163 39.213 52.494 39.2854 52.4516L41.8635 50.9281ZM36.9375 50.2571V47.7452L39.0469 46.4989L41.1562 47.7452V50.2571L39.0469 51.5036L36.9375 50.2571Z" fill="#295090"/>
<path d="M65.7698 47.0743L63.1916 45.5508C63.1194 45.5081 63.037 45.4856 62.9531 45.4856C62.8692 45.4856 62.7869 45.5081 62.7146 45.5508L60.1365 47.0743C60.0664 47.1157 60.0082 47.1747 59.9679 47.2455C59.9275 47.3162 59.9062 47.3963 59.9063 47.4778V50.5245C59.9062 50.606 59.9275 50.6861 59.9679 50.7568C60.0082 50.8276 60.0664 50.8866 60.1365 50.9281L62.7146 52.4516C62.787 52.494 62.8693 52.5164 62.9531 52.5164C63.037 52.5164 63.1193 52.494 63.1916 52.4516L65.7698 50.9281C65.8399 50.8866 65.898 50.8276 65.9384 50.7568C65.9788 50.6861 66 50.606 66 50.5245V47.4778C66 47.3963 65.9788 47.3162 65.9384 47.2455C65.898 47.1747 65.8399 47.1157 65.7698 47.0743ZM65.0625 50.2571L62.9531 51.5036L60.8438 50.2571V47.7452L62.9531 46.4989L65.0625 47.7452V50.2571Z" fill="#295090"/>
<path d="M53.5781 45.4856C53.5781 44.9757 53.4269 44.4772 53.1436 44.0533C52.8603 43.6293 52.4577 43.2989 51.9866 43.1037C51.5155 42.9086 50.9971 42.8575 50.497 42.957C49.9969 43.0565 49.5375 43.302 49.177 43.6626C48.8164 44.0231 48.5709 44.4825 48.4714 44.9826C48.3719 45.4827 48.423 46.0011 48.6181 46.4722C48.8133 46.9433 49.1437 47.3459 49.5677 47.6292C49.9916 47.9125 50.4901 48.0637 51 48.0637C51.6835 48.0629 52.3388 47.7911 52.8222 47.3078C53.3055 46.8244 53.5774 46.1691 53.5781 45.4856ZM51 47.1262C50.6755 47.1262 50.3583 47.03 50.0885 46.8497C49.8187 46.6695 49.6084 46.4132 49.4843 46.1134C49.3601 45.8137 49.3276 45.4838 49.3909 45.1655C49.4542 44.8473 49.6105 44.5549 49.8399 44.3255C50.0693 44.0961 50.3617 43.9398 50.6799 43.8765C50.9982 43.8132 51.3281 43.8457 51.6278 43.9699C51.9276 44.094 52.1839 44.3043 52.3641 44.5741C52.5444 44.8439 52.6406 45.1611 52.6406 45.4856C52.6401 45.9206 52.4671 46.3376 52.1596 46.6452C51.852 46.9527 51.435 47.1257 51 47.1262Z" fill="#295090"/>
<path d="M53.1336 48.9341C53.1063 49.0158 53.102 49.1035 53.1212 49.1875C53.1404 49.2715 53.1825 49.3486 53.2427 49.4102L53.8978 50.0814L53.7421 51.0352C53.728 51.122 53.7386 51.211 53.7726 51.2921C53.8067 51.3732 53.8629 51.4431 53.9348 51.4937C54.0067 51.5444 54.0914 51.5738 54.1793 51.5786C54.2671 51.5834 54.3545 51.5634 54.4315 51.5209L55.2187 51.0858L56.006 51.5209C56.083 51.5634 56.1704 51.5834 56.2582 51.5786C56.346 51.5738 56.4307 51.5444 56.5026 51.4937C56.5746 51.4431 56.6308 51.3732 56.6648 51.2921C56.6989 51.211 56.7095 51.122 56.6954 51.0352L56.5397 50.0814L57.1948 49.4102C57.255 49.3486 57.297 49.2715 57.3163 49.1875C57.3355 49.1035 57.3312 49.0158 57.3039 48.9341C57.2765 48.8523 57.2272 48.7797 57.1613 48.7242C57.0953 48.6687 57.0154 48.6325 56.9302 48.6194L56.0439 48.4839L55.6431 47.6301C55.6052 47.5495 55.5452 47.4814 55.4701 47.4337C55.3949 47.3859 55.3078 47.3606 55.2187 47.3606C55.1297 47.3606 55.0425 47.3859 54.9674 47.4337C54.8922 47.4814 54.8322 47.5495 54.7944 47.6301L54.3936 48.4839L53.5073 48.6194C53.4221 48.6325 53.3421 48.6687 53.2762 48.7242C53.2103 48.7797 53.1609 48.8523 53.1336 48.9341ZM54.7825 49.3729C54.8586 49.3613 54.9306 49.3311 54.9923 49.2851C55.0539 49.239 55.1033 49.1785 55.136 49.1088L55.2187 48.9324L55.3015 49.1088C55.3342 49.1785 55.3836 49.239 55.4452 49.2851C55.5069 49.3311 55.5789 49.3613 55.655 49.3729L55.8867 49.4083L55.7036 49.596C55.6524 49.6485 55.6141 49.7123 55.592 49.7822C55.5699 49.8522 55.5646 49.9264 55.5764 49.9988L55.6147 50.2334L55.4454 50.1399C55.376 50.1016 55.298 50.0814 55.2187 50.0814C55.1394 50.0814 55.0614 50.1016 54.992 50.1399L54.8228 50.2334L54.8611 49.9988C54.8729 49.9264 54.8675 49.8522 54.8454 49.7822C54.8233 49.7123 54.7851 49.6485 54.7339 49.596L54.5507 49.4083L54.7825 49.3729Z" fill="#295090"/>
<path d="M49.911 48.8265L49.3682 51.5856C49.3527 51.6645 49.3577 51.746 49.3827 51.8223C49.4078 51.8986 49.452 51.9672 49.5112 52.0215L50.6831 53.0966C50.7696 53.1759 50.8827 53.22 51 53.22C51.1174 53.22 51.2305 53.1759 51.3169 53.0966L52.4888 52.0215C52.548 51.9672 52.5923 51.8986 52.6173 51.8223C52.6424 51.746 52.6474 51.6645 52.6318 51.5856L52.089 48.8265C51.7903 48.9232 51.4799 48.9791 51.1662 48.9927L51.6611 51.5086L51 52.1152L50.3389 51.5086L50.8338 48.9927C50.5202 48.9791 50.2097 48.9232 49.911 48.8265Z" fill="#295090"/>
<path d="M56.1563 53.937V52.512C55.9447 52.5015 55.7383 52.4431 55.5525 52.3413L55.2188 52.1569V53.937C55.2208 54.0554 55.1757 54.1698 55.0935 54.255C55.0113 54.3403 54.8986 54.3895 54.7802 54.3918H47.2198C47.1014 54.3895 46.9888 54.3403 46.9066 54.255C46.8243 54.1698 46.7793 54.0554 46.7813 53.937V50.9007C46.7759 50.341 46.9927 49.8021 47.3841 49.4021C47.7755 49.0021 48.3096 48.7736 48.8693 48.7668H49.7484C49.2427 48.5729 48.7885 48.2649 48.4212 47.8668C47.7003 47.9818 47.0442 48.3508 46.5715 48.9072C46.0988 49.4635 45.8407 50.1706 45.8438 50.9007V53.937C45.8421 54.304 45.986 54.6566 46.2439 54.9176C46.5019 55.1787 46.8528 55.3267 47.2198 55.3293H54.7802C55.1472 55.3267 55.4982 55.1787 55.7561 54.9176C56.0141 54.6566 56.158 54.304 56.1563 53.937Z" fill="#295090"/>
<path d="M52.3349 36.862C52.269 36.7566 52.1639 36.6817 52.0428 36.6537C51.9216 36.6258 51.7944 36.6471 51.689 36.713L50.7445 37.3035L50.4295 36.9068C50.3522 36.8096 50.2394 36.7471 50.116 36.733C49.9925 36.7189 49.8686 36.7544 49.7713 36.8316C49.674 36.9089 49.6113 37.0216 49.5971 37.145C49.5828 37.2684 49.6182 37.3924 49.6953 37.4898L50.2707 38.2144C50.343 38.3038 50.4453 38.3638 50.5585 38.3833C50.6718 38.4028 50.7883 38.3804 50.8863 38.3204L52.1859 37.5079C52.2381 37.4752 52.2833 37.4327 52.3191 37.3825C52.3548 37.3324 52.3803 37.2758 52.3942 37.2158C52.408 37.1558 52.4099 37.0937 52.3997 37.033C52.3895 36.9723 52.3675 36.9141 52.3349 36.862Z" fill="#295090"/>
<path d="M50.4295 59.8756C50.3522 59.7784 50.2394 59.7159 50.116 59.7018C49.9925 59.6877 49.8686 59.7232 49.7713 59.8004C49.674 59.8777 49.6113 59.9904 49.5971 60.1138C49.5828 60.2372 49.6182 60.3612 49.6953 60.4586L50.2707 61.1832C50.3432 61.2722 50.4455 61.332 50.5586 61.3514C50.6718 61.3709 50.7881 61.3488 50.8863 61.2892L52.1859 60.4767C52.2911 60.4107 52.3658 60.3056 52.3936 60.1846C52.4214 60.0636 52.4001 59.9365 52.3342 59.8312C52.2684 59.7259 52.1635 59.651 52.0425 59.623C51.9215 59.595 51.7944 59.6161 51.689 59.6818L50.7445 60.2723L50.4295 59.8756Z" fill="#295090"/>
<path d="M39.7359 48.1974L38.7915 48.7879L38.4765 48.3913C38.3992 48.2939 38.2864 48.2312 38.1629 48.217C38.0394 48.2028 37.9153 48.2383 37.8179 48.3156C37.7205 48.3929 37.6579 48.5057 37.6437 48.6292C37.6295 48.7528 37.665 48.8768 37.7423 48.9742L38.3177 49.6989C38.3901 49.7879 38.4924 49.8477 38.6056 49.8672C38.7188 49.8867 38.8352 49.8645 38.9332 49.8048L40.2329 48.9923C40.338 48.9263 40.4128 48.8213 40.4406 48.7002C40.4684 48.5792 40.447 48.4521 40.3812 48.3468C40.3154 48.2415 40.2105 48.1666 40.0895 48.1386C39.9685 48.1106 39.8413 48.1317 39.7359 48.1974Z" fill="#295090"/>
<path d="M62.3827 48.3913C62.3053 48.2941 62.1925 48.2315 62.0691 48.2174C61.9457 48.2033 61.8217 48.2388 61.7244 48.316C61.6271 48.3933 61.5645 48.506 61.5502 48.6294C61.536 48.7528 61.5713 48.8768 61.6484 48.9742L62.2238 49.6989C62.2963 49.7879 62.3986 49.8476 62.5118 49.8671C62.6249 49.8866 62.7413 49.8645 62.8394 49.8048L64.139 48.9923C64.1913 48.9597 64.2367 48.9172 64.2725 48.867C64.3083 48.8169 64.3339 48.7602 64.3478 48.7002C64.3617 48.6401 64.3636 48.578 64.3535 48.5172C64.3433 48.4564 64.3213 48.3982 64.2886 48.346C64.256 48.2937 64.2133 48.2485 64.1631 48.2127C64.113 48.1769 64.0562 48.1514 63.9962 48.1376C63.9361 48.1238 63.8739 48.122 63.8132 48.1323C63.7524 48.1425 63.6943 48.1647 63.6421 48.1974L62.6976 48.7879L62.3827 48.3913Z" fill="#295090"/>
</g>
</g>
<defs>
<filter id="filter0_d" x="0" y="0.000976562" width="102" height="104" filterUnits="userSpaceOnUse" color-interpolation-filters="sRGB">
<feFlood flood-opacity="0" result="BackgroundImageFix"/>
<feColorMatrix in="SourceAlpha" type="matrix" values="0 0 0 0 0 0 0 0 0 0 0 0 0 0 0 0 0 0 127 0"/>
<feOffset dy="4"/>
<feGaussianBlur stdDeviation="12"/>
<feColorMatrix type="matrix" values="0 0 0 0 0 0 0 0 0 0 0 0 0 0 0 0 0 0 0.1 0"/>
<feBlend mode="normal" in2="BackgroundImageFix" result="effect1_dropShadow"/>
<feBlend mode="normal" in="SourceGraphic" in2="effect1_dropShadow" result="shape"/>
</filter>
<clipPath id="clip0">
<rect width="30" height="30" fill="white" transform="translate(36 34.001)"/>
</clipPath>
</defs>
</svg>
